<svg width="34" height="36" viewBox="0 0 34 36" fill="none" xmlns="http://www.w3.org/2000/svg">
<path d="M15.7601 36C15.6661 35.9586 15.572 35.906 15.478 35.8768C14.301 35.4895 13.6401 34.3567 13.8648 33.1101C14.0688 31.982 15.1434 31.1529 16.3392 31.2093C16.8863 31.2354 17.4079 31.4485 17.8169 31.8129C18.2258 32.1774 18.4973 32.6711 18.586 33.2117C18.7984 34.5804 17.8565 35.6305 16.9606 35.8768C16.8637 35.9109 16.7694 35.9521 16.6785 36H15.7601ZM15.0418 33.6074C15.0307 33.7686 15.0528 33.9303 15.1067 34.0826C15.1607 34.2349 15.2455 34.3744 15.3557 34.4925C15.4659 34.6106 15.5992 34.7048 15.7474 34.7692C15.8956 34.8336 16.0554 34.8668 16.2169 34.8668C16.3785 34.8668 16.5383 34.8336 16.6865 34.7692C16.8346 34.7048 16.968 34.6106 17.0782 34.4925C17.1884 34.3744 17.2731 34.2349 17.3271 34.0826C17.3811 33.9303 17.4032 33.7686 17.3921 33.6074C17.4032 33.4463 17.3811 33.2845 17.3271 33.1323C17.2731 32.98 17.1884 32.8405 17.0782 32.7224C16.968 32.6042 16.8346 32.5101 16.6865 32.4457C16.5383 32.3813 16.3785 32.348 16.2169 32.348C16.0554 32.348 15.8956 32.3813 15.7474 32.4457C15.5992 32.5101 15.4659 32.6042 15.3557 32.7224C15.2455 32.8405 15.1607 32.98 15.1067 33.1323C15.0528 33.2845 15.0307 33.4463 15.0418 33.6074V33.6074Z" fill="black"/>
<path d="M28.6588 7.16065C30.9639 7.16065 32.9926 8.68737 33.5191 10.827C33.6544 11.3779 33.7259 11.9354 33.4786 12.4788C33.144 13.2139 32.3891 13.5571 31.4885 13.4715C29.5096 13.2835 27.1847 11.0329 27.3116 8.70993C27.3257 8.45234 27.3116 8.19382 27.3116 7.93623C27.3238 7.40414 27.5579 7.17381 28.0938 7.16253C28.2837 7.15689 28.4717 7.16065 28.6588 7.16065ZM28.5789 8.41756C28.3984 10.0477 29.2886 11.063 30.5023 11.847C30.883 12.0924 31.3963 12.1554 31.8598 12.2447C32.1898 12.3096 32.4304 12.0567 32.4145 11.7258C32.4019 11.5041 32.3704 11.284 32.3204 11.0677C32.1324 10.2019 31.5223 9.63028 30.8934 9.08033C30.2297 8.50687 29.4513 8.33577 28.5789 8.41756Z" fill="black"/>
<path d="M6.04849 12.0333C6.04849 13.1943 5.73544 14.2322 4.94294 15.1008C4.16736 15.9469 3.07779 15.9629 2.29751 15.1262C1.58022 14.3572 1.2305 13.4406 1.19478 12.3915C1.16 11.3714 1.19478 10.3543 1.81712 9.49596C2.22513 8.9319 2.73278 8.43553 3.22163 7.93352C3.26766 7.88241 3.32354 7.84112 3.38593 7.81215C3.44832 7.78317 3.51591 7.7671 3.58466 7.76491C3.65342 7.76271 3.7219 7.77444 3.78601 7.79937C3.85012 7.82431 3.90852 7.86194 3.95772 7.91002C4.87901 8.71004 5.71758 9.57493 5.93192 10.8459C6.00149 11.2314 6.01653 11.6319 6.04849 12.0333ZM3.60424 9.26657C2.87567 9.8861 2.45827 10.6344 2.41596 11.5801C2.37178 12.5447 2.44887 13.4707 3.13702 14.2387C3.46417 14.6026 3.71894 14.5932 4.06959 14.2453C5.04917 13.2686 5.22027 10.4483 3.60612 9.26187L3.60424 9.26657Z" fill="black"/>
<path d="M21.1133 7.49622C21.3953 7.49622 21.6774 7.48494 21.9594 7.49622C22.2715 7.51127 22.4858 7.70493 22.4999 7.9973C22.5582 9.15925 22.6015 10.3344 21.8917 11.3506C21.0823 12.5098 20.098 13.4498 18.6352 13.7281C17.5701 13.9302 16.7315 13.5918 16.3696 12.7824C16.0988 12.1788 16.1994 11.5603 16.3696 10.9624C16.9468 8.93739 18.9342 7.48682 21.1133 7.49622ZM21.2844 8.70425C20.3735 8.6469 19.5631 8.83962 18.874 9.45632C18.1163 10.1332 17.4639 10.8665 17.4422 11.9589C17.4328 12.4139 17.6303 12.6028 18.0824 12.5662C18.716 12.5211 19.3187 12.2751 19.8028 11.8639C20.7702 11.047 21.4339 10.0918 21.2844 8.70425V8.70425Z" fill="black"/>
<path d="M3.01729 27.2017C3.01729 26.9093 3.00695 26.616 3.01729 26.3236C3.02763 26.0313 3.20531 25.8301 3.4676 25.816C4.61545 25.7539 5.78211 25.6863 6.79741 26.3706C8.0139 27.1904 8.98219 28.2048 9.25388 29.7277C9.4419 30.7618 9.10347 31.5618 8.31379 31.9313C7.82118 32.1607 7.30506 32.1193 6.80023 32.0122C4.59477 31.5327 3.00789 29.5087 3.01729 27.2017ZM4.22625 27.0137C4.16703 27.9162 4.34941 28.7181 4.94919 29.4034C5.60725 30.1555 6.33583 30.8013 7.40565 30.8643C7.93587 30.8953 8.10979 30.6763 8.08158 30.1508C8.00356 28.7087 6.17507 26.7457 4.23001 27.0118L4.22625 27.0137Z" fill="black"/>
<path d="M21.0863 15.3037C21.3787 15.3037 21.672 15.2943 21.9644 15.3037C22.2567 15.3131 22.4758 15.5021 22.4918 15.7738C22.5585 16.9235 22.6093 18.0892 21.9221 19.1008C21.1061 20.3022 20.0992 21.263 18.5904 21.5366C17.5469 21.7246 16.7102 21.3815 16.3623 20.5796C16.0982 19.976 16.1978 19.3574 16.3708 18.7586C16.9527 16.744 18.9297 15.2925 21.0863 15.3037ZM21.3025 16.5183C20.3512 16.4469 19.5399 16.6594 18.8517 17.2779C18.1128 17.9416 17.4782 18.6627 17.4416 19.7288C17.4256 20.2392 17.6371 20.4141 18.1542 20.3662C19.2823 20.2627 20.0184 19.5643 20.683 18.7511C21.2123 18.108 21.3298 17.3484 21.3025 16.5183V16.5183Z" fill="black"/>
<path d="M27.639 4.77379C27.639 6.07676 26.5212 7.19453 25.2192 7.18795C23.9172 7.18137 22.7947 6.05984 22.8097 4.76345C22.8235 4.13127 23.0846 3.52971 23.537 3.08796C23.9895 2.64622 24.5971 2.39953 25.2294 2.40088C25.8617 2.40224 26.4683 2.65153 26.9188 3.09521C27.3694 3.53889 27.6279 4.14156 27.639 4.77379V4.77379ZM26.4028 4.77379C26.4028 4.46138 26.2787 4.16177 26.0578 3.94086C25.8368 3.71995 25.5372 3.59585 25.2248 3.59585C24.9124 3.59585 24.6128 3.71995 24.3919 3.94086C24.171 4.16177 24.0469 4.46138 24.0469 4.77379C24.0469 5.0862 24.171 5.38581 24.3919 5.60672C24.6128 5.82762 24.9124 5.95173 25.2248 5.95173C25.5372 5.95173 25.8368 5.82762 26.0578 5.60672C26.2787 5.38581 26.4028 5.0862 26.4028 4.77379V4.77379Z" fill="black"/>
<path d="M10.695 10.7904C11.9661 10.687 13.113 11.7108 13.2154 13.0391C13.3095 14.3176 12.2857 15.4834 10.978 15.583C9.63744 15.6817 8.50933 14.6946 8.4172 13.2704C8.40104 12.9573 8.44743 12.6441 8.55365 12.3492C8.65987 12.0542 8.82381 11.7834 9.03587 11.5525C9.24794 11.3217 9.50388 11.1353 9.78876 11.0045C10.0736 10.8736 10.3817 10.8008 10.695 10.7904V10.7904ZM10.8107 11.9984C10.6557 11.9964 10.5018 12.0253 10.3581 12.0835C10.2143 12.1416 10.0837 12.2278 9.97364 12.3371C9.86362 12.4463 9.77647 12.5764 9.71729 12.7197C9.65812 12.863 9.6281 13.0166 9.62898 13.1717C9.62675 13.4065 9.69438 13.6368 9.8233 13.8331C9.95221 14.0294 10.1366 14.183 10.353 14.2743C10.5694 14.3656 10.808 14.3905 11.0386 14.3459C11.2692 14.3012 11.4813 14.189 11.648 14.0235C11.8147 13.858 11.9284 13.6467 11.9747 13.4165C12.021 13.1862 11.9978 12.9474 11.9081 12.7303C11.8183 12.5133 11.6661 12.3278 11.4707 12.1975C11.2753 12.0672 11.0456 11.9979 10.8107 11.9984V11.9984Z" fill="black"/>
<path d="M21.6084 22.787C21.6196 22.155 21.8782 21.5526 22.3286 21.1092C22.779 20.6658 23.3854 20.4168 24.0175 20.4155C24.6495 20.4143 25.2569 20.661 25.7091 21.1027C26.1612 21.5443 26.4221 22.1457 26.4358 22.7776C26.4546 24.073 25.3396 25.1936 24.0263 25.1983C23.3883 25.1915 22.7782 24.9355 22.3264 24.4849C21.8746 24.0344 21.617 23.425 21.6084 22.787V22.787ZM25.2014 22.7954C25.2024 22.5613 25.1337 22.3321 25.0042 22.1371C24.8747 21.942 24.6901 21.7898 24.4739 21.6998C24.2577 21.6098 24.0197 21.5861 23.79 21.6316C23.5603 21.6771 23.3493 21.7899 23.1838 21.9555C23.0183 22.1211 22.9058 22.3322 22.8604 22.562C22.8151 22.7917 22.839 23.0297 22.9292 23.2458C23.0193 23.4619 23.1717 23.6463 23.3668 23.7757C23.562 23.9051 23.7912 23.9736 24.0254 23.9724C24.1804 23.9741 24.3341 23.9448 24.4776 23.8862C24.6211 23.8276 24.7514 23.7409 24.861 23.6313C24.9705 23.5217 25.0571 23.3913 25.1155 23.2477C25.174 23.1042 25.2032 22.9504 25.2014 22.7954V22.7954Z" fill="black"/>
<path d="M12.0166 26.3781C12.022 25.7442 12.2758 25.1377 12.7235 24.6889C13.1712 24.2402 13.7771 23.9849 14.411 23.978C15.7272 23.9724 16.8205 25.0789 16.8148 26.4082C16.8254 26.731 16.7708 27.0526 16.6541 27.3537C16.5374 27.6548 16.3611 27.9293 16.1358 28.1607C15.9105 28.3921 15.6408 28.5756 15.3429 28.7002C15.0449 28.8248 14.7249 28.888 14.402 28.886C14.079 28.884 13.7598 28.8168 13.4635 28.6884C13.1671 28.56 12.8997 28.3732 12.6773 28.139C12.455 27.9048 12.2821 27.6281 12.1692 27.3256C12.0564 27.023 12.0057 26.7007 12.0204 26.3781H12.0166ZM14.3997 27.5692C14.5592 27.5808 14.7193 27.5597 14.8703 27.5074C15.0213 27.4551 15.1601 27.3725 15.2782 27.2648C15.3962 27.157 15.4911 27.0264 15.557 26.8808C15.623 26.7352 15.6586 26.5777 15.6616 26.4179C15.6647 26.2581 15.6352 26.0993 15.5749 25.9513C15.5146 25.8033 15.4248 25.6691 15.3109 25.5569C15.1971 25.4447 15.0616 25.3569 14.9127 25.2988C14.7638 25.2407 14.6046 25.2135 14.4449 25.219C14.2855 25.2074 14.1254 25.2284 13.9743 25.2808C13.8233 25.3331 13.6845 25.4157 13.5665 25.5234C13.4484 25.6311 13.3535 25.7618 13.2876 25.9074C13.2216 26.053 13.186 26.2105 13.183 26.3703C13.1799 26.5301 13.2094 26.6889 13.2697 26.8369C13.33 26.9849 13.4198 27.1191 13.5337 27.2313C13.6475 27.3435 13.783 27.4313 13.9319 27.4894C14.0808 27.5475 14.24 27.5746 14.3997 27.5692V27.5692Z" fill="black"/>
<path d="M4.80765 20.9856C4.80479 21.6193 4.55383 22.2267 4.10854 22.6776C3.66326 23.1285 3.05907 23.3871 2.42545 23.3979C1.78517 23.3976 1.17095 23.1444 0.716623 22.6932C0.2623 22.242 0.00471331 21.6296 0 20.9894C0 19.6629 1.11119 18.5564 2.42168 18.579C3.05538 18.5876 3.66038 18.8445 4.10657 19.2946C4.55276 19.7447 4.8045 20.3519 4.80765 20.9856ZM3.58552 20.9762C3.58528 20.8216 3.55443 20.6686 3.49473 20.526C3.43504 20.3834 3.34769 20.2541 3.23774 20.1455C3.12778 20.0368 2.99739 19.951 2.8541 19.893C2.71081 19.8351 2.55745 19.806 2.40288 19.8077C2.16832 19.8084 1.93927 19.8789 1.74482 20.01C1.55036 20.1412 1.39927 20.3272 1.31073 20.5444C1.22218 20.7617 1.20017 21.0003 1.2475 21.23C1.29482 21.4598 1.40935 21.6703 1.57653 21.8348C1.74371 21.9993 1.95601 22.1105 2.18648 22.1541C2.41695 22.1978 2.65519 22.172 2.87096 22.08C3.08673 21.988 3.2703 21.8339 3.39836 21.6374C3.52642 21.4409 3.5932 21.2107 3.59022 20.9762H3.58552Z" fill="black"/>
<path d="M29.4253 15.5753C29.427 16.0502 29.2876 16.5149 29.0248 16.9104C28.762 17.306 28.3876 17.6145 27.9492 17.797C27.5107 17.9795 27.028 18.0276 26.5621 17.9353C26.0963 17.843 25.6684 17.6144 25.3327 17.2785C24.9969 16.9427 24.7685 16.5147 24.6764 16.0488C24.5843 15.5829 24.6326 15.1002 24.8152 14.6618C24.9979 14.2235 25.3066 13.8492 25.7022 13.5866C26.0979 13.3239 26.5626 13.1847 27.0375 13.1865C27.6709 13.1868 28.2782 13.4386 28.726 13.8865C29.1738 14.3345 29.4253 14.9419 29.4253 15.5753V15.5753ZM27.0525 14.3946C26.816 14.3897 26.5835 14.4553 26.3843 14.583C26.1852 14.7106 26.0285 14.8946 25.9341 15.1115C25.8398 15.3284 25.8121 15.5684 25.8545 15.8012C25.8969 16.0339 26.0075 16.2487 26.1723 16.4184C26.3371 16.5881 26.5486 16.705 26.7799 16.7542C27.0113 16.8034 27.2521 16.7827 27.4717 16.6948C27.6912 16.6068 27.8797 16.4556 28.0132 16.2603C28.1466 16.065 28.219 15.8344 28.2211 15.5979C28.2183 15.2847 28.0948 14.9848 27.8762 14.7605C27.6576 14.5363 27.3608 14.4052 27.0478 14.3946H27.0525Z" fill="black"/>
<path d="M15.0419 33.6073C15.0307 33.4461 15.0528 33.2844 15.1068 33.1321C15.1608 32.9799 15.2455 32.8403 15.3558 32.7222C15.466 32.6041 15.5993 32.5099 15.7475 32.4455C15.8956 32.3811 16.0554 32.3479 16.217 32.3479C16.3786 32.3479 16.5384 32.3811 16.6865 32.4455C16.8347 32.5099 16.968 32.6041 17.0783 32.7222C17.1885 32.8403 17.2732 32.9799 17.3272 33.1321C17.3812 33.2844 17.4033 33.4461 17.3921 33.6073C17.4033 33.7685 17.3812 33.9302 17.3272 34.0825C17.2732 34.2347 17.1885 34.3743 17.0783 34.4924C16.968 34.6105 16.8347 34.7047 16.6865 34.7691C16.5384 34.8335 16.3786 34.8667 16.217 34.8667C16.0554 34.8667 15.8956 34.8335 15.7475 34.7691C15.5993 34.7047 15.466 34.6105 15.3558 34.4924C15.2455 34.3743 15.1608 34.2347 15.1068 34.0825C15.0528 33.9302 15.0307 33.7685 15.0419 33.6073V33.6073Z" fill="#ECBC4D"/>
<path d="M28.5787 8.41768C29.4549 8.33589 30.2333 8.50699 30.8904 9.08139C31.5194 9.63134 32.1276 10.2029 32.3175 11.0688C32.3675 11.285 32.3989 11.5052 32.4115 11.7268C32.4275 12.0596 32.1868 12.3106 31.8568 12.2457C31.3934 12.1564 30.8801 12.0935 30.4994 11.8481C29.2847 11.0631 28.3907 10.0478 28.5787 8.41768Z" fill="#ECBC4D"/>
<path d="M3.60577 9.26172C5.21992 10.4481 5.04882 13.2684 4.07582 14.2442C3.72517 14.5921 3.4704 14.6015 3.14325 14.2376C2.4551 13.4696 2.37801 12.5455 2.42219 11.5791C2.4598 10.6296 2.8772 9.88124 3.60577 9.26172Z" fill="#ECBC4D"/>
<path d="M21.2849 8.70429C21.4297 10.0919 20.7706 11.047 19.8033 11.8611C19.3192 12.2723 18.7165 12.5183 18.0829 12.5634C17.627 12.6 17.4333 12.4111 17.4427 11.9561C17.4662 10.8627 18.1168 10.1304 18.8745 9.45354C19.5636 8.83684 20.3739 8.64882 21.2849 8.70429Z" fill="#ECBC4D"/>
<path d="M4.23053 27.0117C6.17935 26.7457 8.00783 28.7086 8.08492 30.1488C8.11312 30.6725 7.9392 30.8934 7.40899 30.8624C6.33916 30.7994 5.61435 30.1573 4.95252 29.4015C4.34992 28.7161 4.16754 27.9142 4.23053 27.0117Z" fill="#ECBC4D"/>
<path d="M21.3023 16.5183C21.3296 17.3484 21.2083 18.108 20.6856 18.751C20.021 19.5642 19.2811 20.2627 18.1568 20.3661C17.6397 20.414 17.4282 20.2392 17.4442 19.7287C17.478 18.6626 18.1126 17.9425 18.8543 17.2779C19.5397 16.6593 20.351 16.4515 21.3023 16.5183Z" fill="#ECBC4D"/>
<path d="M26.4008 4.76998C26.4008 5.08239 26.2767 5.382 26.0558 5.60291C25.8349 5.82382 25.5353 5.94792 25.2229 5.94792C24.9105 5.94792 24.6108 5.82382 24.3899 5.60291C24.169 5.382 24.0449 5.08239 24.0449 4.76998C24.0449 4.45757 24.169 4.15796 24.3899 3.93705C24.6108 3.71614 24.9105 3.59204 25.2229 3.59204C25.5353 3.59204 25.8349 3.71614 26.0558 3.93705C26.2767 4.15796 26.4008 4.45757 26.4008 4.76998V4.76998Z" fill="#ECBC4D"/>
<path d="M10.8107 11.9984C11.0464 11.9973 11.277 12.0663 11.4733 12.1968C11.6696 12.3272 11.8227 12.5131 11.913 12.7307C12.0033 12.9484 12.0267 13.1881 11.9804 13.4191C11.9341 13.6502 11.82 13.8623 11.6528 14.0283C11.4856 14.1943 11.2727 14.3069 11.0413 14.3515C10.8099 14.3962 10.5704 14.371 10.3534 14.2791C10.1364 14.1873 9.9516 14.0329 9.82259 13.8357C9.69359 13.6384 9.62619 13.4073 9.62899 13.1716C9.6281 13.0166 9.65812 12.8629 9.7173 12.7196C9.77648 12.5763 9.86363 12.4463 9.97365 12.337C10.0837 12.2278 10.2144 12.1416 10.3581 12.0835C10.5018 12.0253 10.6557 11.9964 10.8107 11.9984V11.9984Z" fill="#ECBC4D"/>
<path d="M25.2009 22.7955C25.1934 23.1031 25.0663 23.3956 24.8464 23.6109C24.6266 23.8262 24.3315 23.9473 24.0238 23.9484C23.7161 23.9495 23.4202 23.8305 23.1988 23.6168C22.9775 23.4031 22.8482 23.1115 22.8385 22.8039C22.8335 22.6461 22.8602 22.4888 22.9171 22.3414C22.9739 22.194 23.0597 22.0595 23.1695 21.9459C23.2792 21.8322 23.4106 21.7417 23.5559 21.6798C23.7011 21.6178 23.8574 21.5855 24.0154 21.585C24.1733 21.5844 24.3298 21.6155 24.4755 21.6765C24.6213 21.7374 24.7533 21.827 24.8638 21.9398C24.9744 22.0527 25.0611 22.1865 25.119 22.3335C25.1769 22.4805 25.2048 22.6376 25.2009 22.7955V22.7955Z" fill="#ECBC4D"/>
<path d="M14.3996 27.5691C14.2399 27.5746 14.0807 27.5474 13.9318 27.4893C13.7829 27.4312 13.6474 27.3434 13.5335 27.2312C13.4197 27.119 13.3299 26.9848 13.2696 26.8368C13.2093 26.6888 13.1798 26.53 13.1828 26.3702C13.1859 26.2104 13.2215 26.0529 13.2874 25.9073C13.3533 25.7617 13.4482 25.6311 13.5663 25.5233C13.6844 25.4156 13.8232 25.3331 13.9742 25.2807C14.1252 25.2284 14.2853 25.2073 14.4447 25.2189C14.6045 25.2135 14.7636 25.2406 14.9125 25.2987C15.0614 25.3568 15.1969 25.4446 15.3108 25.5568C15.4246 25.669 15.5145 25.8032 15.5748 25.9512C15.635 26.0993 15.6646 26.258 15.6615 26.4178C15.6584 26.5776 15.6228 26.7351 15.5569 26.8807C15.491 27.0263 15.3961 27.157 15.278 27.2647C15.1599 27.3724 15.0212 27.455 14.8701 27.5073C14.7191 27.5597 14.559 27.5807 14.3996 27.5691V27.5691Z" fill="#ECBC4D"/>
<path d="M3.59067 20.9763C3.59445 21.2893 3.47414 21.5911 3.25606 21.8157C3.03798 22.0403 2.73985 22.1695 2.42683 22.1749C2.2714 22.1764 2.11719 22.1474 1.973 22.0893C1.82881 22.0312 1.69747 21.9454 1.58648 21.8365C1.47548 21.7277 1.387 21.5981 1.3261 21.4551C1.26519 21.3121 1.23305 21.1585 1.2315 21.0031C1.22996 20.8476 1.25905 20.6934 1.3171 20.5492C1.37516 20.4051 1.46104 20.2737 1.56986 20.1627C1.67867 20.0517 1.80828 19.9632 1.95129 19.9023C2.0943 19.8414 2.2479 19.8093 2.40333 19.8077C2.55829 19.8055 2.71216 19.8341 2.85599 19.8918C2.99983 19.9495 3.13078 20.0351 3.24123 20.1438C3.35169 20.2526 3.43946 20.3821 3.49944 20.525C3.55943 20.6679 3.59044 20.8213 3.59067 20.9763V20.9763Z" fill="#ECBC4D"/>
<path d="M27.0475 14.3946C27.3585 14.4064 27.6526 14.5392 27.8671 14.7647C28.0815 14.9902 28.1994 15.2906 28.1954 15.6018C28.1915 15.913 28.0661 16.2104 27.8461 16.4304C27.626 16.6505 27.3286 16.7758 27.0174 16.7797C26.8583 16.7817 26.7003 16.7518 26.5529 16.6918C26.4054 16.6318 26.2715 16.5428 26.1589 16.4303C26.0464 16.3177 25.9575 16.1838 25.8975 16.0363C25.8375 15.8889 25.8077 15.7309 25.8097 15.5717C25.8117 15.4126 25.8455 15.2554 25.9092 15.1095C25.9729 14.9636 26.0651 14.832 26.1805 14.7223C26.2958 14.6126 26.432 14.5271 26.5809 14.4708C26.7298 14.4145 26.8884 14.3886 27.0475 14.3946V14.3946Z" fill="#ECBC4D"/>
<path d="M12.0615 21.0477C12.0615 22.2087 11.7485 23.2466 10.956 24.1152C10.1804 24.966 9.0908 24.9773 8.31052 24.1406C7.59323 23.3716 7.24352 22.455 7.20779 21.4059C7.17207 20.3859 7.20779 19.3687 7.83014 18.5104C8.2372 17.9463 8.74579 17.4499 9.2337 16.9479C9.27973 16.8968 9.33561 16.8555 9.398 16.8266C9.46039 16.7976 9.52799 16.7815 9.59674 16.7793C9.66549 16.7771 9.73397 16.7888 9.79808 16.8138C9.86219 16.8387 9.92059 16.8763 9.96979 16.9244C10.8911 17.7244 11.7306 18.5893 11.944 19.8603C12.0145 20.2505 12.0248 20.651 12.0615 21.0477ZM9.61726 18.281C8.88962 18.9005 8.47222 19.6488 8.42992 20.5946C8.38573 21.5591 8.46282 22.4851 9.15097 23.2531C9.47718 23.617 9.73289 23.6076 10.0835 23.2597C11.0622 22.2877 11.2333 19.4674 9.6182 18.281H9.61726Z" fill="black"/>
<path d="M9.61847 18.281C11.2336 19.4674 11.0625 22.2877 10.0885 23.2635C9.73786 23.6113 9.48215 23.6207 9.15594 23.2569C8.46779 22.4889 8.3907 21.5648 8.43489 20.5983C8.47343 19.6479 8.89083 18.9005 9.61847 18.281Z" fill="#ECBC4D"/>
<path d="M33.3082 24.7076C32.9566 25.8141 32.338 26.7072 31.319 27.2919C30.3206 27.8644 29.2799 27.5429 28.792 26.5079C28.3436 25.5575 28.29 24.5769 28.5767 23.5673C28.8587 22.5849 29.2028 21.6288 30.0536 21.0008C30.6177 20.5872 31.2494 20.2694 31.8671 19.9413C31.9265 19.9066 31.9924 19.8842 32.0607 19.8756C32.129 19.867 32.1984 19.8723 32.2646 19.8911C32.3308 19.91 32.3925 19.9421 32.446 19.9855C32.4995 20.0288 32.5437 20.0826 32.5759 20.1434C33.2086 21.186 33.7435 22.2662 33.562 23.5428C33.5066 23.9348 33.3947 24.3193 33.3082 24.7076ZM31.8266 21.328C30.9448 21.6955 30.3178 22.2803 29.9887 23.1677C29.6531 24.074 29.4435 24.9784 29.8646 25.9203C30.0639 26.3669 30.3103 26.4346 30.7502 26.2108C31.978 25.5838 33.0017 22.9506 31.8266 21.328Z" fill="black"/>
<path d="M31.8268 21.3279C33.0019 22.9505 31.9781 25.5837 30.7504 26.2107C30.3104 26.4345 30.0641 26.3668 29.8648 25.9202C29.4437 24.9802 29.6533 24.0739 29.9889 23.1676C30.3179 22.2802 30.945 21.6955 31.8268 21.3279Z" fill="#ECBC4D"/>
<path d="M25.5883 28.3223C26.379 29.1684 26.8528 30.1489 26.8612 31.325C26.8688 32.4756 26.0772 33.2239 24.9359 33.1403C23.8877 33.0632 23.0078 32.627 22.2698 31.8824C21.5506 31.1567 20.8888 30.383 20.76 29.3338C20.6754 28.6429 20.7111 27.934 20.729 27.2337C20.7281 27.1648 20.7411 27.0965 20.7672 27.0328C20.7933 26.9691 20.832 26.9114 20.881 26.863C20.93 26.8146 20.9883 26.7767 21.0523 26.7513C21.1163 26.726 21.1847 26.7139 21.2536 26.7157C22.4757 26.6771 23.6752 26.7429 24.699 27.5279C25.013 27.7695 25.2932 28.0562 25.5883 28.3223ZM21.9173 27.951C21.8035 28.8995 22.0047 29.7324 22.6158 30.4554C23.239 31.1933 23.9244 31.8204 24.951 31.9172C25.4379 31.9623 25.6184 31.7818 25.64 31.2883C25.6974 29.9111 23.9084 27.7253 21.9173 27.951Z" fill="black"/>
<path d="M21.917 27.9507C23.9081 27.7251 25.6971 29.9108 25.6398 31.2881C25.6181 31.7816 25.4377 31.9621 24.9507 31.917C23.9241 31.823 23.2388 31.1931 22.6155 30.4552C22.0044 29.7322 21.8032 28.8993 21.917 27.9507Z" fill="#ECBC4D"/>
<path d="M12.4374 7.41248C11.8198 8.39488 10.9981 9.10465 9.86437 9.41582C8.75411 9.72135 7.82718 9.14883 7.61472 8.02542C7.41824 6.99132 7.61472 6.0296 8.14211 5.12429C8.65634 4.24248 9.23262 3.40297 10.2141 3.00813C10.8599 2.74773 11.5537 2.60013 12.2343 2.43655C12.3008 2.41786 12.3703 2.41284 12.4388 2.42179C12.5072 2.43074 12.5731 2.45348 12.6325 2.48863C12.6919 2.52378 12.7436 2.57061 12.7844 2.62629C12.8252 2.68198 12.8543 2.74535 12.8698 2.81259C13.2214 3.98019 13.4696 5.16283 12.9742 6.35017C12.8228 6.71399 12.6179 7.05806 12.4374 7.41248ZM11.8451 3.76961C10.8994 3.90404 10.1464 4.31298 9.60584 5.08574C9.054 5.87824 8.62438 6.70271 8.79642 7.71801C8.87821 8.20028 9.09913 8.32813 9.5814 8.22096C10.9304 7.92765 12.5803 5.63476 11.8451 3.76961Z" fill="black"/>
<path d="M11.845 3.76978C12.5773 5.63492 10.9274 7.92782 9.58122 8.22677C9.09895 8.33394 8.87803 8.20608 8.79624 7.72382C8.62421 6.70757 9.05383 5.88311 9.60566 5.09155C10.1528 4.31315 10.9049 3.90421 11.845 3.76978Z" fill="#ECBC4D"/>
<path d="M19.4123 4.8828C18.5662 5.67718 17.5913 6.15569 16.4162 6.16979C15.2655 6.18389 14.5135 5.39609 14.5915 4.25388C14.6629 3.20473 15.0944 2.32386 15.8362 1.58119C16.5582 0.859196 17.3281 0.193609 18.3744 0.0591753C19.0654 -0.0291937 19.7742 0.00370965 20.4746 0.0178111C20.5434 0.0163939 20.6118 0.0289353 20.6756 0.0546783C20.7395 0.0804212 20.7974 0.118832 20.846 0.167592C20.8946 0.216353 20.9328 0.274452 20.9583 0.338382C20.9838 0.402313 20.9961 0.470751 20.9945 0.539564C21.0396 1.76169 20.9804 2.96219 20.2001 3.98877C19.9622 4.30464 19.6774 4.58573 19.4123 4.8828ZM19.7648 1.20891C18.8163 1.09986 17.9843 1.30292 17.2642 1.92056C16.529 2.54761 15.9057 3.2367 15.8145 4.26328C15.7713 4.75025 15.9527 4.92981 16.4463 4.94861C17.8245 4.99937 20.0017 3.19627 19.7648 1.20891Z" fill="black"/>
<path d="M19.765 1.209C20.0019 3.19918 17.8247 4.99947 16.4465 4.9487C15.953 4.9299 15.7715 4.75034 15.8148 4.26337C15.9088 3.23585 16.5292 2.5477 17.2644 1.92066C17.9845 1.30583 18.8165 1.09995 19.765 1.209Z" fill="#ECBC4D"/>
</svg>
