<svg width="34" height="28" viewBox="0 0 34 28" fill="none" xmlns="http://www.w3.org/2000/svg">
<path d="M9.3998 4.7248C9.27475 4.2911 9.12584 3.93402 9.06874 3.55959C8.81286 1.87754 10.0887 0.54969 11.7888 0.705823C12.9251 0.810635 15.6415 2.56207 16.2704 3.47863C16.5696 3.76054 16.2075 4.65035 14.5782 3.02035C14.2992 2.77459 14.078 2.56063 13.8373 2.3698C13.0653 1.76117 12.2471 1.26891 11.2011 1.43011C10.9535 1.46662 10.7167 1.55603 10.5067 1.69226C10.2968 1.8285 10.1186 2.00835 9.9844 2.2196C9.85018 2.43084 9.76303 2.66852 9.72888 2.91646C9.69474 3.1644 9.71439 3.41679 9.78652 3.65645C9.82844 3.79451 9.88338 3.92824 9.93904 4.06196C10.1422 4.54915 10.445 4.86937 11.037 4.76167C11.1888 4.7342 14.2898 4.76167 14.4503 4.76167C15.1182 4.77251 14.9946 4.74287 15.0958 5.44403C15.0061 5.45631 11.9767 5.43174 11.8871 5.43246C9.30945 5.43246 6.73132 5.43367 4.15272 5.43608C4.00815 5.43608 3.86358 5.43246 3.71902 5.44403C3.30917 5.47655 3.18267 5.6016 3.17978 6.01001C3.17303 6.9256 3.17303 7.8412 3.17978 8.75679C3.18339 9.1905 3.33085 9.33506 3.77829 9.34085C4.56112 9.3488 5.34468 9.34085 6.12751 9.34591C6.25473 9.34591 9.81977 9.34591 9.95855 9.35386C9.60725 10.1193 6.34798 10.0044 5.60635 10.016C4.72665 10.0275 4.78086 9.91767 4.78086 10.8256C4.78086 12.4642 4.7852 14.1029 4.77436 15.7409C4.76822 15.8536 4.79072 15.9661 4.83975 16.0679C4.88879 16.1696 4.96278 16.2573 5.05482 16.3227C5.32698 16.5403 5.58126 16.7794 5.81525 17.0376C5.96415 17.2024 6.08197 17.2465 6.30894 17.1923C6.56484 17.1356 6.83026 17.1375 7.08527 17.1981C7.30212 17.2494 7.41633 17.2089 7.54934 17.0535C8.03942 16.4753 8.60974 16.009 9.35643 15.7893C10.6857 15.3975 11.796 16.3943 11.5062 17.7482C11.4425 18.0416 11.5148 18.1241 11.7844 18.1819C12.2593 18.2874 12.5557 18.6734 12.5796 19.1743C12.5947 19.4635 12.5796 19.7526 12.5882 20.0417C12.6078 20.6063 12.388 21.0118 11.8603 21.2554C11.8032 21.2899 11.7549 21.3372 11.719 21.3935C11.6832 21.4498 11.6608 21.5136 11.6536 21.5799C11.6406 23.194 11.6464 24.8089 11.642 26.423C11.642 26.6564 11.744 26.7439 11.9695 26.7439C14.3674 26.741 16.765 26.741 19.1625 26.7439C19.3952 26.7439 19.4805 26.6521 19.4798 26.4208C19.4754 24.2523 19.4754 22.0838 19.4798 19.9152C19.4798 19.7172 19.4219 19.6261 19.2058 19.577C18.5611 19.4396 18.2813 19.0652 18.2777 18.3973C18.2777 17.879 18.2669 17.3607 18.2777 16.8432C18.2878 16.1536 18.7165 15.7112 19.4046 15.7054C19.7219 15.7054 19.813 15.6136 19.7096 15.3006C19.4436 14.494 19.539 13.7494 20.1795 13.143C20.8199 12.5365 21.5818 12.5018 22.3726 12.7389C23.2812 13.0107 23.9744 13.6063 24.5635 14.3241C24.7514 14.5532 24.9025 14.6906 25.2206 14.5149C25.5523 14.3306 25.9289 14.3537 26.2665 14.5265C26.5058 14.6486 26.6482 14.6147 26.8159 14.4029C27.3761 13.6945 28.049 13.1263 28.8969 12.775C29.0097 12.7281 29.1138 12.5213 29.121 12.3847C29.1441 11.771 29.1354 11.1559 29.126 10.5415C29.1188 10.0181 29.1116 10.016 28.5977 10.016C24.0915 10.016 19.5858 10.016 15.0806 10.016C13.3689 10.016 7.79076 10.016 6.07908 10.016C5.62225 10.016 9.73014 9.35602 9.96217 9.35386C11.6102 9.33506 13.2583 9.33796 14.9064 9.35024C15.228 9.35024 15.33 9.22953 15.3271 8.92594C15.3189 7.88939 15.3189 6.85332 15.3271 5.81773C15.3271 5.53583 15.21 5.41656 14.9367 5.4368C14.9127 5.43499 14.8885 5.43499 14.8645 5.4368C13.6978 5.58137 13.9479 5.33126 13.9385 4.76311C14.1879 4.76311 14.3968 4.76311 14.605 4.76311C14.9844 4.76962 15.7673 4.55204 15.7564 3.90944C16.3289 4.01208 16.0304 4.6265 16.206 4.65107C16.7944 4.73131 17.1204 4.71685 17.7161 4.73131C17.7536 4.73131 17.8606 4.47253 17.8274 4.36989C17.6279 3.73451 16.8046 3.54585 16.3289 4.01353C16.2526 4.09784 16.1821 4.18719 16.1179 4.28098C15.6437 3.98173 15.6422 3.90294 16.0456 3.66295C16.1285 3.61227 16.2044 3.55077 16.2711 3.48008C16.7438 2.99288 17.1508 2.89313 17.7168 3.24154C18.0514 3.44682 18.1975 3.36153 18.41 3.08902C19.1762 2.10668 20.0833 1.27976 21.2919 0.882196C22.3827 0.520777 23.4214 0.597398 24.2556 1.49299C25.0261 2.32137 25.0507 3.28346 24.6553 4.28749C24.476 4.74287 24.4796 4.7595 24.9842 4.7595C26.7067 4.7595 28.43 4.78408 30.1525 4.74649C30.9324 4.72986 31.4774 5.23007 31.4362 6.03025C31.3878 6.96994 31.4283 7.90963 31.4232 8.84932C31.4196 9.59167 31.0365 9.98779 30.3072 10.016C29.8402 10.0333 29.8301 10.042 29.8286 10.522C29.8286 11.1002 29.833 11.6785 29.8286 12.2568C29.8286 12.4736 29.9111 12.5799 30.1272 12.6298C31.609 12.9731 32.1663 13.9533 31.7102 15.3924C31.6895 15.4844 31.675 15.5776 31.6668 15.6715C31.8071 15.6823 31.9227 15.6953 32.0384 15.6982C32.699 15.7177 33.1638 16.1464 33.1862 16.7991C33.2057 17.3521 33.2029 17.9079 33.1862 18.4616C33.1667 19.0507 32.8479 19.4627 32.2834 19.5668C31.9603 19.6268 31.948 19.8039 31.9487 20.0497C31.9516 21.9773 31.9516 23.9048 31.9487 25.8324C31.9487 25.977 31.9487 26.1215 31.9487 26.2661C31.9357 27.1031 31.5512 27.4472 30.7141 27.4436C27.8351 27.432 24.9553 27.4349 22.0755 27.4349C17.9192 27.4349 13.7629 27.4361 9.60653 27.4385C7.36573 27.4385 5.12494 27.4371 2.88414 27.4342C2.03047 27.4342 1.75507 27.1581 1.75507 26.3124C1.75507 24.7944 1.75073 23.2764 1.76085 21.7585C1.76085 21.473 1.69362 21.2988 1.40521 21.1744C1.02717 21.0111 0.826941 20.6771 0.809593 20.2557C0.798028 19.8943 0.795136 19.5329 0.809593 19.1714C0.828387 18.6655 1.13704 18.2881 1.63941 18.1703C1.87 18.1161 1.95601 18.0409 1.89313 17.7756C1.60399 16.554 2.4367 15.5934 3.68071 15.7192C4.01755 15.7531 4.09417 15.6584 4.092 15.3411C4.07947 13.7263 4.07947 12.112 4.092 10.4981C4.092 10.1454 3.99875 10.0059 3.62577 10.0059C2.90293 10.0059 2.50176 9.58227 2.4967 8.84932C2.49091 7.88577 2.48947 6.92151 2.4967 5.95796C2.50393 5.15634 2.90221 4.76022 3.70311 4.75878C5.43793 4.75372 7.17274 4.75878 8.90755 4.75878C9.05645 4.75661 9.20825 4.73781 9.3998 4.7248ZM25.7236 19.595H20.7397C20.1954 19.595 20.1954 19.595 20.1954 20.1574C20.1954 21.2176 20.1954 22.2777 20.1954 23.3379C20.1954 24.3137 20.2026 25.2895 20.1918 26.2639C20.1874 26.6037 20.3291 26.7562 20.6623 26.7461C20.7585 26.7461 20.8553 26.7497 20.9515 26.7497C24.1898 26.7497 27.4283 26.7482 30.6671 26.7453C31.1731 26.7453 31.2591 26.6658 31.2599 26.1613C31.2599 24.1373 31.2599 22.1134 31.2599 20.0894C31.2599 19.6044 31.2469 19.5936 30.7438 19.5936C29.0706 19.5936 27.3973 19.5941 25.7236 19.595ZM24.6061 9.34157C26.3997 9.34157 28.1933 9.34157 29.9869 9.34157C30.652 9.34157 30.7503 9.23531 30.7503 8.55729C30.7503 7.76217 30.7503 6.96705 30.7503 6.17192C30.7503 5.56185 30.6418 5.44114 30.0426 5.44041C26.3706 5.44041 22.6993 5.44403 19.0273 5.44041C18.6912 5.44041 18.5885 5.56763 18.5936 5.88857C18.6073 6.88826 18.6116 7.88794 18.5936 8.8869C18.5863 9.26061 18.7316 9.35603 19.0837 9.35313C20.9218 9.33506 22.7636 9.34157 24.6061 9.34157ZM6.72024 21.306C5.43142 21.306 4.1426 21.3118 2.85378 21.3016C2.55886 21.3016 2.44899 21.4057 2.45044 21.7014C2.46007 23.2434 2.46007 24.7855 2.45044 26.3275C2.45044 26.6449 2.5726 26.7482 2.87763 26.7475C5.41913 26.7403 7.96039 26.7403 10.5014 26.7475C10.8368 26.7475 10.9394 26.6203 10.9351 26.2979C10.9245 24.7684 10.9245 23.2386 10.9351 21.7086C10.9351 21.3855 10.8187 21.2966 10.5108 21.2995C9.24945 21.3132 7.98448 21.306 6.72024 21.306ZM21.1322 4.75299C21.769 4.75299 22.408 4.72842 23.0434 4.76239C23.438 4.78335 23.6679 4.62867 23.8522 4.30339C24.2534 3.59356 24.3893 2.87361 23.8999 2.16451C23.4344 1.48938 22.7434 1.27253 21.9634 1.43372C20.4159 1.75755 19.4234 2.82952 18.582 4.05835C18.3753 4.36194 18.6377 4.74721 19.0034 4.75082C19.7133 4.75805 20.4224 4.75372 21.1322 4.75372V4.75299ZM29.6884 18.8874C30.4452 18.8874 31.2028 18.8931 31.9603 18.8874C32.3492 18.8823 32.48 18.7428 32.4858 18.359C32.493 17.8899 32.4945 17.4193 32.4858 16.9523C32.4764 16.5454 32.355 16.4189 31.9704 16.4189C30.4525 16.4138 28.9403 16.4189 27.4259 16.4116C27.1368 16.4116 27.0501 16.5273 27.0566 16.7998C27.0696 17.3643 27.0739 17.9303 27.0566 18.4949C27.0464 18.797 27.1628 18.896 27.4548 18.8917C28.1972 18.8765 28.9424 18.8866 29.6884 18.8874ZM21.7618 18.8874C22.5077 18.8874 23.2537 18.8772 24.0026 18.8917C24.3033 18.8975 24.4074 18.7826 24.4009 18.4898C24.3864 17.9238 24.3878 17.3578 24.4009 16.7926C24.4066 16.5143 24.3062 16.4095 24.0221 16.4109C22.5179 16.421 21.0144 16.4145 19.5101 16.4196C19.1191 16.4196 18.9854 16.5475 18.9752 16.9357C18.9629 17.4048 18.9622 17.8754 18.9752 18.3438C18.9868 18.7594 19.114 18.8816 19.5253 18.8852C20.2691 18.8903 21.0158 18.8859 21.7618 18.8859V18.8874ZM22.5114 15.696C23.0289 15.696 23.5465 15.7011 24.064 15.696C24.403 15.6917 24.5411 15.4734 24.3531 15.2081C23.7713 14.3942 23.094 13.6902 22.0957 13.3866C21.4452 13.1914 20.8561 13.3605 20.5055 13.834C20.1744 14.2843 20.1817 14.9132 20.5633 15.4495C20.6164 15.5159 20.682 15.5711 20.7564 15.612C20.8308 15.6529 20.9126 15.6788 20.997 15.6881C21.5001 15.7163 22.0061 15.696 22.5114 15.696ZM28.9222 15.696C29.4282 15.696 29.9342 15.704 30.4402 15.6903C30.5682 15.6892 30.6921 15.6446 30.7915 15.5638C31.189 15.1749 31.2888 14.4658 31.0351 13.9865C30.8993 13.7353 30.6857 13.5349 30.4263 13.4154C30.1669 13.2959 29.8758 13.2637 29.5966 13.3237C28.4769 13.5651 27.7172 14.3046 27.097 15.2096C26.9149 15.4756 27.066 15.6895 27.405 15.6939C27.9102 15.7033 28.4162 15.696 28.9222 15.696ZM17.8931 7.40725C17.8931 6.86585 17.8859 6.323 17.8931 5.78304C17.8982 5.53294 17.792 5.43318 17.5512 5.4368C17.1544 5.44258 16.7561 5.44113 16.3607 5.4368C16.1229 5.4368 16.0116 5.54016 16.013 5.78665C16.0188 6.85693 16.0188 7.92746 16.013 8.99822C16.013 9.25194 16.128 9.34157 16.3636 9.3394C16.7605 9.33434 17.1587 9.33073 17.5541 9.3394C17.8021 9.34446 17.8968 9.23676 17.8917 8.99172C17.8866 8.46766 17.8931 7.93637 17.8931 7.40725ZM3.60192 20.599V20.6027C4.14332 20.6027 4.68617 20.599 5.22613 20.6027C5.4625 20.6027 5.58755 20.5174 5.5796 20.2651C5.57093 19.8921 5.57454 19.5184 5.5796 19.1454C5.5796 18.925 5.49648 18.8144 5.26011 18.8158C4.16501 18.8216 3.06991 18.8158 1.97481 18.8194C1.66399 18.8194 1.51581 18.9929 1.51364 19.2987C1.51364 19.5632 1.51364 19.8278 1.50713 20.0938C1.50279 20.4379 1.66977 20.5998 2.01312 20.5998C2.54296 20.5962 3.07208 20.599 3.60192 20.599ZM9.74965 20.6034V20.5976C10.3041 20.5976 10.8578 20.5976 11.4122 20.5976C11.7266 20.5976 11.8791 20.4393 11.8864 20.1343C11.8929 19.8697 11.8864 19.6044 11.8864 19.3391C11.89 18.9958 11.7172 18.823 11.3804 18.8216C10.2961 18.818 9.21186 18.8216 8.1276 18.8151C7.88545 18.8151 7.81028 18.9286 7.81173 19.1469C7.81534 19.5083 7.82329 19.8697 7.80594 20.2311C7.79221 20.5203 7.9216 20.6113 8.19338 20.6056C8.71383 20.5954 9.2321 20.6034 9.74965 20.6034ZM4.17079 18.1342V18.1306C4.54377 18.1306 4.91748 18.1436 5.28974 18.1269C5.57454 18.1139 5.65116 17.973 5.48925 17.7561C5.06639 17.1887 4.57124 16.6972 3.87659 16.4774C3.52168 16.3654 3.16315 16.3676 2.848 16.622C2.53284 16.8764 2.44827 17.2516 2.58488 17.6976C2.70632 18.0944 2.98244 18.1616 3.34097 18.14C3.61637 18.1204 3.89394 18.1342 4.17079 18.1342ZM9.16849 18.1248V18.1327C9.54148 18.1327 9.91591 18.1537 10.286 18.1219C10.4435 18.0988 10.5856 18.015 10.6821 17.8884C10.9452 17.5053 10.9214 17.0593 10.664 16.7492C10.4067 16.4391 9.94121 16.3242 9.5075 16.4709C8.81864 16.7058 8.31843 17.1815 7.9028 17.7554C7.73872 17.9824 7.80667 18.1125 8.08568 18.1219C8.44638 18.1342 8.8078 18.1248 9.16849 18.1248ZM25.0948 17.6434C25.0948 17.7641 25.0948 17.8841 25.0948 18.0048C25.1194 18.9792 24.8721 18.8881 26.0489 18.8852C26.2694 18.8852 26.346 18.7833 26.3438 18.5751C26.3395 18.1537 26.3489 17.7323 26.3438 17.3101C26.333 16.2664 26.4993 16.4297 25.4078 16.4145C25.3955 16.4145 25.3832 16.4145 25.3716 16.4145C25.1728 16.408 25.0904 16.5085 25.0933 16.7037C25.0984 17.0167 25.0948 17.3304 25.0948 17.6434ZM7.10479 19.7194C7.10479 19.5148 7.09901 19.3102 7.10479 19.1057C7.11491 18.8165 6.92263 18.81 6.71807 18.8165C6.51351 18.823 6.27931 18.7667 6.27786 19.0898C6.27786 19.4982 6.26847 19.9073 6.28292 20.3186C6.286 20.3687 6.3001 20.4174 6.32421 20.4614C6.34833 20.5054 6.38187 20.5435 6.42243 20.573C6.8012 20.7617 7.10262 20.568 7.10334 20.1523C7.10431 20.0078 7.10479 19.8634 7.10479 19.7194ZM25.1324 15.691C25.5025 15.691 25.8321 15.6997 26.1595 15.678C26.1935 15.678 26.2701 15.4611 26.2318 15.4011C26.0945 15.1611 25.8632 15.0708 25.5906 15.1315C25.3413 15.1901 25.1714 15.3303 25.1316 15.691H25.1324ZM6.98335 18.0142L6.97829 17.8956C6.81421 17.8956 6.65085 17.8848 6.48821 17.8956C6.46146 17.8956 6.44122 17.9882 6.41593 18.0402C6.57061 18.0619 6.72385 18.0886 6.87926 18.1002C6.91324 18.0995 6.94938 18.0438 6.98335 18.0142Z" fill="black"/>
<path d="M25.7236 19.595C27.3972 19.595 29.0709 19.595 30.7445 19.595C31.2505 19.595 31.2606 19.6058 31.2606 20.0908C31.2606 22.1148 31.2606 24.1387 31.2606 26.1627C31.2606 26.6687 31.1774 26.7467 30.6678 26.7467C27.4295 26.7496 24.191 26.7511 20.9522 26.7511C20.856 26.7511 20.7592 26.7446 20.663 26.7475C20.3298 26.7576 20.1881 26.6029 20.1925 26.2653C20.2033 25.2902 20.1961 24.3137 20.1961 23.3393C20.1961 22.2791 20.1961 21.2189 20.1961 20.1588C20.1961 19.5979 20.1961 19.5964 20.7404 19.5964L25.7236 19.595Z" fill="#ECBC4D"/>
<path d="M24.6063 9.34152C22.7638 9.34152 20.9198 9.33429 19.0802 9.34803C18.7282 9.34803 18.5829 9.2555 18.5901 8.8818C18.6096 7.88283 18.6053 6.88315 18.5901 5.88347C18.5858 5.56253 18.6884 5.43458 19.0238 5.43531C22.6958 5.44253 26.3671 5.43531 30.0391 5.43531C30.6384 5.43531 30.7439 5.55674 30.7468 6.16682C30.7468 6.96194 30.7468 7.75706 30.7468 8.55218C30.7468 9.2302 30.6485 9.33502 29.9835 9.33646C28.1904 9.33935 26.3967 9.33935 24.6027 9.33646L24.6063 9.34152Z" fill="white"/>
<path d="M6.72007 21.3061C7.98431 21.3061 9.25 21.3133 10.5135 21.3003C10.8214 21.3003 10.9407 21.3863 10.9378 21.7094C10.9258 23.2399 10.9258 24.7697 10.9378 26.2987C10.9378 26.6211 10.8381 26.7498 10.5041 26.7483C7.96262 26.7396 5.42137 26.7396 2.88035 26.7483C2.57531 26.7483 2.45098 26.6457 2.45315 26.3284C2.46279 24.7863 2.46279 23.2442 2.45315 21.7022C2.45315 21.4065 2.56158 21.3003 2.8565 21.3025C4.14532 21.3126 5.43414 21.3068 6.72296 21.3068L6.72007 21.3061Z" fill="#ECBC4D"/>
<path d="M21.1318 4.75366C20.422 4.75366 19.7129 4.758 19.0031 4.75366C18.6373 4.75366 18.3749 4.36477 18.5816 4.06118C19.423 2.82947 20.4155 1.7575 21.9631 1.438C22.7459 1.27681 23.4341 1.49366 23.8996 2.16879C24.3889 2.8779 24.253 3.59784 23.8519 4.30767C23.6675 4.63295 23.4377 4.78763 23.043 4.76667C22.4076 4.7327 21.7686 4.75727 21.1318 4.75727V4.75366Z" fill="white"/>
<path d="M29.6881 18.8866C28.9421 18.8866 28.1969 18.8779 27.4516 18.891C27.1625 18.8953 27.0432 18.7963 27.0533 18.4941C27.0714 17.9296 27.0671 17.3636 27.0533 16.7991C27.0468 16.5266 27.1343 16.4095 27.4227 16.4109C28.937 16.4203 30.4521 16.4109 31.9672 16.4181C32.3539 16.4181 32.4732 16.5453 32.4826 16.9494C32.4934 17.4178 32.492 17.8891 32.4826 18.3561C32.4768 18.7421 32.3459 18.8794 31.9571 18.8845C31.2024 18.8931 30.4449 18.8873 29.6881 18.8866Z" fill="white"/>
<path d="M21.7618 18.8859C21.0159 18.8859 20.2692 18.8902 19.521 18.8859C19.1098 18.8823 18.9825 18.7601 18.971 18.3445C18.9572 17.8754 18.958 17.4048 18.971 16.9364C18.9811 16.5482 19.1155 16.4217 19.5059 16.4203C21.0101 16.4152 22.5136 16.4203 24.0178 16.4116C24.3019 16.4116 24.4024 16.515 24.3966 16.7933C24.3836 17.3585 24.3821 17.9245 24.3966 18.4905C24.4031 18.7833 24.299 18.8982 23.9983 18.8924C23.2538 18.8765 22.5078 18.8859 21.7618 18.8859Z" fill="white"/>
<path d="M22.5111 15.6962C22.0051 15.6962 21.4991 15.7142 20.9931 15.6846C20.9087 15.6753 20.827 15.6494 20.7525 15.6085C20.6781 15.5676 20.6125 15.5124 20.5594 15.4461C20.1778 14.9097 20.1705 14.2808 20.5016 13.8305C20.85 13.3571 21.4413 13.1879 22.0919 13.3831C23.0901 13.6845 23.7674 14.3907 24.3493 15.2046C24.5387 15.4699 24.4006 15.6882 24.0601 15.6925C23.5426 15.699 23.025 15.6925 22.5075 15.6925L22.5111 15.6962Z" fill="white"/>
<path d="M28.9224 15.696C28.4164 15.696 27.9104 15.7004 27.4044 15.696C27.0654 15.6917 26.9143 15.4792 27.0965 15.2117C27.716 14.3067 28.4764 13.5673 29.5961 13.3258C29.8753 13.2658 30.1664 13.298 30.4258 13.4175C30.6851 13.5371 30.8987 13.7375 31.0345 13.9887C31.2882 14.4679 31.1885 15.177 30.7909 15.5659C30.6916 15.6468 30.5677 15.6914 30.4396 15.6924C29.9336 15.7069 29.4277 15.696 28.9224 15.696Z" fill="white"/>
<path d="M17.8933 7.40732C17.8933 7.93643 17.8868 8.46555 17.8933 8.99756C17.8984 9.2426 17.8037 9.3503 17.5558 9.34524C17.1589 9.33657 16.7606 9.34018 16.3652 9.34524C16.1296 9.34524 16.0132 9.25778 16.0147 9.00406C16.0209 7.9333 16.0209 6.86278 16.0147 5.7925C16.0147 5.54601 16.1245 5.4412 16.3623 5.44264C16.7592 5.44264 17.1575 5.44264 17.5529 5.44264C17.7936 5.44264 17.8998 5.53878 17.8948 5.78888C17.8861 6.3245 17.8933 6.86591 17.8933 7.40732Z" fill="#ECBC4D"/>
<path d="M3.60223 20.5991C3.07239 20.5991 2.54328 20.5991 2.01199 20.5991C1.6672 20.5991 1.50022 20.4372 1.506 20.0932C1.51034 19.8279 1.51034 19.5633 1.51251 19.298C1.51251 18.9923 1.66286 18.8202 1.97368 18.8188C3.06878 18.8152 4.16388 18.8188 5.25898 18.8152C5.49535 18.8152 5.58064 18.9243 5.57847 19.1448C5.57847 19.5178 5.57124 19.8915 5.57847 20.2645C5.58426 20.5167 5.46137 20.6042 5.22501 20.602C4.6836 20.597 4.14075 20.602 3.60079 20.602L3.60223 20.5991Z" fill="white"/>
<path d="M9.74942 20.6033C9.23187 20.6033 8.7136 20.5953 8.19605 20.6069C7.92426 20.6127 7.79487 20.5223 7.80861 20.2325C7.82595 19.8711 7.818 19.5096 7.81439 19.1482C7.81439 18.9314 7.88667 18.8143 8.13027 18.8164C9.21453 18.8237 10.2988 18.8164 11.383 18.8229C11.7206 18.8229 11.8934 18.9971 11.889 19.3405C11.889 19.6051 11.8926 19.8703 11.889 20.1356C11.8818 20.4407 11.7293 20.6004 11.4148 20.599C10.8604 20.599 10.3067 20.599 9.75232 20.599L9.74942 20.6033Z" fill="white"/>
<path d="M4.17115 18.1343C3.8943 18.1343 3.61673 18.1205 3.34133 18.1343C2.97991 18.156 2.70668 18.0887 2.58525 17.6919C2.44863 17.2459 2.52453 16.8751 2.84836 16.6163C3.17219 16.3575 3.52204 16.3619 3.87696 16.4717C4.5716 16.6886 5.06675 17.183 5.48961 17.7504C5.6508 17.9673 5.5749 18.1082 5.2901 18.1213C4.91784 18.1379 4.54414 18.1249 4.17115 18.1249V18.1343Z" fill="white"/>
<path d="M9.16859 18.1248C8.80717 18.1248 8.44575 18.1342 8.08433 18.1248C7.80531 18.1154 7.73737 17.9853 7.90145 17.7583C8.31708 17.1844 8.81729 16.7088 9.50615 16.4738C9.93985 16.3293 10.4039 16.4399 10.6627 16.7521C10.9215 17.0644 10.9439 17.5082 10.6808 17.8913C10.5843 18.0179 10.4421 18.1017 10.2846 18.1248C9.91456 18.1566 9.54013 18.1356 9.16714 18.1356L9.16859 18.1248Z" fill="white"/>
<path d="M25.0946 17.6434C25.0946 17.3304 25.0982 17.0167 25.0946 16.7037C25.0946 16.5093 25.1741 16.4088 25.3729 16.4146C25.3844 16.4146 25.3967 16.4146 25.409 16.4146C26.5005 16.4297 26.3342 16.2664 26.3451 17.3102C26.3494 17.7323 26.34 18.1537 26.3451 18.5751C26.3451 18.7833 26.2728 18.8845 26.0502 18.8852C24.8734 18.8852 25.1206 18.9792 25.096 18.0048C25.0917 17.8841 25.0946 17.7641 25.0946 17.6434Z" fill="white"/>
<path d="M7.1046 19.7193C7.1046 19.8638 7.1046 20.0084 7.1046 20.153C7.1046 20.5686 6.80246 20.7623 6.42369 20.5736C6.38313 20.5441 6.34959 20.506 6.32547 20.462C6.30135 20.418 6.28725 20.3693 6.28418 20.3192C6.26972 19.9101 6.27695 19.501 6.27912 19.0904C6.27912 18.7673 6.52199 18.8251 6.71933 18.8171C6.91666 18.8092 7.11617 18.8171 7.10605 19.1063C7.0981 19.3101 7.1046 19.5147 7.1046 19.7193Z" fill="white"/>
<path d="M25.1318 15.6911C25.1716 15.3297 25.3415 15.1851 25.593 15.1316C25.8655 15.0709 26.099 15.1612 26.2342 15.4012C26.2696 15.4634 26.193 15.6759 26.1619 15.6781C25.8315 15.6997 25.5019 15.6911 25.1318 15.6911Z" fill="white"/>
<path d="M6.98323 18.0142C6.94925 18.0438 6.91094 18.0995 6.88131 18.0973C6.7259 18.0858 6.57266 18.059 6.41797 18.0373C6.4411 17.9882 6.46134 17.8978 6.49025 17.8928C6.65289 17.8819 6.81625 17.8928 6.98034 17.8928L6.98323 18.0142Z" fill="white"/>
</svg>
