<svg width="34" height="30" viewBox="0 0 34 30" fill="none" xmlns="http://www.w3.org/2000/svg">
<path d="M32.7208 12.7338C32.2085 14.4871 31.3459 16.069 30.3148 17.5618C28.5781 20.0655 26.455 22.2081 24.1604 24.193C22.1989 25.8869 20.1193 27.4392 17.9373 28.8379C16.8005 29.5673 17.1023 29.5101 16.1138 28.8726C12.2316 26.3667 8.64828 23.4969 5.58883 20.0098C4.02365 18.2261 2.67483 16.2954 1.75366 14.0949C1.24207 12.8771 0.962752 11.6093 0.836843 10.2873C0.45405 6.29796 3.08295 2.64515 6.65906 1.44033C10.3343 0.201498 14.5617 1.6661 16.637 4.94408C16.7325 5.09459 16.8382 5.23859 16.9496 5.40068C20.0612 1.16463 23.9484 -0.281154 28.7735 2.11474C31.8474 3.64085 33.3902 7.0129 33.181 10.042C33.1687 10.0528 32.7396 12.728 32.7208 12.7309C32.3199 12.7859 32.4719 10.5384 32.4972 10.1223C32.4972 10.0608 32.4972 9.86394 32.4929 9.75106C32.4929 9.6787 32.4929 9.59765 32.4929 9.50141C32.4835 6.08522 30.1317 2.97512 26.8349 2.01777C25.1065 1.51451 23.2585 1.61251 21.593 2.29574C19.9275 2.97898 18.543 4.20703 17.666 5.77913C17.5545 5.97813 17.4807 6.20172 17.3527 6.38842C17.2665 6.5136 17.116 6.67207 16.9909 6.6728C16.8657 6.67352 16.7159 6.51577 16.629 6.39059C16.1486 5.68795 15.7672 4.89921 15.1999 4.27835C13.448 2.36294 11.228 1.52282 8.64104 1.73629C5.25958 2.01633 2.27322 4.70673 1.63861 7.99484C1.25365 9.98262 1.60026 11.8749 2.35354 13.7179C3.32898 16.1059 4.83699 18.1414 6.55052 20.0351C9.20763 22.9621 12.2613 25.4224 15.5147 27.6446C15.8924 27.903 16.2875 28.1367 16.6631 28.3979C16.891 28.5571 17.0878 28.5694 17.3186 28.4015C19.0814 27.1207 20.8832 25.8891 22.6061 24.557C24.5599 23.0395 26.354 21.327 27.9609 19.4461C29.4262 17.742 30.7179 15.9242 31.5905 13.8409C32.0985 12.5809 32.4068 11.2494 32.5045 9.89434" fill="black"/>
<path d="M16.9822 21.8435C15.3662 21.8435 13.7501 21.8435 12.134 21.8435C11.3851 21.8435 11.0594 21.5121 11.0594 20.7581C11.0594 18.8164 11.0606 16.8749 11.0631 14.9337C11.0631 14.4178 11.0631 14.4178 10.5565 14.3917C10.1224 14.3686 9.92626 14.2029 9.91757 13.7716C9.90117 12.9515 9.90117 12.1314 9.91757 11.3113C9.92553 10.8851 10.1267 10.7165 10.5573 10.6911C10.7939 10.6767 11.0305 10.6499 11.2664 10.6289C11.2317 10.3981 11.2013 10.1658 11.1615 9.93569C10.9444 8.65634 12.0725 7.55138 13.3605 7.75978C14.446 7.93489 15.2188 8.57529 15.8997 9.36476C16.085 9.58184 16.213 9.6542 16.5271 9.55796C16.8411 9.46172 17.2116 9.51165 17.5401 9.58112C17.7507 9.62598 17.8643 9.61947 18.0018 9.45521C18.5004 8.8604 19.0561 8.3242 19.779 8.00798C20.5019 7.69176 21.2197 7.6013 21.9318 8.01449C22.688 8.453 23.0063 9.32279 22.7509 10.2063C22.6207 10.6557 22.6416 10.6846 23.0982 10.689C23.2191 10.689 23.3399 10.689 23.46 10.6933C23.8407 10.7143 24.0643 10.8872 24.0744 11.265C24.0976 12.1203 24.0976 12.9758 24.0744 13.8316C24.0635 14.2014 23.824 14.3664 23.4079 14.3895C22.9311 14.4156 22.9282 14.4156 22.9275 14.8903C22.9275 16.8441 22.9275 18.7978 22.9275 20.7516C22.9275 21.5316 22.6149 21.8457 21.8312 21.8464C20.2146 21.8464 18.5983 21.8454 16.9822 21.8435ZM15.7275 17.7703C15.7275 16.7825 15.7203 15.7941 15.7318 14.8035C15.7354 14.493 15.6197 14.3729 15.3078 14.3765C14.2716 14.3876 13.2344 14.3876 12.1962 14.3765C11.8713 14.3765 11.7505 14.4843 11.7527 14.8187C11.7647 16.7705 11.7647 18.7223 11.7527 20.6742C11.7527 21.028 11.8815 21.1365 12.2187 21.1322C13.2423 21.1187 14.2665 21.1187 15.2911 21.1322C15.6153 21.1358 15.7376 21.0316 15.7318 20.698C15.7159 19.7226 15.7282 18.7464 15.7275 17.7703ZM22.2118 17.7739C22.2118 16.7862 22.2017 15.7992 22.2176 14.8121C22.2227 14.4995 22.1177 14.378 21.8051 14.3823C20.7694 14.3924 19.7339 14.3924 18.6987 14.3823C18.3933 14.3823 18.2645 14.4923 18.2645 14.8049C18.2727 16.7674 18.2727 18.73 18.2645 20.693C18.2645 21.0135 18.3658 21.1431 18.703 21.138C19.7262 21.1221 20.7494 21.1242 21.7733 21.138C22.0975 21.1423 22.2212 21.0352 22.2154 20.6995C22.2017 19.7248 22.2133 18.7493 22.2118 17.7739ZM13.1847 13.7101C13.8823 13.7101 14.5806 13.6999 15.2781 13.7144C15.5929 13.7209 15.7463 13.629 15.7326 13.2853C15.7123 12.7788 15.7145 12.2722 15.7326 11.7657C15.7427 11.4589 15.6023 11.3634 15.3223 11.3641C13.8786 11.3685 12.4343 11.3713 10.9907 11.3641C10.6911 11.3641 10.5847 11.4871 10.5913 11.7758C10.6036 12.2824 10.6065 12.7889 10.5913 13.2954C10.5811 13.6153 10.7179 13.7188 11.0254 13.7144C11.7404 13.6999 12.4625 13.7093 13.1847 13.7101ZM20.8435 11.375C20.1075 11.375 19.3723 11.375 18.6364 11.375C18.4056 11.375 18.2688 11.4509 18.271 11.7064C18.2753 12.2607 18.2753 12.8154 18.271 13.3707C18.271 13.616 18.3889 13.7122 18.6285 13.7115C20.1003 13.7081 21.5717 13.7081 23.0425 13.7115C23.29 13.7115 23.3884 13.6059 23.3848 13.362C23.3768 12.8439 23.3682 12.3243 23.3848 11.807C23.3978 11.469 23.2603 11.3634 22.9383 11.3728C22.2422 11.3844 21.541 11.3742 20.8435 11.375ZM17.5785 16.2688C17.5785 14.8457 17.5785 13.4226 17.5785 11.9994C17.5785 11.3685 17.5785 11.3685 16.9352 11.3713H16.899C16.4352 11.3757 16.4041 11.4054 16.4041 11.8649C16.4041 14.7111 16.4041 17.5573 16.4041 20.4035C16.4041 21.1409 16.4041 21.1271 17.1277 21.1394C17.4743 21.1467 17.5865 21.0316 17.5828 20.6836C17.5684 19.2117 17.5778 17.7399 17.5785 16.2688ZM20.0496 10.6854C20.5063 10.6854 20.9629 10.6955 21.4195 10.6788C21.5585 10.6766 21.6922 10.6253 21.7972 10.5341C22.1807 10.1332 22.2458 9.43495 21.9672 8.99788C21.6691 8.5297 21.0707 8.33288 20.5091 8.49135C19.5511 8.76126 18.9013 9.41975 18.3383 10.1897C18.1386 10.4647 18.2544 10.6731 18.6046 10.6803C19.088 10.6926 19.5684 10.6854 20.0496 10.6854ZM13.9525 10.6854C14.4337 10.6854 14.9149 10.6933 15.3997 10.6854C15.7268 10.6781 15.8577 10.4683 15.6725 10.2172C15.1146 9.46606 14.4843 8.79817 13.5451 8.51668C12.9662 8.34373 12.409 8.48846 12.0819 8.91539C11.7729 9.31845 11.7599 9.92845 12.0993 10.3995C12.2198 10.551 12.3944 10.6499 12.5863 10.6752C13.0364 10.7107 13.4959 10.6861 13.9525 10.6861V10.6854ZM16.9605 10.7751L17.4946 10.5016C17.3325 10.3851 17.1668 10.1701 17.0097 10.1767C16.8317 10.1846 16.6624 10.3937 16.4887 10.5095L16.9605 10.7751Z" fill="black"/>
<path d="M15.7278 17.7701C15.7278 18.7462 15.7163 19.7238 15.7351 20.6985C15.7409 21.0358 15.6186 21.14 15.2944 21.1327C14.2707 21.1197 13.2466 21.1197 12.2219 21.1327C11.8847 21.1371 11.753 21.0285 11.7559 20.6747C11.7689 18.7233 11.7689 16.7715 11.7559 14.8192C11.7559 14.4849 11.8746 14.3734 12.1995 14.377C13.2357 14.3877 14.2729 14.3877 15.311 14.377C15.6229 14.377 15.7387 14.4935 15.7351 14.804C15.7206 15.7939 15.7278 16.7823 15.7278 17.7701Z" fill="#ECBC4D"/>
<path d="M22.212 17.7737C22.212 18.7492 22.2012 19.7275 22.2185 20.6993C22.2243 21.0351 22.1006 21.1422 21.7764 21.1378C20.7525 21.1241 19.7293 21.1219 18.7061 21.1378C18.3689 21.1429 18.2661 21.0134 18.2676 20.6928C18.2758 18.7303 18.2758 16.7677 18.2676 14.8047C18.2676 14.4921 18.3942 14.3792 18.7018 14.3821C19.737 14.3913 20.7725 14.3913 21.8082 14.3821C22.1209 14.3821 22.2258 14.4994 22.2207 14.812C22.2012 15.7983 22.2113 16.786 22.212 17.7737Z" fill="#ECBC4D"/>
<path d="M13.1842 13.71C12.4606 13.71 11.737 13.702 11.0184 13.7136C10.7145 13.7179 10.5778 13.6145 10.5843 13.2946C10.6009 12.7881 10.598 12.2816 10.5843 11.775C10.5778 11.4856 10.6841 11.3618 10.9837 11.3633C12.4273 11.3713 13.8717 11.3684 15.3153 11.3633C15.5953 11.3633 15.7357 11.4581 15.7256 11.7649C15.7089 12.2714 15.7067 12.778 15.7256 13.2845C15.7393 13.6282 15.5859 13.7187 15.2711 13.7136C14.5801 13.6998 13.8818 13.71 13.1842 13.71Z" fill="#ECBC4D"/>
<path d="M20.8434 11.3742C21.5431 11.3742 22.2421 11.3844 22.9419 11.3692C23.2639 11.3627 23.4013 11.4683 23.3883 11.8033C23.3681 12.3207 23.3767 12.8403 23.3883 13.3584C23.3883 13.6023 23.2935 13.7086 23.0461 13.7079C21.5747 13.7036 20.1033 13.7036 18.632 13.7079C18.3925 13.7079 18.2702 13.6124 18.2745 13.3671C18.2779 12.8118 18.2779 12.2571 18.2745 11.7028C18.2745 11.4473 18.4091 11.3699 18.64 11.3713C19.3701 11.3771 20.1074 11.375 20.8434 11.3742Z" fill="#ECBC4D"/>
<path d="M17.5775 16.2688C17.5775 17.7399 17.5681 19.2117 17.584 20.6828C17.5877 21.0309 17.4755 21.1459 17.1289 21.1387C16.4053 21.1242 16.4053 21.1387 16.4053 20.4028C16.4053 17.5566 16.4053 14.7103 16.4053 11.8641C16.4053 11.4046 16.4364 11.3749 16.9002 11.3706H16.9364C17.579 11.3706 17.5797 11.3706 17.5797 11.9987C17.5792 13.4223 17.5785 14.8457 17.5775 16.2688Z" fill="white"/>
<path d="M20.0492 10.6853C19.568 10.6853 19.0875 10.6925 18.607 10.6853C18.2568 10.6781 18.141 10.4682 18.3407 10.1947C18.9008 9.42476 19.5506 8.76627 20.5116 8.49636C21.0731 8.33789 21.6694 8.53472 21.9697 9.0029C22.2483 9.43707 22.1831 10.1383 21.7996 10.5391C21.6947 10.6303 21.5609 10.6816 21.4219 10.6839C20.9653 10.7005 20.5087 10.6904 20.0521 10.6904L20.0492 10.6853Z" fill="white"/>
<path d="M13.9524 10.686C13.4958 10.686 13.0363 10.7106 12.5826 10.673C12.3907 10.6476 12.2161 10.5488 12.0956 10.3973C11.7562 9.92479 11.7692 9.31623 12.0782 8.91318C12.4053 8.48624 12.9632 8.34152 13.5414 8.51446C14.4821 8.79595 15.1109 9.46385 15.6688 10.215C15.854 10.4639 15.7231 10.6759 15.396 10.6831C14.9148 10.694 14.4336 10.686 13.9524 10.686Z" fill="white"/>
<path d="M16.9601 10.7758L16.4883 10.5103C16.6619 10.3909 16.8313 10.1854 17.0093 10.1774C17.1663 10.1709 17.332 10.3858 17.4941 10.5023L16.9601 10.7758Z" fill="white"/>
</svg>
