<svg width="35" height="36" viewBox="0 0 35 36" fill="none" xmlns="http://www.w3.org/2000/svg">
<path d="M0 36V0H34.4779V36H0ZM11.3049 19.573C11.4545 19.5796 11.5842 19.5902 11.7139 19.5902C12.7727 19.5902 13.8315 19.5962 14.8904 19.5902C15.1385 19.5902 15.249 19.665 15.2457 19.931C15.2347 20.8134 15.2347 21.6957 15.2457 22.5781C15.2457 22.8428 15.1438 22.9182 14.8917 22.9176C11.0746 22.9123 7.25846 22.9105 3.44316 22.9123C3.03287 22.9123 2.90647 22.7859 2.90118 22.3789C2.89324 21.7615 2.89654 21.1434 2.89588 20.526C2.89588 19.5942 2.89588 19.5929 3.83757 19.5929C4.83022 19.5929 5.82287 19.5962 6.81551 19.5929C7.06235 19.5929 7.31382 19.5221 7.55537 19.5499C8.0186 19.6021 8.47191 19.6696 8.90868 19.4354C9.12375 19.3196 9.33816 19.2415 9.495 19.5326C9.51287 19.5651 9.60551 19.5571 9.6664 19.5677C9.7114 19.0171 9.6836 18.9576 9.36662 18.9576C7.37029 18.9576 5.37375 18.9589 3.37699 18.9615C2.64904 18.9615 2.27581 19.3388 2.26588 20.066C2.25529 20.8601 2.25331 21.6543 2.26588 22.4484C2.27581 23.1598 2.64243 23.5204 3.35118 23.5482C3.78 23.5654 3.78 23.5654 3.78 24.0115C3.78 26.6801 3.78 29.3493 3.78 32.0188C3.78 32.8646 4.19757 33.2762 5.04132 33.2762L23.3755 33.2808C25.1186 33.2808 26.8617 33.2762 28.6035 33.2808C29.0303 33.2808 29.4101 33.1703 29.6126 32.7805C29.727 32.5455 29.7859 32.2874 29.7847 32.0261C29.7973 29.3572 29.794 26.6883 29.7953 24.0188C29.7953 23.5681 29.7953 23.5681 30.2585 23.5482C30.9382 23.5198 31.3134 23.1432 31.3174 22.4636C31.324 21.6476 31.3213 20.831 31.3174 20.0151C31.3209 19.8728 31.2985 19.7311 31.2512 19.5968C31.056 19.1104 30.6602 18.9556 30.1646 18.9569C28.2344 18.9618 26.3038 18.9618 24.3728 18.9569C24.2451 18.9569 24.1174 18.9417 23.934 18.9298C23.9929 18.7643 24.0287 18.6432 24.0783 18.5281C24.3695 17.8491 24.4277 17.1602 24.1207 16.4766C23.5701 15.253 22.2227 14.8235 20.8853 15.2868C19.7312 15.6911 18.8676 16.4832 18.131 17.4269C17.9629 17.6426 17.8412 17.7207 17.5685 17.5546C17.3348 17.4034 17.0617 17.3244 16.7834 17.3275C16.5051 17.3306 16.2338 17.4156 16.0035 17.5718C15.7427 17.7373 15.6408 17.638 15.4694 17.4534C15.0326 16.9743 14.6091 16.4607 14.0969 16.0796C13.6026 15.7136 13.0149 15.4555 12.4385 15.2193C11.5676 14.8685 10.4208 15.2087 9.79147 15.9406C9.20515 16.6235 9.09662 17.7684 9.54529 18.5876C9.58592 18.6479 9.6332 18.7034 9.68625 18.7531C10.0886 18.5182 10.1025 18.2237 9.97279 17.8418C9.89798 17.6003 9.88794 17.3433 9.94368 17.0967C10.176 16.0564 11.1461 15.5257 12.2486 15.8221C12.5312 15.8976 12.8012 16.0207 13.0288 16.1014L13.2115 15.7215C13.3127 15.7877 13.4411 15.8387 13.5126 15.9307C14.0658 16.648 14.6091 17.3733 15.1544 18.096C15.1874 18.1404 15.2168 18.1873 15.2424 18.2363C15.4343 18.5956 15.2318 18.949 14.8315 18.949C13.8388 18.949 12.8462 18.949 11.8535 18.949C11.3347 18.9523 11.3235 18.9642 11.3049 19.573ZM28.8754 17.2568C28.9919 17.1907 29.0892 17.1543 29.156 17.0888C29.7212 16.5309 30.291 15.977 30.8323 15.3973C30.917 15.306 30.9342 15.0426 30.8647 14.9393C30.739 14.754 30.5338 14.8182 30.377 14.9625C30.24 15.0896 30.1123 15.2272 29.9799 15.3596C29.559 15.7804 29.1289 16.1927 28.7226 16.6282C28.6352 16.7221 28.5995 16.9054 28.614 17.0391C28.624 17.1159 28.7782 17.1788 28.8754 17.2549V17.2568ZM19.9118 12.7919C19.8251 12.6946 19.7557 12.5464 19.6743 12.5391C19.5294 12.5264 19.385 12.5687 19.2699 12.6576C18.8378 13.0606 18.4288 13.4894 18.0086 13.9057C17.8418 14.0704 17.7439 14.2564 17.9265 14.4503C18.1092 14.6442 18.2892 14.5337 18.4421 14.3801C18.8782 13.944 19.3143 13.5086 19.7444 13.0679C19.8093 13.0017 19.8437 12.9044 19.9118 12.7919ZM4.59728 16.9412C4.55625 16.8413 4.54632 16.7665 4.50463 16.7241C4.03478 16.2476 3.56757 15.7679 3.07588 15.3146C3.00971 15.2537 2.76022 15.2901 2.69074 15.3675C2.62125 15.4449 2.62853 15.6481 2.67949 15.7646C2.73838 15.8969 2.87801 15.9915 2.98853 16.1007C3.30485 16.4217 3.60993 16.7546 3.94478 17.0537C4.05 17.1483 4.23794 17.186 4.38551 17.1814C4.46096 17.1761 4.5311 17.0206 4.59728 16.9412ZM13.944 12.8554C13.9043 12.7668 13.8918 12.6933 13.8494 12.6496C13.406 12.1957 12.9666 11.7371 12.5007 11.3069C12.4346 11.2447 12.197 11.2824 12.1037 11.3565C12.0375 11.4135 12.0157 11.6557 12.0759 11.7212C12.506 12.1844 12.956 12.6371 13.4166 13.0732C13.4828 13.1334 13.6522 13.1254 13.7475 13.0871C13.8362 13.0546 13.8845 12.9322 13.944 12.8554ZM14.1108 3.61324C14.0155 3.69794 13.8918 3.75882 13.8587 3.85213C13.842 3.90625 13.8377 3.96342 13.8461 4.01942C13.8544 4.07543 13.8752 4.12884 13.907 4.17574C14.1971 4.50535 14.5093 4.81489 14.8414 5.10221C14.936 5.18162 15.1855 5.17765 15.2993 5.10684C15.4853 4.99169 15.4171 4.8011 15.2768 4.65882C14.9837 4.36235 14.6905 4.06324 14.3907 3.77669C14.3246 3.71051 14.2279 3.67875 14.1108 3.61324ZM17.6228 5.21074C17.642 5.20676 17.6996 5.21471 17.726 5.1889C18.1006 4.82228 18.4804 4.46096 18.8332 4.07051C18.8788 4.01956 18.816 3.80581 18.7405 3.72904C18.679 3.66684 18.4758 3.64368 18.4169 3.69596C18.0409 4.03258 17.6835 4.38936 17.3462 4.76471C17.1966 4.93478 17.3674 5.20015 17.6228 5.21074ZM14.1108 8.70485C14.2021 8.67772 14.269 8.67772 14.3034 8.64397C14.6554 8.30118 15.0135 7.96169 15.3404 7.59574C15.3953 7.53419 15.3536 7.29926 15.2782 7.23375C15.2027 7.16824 14.9724 7.14044 14.9036 7.20199C14.5463 7.52365 14.2063 7.86406 13.8851 8.22176C13.8282 8.28397 13.8382 8.45338 13.8799 8.54471C13.9162 8.62279 14.042 8.66051 14.1108 8.70485ZM18.8854 8.42162C18.8603 8.34287 18.859 8.28926 18.8318 8.26213C18.4725 7.89419 18.1178 7.52096 17.7379 7.17552C17.6843 7.12588 17.454 7.17552 17.3978 7.24831C17.3316 7.33434 17.3065 7.55074 17.3674 7.61956C17.6821 7.97199 18.0154 8.30732 18.366 8.62412C18.4321 8.68566 18.6042 8.68301 18.7035 8.64596C18.7855 8.61485 18.8332 8.49044 18.8854 8.42162ZM28.1025 7.72279C28.0317 7.63478 27.9821 7.51566 27.9007 7.48522C27.8047 7.45081 27.6479 7.45213 27.5751 7.51037C27.3493 7.68183 27.1468 7.88205 26.9729 8.10596C26.9067 8.20059 26.916 8.45007 26.9934 8.52684C27.0708 8.6036 27.3104 8.59302 27.411 8.51956C27.6234 8.37199 27.7948 8.16419 27.9735 7.97228C28.0284 7.91404 28.0515 7.82537 28.1025 7.72279ZM6.26426 10.08C6.25023 10.0192 6.22462 9.96169 6.18882 9.91059C5.99426 9.70213 5.80566 9.4811 5.58 9.315C5.49198 9.24882 5.25375 9.2528 5.18691 9.32294C5.12007 9.39309 5.08963 9.63794 5.15382 9.72C5.33397 9.95519 5.54448 10.1655 5.77985 10.3454C5.98301 10.5035 6.25235 10.3599 6.26493 10.08H6.26426ZM24.5951 11.205C24.6924 11.1626 24.7758 11.1481 24.8281 11.0998C25.0365 10.9052 25.2576 10.7173 25.427 10.4916C25.4932 10.4036 25.4872 10.1607 25.4164 10.0979C25.3456 10.035 25.1027 10.0052 25.0121 10.0701C24.7821 10.2401 24.5762 10.4405 24.3999 10.6657C24.3337 10.7444 24.351 10.9165 24.3827 11.031C24.4039 11.1051 24.5224 11.1501 24.5958 11.207L24.5951 11.205ZM8.83456 9.51551C8.78162 9.43544 8.74125 9.30243 8.66515 9.27728C8.55926 9.24154 8.39051 9.24353 8.31176 9.30706C8.08848 9.48196 7.88835 9.68454 7.71618 9.90993C7.65 9.99794 7.65662 10.2296 7.72676 10.303C7.79691 10.3765 8.03316 10.4016 8.11919 10.3394C8.3475 10.176 8.53743 9.95757 8.73397 9.75243C8.77963 9.70147 8.79221 9.61677 8.83456 9.51551ZM5.04794 12.6496C5.10882 12.7463 5.14456 12.874 5.22265 12.909C5.31529 12.9514 5.48073 12.96 5.55353 12.9031C5.78802 12.7234 5.9998 12.5158 6.18419 12.285C6.25037 12.1983 6.23515 11.9329 6.16566 11.8879C6.06044 11.8185 5.83478 11.8112 5.73221 11.8813C5.52772 12.0203 5.36757 12.2261 5.19618 12.4107C5.13961 12.4857 5.08999 12.5657 5.04794 12.6496ZM8.80743 12.6596C8.8114 12.4187 8.14963 11.7728 7.91471 11.788C7.71088 11.8013 7.53287 12.0276 7.65 12.1778C7.87853 12.4658 8.14346 12.723 8.43816 12.9428C8.59632 13.0573 8.80147 12.872 8.80743 12.6596ZM27.2137 9.99265C26.9252 10.0072 26.7909 10.2779 26.949 10.4817C27.1245 10.6938 27.3152 10.8928 27.5195 11.0773C27.6651 11.2169 27.8689 11.2586 27.9741 11.0773C28.0403 10.9654 28.0165 10.7358 27.9404 10.6187C27.8113 10.4201 27.6148 10.264 27.4348 10.1032C27.3671 10.0554 27.2926 10.0182 27.2137 9.99265ZM25.517 8.30647C25.5071 8.27735 25.5057 8.21052 25.4713 8.17412C25.2386 7.92812 24.9934 7.69421 24.7368 7.47331C24.6818 7.42831 24.4767 7.47331 24.4257 7.53949C24.3596 7.62551 24.3199 7.82868 24.3735 7.89154C24.5909 8.15122 24.8348 8.38743 25.1014 8.59632C25.2609 8.71676 25.513 8.53677 25.517 8.30316V8.30647ZM10.5611 19.5724C10.616 19.5551 10.7689 19.5472 10.8556 19.4678C10.9423 19.3884 11.7126 19.0932 11.7331 18.9635C11.7384 18.9304 10.8463 19.0032 10.7471 18.9569C10.6478 18.9106 10.5538 18.8768 10.4579 18.8351C10.3619 18.7935 10.2415 18.6949 10.1932 18.724C10.0972 18.7908 10.0297 18.8911 10.0039 19.0052C9.92647 19.3599 10.1118 19.5671 10.5598 19.569L10.5611 19.5724Z" fill="white"/>
<path d="M13.0291 16.1068C12.8015 16.0241 12.5315 15.903 12.2489 15.8275C11.1464 15.531 10.1763 16.0618 9.94398 17.1021C9.72427 17.7394 10.302 18.7267 10.3794 18.955C10.5118 19.3349 10.2067 18.7922 9.80501 19.0272C9.76729 18.9841 9.58332 18.6625 9.5456 18.5937C9.09692 17.7751 9.20545 16.6302 9.79177 15.9466C10.4204 15.2147 11.5673 14.8746 12.4388 15.2253C13.0152 15.4583 13.6029 15.7163 14.0972 16.0856C14.6121 16.4668 15.0329 16.9803 15.4697 17.4594C15.6411 17.6467 15.743 17.7433 16.0038 17.5779C16.2341 17.4216 16.5054 17.3366 16.7837 17.3336C17.062 17.3305 17.3351 17.4095 17.5688 17.5607C17.8415 17.7268 17.9659 17.6487 18.1313 17.433C18.8679 16.4893 19.7315 15.6972 20.8856 15.2928C22.223 14.8243 23.5704 15.2564 24.117 16.4747C24.4241 17.1597 24.3658 17.8485 24.0746 18.5262C24.025 18.6413 23.9893 18.7624 23.9304 18.9279C24.1137 18.9398 24.2414 18.955 24.3691 18.955C26.3002 18.955 28.2307 18.955 30.1609 18.955C30.6566 18.955 31.0523 19.1085 31.2475 19.5949C31.2948 19.7292 31.3173 19.8709 31.3137 20.0132C31.3196 20.8291 31.3223 21.6458 31.3137 22.4617C31.3084 23.1413 30.9332 23.5205 30.2549 23.5463C29.7916 23.5662 29.7916 23.5662 29.7916 24.0169C29.7916 26.6851 29.7916 29.354 29.781 32.0242C29.7822 32.2855 29.7234 32.5436 29.609 32.7786C29.4065 33.1684 29.0266 33.2796 28.5998 33.2789C26.8567 33.2743 25.1136 33.2789 23.3718 33.2789L5.04096 33.2743C4.19721 33.2743 3.78361 32.8653 3.77964 32.0169C3.77611 29.3474 3.77611 26.6783 3.77964 24.0096C3.77964 23.5622 3.77964 23.5622 3.35082 23.5463C2.64207 23.5185 2.27545 23.1579 2.26552 22.4465C2.25427 21.6524 2.25626 20.8583 2.26552 20.0641C2.27545 19.3362 2.65133 18.9616 3.37663 18.9597C5.37339 18.9535 7.36993 18.9522 9.36626 18.9557C9.68324 18.9557 9.71104 19.0152 9.66604 19.5658C9.60516 19.5552 9.51251 19.5658 9.49464 19.5308C9.3378 19.2396 9.12339 19.3177 8.90832 19.4335C8.47155 19.6677 8.01824 19.6002 7.55501 19.548C7.31346 19.5202 7.06199 19.5897 6.81516 19.591C5.82251 19.5969 4.82986 19.591 3.83721 19.591C2.89685 19.591 2.89552 19.591 2.89552 20.5241C2.89552 21.1415 2.89552 21.7596 2.90082 22.377C2.90611 22.784 3.03317 22.9097 3.4428 22.9104C7.25942 22.9104 11.0756 22.9122 14.8913 22.9157C15.1435 22.9157 15.248 22.8396 15.2454 22.5762C15.2348 21.6938 15.2348 20.8115 15.2454 19.9291C15.2487 19.6644 15.1382 19.5863 14.89 19.5883C13.8312 19.5956 12.7724 19.5916 11.7135 19.5883C11.5812 19.5883 8.41596 19.5996 8.26641 19.593C8.2856 18.9841 8.60324 18.9517 9.12273 18.9517C10.1154 18.9517 13.8391 18.9517 14.8318 18.9517C15.2321 18.9517 15.4346 18.5983 15.2427 18.239C15.2171 18.19 15.1877 18.1431 15.1547 18.0987C14.6094 17.376 13.2356 16.2411 13.0291 16.1041M16.8131 23.5397H4.8967C4.4381 23.5397 4.43016 23.5497 4.43016 24.003C4.43016 26.6394 4.43016 29.2759 4.43016 31.9124C4.43016 32.5305 4.54795 32.6489 5.16405 32.6489C12.9199 32.6489 20.6758 32.6489 28.4317 32.6489C29.022 32.6489 29.1722 32.4967 29.1722 31.9044C29.1722 29.3015 29.1722 26.6985 29.1722 24.0956C29.1722 23.545 29.1722 23.543 28.6282 23.5424L16.8131 23.5397ZM24.4353 22.9104C26.3218 22.9104 28.2082 22.9104 30.0947 22.9104C30.5712 22.9104 30.6652 22.8191 30.6691 22.3545C30.6753 21.6266 30.6771 20.8986 30.6744 20.1707C30.6744 19.6949 30.5838 19.6016 30.1205 19.5936C29.646 19.585 29.1716 19.5897 28.6971 19.5897H18.801C18.3484 19.5897 18.3252 19.6148 18.3246 20.0489C18.3246 20.8541 18.3246 21.6592 18.3246 22.4644C18.3246 22.8912 18.3451 22.9117 18.7752 22.9124L24.4353 22.9104ZM20.6983 18.9577V18.9517C21.3819 18.9517 22.0662 18.957 22.7498 18.9464C22.8729 18.9464 23.0277 18.916 23.1124 18.8385C23.6174 18.3806 23.8152 17.4118 23.5532 16.7798C23.2117 15.9552 22.2786 15.5489 21.3032 15.8348C19.983 16.2219 19.0889 17.1583 18.3391 18.2469C18.1108 18.5778 18.3537 18.959 18.7474 18.9577C19.3966 18.959 20.0471 18.9603 20.6983 18.9603V18.9577ZM15.8979 21.2738C15.8979 21.7139 15.9038 22.154 15.8979 22.5934C15.8932 22.8164 15.9806 22.917 16.2063 22.9137C16.6033 22.9071 17.0004 22.9058 17.3974 22.9137C17.6291 22.9177 17.7058 22.8012 17.7052 22.5874C17.7016 21.6967 17.7016 20.8058 17.7052 19.9146C17.7052 19.6942 17.6132 19.5903 17.3908 19.5923C17.0057 19.5963 16.6205 19.5996 16.236 19.5923C15.976 19.5863 15.8913 19.7055 15.8985 19.9549C15.9071 20.3944 15.8979 20.8344 15.8979 21.2745V21.2738ZM16.784 18.9524H17.4113C17.6337 18.9524 17.7012 18.8551 17.6463 18.6374C17.5523 18.2641 17.1572 17.9591 16.7661 17.9756C16.375 17.9922 15.9607 18.329 15.9296 18.6936C15.923 18.7737 16.0454 18.9272 16.1282 18.9405C16.3406 18.9762 16.5643 18.953 16.784 18.953V18.9524Z" fill="black"/>
<path d="M28.8755 17.2549C28.7783 17.1788 28.6241 17.1159 28.6155 17.0371C28.6009 16.9048 28.6366 16.7202 28.724 16.6262C29.129 16.1908 29.5591 15.7785 29.9813 15.3576C30.1137 15.2252 30.2414 15.0876 30.3784 14.9605C30.5339 14.8163 30.7404 14.7521 30.8661 14.9374C30.9356 15.0406 30.9184 15.304 30.8337 15.3953C30.2924 15.975 29.7226 16.5289 29.1574 17.0868C29.0893 17.1523 28.992 17.1867 28.8755 17.2549Z" fill="black"/>
<path d="M19.9118 12.7919C19.8456 12.9064 19.8092 13.0017 19.7444 13.0678C19.3142 13.5086 18.8781 13.944 18.442 14.3801C18.2892 14.5337 18.1072 14.6402 17.9265 14.4503C17.7459 14.2603 17.8418 14.0704 18.0086 13.9056C18.4288 13.4894 18.8378 13.0606 19.2699 12.6576C19.385 12.5686 19.5294 12.5263 19.6742 12.5391C19.7556 12.5464 19.8251 12.6946 19.9118 12.7919Z" fill="black"/>
<path d="M4.597 16.9411C4.53082 17.0205 4.46067 17.176 4.38523 17.1787C4.23766 17.184 4.04972 17.1456 3.9445 17.0509C3.60964 16.7518 3.30457 16.419 2.98825 16.098C2.88038 15.9888 2.7381 15.8935 2.6792 15.7618C2.62825 15.648 2.62097 15.4442 2.69045 15.3648C2.75994 15.2854 3.01008 15.2509 3.0756 15.3118C3.56729 15.7651 4.0345 16.2449 4.50435 16.7214C4.54604 16.7664 4.55597 16.8412 4.597 16.9411Z" fill="black"/>
<path d="M13.9437 12.8555C13.8841 12.9322 13.8358 13.054 13.7524 13.0871C13.6545 13.1255 13.4824 13.1334 13.4215 13.0732C12.9583 12.6371 12.5109 12.1878 12.0808 11.7212C12.0206 11.655 12.0404 11.4135 12.1086 11.3566C12.1993 11.2825 12.4362 11.2447 12.5057 11.307C12.9689 11.7371 13.4109 12.1957 13.8543 12.6497C13.8914 12.6933 13.904 12.7668 13.9437 12.8555Z" fill="black"/>
<path d="M14.1107 3.61328C14.2272 3.67946 14.3244 3.71056 14.3906 3.77475C14.6904 4.06328 14.9862 4.36041 15.2767 4.65688C15.417 4.79916 15.4852 4.98777 15.2992 5.1049C15.1854 5.17571 14.9359 5.17968 14.8413 5.10027C14.5092 4.81295 14.197 4.50342 13.9069 4.1738C13.8751 4.1269 13.8543 4.07349 13.8459 4.01748C13.8376 3.96148 13.8419 3.90431 13.8586 3.85019C13.8916 3.75887 14.0154 3.69799 14.1107 3.61328Z" fill="black"/>
<path d="M17.6225 5.21069C17.3671 5.2001 17.1963 4.93473 17.3459 4.76532C17.6832 4.38974 18.0406 4.03275 18.4166 3.69591C18.4735 3.64363 18.6813 3.66679 18.7402 3.729C18.8157 3.8051 18.8785 4.01951 18.8329 4.07047C18.4801 4.45826 18.1003 4.82223 17.7257 5.18885C17.6993 5.21466 17.6417 5.20672 17.6225 5.21069Z" fill="black"/>
<path d="M14.111 8.70479C14.0448 8.66045 13.9164 8.62273 13.8801 8.54464C13.8384 8.45332 13.8284 8.28391 13.8853 8.2217C14.2065 7.86399 14.5465 7.52359 14.9038 7.20192C14.97 7.14038 15.1989 7.1642 15.2784 7.23369C15.3578 7.30317 15.3955 7.53413 15.3406 7.59567C15.0137 7.96163 14.6556 8.30111 14.3036 8.64391C14.2692 8.67766 14.2023 8.67766 14.111 8.70479Z" fill="black"/>
<path d="M18.8857 8.42162C18.8335 8.48779 18.7858 8.61485 18.7038 8.64596C18.6045 8.68301 18.4338 8.68566 18.3663 8.62412C18.0157 8.30732 17.6824 7.97199 17.3677 7.61956C17.3068 7.55338 17.3319 7.33434 17.3981 7.24831C17.4543 7.17419 17.6846 7.12588 17.7382 7.17551C18.1181 7.52096 18.4728 7.89419 18.8321 8.26213C18.8606 8.28993 18.8606 8.34287 18.8857 8.42162Z" fill="black"/>
<path d="M28.102 7.72276C28.0511 7.82533 28.0279 7.91401 27.9697 7.97357C27.791 8.16548 27.6196 8.37063 27.4072 8.52085C27.3066 8.59166 27.0611 8.60026 26.9896 8.52813C26.9182 8.45599 26.9003 8.20188 26.9691 8.10724C27.1431 7.88334 27.3455 7.68312 27.5713 7.51166C27.6441 7.45342 27.8009 7.4521 27.8969 7.48651C27.9816 7.51563 28.0312 7.63474 28.102 7.72276Z" fill="black"/>
<path d="M6.26532 10.08C6.25275 10.3599 5.98341 10.5035 5.78091 10.3447C5.54553 10.1648 5.33503 9.95449 5.15488 9.7193C5.0887 9.63393 5.11253 9.39768 5.18797 9.32224C5.26341 9.2468 5.49304 9.24813 5.58106 9.3143C5.80672 9.48305 5.99532 9.70408 6.18988 9.90989C6.22575 9.96119 6.25137 10.0189 6.26532 10.08Z" fill="black"/>
<path d="M24.596 11.207C24.5226 11.1501 24.4041 11.1051 24.3836 11.0323C24.3518 10.9178 24.3373 10.7458 24.4008 10.667C24.5771 10.4418 24.783 10.2415 25.0129 10.0714C25.1036 10.0052 25.3365 10.0244 25.4173 10.0992C25.498 10.174 25.4934 10.4049 25.4278 10.493C25.2584 10.7186 25.0374 10.9066 24.829 11.1011C24.7767 11.1501 24.6933 11.1647 24.596 11.207Z" fill="black"/>
<path d="M8.83457 9.51556C8.79222 9.61681 8.77964 9.70152 8.732 9.75247C8.53347 9.95762 8.34553 10.176 8.11722 10.3395C8.03119 10.4017 7.79626 10.3778 7.72479 10.3031C7.65332 10.2283 7.64869 9.99799 7.7142 9.90997C7.88638 9.68459 8.08651 9.48201 8.30979 9.30711C8.38854 9.24093 8.55729 9.24093 8.66317 9.27733C8.74126 9.30247 8.78163 9.43549 8.83457 9.51556Z" fill="black"/>
<path d="M5.04785 12.6497C5.08903 12.5656 5.13776 12.4854 5.19344 12.4101C5.36484 12.2248 5.52432 12.019 5.72947 11.8807C5.83337 11.8105 6.06035 11.8145 6.16292 11.8873C6.23241 11.9336 6.24763 12.199 6.18145 12.2844C5.99718 12.5159 5.7854 12.7241 5.55079 12.9044C5.48065 12.9614 5.3152 12.9527 5.21991 12.9104C5.14447 12.874 5.10873 12.7463 5.04785 12.6497Z" fill="black"/>
<path d="M8.80707 12.6597C8.80376 12.8721 8.59597 13.0568 8.43979 12.9429C8.14501 12.7227 7.88007 12.4651 7.65163 12.1766C7.53251 12.0264 7.71053 11.8001 7.91634 11.7868C8.14928 11.7729 8.81104 12.4188 8.80707 12.6597Z" fill="black"/>
<path d="M27.2137 9.99268C27.2925 10.0182 27.367 10.0554 27.4347 10.1032C27.6147 10.264 27.8113 10.4208 27.9403 10.6187C28.0164 10.7358 28.0403 10.9655 27.9741 11.0773C27.8689 11.2566 27.665 11.215 27.5195 11.0773C27.3151 10.8929 27.1245 10.6938 26.949 10.4817C26.7909 10.2746 26.9252 10.0039 27.2137 9.99268Z" fill="black"/>
<path d="M25.517 8.30306C25.513 8.53402 25.2609 8.71666 25.1014 8.59424C24.8349 8.38535 24.5909 8.14914 24.3735 7.88946C24.3199 7.82328 24.3602 7.62475 24.4258 7.5374C24.4767 7.47122 24.6819 7.42689 24.7368 7.47122C24.9935 7.69213 25.2386 7.92604 25.4713 8.17203C25.5058 8.20578 25.5071 8.27196 25.517 8.30306Z" fill="black"/>
<path d="M16.8129 23.5422H28.6288C29.1721 23.5422 29.1727 23.5422 29.1727 24.0954C29.1727 26.6984 29.1727 29.3013 29.1727 31.9043C29.1727 32.4965 29.0225 32.6487 28.4322 32.6487C20.6763 32.6487 12.9204 32.6487 5.16456 32.6487C4.54846 32.6487 4.43066 32.5303 4.43066 31.9122C4.43066 29.2757 4.43066 26.6393 4.43066 24.0028C4.43066 23.5521 4.43861 23.5396 4.89721 23.5396H16.8129V23.5422Z" fill="#ECBC4D"/>
<path d="M24.4359 22.9128H18.7759C18.3457 22.9128 18.3259 22.8917 18.3252 22.4648C18.3252 21.6597 18.3252 20.8545 18.3252 20.0494C18.3252 19.6153 18.349 19.5908 18.8017 19.5901H28.6977C29.1722 19.5901 29.6467 19.5855 30.1212 19.5941C30.5844 19.602 30.6731 19.6953 30.675 20.1711C30.6777 20.8991 30.6759 21.627 30.6698 22.355C30.6658 22.8182 30.5718 22.9102 30.0953 22.9108C28.2084 22.9139 26.322 22.9146 24.4359 22.9128Z" fill="white"/>
<path d="M20.6987 18.9601C20.0475 18.9601 19.397 18.9601 18.7465 18.9601C18.3528 18.9601 18.1099 18.5816 18.3382 18.2494C19.088 17.1594 19.982 16.2244 21.3022 15.8372C22.279 15.5513 23.2121 15.9577 23.5522 16.7822C23.817 17.4142 23.6184 18.383 23.1115 18.841C23.0268 18.9184 22.872 18.9475 22.7489 18.9488C22.0653 18.9594 21.381 18.9541 20.6974 18.9541L20.6987 18.9601Z" fill="white"/>
<path d="M15.8984 21.2743C15.8984 20.8342 15.9076 20.3941 15.8944 19.9508C15.8871 19.7013 15.9718 19.5821 16.2319 19.5881C16.6164 19.596 17.0015 19.5927 17.3867 19.5881C17.609 19.5881 17.7023 19.69 17.701 19.9104C17.697 20.8016 17.697 21.6925 17.701 22.5833C17.701 22.797 17.6249 22.9141 17.3933 22.9095C16.9962 22.9022 16.5992 22.9035 16.2021 22.9095C15.9764 22.9128 15.8891 22.8122 15.8937 22.5892C15.9043 22.1544 15.8984 21.7144 15.8984 21.2743Z" fill="#ECBC4D"/>
<path d="M16.7842 18.9529C16.5645 18.9529 16.3408 18.9761 16.1264 18.941C16.0457 18.9278 15.9232 18.7743 15.9279 18.6942C15.959 18.3296 16.3732 17.9921 16.7643 17.9762C17.1554 17.9603 17.5505 18.2647 17.6445 18.6379C17.6994 18.8557 17.6319 18.9543 17.4096 18.9529H16.7842Z" fill="white"/>
</svg>
