<svg width="14" height="36" viewBox="0 0 14 36" fill="none" xmlns="http://www.w3.org/2000/svg">
<path d="M6.13888 11.4903V10.2102C5.71238 10.0469 5.29109 9.94251 4.92574 9.73532C3.8579 9.12928 3.38802 8.1292 3.29446 6.92141C3.21135 5.85066 3.52548 4.85862 3.94572 3.8987C4.52485 2.57365 5.28482 1.35996 6.15038 0.214269C6.35423 -0.0534165 6.55964 -0.0721545 6.74676 0.176793C7.84021 1.62979 8.79933 3.16631 9.36957 4.92554C9.71611 5.99628 9.79294 7.07559 9.36957 8.14259C8.9462 9.20958 8.16741 9.86381 7.05776 10.0962L6.93022 10.1245C6.88945 10.1331 6.84816 10.1406 6.79641 10.1508V11.4892H7.08807C8.77772 11.4892 10.4677 11.4892 12.1581 11.4892C12.9003 11.4892 13.482 11.7922 13.8097 12.4893C13.9193 12.7317 13.9787 12.9947 13.9843 13.2618C14.0052 14.1607 14.0094 15.0617 13.9875 15.9606C13.9851 16.2923 13.9089 16.619 13.7646 16.9159C13.6203 17.2127 13.4117 17.472 13.1548 17.6738C12.9844 17.8119 12.9311 17.9522 12.9316 18.1669C12.9379 21.2538 12.9358 32.3714 12.9353 35.4594C12.9353 35.9311 12.8658 35.9996 12.4095 35.9996C8.46324 35.9996 4.51735 35.9996 0.571813 35.9996C0.0533134 35.9996 0.00209072 35.946 0.00209072 35.4225C0 31.1234 0.00313608 18.7917 0.00470413 14.4926C0.00470413 14.0734 0 13.6521 0 13.235C0 12.2178 0.696211 11.4956 1.68983 11.4919C3.06604 11.4871 4.44226 11.4919 5.819 11.4919L6.13888 11.4903ZM3.28452 12.1482C2.75034 12.1482 2.24753 12.1482 1.74471 12.1482C1.02654 12.1482 0.630875 12.5546 0.630875 13.2929C0.630875 17.8698 0.630875 30.4783 0.630875 35.0536C0.630875 35.1489 0.639238 35.2436 0.643942 35.3411H12.2694V18.1669C12.065 18.1835 11.8837 18.2081 11.7023 18.2124C11.1033 18.2258 10.8718 18.4704 10.8718 19.0818C10.8718 20.2329 10.878 21.3839 10.8718 22.5345C10.8731 22.894 10.7639 23.2449 10.5596 23.5374C10.3554 23.8299 10.0665 24.0492 9.73388 24.1641C8.60019 24.5523 7.47276 23.7358 7.46858 22.5077C7.46126 20.4374 7.46858 18.3677 7.4644 16.2974C7.4644 15.8353 7.15079 15.5045 6.72376 15.5077C6.27321 15.5114 5.97372 15.8096 5.96431 16.2786C5.95647 16.6711 5.96431 17.0635 5.95908 17.4565C5.96171 17.5988 5.94679 17.7409 5.91465 17.8794C5.83017 18.2016 5.63271 18.4807 5.36003 18.6632C5.08734 18.8457 4.75856 18.9189 4.43651 18.8688C4.11737 18.8286 3.82388 18.6693 3.61221 18.4214C3.40054 18.1735 3.28554 17.8543 3.28923 17.525C3.28296 15.8482 3.28923 14.1709 3.28923 12.4925L3.28452 12.1482ZM3.93997 12.1482C3.9279 12.1913 3.91933 12.2354 3.91435 12.2799C3.91435 14.0274 3.90704 15.7743 3.91435 17.5218C3.91454 17.6181 3.93376 17.7134 3.97084 17.8019C4.00791 17.8904 4.06209 17.9704 4.13011 18.0369C4.19813 18.1034 4.27858 18.1551 4.36663 18.189C4.45468 18.2228 4.5485 18.2381 4.64245 18.2338C5.03394 18.2226 5.32193 17.9228 5.32664 17.5089C5.33186 17.0806 5.31462 16.6523 5.33239 16.224C5.35173 15.7545 5.53519 15.3621 5.93608 15.0997C6.40963 14.793 6.90931 14.7721 7.39279 15.0387C7.87627 15.3053 8.09371 15.7497 8.09214 16.3172C8.08744 18.3516 8.0843 20.386 8.09894 22.4172C8.10263 22.6646 8.16794 22.9069 8.28867 23.1212C8.53746 23.5463 9.02356 23.7048 9.47306 23.5699C9.69535 23.5004 9.88997 23.3597 10.0282 23.1683C10.1665 22.977 10.241 22.7452 10.2409 22.5071C10.2456 21.3122 10.2409 20.1172 10.2445 18.9202C10.2482 18.1299 10.7913 17.5785 11.5627 17.5683C12.6828 17.5539 13.3602 16.8536 13.3623 15.7058C13.3623 14.9391 13.3623 14.1725 13.3623 13.4037C13.3623 12.591 12.9269 12.1429 12.1393 12.1424C9.50146 12.1424 6.86332 12.1424 4.22483 12.1424L3.93997 12.1482ZM6.48594 0.873847C6.45627 0.898582 6.42832 0.925417 6.40231 0.954153C5.55087 2.14161 4.79194 3.38795 4.28128 4.7751C3.96349 5.63812 3.78368 6.52202 4.00948 7.44446C4.2635 8.48201 4.86616 9.19727 5.90368 9.43176C6.92813 9.66358 7.80989 9.35788 8.45018 8.49272C9.01415 7.73035 9.12966 6.83842 8.95613 5.92294C8.59496 4.01541 7.5611 2.44998 6.48594 0.873847Z" fill="black"/>
<path d="M3.28458 12.1483V12.4936C3.28458 14.1709 3.2804 15.8482 3.28458 17.5261C3.28089 17.8554 3.39589 18.1746 3.60756 18.4225C3.81923 18.6704 4.11271 18.8297 4.43186 18.8699C4.75409 18.9206 5.08327 18.8479 5.35639 18.6655C5.6295 18.4832 5.82736 18.204 5.91209 17.8816C5.94423 17.7431 5.95915 17.601 5.95652 17.4586C5.96279 17.0662 5.95652 16.6738 5.96175 16.2808C5.97116 15.8118 6.27065 15.5136 6.7212 15.5099C7.14562 15.5067 7.46132 15.8375 7.46184 16.2996C7.46445 18.3693 7.4587 20.4391 7.46602 22.5099C7.4702 23.7369 8.59763 24.5545 9.73132 24.1663C10.0648 24.0517 10.3545 23.8323 10.5593 23.5394C10.764 23.2464 10.8734 22.8948 10.8718 22.5345C10.8796 21.384 10.8755 20.2324 10.8718 19.0819C10.8718 18.4689 11.1044 18.2253 11.7034 18.2124C11.8848 18.2082 12.0661 18.1835 12.2705 18.1669V35.3417H0.64295C0.638246 35.2442 0.629883 35.1495 0.629883 35.0542C0.629883 30.4778 0.629883 17.8687 0.629883 13.2934C0.629883 12.5552 1.02555 12.151 1.74372 12.1488C2.24758 12.1467 2.7504 12.1483 3.28458 12.1483ZM2.35473 21.2496C2.35473 20.3764 2.35473 19.5032 2.35473 18.63C2.35473 18.4062 2.26953 18.2665 2.05105 18.2419C1.86916 18.2221 1.72594 18.3822 1.72542 18.6097C1.72229 20.3764 1.71915 22.1383 1.73274 23.9024C1.73274 24.018 1.85243 24.1834 1.95854 24.237C2.16761 24.3441 2.3495 24.162 2.35107 23.8692C2.35734 22.9933 2.35473 22.1201 2.35473 21.2469V21.2496Z" fill="#ECBC4D"/>
<path d="M3.94042 12.1467H4.22267C6.86081 12.1467 9.49896 12.1467 12.1371 12.1467C12.9248 12.1467 13.3586 12.5954 13.3602 13.4081C13.3602 14.1747 13.3638 14.9414 13.3602 15.7102C13.3602 16.858 12.6807 17.5583 11.5606 17.5727C10.7891 17.5829 10.246 18.1343 10.2424 18.9245C10.2372 20.1195 10.2424 21.3144 10.2387 22.5115C10.2389 22.7496 10.1643 22.9813 10.0261 23.1727C9.88782 23.364 9.6932 23.5048 9.47091 23.5742C9.0214 23.7092 8.53531 23.5507 8.28651 23.1256C8.16578 22.9113 8.10047 22.669 8.09678 22.4216C8.08214 20.3872 8.08528 18.3528 8.08999 16.3216C8.08999 15.7541 7.8736 15.3092 7.39064 15.0431C6.90768 14.777 6.40748 14.7974 5.93393 15.1041C5.53303 15.3643 5.34957 15.7567 5.33023 16.2284C5.31246 16.6567 5.33023 17.085 5.32448 17.5133C5.31926 17.9271 5.03178 18.2269 4.64029 18.2382C4.54634 18.2424 4.45252 18.2272 4.36447 18.1934C4.27643 18.1595 4.19597 18.1078 4.12796 18.0413C4.05994 17.9747 4.00576 17.8948 3.96868 17.8063C3.9316 17.7178 3.91239 17.6225 3.9122 17.5261C3.9054 15.7787 3.9122 14.0318 3.9122 12.2843C3.91771 12.2377 3.92715 12.1917 3.94042 12.1467Z" fill="white"/>
<path d="M6.48569 0.873779C7.56085 2.44991 8.59471 4.01641 8.95588 5.9218C9.12941 6.83836 9.0139 7.73029 8.44993 8.49158C7.80964 9.35674 6.92788 9.66244 5.90343 9.43062C4.86591 9.19613 4.26326 8.48088 4.00923 7.44333C3.78344 6.52088 3.96324 5.63698 4.28103 4.77396C4.79169 3.38788 5.55062 2.14154 6.40206 0.954085C6.42808 0.925349 6.45602 0.898514 6.48569 0.873779ZM4.54289 6.98987C4.557 7.10229 4.56955 7.27147 4.60091 7.43744C4.76294 8.30046 5.34207 8.88294 6.18202 9.03606C6.89548 9.16562 7.68263 8.80478 8.06367 8.15162C8.42379 7.53487 8.45934 6.86673 8.2811 6.18788C7.99676 5.10054 7.41032 4.17595 6.7554 3.29045C6.5641 3.03186 6.34143 3.03936 6.16006 3.31614C5.79419 3.87775 5.41995 4.44043 5.09745 5.02933C4.77496 5.61824 4.56223 6.2473 4.54289 6.98987Z" fill="white"/>
<path d="M2.35493 21.2469C2.35493 22.1201 2.35754 22.9933 2.35493 23.8665C2.35493 24.1593 2.1699 24.3398 1.96239 24.2343C1.85786 24.1808 1.73764 24.0153 1.7366 23.8997C1.72301 22.133 1.72614 20.3716 1.72928 18.607C1.72928 18.3795 1.87302 18.2194 2.05491 18.2392C2.27339 18.2638 2.36015 18.4036 2.35859 18.6273C2.35231 19.5005 2.35493 20.3737 2.35493 21.2469Z" fill="black"/>
<path d="M4.54297 6.98987C4.56231 6.24731 4.77713 5.61396 5.09753 5.0288C5.41794 4.44364 5.79165 3.87775 6.16014 3.31561C6.34151 3.03883 6.56417 3.03133 6.75548 3.28992C7.41039 4.17596 7.99684 5.10054 8.28118 6.18788C8.45941 6.86727 8.42387 7.53488 8.06375 8.15163C7.68271 8.80478 6.89555 9.16562 6.1821 9.03606C5.34215 8.88401 4.76302 8.29832 4.59942 7.43744C4.56963 7.27147 4.55708 7.1023 4.54297 6.98987ZM6.46434 3.97573C5.95316 4.73221 5.49059 5.4646 5.27838 6.32012C5.20175 6.63854 5.18403 6.96885 5.22611 7.29396C5.29406 7.81541 5.58885 8.1982 6.09951 8.35025C6.59135 8.49748 7.03668 8.38237 7.38374 7.99208C7.7538 7.5761 7.80763 7.06161 7.70362 6.53641C7.51807 5.59201 7.01995 4.79966 6.46434 3.97573Z" fill="black"/>
<path d="M6.46444 3.97583C7.02005 4.79977 7.51817 5.59212 7.70581 6.53651C7.81035 7.06171 7.75808 7.57621 7.38593 7.99219C7.03887 8.38247 6.59355 8.49758 6.1017 8.35035C5.59104 8.19831 5.29625 7.81498 5.2283 7.29406C5.18622 6.96895 5.20395 6.63865 5.28057 6.32022C5.49069 5.4647 5.95326 4.73231 6.46444 3.97583Z" fill="#ECBC4D"/>
<path fill-rule="evenodd" clip-rule="evenodd" d="M9.8269 32.4904C9.87984 32.3965 9.97767 32.3386 10.0835 32.3386H11.7472C11.8531 32.3386 11.9509 32.3965 12.0039 32.4904L12.836 33.9664C12.8889 34.0603 12.8889 34.1761 12.836 34.27L12.0039 35.746C11.9509 35.8399 11.8531 35.8978 11.7472 35.8978H10.0835C9.97767 35.8978 9.87984 35.8399 9.8269 35.746L8.99479 34.27C8.94184 34.1761 8.94184 34.0603 8.99479 33.9664L9.8269 32.4904ZM10.2546 32.9457L9.59366 34.1182L10.2546 35.2907H11.5761L12.2371 34.1182L11.5761 32.9457H10.2546Z" fill="black"/>
<path fill-rule="evenodd" clip-rule="evenodd" d="M7.34448 30.9914C7.39742 30.8974 7.49525 30.8396 7.60112 30.8396H9.26482C9.37069 30.8396 9.46852 30.8974 9.52146 30.9914L10.3536 32.4674C10.4065 32.5613 10.4065 32.677 10.3536 32.771L9.52146 34.247C9.46852 34.3409 9.37069 34.3987 9.26482 34.3987H7.60112C7.49525 34.3987 7.39742 34.3409 7.34448 34.247L6.51237 32.771C6.45942 32.677 6.45942 32.5613 6.51237 32.4674L7.34448 30.9914ZM7.77221 31.4467L7.11124 32.6192L7.77221 33.7916H9.09373L9.7547 32.6192L9.09373 31.4467H7.77221Z" fill="black"/>
<path fill-rule="evenodd" clip-rule="evenodd" d="M4.81225 29.5155C4.86519 29.4216 4.96303 29.3638 5.0689 29.3638H6.78486C6.89073 29.3638 6.98856 29.4216 7.0415 29.5155L7.87361 30.9916C7.92798 31.088 7.92643 31.2072 7.86955 31.3021L6.98518 32.7781C6.93128 32.8681 6.83563 32.9229 6.73259 32.9229H5.0689C4.96303 32.9229 4.86519 32.8651 4.81225 32.7712L3.98014 31.2951C3.92719 31.2012 3.92719 31.0855 3.98014 30.9916L4.81225 29.5155ZM5.23999 29.9709L4.57901 31.1433L5.23999 32.3158H6.56675L7.27208 31.1386L6.61377 29.9709H5.23999Z" fill="black"/>
<path fill-rule="evenodd" clip-rule="evenodd" d="M7.33469 28.0495C7.38763 27.9556 7.48547 27.8977 7.59136 27.8977H9.25557C9.36146 27.8977 9.45931 27.9556 9.51224 28.0495L10.3443 29.5261C10.3973 29.62 10.3973 29.7357 10.3443 29.8296L9.51222 31.3056C9.45928 31.3995 9.36144 31.4574 9.25557 31.4574H7.59136C7.48549 31.4574 7.38765 31.3995 7.33471 31.3056L6.50261 29.8296C6.44966 29.7357 6.44965 29.62 6.50258 29.5261L7.33469 28.0495ZM7.76248 28.5048L7.10146 29.6778L7.76245 30.8503H9.08448L9.74548 29.6778L9.08445 28.5048H7.76248Z" fill="black"/>
<path fill-rule="evenodd" clip-rule="evenodd" d="M4.85227 26.5505C4.9052 26.4565 5.00305 26.3987 5.10894 26.3987H6.77315C6.87904 26.3987 6.97688 26.4565 7.02982 26.5505L7.86193 28.027C7.91486 28.121 7.91485 28.2367 7.8619 28.3306L7.0298 29.8066C6.97685 29.9005 6.87902 29.9584 6.77315 29.9584H5.10894C5.00306 29.9584 4.90523 29.9005 4.85229 29.8066L4.02018 28.3306C3.96724 28.2367 3.96723 28.121 4.02016 28.027L4.85227 26.5505ZM5.28006 27.0058L4.61903 28.1788L5.28003 29.3513H6.60206L7.26305 28.1788L6.60203 27.0058H5.28006Z" fill="black"/>
<path fill-rule="evenodd" clip-rule="evenodd" d="M2.32006 25.0746C2.37301 24.9807 2.47084 24.9229 2.57671 24.9229H4.29319C4.39907 24.9229 4.4969 24.9807 4.54984 25.0746L5.38195 26.5506C5.43631 26.6471 5.43476 26.7662 5.37791 26.8612L4.49354 28.3377C4.43964 28.4277 4.34398 28.4825 4.24092 28.4825H2.57671C2.47082 28.4825 2.37298 28.4247 2.32004 28.3307L1.48793 26.8542C1.435 26.7603 1.43501 26.6445 1.48796 26.5506L2.32006 25.0746ZM2.7478 25.53L2.08681 26.7025L2.74783 27.8754H4.07505L4.78043 26.6977L4.1221 25.53H2.7478Z" fill="black"/>
</svg>
