<svg width="19" height="36" viewBox="0 0 19 36" fill="none" xmlns="http://www.w3.org/2000/svg">
<path d="M8.1121 14.7892V13.1416C7.5485 12.9315 6.9918 12.7971 6.50902 12.5304C5.09795 11.7504 4.47702 10.4632 4.35339 8.90857C4.24357 7.5304 4.65867 6.25352 5.21398 5.01798C5.97926 3.31249 6.98352 1.75033 8.12729 0.275684C8.39666 -0.0688597 8.6681 -0.0929778 8.91536 0.227448C10.3603 2.09763 11.6277 4.07531 12.3812 6.33965C12.8391 7.71783 12.9407 9.10703 12.3812 10.4804C11.8218 11.8537 10.7926 12.6958 9.32632 12.9949L9.15779 13.0314C9.10392 13.0424 9.04936 13.0521 8.98098 13.0651V14.7879H9.36638C11.5991 14.7879 13.8323 14.7879 16.066 14.7879C17.0468 14.7879 17.8155 15.1779 18.2486 16.0751C18.3934 16.3871 18.4719 16.7257 18.4793 17.0694C18.5069 18.2264 18.5124 19.3862 18.4834 20.5431C18.4803 20.97 18.3796 21.3905 18.1889 21.7726C17.9982 22.1548 17.7227 22.4884 17.3832 22.7482C17.158 22.926 17.0875 23.1065 17.0882 23.3829C17.0965 27.3561 17.0981 31.3299 17.0931 35.3041C17.0931 35.9112 17.0012 35.9994 16.3982 35.9994C11.1836 35.9994 5.96936 35.9994 0.755609 35.9994C0.0704498 35.9994 0.00276274 35.9305 0.00276274 35.2565L0.00621617 18.6537C0.00621617 18.1141 0 17.5718 0 17.035C0 15.7257 0.919993 14.7961 2.23299 14.7913C4.05156 14.7851 5.87013 14.7913 7.6894 14.7913L8.1121 14.7892ZM4.34026 15.6361C3.63438 15.6361 2.96995 15.6361 2.30551 15.6361C1.35651 15.6361 0.833657 16.1592 0.833657 17.1094C0.833657 23.0006 0.833657 28.8914 0.833657 34.7817C0.833657 34.9044 0.844708 35.0264 0.850924 35.1518H16.2131V23.3829C15.9431 23.4042 15.7034 23.4359 15.4637 23.4414C14.6722 23.4587 14.3662 23.7736 14.3662 24.5605C14.3662 26.042 14.3745 27.5236 14.3662 29.0044C14.368 29.4673 14.2237 29.9189 13.9538 30.2954C13.684 30.6719 13.3022 30.9541 12.8626 31.102C11.3645 31.6016 9.87472 30.5507 9.8692 28.97C9.85953 26.3053 9.8692 23.6413 9.86367 20.9766C9.86367 20.3819 9.44926 19.956 8.88497 19.9602C8.2896 19.965 7.89384 20.3488 7.88141 20.9524C7.87105 21.4575 7.88141 21.9626 7.8745 22.4684C7.87798 22.6516 7.85826 22.8345 7.81579 23.0128C7.70415 23.4276 7.44322 23.7867 7.08289 24.0217C6.72256 24.2566 6.28809 24.3508 5.86253 24.2863C5.4408 24.2346 5.05298 24.0296 4.77328 23.7104C4.49357 23.3913 4.34161 22.9805 4.34648 22.5566C4.33819 20.3984 4.34648 18.2395 4.34648 16.0792L4.34026 15.6361ZM5.20638 15.6361C5.19043 15.6916 5.17911 15.7483 5.17254 15.8056C5.17254 18.0548 5.16287 20.3033 5.17254 22.5525C5.17279 22.6765 5.19818 22.7991 5.24718 22.9131C5.29617 23.027 5.36776 23.1299 5.45765 23.2155C5.54753 23.3011 5.65384 23.3677 5.77019 23.4113C5.88654 23.4548 6.01052 23.4745 6.13466 23.469C6.65199 23.4545 7.03256 23.0686 7.03877 22.536C7.04568 21.9847 7.02289 21.4334 7.04637 20.8822C7.07192 20.2778 7.31435 19.7727 7.84411 19.4351C8.46987 19.0402 9.13017 19.0134 9.76905 19.3565C10.4079 19.6997 10.6953 20.2716 10.6932 21.0021C10.687 23.6206 10.6828 26.2391 10.7022 28.8535C10.707 29.1719 10.7933 29.4838 10.9529 29.7597C11.2816 30.3068 11.924 30.5108 12.518 30.3371C12.8117 30.2478 13.0689 30.0666 13.2516 29.8203C13.4343 29.574 13.5328 29.2757 13.5326 28.9693C13.5388 27.4312 13.5326 25.8932 13.5374 24.3524C13.5423 23.3353 14.2599 22.6256 15.2793 22.6125C16.7595 22.5939 17.6546 21.6925 17.6574 20.2151C17.6574 19.2283 17.6574 18.2416 17.6574 17.252C17.6574 16.206 17.082 15.6292 16.0412 15.6286C12.5555 15.6286 9.06939 15.6286 5.58281 15.6286L5.20638 15.6361ZM8.57071 1.12464C8.5315 1.15648 8.49457 1.19102 8.4602 1.228C7.33508 2.7564 6.3322 4.3606 5.6574 6.14602C5.23746 7.25683 4.99987 8.39451 5.29824 9.58181C5.63392 10.9173 6.43028 11.8379 7.80129 12.1397C9.15503 12.4381 10.3202 12.0446 11.1663 10.931C11.9116 9.94978 12.0642 8.80176 11.8349 7.62343C11.3576 5.16821 9.99145 3.15331 8.57071 1.12464Z" fill="black"/>
<path d="M4.34002 15.6362V16.0807C4.34002 18.2396 4.3345 20.3985 4.34002 22.5581C4.33515 22.982 4.48711 23.3928 4.76682 23.7119C5.04652 24.031 5.43434 24.236 5.85607 24.2877C6.28188 24.3531 6.71687 24.2594 7.07777 24.0247C7.43867 23.79 7.70013 23.4307 7.8121 23.0157C7.85456 22.8374 7.87428 22.6545 7.8708 22.4713C7.87909 21.9662 7.8708 21.4611 7.87771 20.9553C7.89014 20.3517 8.2859 19.9678 8.88128 19.963C9.44211 19.9589 9.85929 20.3847 9.85998 20.9794C9.86343 23.6434 9.85583 26.3075 9.8655 28.9728C9.87103 30.5522 11.3608 31.6045 12.8589 31.1049C13.2996 30.9574 13.6824 30.675 13.953 30.2979C14.2236 29.9208 14.3681 29.4683 14.366 29.0045C14.3764 27.5237 14.3708 26.0415 14.366 24.5606C14.366 23.7716 14.6734 23.4581 15.4649 23.4415C15.7046 23.436 15.9442 23.4043 16.2143 23.383V35.1526H0.849298C0.843082 35.0272 0.832031 34.9052 0.832031 34.7825C0.832031 28.8922 0.832031 23.0014 0.832031 17.1102C0.832031 16.1599 1.35488 15.6397 2.30388 15.6369C2.9697 15.6342 3.63414 15.6362 4.34002 15.6362ZM3.11129 27.3507C3.11129 26.2268 3.11129 25.1029 3.11129 23.979C3.11129 23.691 2.99871 23.5111 2.71 23.4794C2.46965 23.4539 2.2804 23.66 2.27971 23.9528C2.27556 26.2268 2.27142 28.4946 2.28938 30.7652C2.28938 30.914 2.44754 31.1269 2.58775 31.1958C2.86403 31.3337 3.10439 31.0994 3.10646 30.7224C3.11475 29.5951 3.11129 28.4712 3.11129 27.3473V27.3507Z" fill="white"/>
<path d="M5.20633 15.634H5.5793C9.06541 15.634 12.5515 15.634 16.0377 15.634C17.0785 15.634 17.6518 16.2115 17.6539 17.2575C17.6539 18.2443 17.6587 19.2311 17.6539 20.2206C17.6539 21.698 16.756 22.5993 15.2758 22.6179C14.2564 22.631 13.5388 23.3408 13.5339 24.3579C13.527 25.8959 13.5339 27.434 13.5291 28.9748C13.5293 29.2812 13.4307 29.5795 13.2481 29.8258C13.0654 30.072 12.8082 30.2532 12.5145 30.3426C11.9205 30.5163 11.2781 30.3123 10.9494 29.7652C10.7898 29.4893 10.7035 29.1774 10.6987 28.859C10.6793 26.2405 10.6835 23.6219 10.6897 21.0075C10.6897 20.2771 10.4037 19.7045 9.76554 19.362C9.12735 19.0195 8.46636 19.0457 7.8406 19.4406C7.31084 19.7754 7.06841 20.2805 7.04286 20.8876C7.01938 21.4389 7.04286 21.9902 7.03526 22.5414C7.02835 23.0741 6.64848 23.46 6.13115 23.4745C6.007 23.48 5.88303 23.4603 5.76668 23.4168C5.65033 23.3732 5.54402 23.3066 5.45414 23.221C5.36425 23.1354 5.29266 23.0325 5.24366 22.9186C5.19467 22.8046 5.16928 22.682 5.16903 22.558C5.16005 20.3088 5.16903 18.0603 5.16903 15.8111C5.17631 15.7511 5.18879 15.6919 5.20633 15.634Z" fill="#ECBC4D"/>
<path d="M8.57101 1.12476C9.99175 3.15343 11.3579 5.1697 11.8352 7.62216C12.0645 8.80188 11.9119 9.9499 11.1666 10.9298C10.3205 12.0433 9.15533 12.4368 7.80159 12.1384C6.43058 11.8366 5.63422 10.916 5.29854 9.58055C5.00017 8.39325 5.23776 7.25557 5.6577 6.14476C6.3325 4.36071 7.33537 2.75652 8.4605 1.22812C8.49487 1.19113 8.5318 1.15659 8.57101 1.12476ZM6.00373 8.99689C6.02238 9.1416 6.03896 9.35935 6.0804 9.57297C6.29451 10.6838 7.05979 11.4335 8.16972 11.6306C9.11251 11.7973 10.1527 11.3329 10.6562 10.4922C11.1321 9.69838 11.179 8.8384 10.9435 7.96464C10.5678 6.5651 9.79283 5.37505 8.9274 4.2353C8.67461 3.90247 8.38038 3.91212 8.14071 4.26837C7.65723 4.99123 7.1627 5.71546 6.73655 6.47345C6.3104 7.23145 6.02929 8.04113 6.00373 8.99689Z" fill="white"/>
<path d="M3.11159 27.3471C3.11159 28.471 3.11504 29.5949 3.11159 30.7188C3.11159 31.0957 2.86709 31.3279 2.59288 31.1922C2.45475 31.1233 2.29589 30.9103 2.29451 30.7615C2.27655 28.4875 2.28069 26.2204 2.28484 23.9492C2.28484 23.6563 2.47478 23.4503 2.71514 23.4758C3.00384 23.5075 3.1185 23.6873 3.11642 23.9754C3.10814 25.0993 3.11159 26.2232 3.11159 27.3471Z" fill="black"/>
<path d="M6.00391 8.99683C6.02946 8.04107 6.31333 7.22588 6.73672 6.47271C7.16011 5.71953 7.65395 4.99117 8.14089 4.26763C8.38055 3.91137 8.67479 3.90172 8.92758 4.23455C9.793 5.37499 10.568 6.56504 10.9437 7.96458C11.1792 8.83903 11.1322 9.69833 10.6564 10.4922C10.1529 11.3328 9.11268 11.7973 8.16989 11.6305C7.05996 11.4348 6.29468 10.681 6.0785 9.57291C6.03913 9.35929 6.02255 9.14154 6.00391 8.99683ZM8.54286 5.11727C7.86737 6.09095 7.25612 7.03362 6.9757 8.13479C6.87444 8.54464 6.85102 8.96978 6.90663 9.38824C6.99642 10.0594 7.38597 10.5521 8.06077 10.7478C8.7107 10.9373 9.29917 10.7892 9.75778 10.2868C10.2468 9.75139 10.3179 9.08917 10.1805 8.41318C9.93529 7.19763 9.27706 6.17778 8.54286 5.11727Z" fill="black"/>
<path d="M8.54275 5.11719C9.27695 6.17769 9.93517 7.19754 10.1831 8.41309C10.3213 9.08909 10.2522 9.7513 9.76043 10.2867C9.30182 10.7891 8.71335 10.9372 8.06342 10.7477C7.38862 10.552 6.99907 10.0586 6.90928 9.38815C6.85367 8.9697 6.8771 8.54455 6.97835 8.1347C7.25601 7.03354 7.86726 6.09087 8.54275 5.11719Z" fill="#ECBC4D"/>
</svg>
