<svg width="36" height="36" viewBox="0 0 36 36" fill="none" xmlns="http://www.w3.org/2000/svg">
<path d="M29.8523 12.4808C29.8523 13.2607 29.8741 14.0417 29.8377 14.8204C29.828 15.0225 29.6378 15.2177 29.53 15.4152C29.3737 15.2497 29.1266 15.107 29.0732 14.9151C28.545 13.0483 27.6981 11.323 26.3472 9.87407C23.4843 6.80718 19.9102 5.53521 15.6418 6.52402C11.0936 7.58247 8.59052 10.6071 7.25174 14.6616C7.16087 14.9368 6.92946 15.172 6.76711 15.4255C6.62172 15.1423 6.38062 14.8683 6.34791 14.5737C6.07911 12.2401 6.31485 9.87927 7.04093 7.63385C8.54327 2.93875 12.2979 0.228112 17.5125 0.0111695C22.5138 -0.193213 27.0742 2.42266 28.9751 6.59595C29.7481 8.29381 29.9032 10.0887 29.8656 11.9099C29.8656 12.0994 29.8656 12.2901 29.8656 12.4808H29.8523ZM28.9896 12.6075L29.1459 12.5539C29.1459 12.0321 29.1459 11.5103 29.1459 10.9896C29.1593 9.22552 28.7946 7.54022 27.8883 5.98965C26.3 3.27444 23.8163 1.6234 20.6577 0.965717C16.5723 0.113932 12.8661 0.881223 9.97776 3.88188C7.57644 6.36987 7.03729 9.51554 6.93915 12.7526C6.93915 12.8062 7.01306 12.8667 7.09787 12.9809C9.22174 8.50505 12.642 5.67337 17.9365 5.57746C23.2311 5.48155 26.7592 8.20589 28.9896 12.6075Z" fill="black"/>
<path d="M15.1254 35.2427C15.1581 34.5576 14.745 34.3167 14.2955 34.0826C13.0972 33.4569 11.8929 32.8404 10.7177 32.1792C10.3833 31.9908 10.1119 31.6803 9.86963 31.3857C9.77997 31.2795 9.85146 31.0557 9.84903 30.8844C10.0271 30.9096 10.2731 30.8707 10.3736 30.9678C11.544 32.0856 12.9809 32.7947 14.4748 33.4318C15.4937 33.8634 15.9287 34.4731 15.8741 35.3523C15.8354 35.9232 15.5628 36.1265 15.0042 35.9232C13.0888 35.2119 11.1151 34.6033 9.29535 33.7138C7.87903 33.0219 6.64081 31.9954 5.36745 31.0648C5.0367 30.8228 4.78711 30.4129 4.64051 30.0372C3.35626 26.7751 2.10955 23.4993 0.837411 20.2314C0.65083 19.7519 0.389132 19.2986 0.168627 18.8304C0.0583745 18.5964 -0.176669 18.3029 0.227994 18.1693C0.360054 18.1259 0.71262 18.3486 0.781679 18.5119C1.34506 19.874 1.85391 21.2522 2.40033 22.6224C3.36151 25.0262 4.33076 27.424 5.30809 29.8157C5.72365 30.8285 6.78135 31.2464 7.58219 31.8915C9.41529 33.3587 11.7233 33.9068 13.8654 34.7746C14.2494 34.931 14.6444 35.0646 15.1254 35.2427Z" fill="black"/>
<path d="M20.9569 35.2517C21.9322 34.8886 22.7742 34.5381 23.6429 34.2607C25.8578 33.5388 27.9182 32.4504 29.7274 31.0465C30.4265 30.5155 30.8469 29.8533 31.1377 29.1054C32.2778 26.1596 33.3851 23.2023 34.5228 20.2553C34.7778 19.6159 35.0678 18.9893 35.3915 18.3782C35.4569 18.2514 35.6944 18.2035 35.8519 18.1201C35.9015 18.2994 36.0433 18.5095 35.9876 18.6522C34.486 22.4826 32.9692 26.3076 31.4369 30.1273C31.0601 31.0602 30.1284 31.5386 29.3603 32.1529C27.6641 33.5105 25.6299 34.2401 23.5969 34.98C22.7888 35.2746 21.9904 35.5954 21.1834 35.8934C20.5231 36.1366 20.2384 35.9494 20.2287 35.2734C20.2178 34.4742 20.6104 33.9158 21.3725 33.5447C22.4265 33.0321 23.4697 32.4966 24.4922 31.9279C24.8993 31.6996 25.2192 31.3411 25.6129 31.0842C25.791 30.97 26.0467 30.954 26.2672 30.8935C26.2345 31.0956 26.2817 31.3913 26.1569 31.4861C25.4336 32.0537 24.6773 32.5828 23.8913 33.0709C23.2504 33.4568 22.5392 33.74 21.8559 34.062C21.3894 34.2778 20.986 34.5313 20.9569 35.2517Z" fill="black"/>
<path d="M26.6514 29.6866C26.924 29.1249 27.1493 28.6019 27.4256 28.103C28.0847 26.9086 28.7656 25.7246 29.4452 24.5417C29.5343 24.3712 29.6577 24.2188 29.8087 24.0929C29.9117 24.0153 30.1722 23.9628 30.2194 24.0153C30.3139 24.1192 30.3176 24.3007 30.3406 24.4526C30.3467 24.4971 30.2873 24.5531 30.2509 24.5976C28.9303 26.2167 28.1913 28.1235 27.3165 29.955C27.0742 30.4574 26.7834 30.5042 26.3243 30.2895C25.9304 30.1061 25.6102 29.8074 25.4115 29.4381C25.2127 29.0689 25.1462 28.649 25.2217 28.2411C25.3972 27.1713 25.649 26.1139 25.9753 25.076C26.3146 24.021 26.397 22.9626 26.4503 21.8733C26.5006 20.9289 26.6739 19.994 26.9664 19.0896C27.3299 17.9683 28.1234 17.0766 29.1702 16.4474C30.6241 15.5739 31.4807 14.3762 31.7618 12.772C31.9268 11.9109 32.1399 11.0587 32.4003 10.2189C32.4572 10.0236 32.6983 9.87634 32.8558 9.7085C32.9285 9.93686 33.0981 10.1732 33.0557 10.373C32.7989 11.5262 32.5121 12.6738 32.1955 13.8156C31.8985 14.9783 31.1385 15.9888 30.0728 16.6381C28.0314 17.8838 26.9991 19.6388 27.1457 21.9224C27.2608 23.7276 26.5266 25.3535 26.1243 27.0525C26.0158 27.4774 25.9389 27.9089 25.8942 28.3439C25.8481 28.8874 26.0456 29.335 26.6514 29.6866Z" fill="black"/>
<path d="M9.44716 29.6867C10.0021 29.3624 10.2601 28.9788 10.185 28.4912C10.0542 27.6463 9.933 26.7888 9.66887 25.9793C9.17836 24.529 8.93704 23.0141 8.95405 21.492C8.98676 19.6286 8.16653 18.102 6.54425 16.991C6.2668 16.8015 5.97239 16.6302 5.70948 16.4201C4.73963 15.6873 4.06916 14.6604 3.81217 13.5142C3.56985 12.4535 3.27423 11.4042 3.04404 10.3423C3.00163 10.1516 3.16519 9.92209 3.22941 9.70972C3.38933 9.86729 3.64255 10.002 3.69465 10.187C3.97936 11.2009 4.22652 12.2171 4.4652 13.2447C4.75113 14.471 5.40295 15.461 6.52486 16.1575C8.73718 17.5334 9.81063 19.4836 9.65918 21.9636C9.56105 23.5963 10.2153 25.0613 10.5739 26.5947C10.736 27.2419 10.8401 27.9007 10.8853 28.5643C10.9265 29.3636 10.494 29.9345 9.73793 30.2964C9.29087 30.5111 8.9904 30.4494 8.78807 29.9767C8.47791 29.2551 8.16048 28.5312 7.78368 27.8393C7.25059 26.8607 6.66056 25.9108 6.08749 24.9494C6.01843 24.8352 5.88879 24.7347 5.86335 24.6137C5.83843 24.4151 5.83235 24.2149 5.84517 24.0154C6.04145 24.0907 6.3092 24.1136 6.42309 24.2506C7.44808 25.4906 8.16532 26.8916 8.79412 28.3394C8.98676 28.7733 9.20484 29.1946 9.44716 29.6867Z" fill="black"/>
<path d="M18.1584 33.6568C17.3854 33.3805 16.5627 33.248 15.9545 32.8336C14.5007 31.8448 13.151 30.7247 11.7589 29.6559C11.7274 29.632 11.6813 29.6068 11.6753 29.576C11.6377 29.3785 11.6086 29.1787 11.5771 28.98C11.7843 29.0268 12.0424 29.0154 12.1902 29.1296C13.0759 29.8146 13.9276 30.5465 14.8108 31.2385C15.2786 31.6007 15.7672 31.9385 16.2744 32.2501C17.6071 33.0733 19.0125 33.0688 20.2798 32.1656C21.518 31.2841 22.6896 30.3193 23.9145 29.4162C24.0926 29.2848 24.3907 29.302 24.6342 29.2472C24.5615 29.4538 24.5566 29.7381 24.4064 29.8557C23.0737 30.8959 21.7495 31.9624 20.3343 32.8998C19.7346 33.2949 18.9253 33.401 18.1584 33.6568Z" fill="black"/>
<path d="M18.2915 27.8084C17.4155 27.6006 16.5953 27.4213 15.792 27.2101C15.3377 27.0959 15.328 26.8413 15.5727 26.4794C16.1603 25.6104 16.9224 25.2234 18.0249 25.5134C18.2782 25.5785 18.5786 25.5134 18.8512 25.4734C19.3106 25.3958 19.7844 25.4675 20.195 25.6768C20.6055 25.8861 20.9284 26.2206 21.1108 26.6255C21.2562 26.9304 21.135 27.1153 20.837 27.1964C19.9877 27.4088 19.1396 27.6052 18.2915 27.8084ZM16.353 26.702C17.6857 27.1336 18.9118 27.1496 20.2227 26.702C19.9041 26.1734 19.5176 26.0695 19.0027 26.1197C18.53 26.1595 18.0543 26.1541 17.5827 26.1037C17.0799 26.0535 16.6704 26.1311 16.353 26.702Z" fill="black"/>
<path d="M13.4894 18.9046C13.1781 18.8624 13.0169 18.8498 12.8606 18.8167C12.4366 18.7265 12.0731 18.7642 11.7799 19.125C11.7012 19.2232 11.4831 19.2209 11.3292 19.2654C11.2751 19.1011 11.2385 18.932 11.2202 18.7608C11.2202 18.5792 11.3413 18.2527 11.3062 18.2378C11.0092 18.1088 10.6898 18.0314 10.3636 18.0095C10.0825 18.0037 9.69967 18.352 9.59911 17.8839C9.56882 17.7446 10.0183 17.3746 10.274 17.3506C10.6859 17.3107 11.2105 17.3506 11.5255 17.5687C12.542 18.2675 13.5852 18.368 14.7252 17.9569C14.9849 17.8521 15.2597 17.7848 15.5406 17.7571C15.7187 17.748 15.9041 17.8804 16.0883 17.9489C15.9756 18.0871 15.8908 18.3086 15.7478 18.3486C14.9591 18.5655 14.1558 18.7436 13.4894 18.9046Z" fill="black"/>
<path d="M20.6273 17.6864L22.0472 18.0735C22.9801 18.3304 23.8428 18.2185 24.6218 17.6453C25.184 17.232 25.8031 17.1509 26.4391 17.4546C26.5918 17.5289 26.6536 17.7709 26.7578 17.9365C26.5742 17.9987 26.3841 18.0424 26.1908 18.0667C25.917 18.0746 25.6225 17.9605 25.373 18.0244C25.0386 18.1112 24.7236 18.2905 25.064 18.7243C25.15 18.8385 25.0434 19.0794 25.0252 19.261C24.8544 19.2085 24.6169 19.205 24.5249 19.0931C24.2571 18.77 23.9397 18.7323 23.5556 18.8077C22.4906 19.0166 21.5299 18.593 20.5473 18.335C20.4201 18.3019 20.2965 18.0632 20.2844 17.9125C20.2759 17.8383 20.5291 17.747 20.6273 17.6864Z" fill="black"/>
<path d="M11.8611 14.4116C11.6115 14.4242 11.2081 14.463 10.8059 14.4505C10.6847 14.4505 10.5635 14.3077 10.4424 14.2301C10.5345 14.1022 10.6156 13.8716 10.721 13.8601C12.4766 13.6843 14.2406 13.5005 15.7466 14.6822C15.8242 14.7428 15.9332 14.809 15.9489 14.8866C15.9653 15.0434 15.9653 15.2014 15.9489 15.3582C15.783 15.3582 15.5467 15.413 15.4643 15.3319C14.4854 14.4219 13.2665 14.3694 11.8611 14.4116Z" fill="black"/>
<path d="M23.4635 14.3692C22.3416 14.3578 21.1713 14.4298 20.2153 15.2678C20.1027 15.3672 19.8313 15.3044 19.6338 15.3169C19.6726 15.132 19.6483 14.8374 19.7549 14.7791C20.4504 14.4218 21.147 13.973 21.9006 13.8349C22.7911 13.6716 23.7398 13.7732 24.6618 13.8063C24.8387 13.8132 25.0071 14.0347 25.1791 14.1626C24.9938 14.2573 24.8157 14.4195 24.6206 14.4332C24.2692 14.4594 23.9058 14.3989 23.4635 14.3692Z" fill="black"/>
<path d="M18.2696 29.2847C17.9024 29.3417 17.5259 29.312 17.1738 29.1982C16.8218 29.0844 16.5052 28.8901 16.2524 28.6327C16.1385 28.5185 16.1567 28.2901 16.1143 28.1109C16.3057 28.1166 16.5444 28.0549 16.6813 28.1406C17.8274 28.8474 18.8354 28.8485 19.9525 28.1406C20.0882 28.0549 20.3232 28.1109 20.5122 28.1006C20.4686 28.2833 20.488 28.5208 20.3717 28.6384C19.812 29.2104 19.0814 29.368 18.2696 29.2847Z" fill="black"/>
<path d="M18.2013 23.9366C17.5531 23.594 16.9764 23.312 16.436 22.9786C16.3403 22.9204 16.3936 22.6452 16.3779 22.4705C16.5596 22.4705 16.7898 22.41 16.9146 22.491C18.1528 23.2903 18.2473 23.2903 19.5146 22.4785C19.6285 22.4066 19.8296 22.4568 19.9908 22.4499C19.9702 22.6395 20.0247 22.9329 19.9181 23.0014C19.3995 23.3303 18.8386 23.5986 18.2013 23.9366Z" fill="black"/>
<path d="M28.989 12.6074C26.7585 8.20579 23.2425 5.4803 17.9359 5.57735C12.6292 5.67441 9.22108 8.50494 7.09721 12.9808C7.0124 12.8666 6.93728 12.8061 6.93849 12.7524C7.03663 9.51543 7.57577 6.36977 9.9771 3.87835C12.8655 0.881115 16.5716 0.113823 20.657 0.964466C23.8156 1.62329 26.2993 3.27434 27.8877 5.9884C28.7939 7.53555 29.1586 9.22542 29.1453 10.9895C29.1453 11.5102 29.1453 12.032 29.1453 12.5538L28.989 12.6074Z" fill="#ECBC4D"/>
<path d="M16.3525 26.7018C16.6651 26.1309 17.0795 26.0533 17.5823 26.1012C18.0538 26.1516 18.5296 26.157 19.0022 26.1172C19.5171 26.067 19.9036 26.1709 20.2223 26.6995C18.9162 27.1494 17.6853 27.1334 16.3525 26.7018Z" fill="white"/>
</svg>
