<svg width="37" height="36" viewBox="0 0 37 36" fill="none" xmlns="http://www.w3.org/2000/svg">
<path d="M16.2755 13.6958C16.0508 14.7187 15.3061 15.2127 14.4649 15.6037C13.3592 16.1172 12.1772 16.3395 10.9767 16.4304C9.18387 16.5658 7.40732 16.4498 5.69241 15.8625C5.34699 15.7453 5.01166 15.6001 4.68975 15.4285C3.82581 14.9653 3.55 14.6335 3.20604 13.7023C2.33156 14.0819 1.49438 14.5062 0.934648 15.3133C0.478746 15.9704 0.56149 16.7151 1.19424 17.3324C1.54792 17.6772 1.98355 17.9376 2.38834 18.2248C2.57816 18.3611 2.89373 18.4422 2.72094 18.7602C2.5376 19.0952 2.26909 18.9038 2.06061 18.7707C1.59984 18.4779 1.15449 18.1607 0.657213 17.8224V18.3091C0.657213 22.6897 0.662891 27.0702 0.649912 31.4508C0.643293 31.7413 0.69919 32.0299 0.813817 32.2969C0.928444 32.564 1.09912 32.8032 1.3143 32.9986C2.1758 33.8276 3.24498 34.2771 4.36689 34.6088C7.03902 35.3998 9.76713 35.5434 12.5147 35.1629C13.5523 35.0193 14.5695 34.7232 15.5933 34.4831C15.8172 34.4312 16.0427 34.3565 16.14 34.6299C16.2479 34.9341 16.0062 35.0477 15.7758 35.1004C14.7123 35.3438 13.6553 35.6512 12.5772 35.7981C9.83122 36.1729 7.1023 36.0414 4.42124 35.2894C3.31069 34.9787 2.248 34.5512 1.31511 33.8487C0.440619 33.1892 -0.00879301 32.3675 0.000130327 31.222C0.0374461 26.3288 0.0374461 21.4345 0.000130327 16.5391C-0.00717059 15.4675 0.412226 14.6733 1.23966 14.0908C1.77588 13.712 2.37536 13.4167 2.9643 13.1174C3.17927 13.0095 3.28879 12.9024 3.25877 12.6655C3.25107 12.5982 3.25107 12.5301 3.25877 12.4627C3.32042 11.929 3.2174 11.4966 2.7396 11.1364C2.26179 10.7762 2.08251 10.2376 2.09874 9.62673C2.11983 8.82931 2.1466 8.02864 2.09225 7.23446C2.02086 6.18394 2.51002 5.47251 3.34719 4.96307C3.666 4.76757 3.79904 4.53069 3.782 4.14374C3.25715 4.09345 2.83694 4.30193 2.48406 4.66049C2.31614 4.83246 2.14984 4.98497 1.93974 4.78541C1.70611 4.5672 1.87322 4.36196 2.04033 4.19485C2.27218 3.95606 2.55233 3.76951 2.86206 3.64766C3.17178 3.52581 3.50395 3.47148 3.83636 3.48828C3.98075 3.49315 4.16895 3.45989 4.2663 3.36903C5.21217 2.4767 5.72648 2.45723 6.75023 3.36903C6.90496 3.17858 7.04877 2.97951 7.18099 2.77279C7.69692 1.86261 8.52436 1.31261 9.40858 0.825883C9.50187 0.774776 9.68439 0.89078 9.82635 0.928907C9.77768 1.07817 9.77606 1.28341 9.67384 1.36453C9.27392 1.68415 8.83018 1.94779 8.42863 2.26497C8.21025 2.44537 8.01901 2.65629 7.86078 2.89123C7.59389 3.27331 7.66285 3.50045 8.11064 3.59942C8.5443 3.69745 8.98845 3.74132 9.43291 3.73002C10.3845 3.6992 11.3157 3.51668 12.1764 3.09403C12.502 2.93028 12.8003 2.71711 13.0607 2.4621C13.3738 2.15871 13.4492 1.75797 13.2935 1.33776C13.1442 0.932151 12.8416 0.658773 12.423 0.653094C11.942 0.649038 11.4609 0.73016 10.9872 0.811281C10.7609 0.848597 10.5305 0.919983 10.4364 0.654717C10.3285 0.350512 10.5792 0.230452 10.8071 0.193137C11.3352 0.105526 11.8771 -0.030758 12.4003 0.00980261C13.635 0.107148 14.2953 1.23311 13.8605 2.39152C13.837 2.45318 13.8143 2.51402 13.7745 2.6211C13.9692 2.67464 14.1485 2.71195 14.318 2.7736C14.7099 2.91719 15.1155 3.03887 15.4829 3.23113C16.2682 3.64079 16.4126 4.05126 16.1262 4.87951C16.1376 4.90304 16.1441 4.9363 16.1627 4.94847C17.1078 5.55444 17.5061 6.40865 17.4079 7.53056C17.3495 8.20143 17.3779 8.88285 17.4079 9.55859C17.4295 9.89781 17.3655 10.237 17.2218 10.545C17.0781 10.853 16.8592 11.12 16.5854 11.3214C16.3006 11.5428 16.2609 11.7829 16.2228 12.1082C16.1514 12.7442 16.3185 13.132 16.9804 13.3307C17.382 13.4508 17.7462 13.7266 18.1007 13.9708C19.0417 14.6197 19.5114 15.4658 19.5009 16.6681C19.4587 21.5864 19.47 26.5064 19.4928 31.4248C19.4984 32.7284 18.7878 33.534 17.7892 34.1684C17.6813 34.2373 17.4647 34.1343 17.2976 34.1108C17.3528 33.9534 17.3658 33.7538 17.4712 33.6459C17.7146 33.3969 18.0245 33.2127 18.2686 32.9637C18.4536 32.785 18.6005 32.5707 18.7003 32.3336C18.8001 32.0966 18.8509 31.8418 18.8495 31.5846C18.8435 27.0959 18.8422 22.6072 18.8454 18.1185C18.8454 18.0293 18.8324 17.9392 18.8219 17.8111C18.4706 18.0747 18.1672 18.3367 17.8314 18.5484C16.5034 19.3881 15.0254 19.8099 13.4987 20.0662C10.5735 20.5586 7.65798 20.5091 4.76925 19.8026C4.70354 19.7864 4.60701 19.7945 4.57699 19.7531C4.47788 19.6179 4.38582 19.4776 4.30118 19.3329C4.44558 19.2696 4.60133 19.135 4.73275 19.1552C5.34521 19.2518 5.94957 19.4286 6.56041 19.5105C9.89693 19.9559 13.201 19.8675 16.3672 18.5768C17.0493 18.2878 17.6795 17.8891 18.233 17.3965C19.075 16.6575 19.0442 15.7546 18.2719 14.9515C17.7178 14.3723 17.0275 14.0146 16.2755 13.6958ZM2.74284 8.24929C2.74284 8.75224 2.7615 9.16434 2.73797 9.57481C2.70877 10.0948 2.88886 10.5393 3.30582 10.803C3.92965 11.1948 4.57132 11.6004 5.26085 11.8349C7.39596 12.5568 9.60327 12.6461 11.8317 12.3759C13.1661 12.2137 14.4681 11.9208 15.6444 11.2224C16.7436 10.5677 17.1046 9.56427 16.6989 8.30932C16.4686 8.47156 16.243 8.63948 16.011 8.79605C15.8277 8.92016 15.6225 8.98425 15.4813 8.75873C15.3402 8.53321 15.4708 8.39369 15.6606 8.25821C15.9403 8.0704 16.2007 7.85517 16.4377 7.61573C16.7622 7.2661 16.9285 6.81101 16.6519 6.39161C16.4085 6.02089 16.0321 5.73534 15.7052 5.41816C15.6732 5.39653 15.6367 5.3825 15.5985 5.37716C15.5602 5.37182 15.5213 5.3753 15.4846 5.38733C14.8559 5.65584 14.2312 5.9349 13.6464 6.19287C13.7129 6.5352 13.8086 6.88402 13.841 7.23852C13.8629 7.45187 13.8086 7.70659 13.5093 7.69361C13.2261 7.68144 13.1978 7.48026 13.2099 7.22878C13.2343 6.7307 13.0258 6.41027 12.6421 6.38756C12.2584 6.36484 11.8755 6.41919 11.5404 6.43785C11.5023 6.82318 11.4983 7.14685 11.4309 7.45674C11.3766 7.7074 11.0724 7.79988 10.9345 7.61898C10.8533 7.5119 10.8379 7.32126 10.8574 7.17687C10.9312 6.62768 10.8396 6.45732 10.3252 6.26831C10.1865 6.2172 10.0243 6.17745 9.92613 6.08011C9.62436 5.77834 9.34611 5.83674 9.16765 5.98763C9.11167 6.53844 9.09302 6.98948 9.00541 7.42591C8.9835 7.53461 8.73689 7.59789 8.59331 7.68144C8.5349 7.53542 8.43107 7.39184 8.43107 7.24339C8.42295 7.03328 8.52436 6.81669 8.50651 6.60983C8.48542 6.37701 8.43756 6.08416 8.1009 6.10444C7.56631 6.13608 7.08689 6.01764 6.6683 5.63151C6.27243 6.19692 5.79625 6.579 5.19189 6.78748C4.38068 7.06735 3.97507 6.84021 3.76903 6.00061C3.73414 5.86108 3.70494 5.71912 3.67087 5.57067C2.60818 6.09309 2.44756 7.07384 3.2823 7.82989C3.49078 8.01809 3.7163 8.21684 3.97102 8.31662C4.73085 8.62867 5.50097 8.91205 6.28135 9.16677C6.65045 9.28764 7.05525 9.29738 7.4276 9.41014C7.54847 9.44664 7.61904 9.64863 7.71233 9.77437C7.5874 9.85549 7.46897 9.97312 7.33512 9.99745C7.18342 10.0242 7.01063 9.97068 6.85569 9.94148C5.40119 9.67135 3.99617 9.27547 2.74284 8.24929ZM3.89882 12.0498C3.89882 12.4952 3.92234 12.9138 3.89233 13.3283C3.85501 13.858 4.05457 14.2855 4.491 14.5289C5.09941 14.868 5.72729 15.2095 6.39005 15.4018C8.28829 15.9526 10.2295 15.9696 12.1691 15.6329C13.1564 15.461 14.1298 15.203 14.9443 14.5784C15.2006 14.3829 15.4975 14.0916 15.5454 13.8053C15.6387 13.2374 15.573 12.6396 15.573 12.0555C11.6816 13.523 7.82428 13.5254 3.89882 12.0498ZM4.29956 5.29891C4.33345 5.54287 4.38772 5.78356 4.4618 6.01846C4.49725 6.0792 4.5474 6.13006 4.60765 6.16635C4.66789 6.20264 4.7363 6.22319 4.80657 6.22613C5.82951 6.06388 6.51579 4.96063 6.23511 3.96771C6.04935 3.31063 5.47176 3.13297 4.95989 3.58482C4.47803 4.00827 4.33282 4.57531 4.29956 5.29891ZM7.18099 3.77789C6.80783 4.1259 6.8565 4.54854 6.9652 4.92088C7.06823 5.28025 7.40164 5.46034 7.78615 5.46602C8.10934 5.47565 8.43282 5.46536 8.75474 5.43519C9.32259 5.37273 9.64058 4.94847 9.53756 4.38711C8.71418 4.36439 7.86159 4.41874 7.18099 3.77789ZM12.4717 5.66396C13.4354 5.74508 14.0017 5.29648 13.9489 4.45687C13.9339 4.28325 13.8938 4.11274 13.8297 3.95067C13.5693 3.2433 13.3576 3.16867 12.7216 3.54101C12.6753 3.56859 12.6112 3.58157 12.5829 3.62213C12.5267 3.68566 12.4898 3.76389 12.4766 3.84765C12.4677 4.45038 12.4717 5.05555 12.4717 5.66396ZM11.8309 3.99286C11.7957 3.98304 11.7594 3.97813 11.723 3.97826C11.4999 4.03261 11.2809 4.11616 11.0553 4.1405C10.5427 4.19728 10.107 4.30923 10.1768 4.9728C10.1762 5.02761 10.1586 5.08089 10.1265 5.12531C9.99914 5.32243 10.0608 5.48792 10.2595 5.54308C10.647 5.64497 11.0397 5.7262 11.4358 5.78645C11.481 5.78199 11.5246 5.76715 11.5632 5.74309C11.6017 5.71903 11.6342 5.6864 11.6581 5.64773C11.9615 5.11801 12.0499 4.56638 11.8309 3.99286ZM14.4373 3.42501C14.5046 4.05126 14.5598 4.57206 14.6214 5.15289C14.9078 4.95982 15.2039 4.78298 15.474 4.57125C15.7133 4.38386 15.7174 4.14374 15.4562 3.97582C15.1349 3.77302 14.7885 3.61159 14.4397 3.4242L14.4373 3.42501Z" fill="black"/>
<path d="M18.2463 25.9014C18.2463 27.7388 18.2374 29.577 18.2536 31.4176C18.2536 31.7632 18.1271 31.962 17.848 32.138C16.5006 32.9954 15.0039 33.4457 13.452 33.7077C10.4189 34.2204 7.39959 34.1603 4.41919 33.3321C3.41329 33.0522 2.43983 32.6831 1.58644 32.0674C1.4955 31.9959 1.42026 31.9064 1.36541 31.8045C1.31056 31.7026 1.27728 31.5905 1.26763 31.4752C1.24978 27.7436 1.25465 24.0121 1.25871 20.287C1.25871 19.8432 1.47449 19.6778 1.79249 19.8862C3.26159 20.8508 4.9116 21.2921 6.6192 21.5379C9.52821 21.9565 12.4186 21.868 15.2383 20.9846C16.0496 20.7291 16.8032 20.2724 17.5909 19.9195C17.7377 19.853 17.9486 19.7654 18.0581 19.823C18.1676 19.8806 18.2398 20.1093 18.2406 20.2634C18.252 22.1463 18.2463 24.0234 18.2463 25.9014ZM1.91985 20.8321C1.90838 20.8578 1.90126 20.8852 1.89875 20.9132C1.89875 24.3714 1.89064 27.8304 1.90362 31.2886C1.91429 31.3698 1.94319 31.4475 1.98814 31.5159C2.0331 31.5843 2.09295 31.6417 2.16321 31.6837C2.76513 31.9855 3.36705 32.3051 4.00223 32.5193C6.66057 33.4156 9.40004 33.5552 12.1663 33.2493C13.9331 33.0538 15.6545 32.6523 17.2258 31.7729C17.5049 31.6164 17.6176 31.4403 17.6168 31.1069C17.6022 27.781 17.6079 24.4615 17.6071 21.1387C17.6071 21.0106 17.5949 20.8832 17.5909 20.794C12.3602 22.9761 7.16758 22.9713 1.91985 20.8321Z" fill="black"/>
<path d="M29.1014 20.054C28.1012 20.054 27.101 20.0638 26.1 20.0467C25.8306 20.0427 25.6895 20.1376 25.5629 20.3664C24.987 21.4055 24.3932 22.4358 23.8058 23.4693C23.7588 23.5504 23.7312 23.6672 23.6606 23.7086C23.5099 23.7842 23.3534 23.8477 23.1926 23.8984C23.1642 23.7321 23.0587 23.5268 23.1204 23.4076C23.4749 22.7246 23.8691 22.0626 24.2496 21.3934C24.4929 20.9707 24.7501 20.5578 24.9586 20.1198C24.9947 20.0344 25.013 19.9426 25.0121 19.8499C25.0113 19.7573 24.9914 19.6658 24.9537 19.5811C24.3445 18.4981 23.7077 17.4306 23.0798 16.3582C23.0255 16.2649 22.9338 16.1732 22.9281 16.0759C22.9176 15.9136 22.9013 15.6767 22.9954 15.5932C23.1958 15.4163 23.3637 15.5818 23.4773 15.7725C23.7391 16.2143 23.9997 16.6567 24.2593 17.0996C24.6357 17.7405 24.9983 18.3894 25.395 19.0149C25.4479 19.0911 25.5164 19.1552 25.596 19.2029C25.6756 19.2506 25.7644 19.2808 25.8566 19.2915C27.8976 19.2915 29.9386 19.2758 31.9796 19.2445C32.0603 19.2367 32.1384 19.2114 32.2084 19.1706C32.2785 19.1297 32.3388 19.0741 32.3852 19.0076C33.4209 17.2186 34.4441 15.4226 35.4549 13.6195C35.4814 13.5566 35.4947 13.4889 35.4938 13.4207C35.493 13.3524 35.4781 13.285 35.45 13.2228C35.2829 12.8845 35.0517 12.5739 34.9016 12.2323C34.8464 12.1058 34.9487 11.9078 34.9787 11.7456C35.1344 11.8073 35.3535 11.8267 35.4346 11.9395C35.6917 12.3013 35.8832 12.7085 36.1265 13.0817C36.2888 13.3348 36.2563 13.54 36.1136 13.7891C35.0906 15.5697 34.0855 17.3584 33.0593 19.1382C32.9198 19.3816 32.9166 19.5495 33.0593 19.7928C34.1626 21.6513 35.2439 23.5244 36.3448 25.3821C36.524 25.6839 36.5362 25.9232 36.3545 26.2371C35.2648 28.1197 34.1872 30.0092 33.1218 31.9059C32.9717 32.1719 32.8071 32.2961 32.4899 32.292C31.3947 32.279 30.2996 32.2969 29.2045 32.3017C28.9846 32.3017 28.7364 32.3188 28.725 32.0089C28.7137 31.6771 28.9684 31.6682 29.2118 31.6666C30.212 31.6593 31.2122 31.6503 32.2133 31.6568C32.3118 31.6664 32.4109 31.6451 32.4969 31.5958C32.5828 31.5466 32.6512 31.4718 32.6927 31.3818C33.6802 29.628 34.6756 27.8787 35.6788 26.1341C35.8102 25.9061 35.8126 25.7406 35.6788 25.5111C34.6582 23.7924 33.6486 22.0669 32.6497 20.3347C32.5175 20.1043 32.3747 20.0175 32.1086 20.0216C31.1092 20.0378 30.1082 20.0281 29.1071 20.0281L29.1014 20.054Z" fill="black"/>
<path d="M20.571 13.3145C21.289 13.5579 21.6719 13.0817 22.0401 12.3889C22.9154 10.7446 23.8767 9.14406 24.7869 7.52164C24.98 7.17606 25.2104 7.03491 25.6192 7.03491C27.7819 7.03491 29.9438 7.01706 32.1089 6.98624C32.4391 6.98137 32.6257 7.09332 32.7863 7.374C33.3541 8.35719 33.9382 9.32821 34.519 10.3025C34.6448 10.5126 34.7624 10.7324 34.4712 10.8882C34.2027 11.0334 34.0842 10.8152 33.9715 10.6261C33.4393 9.73381 32.9023 8.84148 32.3831 7.94103C32.2533 7.71633 32.113 7.62142 31.8437 7.62547C29.8302 7.65251 27.8168 7.6682 25.8034 7.67252C25.5527 7.67252 25.4197 7.76175 25.2988 7.97673C24.3456 9.67135 23.3884 11.3644 22.4092 13.0452C22.2105 13.3867 22.2048 13.6641 22.4238 13.9765C22.5488 14.1359 22.6471 14.3145 22.7151 14.5054C22.7475 14.6173 22.6883 14.8477 22.6129 14.8777C22.4977 14.9223 22.3281 14.8509 22.191 14.8031C22.1407 14.786 22.1026 14.7001 22.0823 14.6408C21.8738 14.0211 21.4236 13.8791 20.8209 13.9456C20.4039 13.9874 19.9838 13.9874 19.5668 13.9456C19.4248 13.9327 19.2991 13.755 19.166 13.6528C19.2926 13.5425 19.4094 13.3616 19.5489 13.3372C19.8345 13.2796 20.1378 13.3145 20.571 13.3145Z" fill="black"/>
<path d="M26.2951 32.3219C25.6624 32.5312 25.3063 32.1451 24.9737 31.5448C24.0456 29.8696 23.0592 28.2269 22.0971 26.5712C21.9625 26.3392 21.8124 26.1656 21.496 26.207C21.2583 26.2395 21.0093 26.2119 20.7659 26.2167C20.5363 26.2208 20.3222 26.1494 20.37 25.8923C20.3919 25.7746 20.6134 25.683 20.7546 25.6043C20.8162 25.571 20.9168 25.5953 20.9939 25.6043C21.5885 25.6538 22.0703 25.5361 22.2861 24.8742C22.3226 24.7622 22.6285 24.6308 22.7518 24.6754C22.9951 24.7614 22.9594 25.0202 22.8175 25.1833C22.3405 25.7308 22.5603 26.1916 22.8872 26.7246C23.8031 28.218 24.6719 29.739 25.548 31.2584C25.7273 31.5707 25.9122 31.7622 26.3041 31.6989C26.5539 31.6584 26.8159 31.694 27.0723 31.6892C27.2978 31.6843 27.4933 31.7346 27.5006 32.0007C27.5079 32.2668 27.2929 32.3146 27.0788 32.3203C26.8516 32.326 26.6237 32.3219 26.2951 32.3219Z" fill="black"/>
<path d="M18.3338 1.06439C19.3454 1.06439 20.3578 1.07413 21.3702 1.05871C21.6638 1.05466 21.8447 1.152 21.9875 1.40754C22.3704 2.08977 22.7719 2.76145 23.1694 3.43557C23.2895 3.63918 23.373 3.84118 23.1191 3.99368C22.8652 4.14619 22.7257 3.94014 22.6129 3.75032C22.2755 3.18247 21.9266 2.61949 21.6151 2.03704C21.4724 1.77096 21.3004 1.69795 21.0092 1.7012C19.1328 1.72148 17.2573 1.72148 15.3818 1.72797C15.2601 1.72797 15.1222 1.75474 15.0224 1.70606C14.9226 1.65739 14.792 1.53571 14.7864 1.43836C14.7807 1.34102 14.8869 1.195 14.9835 1.13903C15.08 1.08305 15.2171 1.09522 15.3372 1.09441C16.3358 1.09441 17.3352 1.09441 18.3338 1.09441V1.06439Z" fill="black"/>
<path d="M24.6016 5.71837C24.4012 5.88061 24.3022 6.01446 24.1733 6.05584C23.9972 6.11262 23.5559 5.56911 23.6054 5.32574C23.6297 5.2065 23.7944 5.11645 23.895 5.01343L24.6016 5.71837Z" fill="black"/>
<path d="M2.74294 8.24917C3.99627 9.27535 5.40129 9.67123 6.85579 9.94217C7.01803 9.97137 7.18027 10.0233 7.33522 9.99815C7.46988 9.97381 7.5875 9.85294 7.71243 9.77506C7.61914 9.64932 7.55019 9.45058 7.42769 9.41083C7.05778 9.29807 6.65218 9.28833 6.28145 9.16665C5.50106 8.91247 4.73231 8.63044 3.97517 8.32056C3.72045 8.21672 3.49494 8.01797 3.28645 7.83383C2.45172 7.07778 2.61234 6.09702 3.67421 5.5746C3.70828 5.72305 3.73749 5.86502 3.77237 6.00454C3.97517 6.84009 4.38078 7.06723 5.19199 6.78736C5.79716 6.57888 6.27334 6.1968 6.65704 5.63544C7.07563 6.02158 7.55506 6.14002 8.08964 6.10838C8.42468 6.0881 8.47254 6.38095 8.49525 6.61377C8.5131 6.82062 8.41413 7.03722 8.41981 7.24732C8.42549 7.39577 8.52608 7.53936 8.58205 7.68538C8.72564 7.60426 8.97224 7.53855 8.99415 7.42985C9.08338 6.99341 9.10204 6.54238 9.15639 5.99157C9.33486 5.84149 9.6131 5.78227 9.91487 6.08404C10.013 6.18139 10.1753 6.22114 10.314 6.27224C10.8283 6.46126 10.92 6.63161 10.8461 7.1808C10.8267 7.3252 10.8421 7.51583 10.9232 7.62291C11.0611 7.80463 11.3653 7.71215 11.4197 7.46067C11.487 7.15079 11.4911 6.82711 11.5292 6.44179C11.8642 6.42313 12.2495 6.36959 12.6308 6.39149C13.0121 6.4134 13.223 6.73464 13.1987 7.23272C13.1865 7.4842 13.2149 7.68538 13.498 7.69755C13.7973 7.71053 13.8517 7.45418 13.8298 7.24246C13.7933 6.88796 13.7016 6.53913 13.6351 6.1968C14.22 5.93884 14.8446 5.65978 15.4733 5.39127C15.51 5.37923 15.549 5.37575 15.5872 5.3811C15.6254 5.38644 15.662 5.40046 15.694 5.42209C16.0184 5.73522 16.3965 6.02077 16.6406 6.39555C16.9173 6.81495 16.7526 7.27004 16.4265 7.61967C16.1894 7.85911 15.9291 8.07433 15.6493 8.26215C15.4595 8.39762 15.3338 8.54607 15.4701 8.76267C15.6063 8.97926 15.8164 8.92491 15.9998 8.79998C16.2318 8.64261 16.4573 8.4755 16.6877 8.31326C17.0933 9.5682 16.7355 10.5717 15.6331 11.2263C14.4593 11.9248 13.1573 12.2168 11.8204 12.3799C9.59607 12.6524 7.38876 12.5608 5.24959 11.8388C4.57141 11.6003 3.92975 11.1947 3.30755 10.8029C2.88896 10.5392 2.70887 10.0947 2.7397 9.57469C2.75835 9.16665 2.74294 8.75212 2.74294 8.24917ZM10.3602 9.61769L10.3464 9.55036C9.9822 9.55036 9.61635 9.52602 9.25373 9.56415C9.14098 9.57631 8.98766 9.7418 8.9617 9.86105C8.94385 9.94217 9.11015 10.076 9.21561 10.1571C9.26996 10.1993 9.37217 10.1847 9.45329 10.1855C10.8762 10.1912 12.2869 10.0752 13.6716 9.72558C13.8971 9.66879 14.1121 9.58605 14.0431 9.3005C13.9742 9.01496 13.73 9.06768 13.5126 9.10338C12.4624 9.27644 11.4116 9.44787 10.3602 9.61769Z" fill="white"/>
<path d="M3.89909 12.0498C7.82455 13.5254 11.6819 13.523 15.5757 12.0587C15.5757 12.6428 15.6414 13.239 15.5481 13.8085C15.5002 14.0941 15.2033 14.3861 14.947 14.5816C14.1358 15.203 13.1623 15.461 12.1718 15.6362C10.2322 15.9728 8.291 15.9558 6.39276 15.405C5.73 15.2127 5.10212 14.8712 4.49371 14.5321C4.05728 14.2888 3.85772 13.8612 3.89503 13.3315C3.92262 12.9137 3.89909 12.4927 3.89909 12.0498Z" fill="#ECBC4D"/>
<path d="M4.2998 5.29899C4.33388 4.57539 4.47908 4.00835 4.95851 3.5849C5.47038 3.13305 6.04797 3.31071 6.23374 3.96779C6.51442 4.96072 5.82813 6.06397 4.80519 6.22621C4.7352 6.22301 4.66713 6.20233 4.60718 6.16605C4.54724 6.12978 4.49734 6.07906 4.46205 6.01854C4.38797 5.78364 4.3337 5.54295 4.2998 5.29899Z" fill="white"/>
<path d="M7.1806 3.77783C7.86121 4.41869 8.71379 4.36434 9.53717 4.38462C9.6402 4.94841 9.32869 5.37024 8.75435 5.43514C8.43297 5.46524 8.11004 5.47553 7.78739 5.46597C7.40287 5.46029 7.06946 5.2802 6.96644 4.92083C6.85855 4.54848 6.80744 4.12584 7.1806 3.77783Z" fill="#ECBC4D"/>
<path d="M12.4716 5.66387C12.4716 5.05546 12.4676 4.44705 12.4765 3.84594C12.4897 3.76219 12.5266 3.68395 12.5828 3.62042C12.6112 3.58149 12.6752 3.56851 12.7215 3.5393C13.3575 3.16696 13.5692 3.24159 13.8296 3.94897C13.8952 4.11133 13.9367 4.28241 13.9529 4.45678C14.0016 5.29639 13.4353 5.74337 12.4716 5.66387Z" fill="#ECBC4D"/>
<path d="M11.8309 3.99287C12.05 4.56639 11.9615 5.11802 11.6581 5.64531C11.6345 5.68367 11.6024 5.71611 11.5643 5.74016C11.5262 5.7642 11.4831 5.77921 11.4383 5.78402C11.0422 5.72378 10.6495 5.64254 10.262 5.54066C10.0633 5.4855 10.0016 5.32001 10.129 5.12289C10.1611 5.07847 10.1787 5.02519 10.1793 4.97038C10.1095 4.30681 10.5452 4.19486 11.0578 4.13807C11.2834 4.11374 11.5024 4.03018 11.7255 3.97583C11.7612 3.97672 11.7967 3.98245 11.8309 3.99287Z" fill="#ECBC4D"/>
<path d="M14.4395 3.42432C14.7907 3.61171 15.1371 3.77314 15.4583 3.97513C15.7228 4.14305 15.7155 4.38074 15.4762 4.57056C15.206 4.78229 14.9083 4.95913 14.6236 5.1522C14.5595 4.57137 14.5044 4.05057 14.4395 3.42432Z" fill="#ECBC4D"/>
<path d="M1.92025 20.8321C7.16799 22.9712 12.3606 22.9761 17.5913 20.7939C17.5953 20.8832 17.6075 21.0105 17.6075 21.1387C17.6075 24.4647 17.6026 27.7842 17.6172 31.1069C17.6172 31.4403 17.5053 31.6163 17.2262 31.7729C15.6508 32.6523 13.9335 33.0538 12.1667 33.2493C9.40044 33.5551 6.66098 33.4156 4.00263 32.5192C3.36745 32.3051 2.76553 31.9854 2.16361 31.6837C2.09335 31.6417 2.0335 31.5843 1.98855 31.5159C1.94359 31.4475 1.9147 31.3698 1.90403 31.2886C1.89105 27.8304 1.89591 24.3714 1.89916 20.9132C1.90166 20.8852 1.90879 20.8578 1.92025 20.8321ZM8.12441 29.4812C8.12441 30.3038 8.13495 31.0598 8.11954 31.8151C8.11143 32.1826 8.25826 32.3261 8.62249 32.318C9.29742 32.3034 9.97316 32.3132 10.6505 32.3132C11.3522 32.3132 11.362 32.3026 11.3611 31.6171C11.3611 30.9195 11.3611 30.2227 11.3611 29.478C12.1837 29.478 12.9519 29.4707 13.7193 29.478C14.0649 29.482 14.2061 29.3376 14.2004 28.9913C14.1882 28.2214 14.1923 27.4499 14.2004 26.6809C14.2004 26.3921 14.0755 26.2518 13.7948 26.251C13.3081 26.251 12.8213 26.251 12.3346 26.251C12.0393 26.251 11.6556 26.3362 11.4755 26.1861C11.3182 26.0547 11.4196 25.6409 11.3474 25.3676C11.3084 25.2207 11.1462 25.1064 11.0399 24.9774C10.9344 25.1064 10.7576 25.2256 10.7381 25.3668C10.6927 25.6977 10.7325 26.0401 10.7195 26.3767C10.7057 26.7345 10.8501 26.8959 11.2192 26.887C11.8917 26.8716 12.565 26.8918 13.2375 26.8732C13.493 26.8659 13.5701 26.9543 13.562 27.1977C13.549 27.63 13.5441 28.0632 13.562 28.4956C13.5758 28.7909 13.4525 28.8623 13.1815 28.855C12.5739 28.8387 11.9647 28.8477 11.3571 28.8469C10.7714 28.8469 10.7195 28.9004 10.7195 29.4958V31.6399H8.76121V30.3119C8.76121 28.8517 8.76121 28.8517 7.31319 28.8517H5.95036V26.9129C6.07853 26.9024 6.18317 26.8862 6.28782 26.8853C6.90759 26.8853 7.52735 26.8894 8.14712 26.8797C8.72146 26.8699 8.76202 26.8204 8.76121 26.2526C8.76121 25.5387 8.76121 24.8241 8.76121 24.0502H10.8525C11.0756 24.0502 11.3295 24.0453 11.3392 23.7565C11.3522 23.4409 11.0959 23.4182 10.8525 23.4182C10.1224 23.4182 9.39233 23.4182 8.66224 23.4182C8.20634 23.4182 8.12603 23.4993 8.12441 23.965C8.12441 24.7186 8.12441 25.4714 8.12441 26.2364C8.023 26.2429 7.9573 26.251 7.89159 26.2518C7.2053 26.2518 6.5182 26.2518 5.83111 26.2583C5.37034 26.264 5.28516 26.354 5.28354 26.8026C5.28354 27.5051 5.28354 28.2076 5.28759 28.9118C5.28759 29.4269 5.346 29.4837 5.87897 29.4861C6.60581 29.4837 7.33347 29.4812 8.12441 29.4812Z" fill="#ECBC4D"/>
<path d="M10.3598 9.61776C11.4111 9.44687 12.4619 9.27543 13.5122 9.10346C13.7296 9.06776 13.9713 9.0053 14.0427 9.30058C14.1141 9.59586 13.8967 9.66887 13.6712 9.72566C12.2864 10.0753 10.8757 10.1913 9.45288 10.1856C9.37176 10.1856 9.26955 10.1994 9.2152 10.1572C9.10974 10.0761 8.94344 9.93982 8.96129 9.86113C8.98725 9.74188 9.14057 9.57639 9.25332 9.56422C9.61431 9.5261 9.98342 9.55043 10.346 9.55043L10.3598 9.61776Z" fill="black"/>
<path d="M8.12436 29.4812C7.33343 29.4812 6.60577 29.4812 5.87893 29.4812C5.34596 29.4812 5.28917 29.422 5.28755 28.9069C5.28755 28.2044 5.28187 27.5018 5.28349 26.7977C5.28349 26.3491 5.37029 26.2591 5.83106 26.2534C6.51816 26.2437 7.20526 26.2485 7.89154 26.2469C7.95725 26.2469 8.02296 26.238 8.12436 26.2315C8.12436 25.4649 8.12436 24.7121 8.12436 23.9601C8.12436 23.4936 8.20548 23.4141 8.6622 23.4133C9.39229 23.4133 10.1224 23.4133 10.8525 23.4133C11.0958 23.4133 11.3546 23.436 11.3392 23.7516C11.327 24.0404 11.0731 24.0453 10.8525 24.0453H8.76116C8.76116 24.8192 8.76116 25.5338 8.76116 26.2477C8.76116 26.8156 8.72141 26.865 8.14708 26.8748C7.52731 26.8845 6.90754 26.8748 6.28778 26.8805C6.18313 26.8805 6.07848 26.8975 5.95031 26.908V28.8468H7.31396C8.76198 28.8468 8.76198 28.8468 8.76198 30.307V31.6366H10.7202V29.4974C10.7202 28.8988 10.7722 28.8485 11.3579 28.8485C11.9663 28.8485 12.5747 28.8403 13.1823 28.8566C13.4532 28.8639 13.5765 28.7925 13.5627 28.4972C13.5425 28.0656 13.5473 27.6324 13.5627 27.1993C13.5692 26.9559 13.4922 26.8691 13.2382 26.8748C12.5658 26.8934 11.8924 26.8748 11.22 26.8886C10.8508 26.8975 10.7065 26.7361 10.7202 26.3783C10.7332 26.0417 10.6935 25.6993 10.7389 25.3684C10.7584 25.2272 10.9352 25.108 11.0407 24.979C11.1469 25.108 11.3092 25.2223 11.3481 25.3692C11.4203 25.6425 11.3189 26.0563 11.4763 26.1877C11.6564 26.3378 12.0441 26.2493 12.3354 26.2526C12.8221 26.2591 13.3088 26.2526 13.7956 26.2526C14.0803 26.2526 14.2076 26.3937 14.2012 26.6825C14.1939 27.4524 14.1898 28.2238 14.2012 28.9929C14.2068 29.3384 14.0657 29.4796 13.7201 29.4796C12.9527 29.469 12.1845 29.4796 11.3619 29.4796C11.3619 30.2243 11.3619 30.9211 11.3619 31.6187C11.3619 32.3042 11.353 32.3148 10.6513 32.3148C9.97555 32.3148 9.29981 32.305 8.62326 32.3196C8.25902 32.3277 8.11219 32.1842 8.12031 31.8167C8.13491 31.0598 8.12436 30.3038 8.12436 29.4812Z" fill="black"/>
</svg>
