<svg width="36" height="36" viewBox="0 0 36 36" fill="none" xmlns="http://www.w3.org/2000/svg">
<path d="M36 31.6375C35.8253 32.1651 35.7182 32.7265 35.4639 33.214C34.548 34.9814 33.0686 35.9789 31.0734 35.9838C20.9941 36.0099 10.9198 35.9965 0.845401 35.9965C0.267006 35.9965 0 35.7372 0 35.1667C0 24.835 0 14.501 0 4.1646C0 3.57851 0.269824 3.31083 0.863014 3.31083C5.06959 3.31083 16.3212 3.31083 20.5278 3.31083C21.0822 3.31083 21.407 3.59894 21.3879 4.05753C21.3844 4.21685 21.3243 4.36971 21.2183 4.48873C21.1123 4.60774 20.9674 4.68512 20.8095 4.70702C20.6583 4.72416 20.5059 4.73075 20.3537 4.72674H1.43507V34.5947H1.77957C11.4589 34.5947 21.1378 34.5947 30.8163 34.5947C32.6254 34.5947 34.057 33.5042 34.4839 31.8129C34.896 30.1842 34.0077 28.6633 32.3915 28.2301C30.9522 27.8441 29.5369 28.8747 29.5411 30.3434C29.5411 30.8267 29.2699 31.1944 28.8254 31.2092C28.4027 31.224 28.1258 30.871 28.1258 30.3385C28.1258 21.9736 28.1258 13.6082 28.1258 5.24238V4.72533H18.9511C18.2867 4.72533 17.9401 4.47737 17.9472 4.01315C17.9542 3.54893 18.3079 3.30872 18.968 3.30872H28.0462C28.242 2.79307 28.3724 2.2894 28.6098 1.84561C29.1593 0.839683 30.0343 0.256413 31.1601 0.0514235C31.2046 0.038516 31.2478 0.0212932 31.289 0L32.3458 0C32.395 0.0276551 32.4472 0.049633 32.5014 0.0655122C33.6047 0.266275 34.4839 0.83123 35.168 1.71952C35.6125 2.29645 35.8189 2.96918 36 3.656V31.6375ZM33.1869 1.8125V4.19489C33.1869 6.13983 33.1834 8.08406 33.1869 10.029C33.1869 10.3932 33.0813 10.6799 32.729 10.818C32.2288 11.0145 31.78 10.6503 31.7793 10.0494C31.7793 7.30778 31.7793 4.56613 31.7793 1.82448V1.39407C31.5335 1.43915 31.3341 1.45888 31.1453 1.51312C30.1167 1.80687 29.5299 2.66134 29.5299 3.86381C29.5299 11.5957 29.5299 19.328 29.5299 27.0608V27.4729C30.3457 26.903 31.196 26.6536 32.1217 26.7374C33.0376 26.8205 33.8456 27.1798 34.5931 27.8265V4.50837C34.5931 4.41468 34.5931 4.32099 34.5931 4.22659C34.5339 3.21291 34.1091 2.41268 33.1869 1.8125Z" fill="black"/>
<path d="M33.1865 1.81256C34.1087 2.41274 34.5335 3.21297 34.5906 4.22665C34.5955 4.32034 34.5906 4.41403 34.5906 4.50842V27.8251C33.8431 27.1785 33.0322 26.8192 32.1192 26.7361C31.1935 26.6522 30.3432 26.9016 29.5273 27.4715V27.0629C29.5273 19.3306 29.5273 11.5983 29.5273 3.86598C29.5273 2.66351 30.1142 1.80904 31.1428 1.51529C31.3323 1.46105 31.5316 1.44132 31.7768 1.39624V1.82453C31.7768 4.56618 31.7768 7.30783 31.7768 10.0495C31.7768 10.6504 32.2263 11.0146 32.7265 10.818C33.0787 10.6771 33.1858 10.3954 33.1844 10.0291C33.1781 8.08412 33.1844 6.13989 33.1844 4.19495L33.1865 1.81256Z" fill="#ECBC4D"/>
<path d="M15.8206 13.0215C15.8495 12.6693 15.939 12.3671 16.1778 12.1234C16.3532 11.9451 16.4596 11.9451 16.6519 12.0945C17.0366 12.3896 17.4269 12.6735 17.8158 12.9666C18.0271 13.1293 18.2385 13.3005 18.459 13.4773C18.8394 13.1645 19.31 13.0546 19.8222 13.0779C20.1188 13.0927 20.1857 13.1413 20.266 13.4223C20.3858 13.836 20.4278 14.2683 20.39 14.6973C20.6887 14.6051 20.9762 14.5015 21.2707 14.4276C21.7237 14.322 22.1931 14.3062 22.6522 14.3811C22.8375 14.4078 22.9396 14.5304 22.915 14.6833C22.8903 14.8361 22.7691 14.9171 22.5888 14.8946C22.0193 14.8055 21.4364 14.867 20.898 15.0728C20.9762 15.1038 21.0325 15.1278 21.0903 15.1482C21.5663 15.3167 21.9807 15.6245 22.2795 16.0315C22.329 16.0883 22.3596 16.1591 22.3671 16.2341C22.3745 16.3091 22.3585 16.3846 22.3211 16.45C22.1413 16.815 21.8352 17.1024 21.4595 17.2587C21.6405 17.6313 21.6483 18.0202 21.6307 18.4153C21.6032 19.0205 21.9068 19.4981 22.2534 19.9517C22.3415 20.0665 22.4225 20.1694 22.3535 20.3131C22.2844 20.4568 22.1604 20.4709 22.0224 20.4582C21.8948 20.4469 21.7673 20.4385 21.6292 20.4272C21.5803 20.9668 21.4427 21.4947 21.222 21.9896C20.7289 23.0681 19.9399 23.8838 18.9409 24.5045C17.6516 25.3054 16.2483 25.8217 14.7745 26.1585C13.7614 26.3895 12.7363 26.5107 11.6951 26.4487C11.0343 26.4085 10.3925 26.286 9.80138 25.9669C9.08842 25.5801 8.73617 24.937 8.54384 24.1875C8.34377 23.3985 8.34024 22.5968 8.40717 21.7924C8.52975 20.3131 8.91019 18.9042 9.48083 17.5383C9.85422 16.6451 10.2966 15.7857 10.9413 15.0552C11.8 14.0824 12.8181 13.3427 14.1059 13.0356C14.6682 12.8942 15.2561 12.8894 15.8206 13.0215ZM16.1024 14.138C16.0517 13.9971 15.9939 13.8668 15.9552 13.7288C15.9463 13.6858 15.9252 13.6463 15.8943 13.6152C15.8634 13.584 15.8241 13.5626 15.7812 13.5534C15.2783 13.4197 14.7495 13.4172 14.2454 13.5463C13.0717 13.8231 12.1481 14.5057 11.3569 15.3842C10.7045 16.1104 10.2607 16.967 9.89578 17.8652C9.39083 19.0971 9.07264 20.3975 8.95175 21.7234C8.8813 22.4982 8.88553 23.2731 9.05954 24.0388C9.23355 24.8045 9.63018 25.4026 10.4199 25.6668C10.9336 25.8315 11.4692 25.9179 12.0086 25.9232C13.1534 25.9507 14.275 25.7752 15.3768 25.4752C16.7372 25.1074 18.0356 24.5883 19.1628 23.7254C19.9878 23.0963 20.6091 22.3073 20.9184 21.3042C21.017 20.9844 21.0656 20.6491 21.1368 20.3222C20.2209 20.0405 19.5636 19.5107 19.1135 18.7133C19.0909 18.7373 19.0705 18.7549 19.0543 18.776C18.6126 19.3529 18.0229 19.7326 17.3741 20.0306C17.1986 20.1109 17.0732 20.0623 16.9894 19.8862C16.7444 19.3807 16.6033 18.8312 16.5745 18.2702C16.547 17.7433 16.6414 17.2418 16.9359 16.7818C16.8274 16.7571 16.7337 16.7374 16.6414 16.7113C15.6452 16.4605 14.7611 15.9731 13.9072 15.4222C13.7029 15.2912 13.7149 15.0827 13.9291 14.939C14.5878 14.5015 15.288 14.1655 16.1053 14.138H16.1024ZM21.8089 16.2964C21.5726 15.976 21.2603 15.7194 20.9001 15.5497C20.5154 15.3884 20.1519 15.4173 19.8229 15.6829C19.6341 15.835 19.453 15.9977 19.2727 16.159C19.1226 16.2936 18.9726 16.3056 18.8599 16.1837C18.7471 16.0618 18.7647 15.9118 18.9063 15.7843C19.1269 15.587 19.3516 15.3926 19.5862 15.2123C19.7467 15.0914 19.8526 14.9118 19.8807 14.7128C19.942 14.3606 19.8708 14.026 19.8011 13.6893C19.7908 13.6656 19.7747 13.645 19.7543 13.6293C19.7338 13.6137 19.7096 13.6035 19.6841 13.5998C19.4439 13.6456 19.1952 13.6787 18.9705 13.7696C18.7084 13.876 18.7133 13.9105 18.8021 14.1782C18.8117 14.2036 18.8199 14.2294 18.8267 14.2557C18.8356 14.2938 18.8357 14.3334 18.827 14.3716C18.8183 14.4097 18.8011 14.4454 18.7766 14.4759C18.7521 14.5064 18.721 14.531 18.6856 14.5478C18.6503 14.5645 18.6115 14.573 18.5724 14.5727C18.4153 14.5727 18.3406 14.474 18.2998 14.3416C18.1833 13.9791 17.9438 13.6686 17.6227 13.4639C17.2987 13.242 16.9809 13.0095 16.6611 12.7799C16.597 12.7341 16.5378 12.6813 16.4653 12.6228C16.3527 12.8474 16.3307 13.1066 16.404 13.347C16.516 13.74 16.5977 14.1528 16.9957 14.393C17.1148 14.4635 17.1226 14.6044 17.0507 14.7248C17.035 14.7533 17.0138 14.7784 16.9883 14.7987C16.9628 14.8189 16.9335 14.8339 16.9022 14.8427C16.8709 14.8516 16.8381 14.8541 16.8058 14.8502C16.7735 14.8463 16.7422 14.836 16.7139 14.8199C16.3934 14.6438 16.0566 14.6269 15.71 14.6966C15.2881 14.788 14.8857 14.9535 14.5215 15.1855C15.2641 15.6237 15.9932 16.0245 16.8154 16.2161C17.0972 16.2816 17.3727 16.3457 17.653 16.1612C17.8144 16.0548 18.03 16.2316 17.9891 16.4246C17.9599 16.5193 17.898 16.6005 17.8144 16.6536C17.4854 16.8705 17.2402 17.1537 17.1585 17.5397C17.021 18.1822 17.0951 18.8519 17.3698 19.4487C17.8545 19.1923 18.2892 18.8993 18.6196 18.4717C18.7669 18.2801 18.8845 18.0913 18.7605 17.83C18.7006 17.7018 18.7845 17.5876 18.9099 17.5292C18.9701 17.5026 19.0383 17.5004 19.1002 17.523C19.162 17.5456 19.2127 17.5912 19.2417 17.6503C19.2627 17.6997 19.2802 17.7506 19.2938 17.8025C19.5925 18.7316 20.1547 19.4227 21.0938 19.7601C21.2312 19.8101 21.3756 19.8432 21.5165 19.8834L21.551 19.8524C21.1319 19.279 21.0649 18.6302 21.1023 17.9539C21.0966 17.8305 21.0704 17.7088 21.0248 17.594C20.9776 17.4341 20.8973 17.3122 20.6958 17.3446C20.6312 17.3456 20.5668 17.3356 20.5056 17.315C20.3013 17.2749 20.2019 17.153 20.2336 16.9846C20.2632 16.8311 20.4013 16.7606 20.6 16.7973C21.1572 16.9015 21.5355 16.7465 21.8096 16.2964H21.8089Z" fill="black"/>
<path d="M12.2462 26.6635C12.0583 26.6635 11.8705 26.6579 11.6826 26.6466C10.8823 26.598 10.2539 26.4353 9.70578 26.1408C9.02453 25.7731 8.57858 25.1497 8.34962 24.2388C8.17138 23.5344 8.12629 22.7539 8.20872 21.779C8.32848 20.3391 8.68426 18.9281 9.29717 17.4636C9.60997 16.7169 10.063 15.7525 10.7928 14.9277C11.7721 13.8175 12.8408 13.1363 14.0603 12.8454C14.5804 12.7152 15.122 12.695 15.6504 12.7862C15.6932 12.4866 15.8281 12.2076 16.0364 11.9881C16.2802 11.7394 16.4944 11.726 16.774 11.9402C16.9819 12.0994 17.1967 12.2579 17.4025 12.4114C17.5814 12.5446 17.7603 12.677 17.9379 12.8122C18.0865 12.925 18.2288 13.0398 18.3796 13.1645L18.4641 13.2349C18.8361 12.9792 19.2962 12.8637 19.833 12.889C20.2155 12.908 20.3557 13.0172 20.4586 13.3779C20.5571 13.72 20.6062 14.0744 20.6044 14.4303C20.8052 14.3655 21.013 14.2979 21.2223 14.2451C21.7003 14.1325 22.1959 14.1155 22.6806 14.195C22.7495 14.2028 22.8161 14.2243 22.8766 14.2581C22.9371 14.292 22.9902 14.3376 23.0328 14.3923C23.0675 14.4399 23.0923 14.494 23.1056 14.5513C23.1189 14.6087 23.1205 14.6682 23.1103 14.7262C23.0681 14.9861 22.8419 15.1397 22.5594 15.1009C22.2058 15.0479 21.846 15.0534 21.4942 15.1171C21.8647 15.3099 22.1863 15.5845 22.4347 15.9202C22.5059 16.0067 22.5497 16.1125 22.5605 16.2241C22.5713 16.3356 22.5486 16.4479 22.4953 16.5464C22.3276 16.8944 22.0541 17.1804 21.714 17.3636C21.8457 17.7348 21.8429 18.1068 21.8281 18.4343C21.8049 18.9394 22.0444 19.3621 22.4108 19.8432C22.5087 19.9714 22.6524 20.1595 22.5319 20.4117C22.4389 20.6061 22.2614 20.6934 22.0028 20.6695L21.8035 20.6533C21.7417 21.1481 21.6061 21.6308 21.4012 22.0854C20.9172 23.142 20.1239 24.0162 19.0446 24.6869C17.8216 25.4462 16.438 25.9957 14.8176 26.3655C13.9744 26.5612 13.1118 26.6612 12.2462 26.6635ZM15.0057 13.125C14.7185 13.1264 14.4324 13.1614 14.1533 13.2293C13.0176 13.5012 12.0158 14.1415 11.0929 15.1876C10.5533 15.7983 10.1137 16.5471 9.66633 17.6151C9.07032 19.0401 8.72371 20.4117 8.60958 21.8093C8.52433 22.7532 8.56731 23.4703 8.73568 24.1381C8.94069 24.9482 9.30915 25.473 9.89459 25.79C10.3877 26.057 10.9654 26.2028 11.7066 26.2479C12.6464 26.3049 13.6348 26.212 14.7289 25.9619C16.307 25.6019 17.6497 25.0694 18.8347 24.3332C19.8605 23.6992 20.5819 22.9018 21.0391 21.9051C21.2509 21.4301 21.3828 20.9233 21.4294 20.4053L21.4498 20.2116L21.7739 20.237C21.8648 20.2433 21.9521 20.2503 22.0395 20.2581C22.1515 20.268 22.1628 20.2447 22.1719 20.2257C22.1811 20.2067 22.1874 20.194 22.0973 20.0756C21.7563 19.6297 21.3977 19.1007 21.4294 18.4047C21.4491 17.9821 21.4294 17.6566 21.2786 17.3481L21.1884 17.1628L21.3765 17.0783C21.7088 16.9402 21.9793 16.6857 22.1374 16.3626C22.159 16.3304 22.1686 16.2917 22.1648 16.2531C22.1609 16.2146 22.1438 16.1786 22.1163 16.1513C21.8412 15.7752 21.4588 15.4911 21.0194 15.3362C20.9792 15.3221 20.9391 15.3059 20.8933 15.2876L20.3445 15.0707L20.8221 14.8868C21.3933 14.6685 22.0115 14.6029 22.6158 14.6966C22.7081 14.71 22.7137 14.6748 22.7165 14.6543C22.7193 14.6339 22.7165 14.624 22.7116 14.6205C22.6879 14.597 22.6562 14.5832 22.6228 14.5818C22.1893 14.51 21.746 14.5243 21.3181 14.624C21.1215 14.6734 20.9299 14.7361 20.727 14.8016L20.4452 14.891L20.1634 14.9791L20.1895 14.6825C20.2245 14.2779 20.1846 13.8702 20.0718 13.48C20.0176 13.2906 20.0176 13.2906 19.8104 13.2807C19.3117 13.256 18.8988 13.3751 18.5839 13.6329L18.4578 13.7365L18.331 13.6357L18.1246 13.4695C17.9759 13.3504 17.8364 13.2377 17.692 13.1278C17.5159 12.994 17.3398 12.8623 17.1601 12.7305C16.9488 12.5756 16.7374 12.4157 16.5261 12.255C16.4936 12.2235 16.4547 12.1994 16.4119 12.1846C16.4119 12.1846 16.3859 12.1909 16.3154 12.2628C16.1372 12.4445 16.0442 12.6854 16.0146 13.0377L15.9956 13.2687L15.7701 13.2159C15.5197 13.1561 15.2632 13.1256 15.0057 13.125ZM12.2476 26.1274C12.1659 26.1274 12.0842 26.1274 12.0032 26.1274C11.4436 26.1206 10.8883 26.0291 10.356 25.8562C9.56277 25.5906 9.07525 25.0109 8.8639 24.0832C8.7061 23.3872 8.67087 22.6313 8.75259 21.7057C8.87564 20.3603 9.19856 19.0407 9.71071 17.7905C10.1503 16.7049 10.6266 15.8984 11.2078 15.251C12.1236 14.2317 13.1001 13.6111 14.1963 13.349C14.733 13.2134 15.2954 13.2163 15.8307 13.3575C15.9078 13.3752 15.9784 13.414 16.0347 13.4695C16.091 13.5249 16.1309 13.5949 16.1499 13.6717C16.1745 13.759 16.2083 13.8471 16.2443 13.9393C16.2605 13.9816 16.2767 14.0232 16.2922 14.0661L16.3873 14.3247L16.1118 14.3345C15.4404 14.3571 14.8021 14.5952 14.0413 15.1045C13.9758 15.1488 13.9617 15.1855 13.9617 15.196C13.9617 15.2066 13.9765 15.2292 14.0159 15.2545C14.7578 15.7328 15.6553 16.2569 16.693 16.5176L16.8818 16.5612L17.2594 16.6479L17.1066 16.886C16.8572 17.2769 16.7487 17.7257 16.7769 18.2575C16.805 18.7917 16.9393 19.315 17.1721 19.7967C17.2136 19.8826 17.2256 19.877 17.294 19.846C18.0203 19.5128 18.5304 19.1331 18.8988 18.652C18.915 18.6326 18.9325 18.6143 18.9509 18.597L18.9693 18.5787L19.1553 18.3829L19.2877 18.6175C19.7153 19.3747 20.3388 19.8707 21.1955 20.1341L21.3709 20.1876L21.3322 20.3673C21.3096 20.4687 21.2899 20.5702 21.2702 20.6723C21.2296 20.9064 21.1759 21.138 21.1095 21.3662C20.8073 22.3453 20.1937 23.1935 19.2842 23.8873C18.2598 24.6657 17.0347 25.2328 15.4284 25.6702C14.3934 25.9641 13.3236 26.1178 12.2476 26.1274ZM15.0212 13.6505C14.7741 13.6521 14.528 13.6824 14.2879 13.7407C13.2734 13.9802 12.3632 14.5614 11.5051 15.5173C10.9556 16.1294 10.5026 16.8994 10.0806 17.9405C9.58378 19.1542 9.27037 20.435 9.15064 21.7409C9.07244 22.6243 9.10484 23.34 9.25349 23.9951C9.43314 24.7855 9.82414 25.2567 10.4828 25.4779C10.9776 25.6369 11.4934 25.7202 12.013 25.7252C13.0578 25.7513 14.1406 25.6061 15.3242 25.2849C16.879 24.8623 18.0605 24.3156 19.0432 23.5668C19.8964 22.9159 20.448 22.1579 20.7298 21.2457C20.7912 21.0313 20.8413 20.8138 20.8799 20.5941C20.8883 20.5476 20.8975 20.5018 20.9066 20.4532C20.1611 20.2043 19.5216 19.7108 19.0918 19.0528C18.6952 19.5142 18.1725 19.8855 17.4616 20.2116C17.1883 20.337 16.9459 20.2482 16.8135 19.9721C16.5578 19.443 16.4102 18.8683 16.3795 18.2815C16.3444 17.8124 16.4323 17.3424 16.6345 16.9177L16.5965 16.9078C15.5052 16.6331 14.5718 16.0893 13.8032 15.5933C13.7336 15.5539 13.6753 15.4974 13.6337 15.4291C13.5922 15.3608 13.5688 15.283 13.5657 15.2031C13.5657 15.0404 13.6552 14.8889 13.8229 14.7769C14.5471 14.2909 15.1769 14.0323 15.8265 13.9591C15.8054 13.902 15.7856 13.8435 15.7687 13.7837C15.7664 13.7745 15.7629 13.7657 15.7582 13.7576C15.7582 13.7576 15.7525 13.7527 15.7279 13.7463C15.4978 13.6822 15.2601 13.6499 15.0212 13.6505ZM21.5675 20.1066L21.4604 20.0756L21.3293 20.039C21.2307 20.0122 21.1279 19.9848 21.0264 19.9481C20.0873 19.6086 19.4406 18.907 19.1045 17.8637C19.0989 17.8475 19.094 17.8306 19.0897 17.8137C19.0834 17.7896 19.0751 17.7661 19.0651 17.7433C19.0597 17.7299 19.0494 17.7191 19.0363 17.713C19.0232 17.707 19.0083 17.7062 18.9946 17.7109C18.9747 17.7192 18.9569 17.732 18.9425 17.7482C19.1243 18.1427 18.8981 18.4364 18.7762 18.5935C18.3873 19.0979 17.8695 19.4093 17.4616 19.6248L17.27 19.7241L17.1855 19.5234C16.8947 18.8887 16.8166 18.1772 16.9628 17.4946C17.0488 17.0917 17.2989 16.7514 17.7047 16.4837C17.7435 16.4585 17.7745 16.4228 17.7942 16.3809C17.7952 16.3747 17.7949 16.3683 17.7932 16.3622C17.7915 16.3561 17.7884 16.3505 17.7843 16.3457C17.7781 16.3362 17.7689 16.329 17.7582 16.3252C17.4109 16.557 17.0706 16.4781 16.7719 16.4077C15.911 16.2076 15.1389 15.7779 14.4217 15.3552L14.1343 15.1855L14.4161 15.0122C14.7998 14.7674 15.2243 14.5933 15.6694 14.498C16.1019 14.4113 16.4746 14.4585 16.8086 14.6388C16.8143 14.643 16.8209 14.6458 16.8279 14.647C16.8348 14.6482 16.842 14.6478 16.8488 14.6458C16.8556 14.6439 16.8618 14.6404 16.8671 14.6356C16.8723 14.6309 16.8764 14.625 16.879 14.6184C16.8905 14.6016 16.8969 14.5817 16.8973 14.5614H16.8931C16.4634 14.3021 16.3464 13.8788 16.2428 13.5047L16.2133 13.399C16.1264 13.1111 16.1529 12.8009 16.2872 12.5319L16.3971 12.3072L16.5923 12.4643L16.6627 12.5213C16.7057 12.5572 16.7423 12.5918 16.7797 12.615L16.991 12.7693C17.2334 12.944 17.4842 13.125 17.7343 13.2962C18.0935 13.5266 18.3608 13.8755 18.4895 14.2824C18.5177 14.3733 18.5395 14.3747 18.5698 14.3733C18.5794 14.3734 18.5889 14.3715 18.5977 14.3676C18.6064 14.3637 18.6142 14.3579 18.6205 14.3507C18.6261 14.3434 18.6298 14.3349 18.6316 14.3258C18.6333 14.3168 18.6329 14.3075 18.6304 14.2986C18.6279 14.2878 18.6246 14.2772 18.6205 14.2669L18.6114 14.2415C18.5029 13.9168 18.4958 13.7484 18.8932 13.5843C19.0916 13.5116 19.297 13.4597 19.5061 13.4293L19.647 13.4033C19.7992 13.3744 19.9697 13.516 19.9992 13.6484V13.6562C20.0697 14.0034 20.1458 14.3606 20.0782 14.748C20.041 14.9956 19.9085 15.2188 19.709 15.37C19.4596 15.5631 19.2208 15.7723 19.0404 15.9336C19.0154 15.9528 18.9975 15.9798 18.9897 16.0104C18.9906 16.025 18.9971 16.0386 19.008 16.0484C19.0242 16.066 19.0489 16.0928 19.1405 16.0104C19.3187 15.8505 19.5033 15.6849 19.6977 15.5278C20.0711 15.2263 20.5142 15.1707 20.9785 15.3658C21.3733 15.5503 21.7155 15.8307 21.974 16.1815L22.0486 16.2886L21.9782 16.3999C21.6626 16.9184 21.199 17.1121 20.5614 16.9938C20.5051 16.9832 20.436 16.9797 20.4283 17.0219C20.4227 17.0508 20.4142 17.0924 20.5424 17.1191L20.6058 17.1339C20.6258 17.1402 20.6463 17.1447 20.6671 17.1473C20.8538 17.1184 21.1039 17.1621 21.2145 17.5376L21.2335 17.5996C21.2777 17.7164 21.3002 17.8403 21.2998 17.9652C21.2561 18.752 21.3794 19.281 21.7105 19.734L21.8162 19.8791L21.5675 20.1066ZM19.0129 17.3065C19.0973 17.3071 19.18 17.3309 19.2517 17.3754C19.3234 17.4199 19.3815 17.4833 19.4194 17.5587C19.4422 17.6049 19.4601 17.6533 19.473 17.7031C19.4772 17.7158 19.4807 17.7292 19.4843 17.7412C19.7837 18.6703 20.3297 19.2677 21.1518 19.5685C20.8883 19.0049 20.8764 18.4174 20.9024 17.9433C20.8977 17.8664 20.8813 17.7906 20.8538 17.7186L20.8327 17.6482C20.7974 17.5291 20.7798 17.5319 20.7256 17.5404C20.6526 17.5483 20.5787 17.5411 20.5086 17.5193C20.4945 17.5193 20.4804 17.5115 20.4663 17.5094C20.1571 17.4481 19.9845 17.2213 20.0373 16.9459C20.0796 16.7261 20.281 16.5345 20.6361 16.6007C21.0588 16.6796 21.3441 16.5901 21.5632 16.3027C21.3591 16.0632 21.1068 15.8692 20.8228 15.7335C20.4931 15.5926 20.2071 15.6286 19.9478 15.8378C19.7611 15.9885 19.5808 16.1506 19.4061 16.3069C19.1722 16.5183 18.9002 16.5183 18.7135 16.3175C18.6722 16.2739 18.64 16.2224 18.6188 16.1662C18.5976 16.1099 18.5879 16.05 18.5902 15.9899C18.5957 15.922 18.6147 15.8558 18.6461 15.7953C18.6776 15.7348 18.7209 15.6812 18.7734 15.6377C18.9587 15.4722 19.2046 15.2566 19.4645 15.0559C19.5245 15.0113 19.5748 14.955 19.6124 14.8905C19.6501 14.826 19.6743 14.7545 19.6836 14.6804C19.7336 14.3986 19.6836 14.1133 19.623 13.8161L19.5794 13.8245C19.3975 13.8501 19.2188 13.8944 19.0461 13.9569C19.0017 13.9746 18.9756 13.9879 18.9545 13.9971C18.9636 14.0323 18.9805 14.083 18.9918 14.1176L18.9982 14.1352C19.0077 14.1612 19.0157 14.1878 19.0221 14.2148C19.0374 14.2817 19.0374 14.3512 19.0221 14.4182C19.0069 14.4851 18.9768 14.5478 18.934 14.6015C18.8908 14.6553 18.8362 14.6988 18.774 14.7288C18.7118 14.7587 18.6438 14.7745 18.5747 14.7748H18.5705C18.4395 14.7748 18.2098 14.7255 18.1091 14.4029C18.0063 14.0824 17.7944 13.8082 17.5102 13.628C17.2559 13.454 17.003 13.2715 16.7585 13.0954L16.5683 12.9581C16.5545 13.0699 16.5641 13.1834 16.5965 13.2913C16.6071 13.3279 16.6169 13.3617 16.6268 13.4004C16.7226 13.7456 16.805 14.0443 17.0988 14.2211C17.3031 14.3444 17.3553 14.5987 17.2228 14.8248C17.1944 14.8759 17.1562 14.9208 17.1103 14.957C17.0644 14.9932 17.0118 15.02 16.9555 15.0357C16.8992 15.0514 16.8404 15.0558 16.7824 15.0486C16.7244 15.0415 16.6684 15.0229 16.6176 14.9939C16.3661 14.853 16.09 14.8234 15.7497 14.8917C15.4617 14.9514 15.1835 15.0512 14.9233 15.1883C15.5426 15.5405 16.1668 15.8596 16.8607 16.0209C17.1545 16.0914 17.3447 16.1245 17.5434 15.9935C17.6106 15.9495 17.6895 15.9268 17.7699 15.9284C17.8502 15.9301 17.9282 15.9559 17.9935 16.0026C18.0677 16.0518 18.1255 16.122 18.1596 16.2041C18.1938 16.2863 18.2026 16.3768 18.1852 16.464C18.1443 16.6094 18.0516 16.7347 17.9245 16.8162C17.6046 17.0276 17.418 17.2762 17.3538 17.5777C17.3038 17.8192 17.2836 18.066 17.294 18.3125C17.3083 18.6019 17.3685 18.8872 17.4722 19.1578C17.9174 18.9028 18.2267 18.6464 18.4585 18.3434C18.6163 18.1385 18.6424 18.0448 18.5783 17.9081C18.5508 17.8518 18.5375 17.7896 18.5396 17.727C18.5417 17.6644 18.5591 17.6032 18.5902 17.5488C18.645 17.4573 18.7267 17.385 18.8241 17.3417C18.8837 17.3163 18.9482 17.3043 19.0129 17.3065Z" fill="#1D1D1B"/>
<path d="M18.4853 22.6828C18.4895 22.9061 18.0111 23.4154 17.8463 23.3978C17.8006 23.3916 17.7567 23.3759 17.7175 23.3516C17.6783 23.3273 17.6446 23.295 17.6187 23.2569C17.6003 23.215 17.5919 23.1694 17.5941 23.1237C17.5963 23.078 17.6091 23.0334 17.6314 22.9934C17.7647 22.8249 17.9164 22.6718 18.0837 22.537C18.1242 22.515 18.1691 22.5022 18.2151 22.4996C18.2612 22.4969 18.3072 22.5044 18.35 22.5215C18.4191 22.5532 18.4578 22.6518 18.4853 22.6828Z" fill="black"/>
<path d="M17.8582 23.5985C17.8472 23.599 17.8361 23.599 17.8251 23.5985C17.7472 23.5895 17.6724 23.5631 17.6062 23.5213C17.54 23.4795 17.484 23.4233 17.4425 23.3568C17.4055 23.2807 17.389 23.1961 17.3947 23.1116C17.4003 23.0271 17.428 22.9455 17.4749 22.875C17.6177 22.6951 17.7797 22.5314 17.9582 22.3868C18.0829 22.2861 18.2914 22.2882 18.4239 22.3411C18.5154 22.3844 18.5898 22.457 18.6352 22.5475C18.6386 22.5536 18.6424 22.5594 18.6465 22.5651L18.6881 22.6186V22.6813C18.693 22.9821 18.3041 23.347 18.2597 23.3857C18.0505 23.5745 17.9223 23.5985 17.8582 23.5985ZM17.7955 23.1645C17.8115 23.178 17.8299 23.1882 17.8497 23.1948C17.9688 23.142 18.2189 22.8609 18.2724 22.7229C18.269 22.7172 18.2652 22.7118 18.2612 22.7067C18.2395 22.7029 18.2173 22.7029 18.1956 22.7067C18.0475 22.8272 17.9128 22.9635 17.7941 23.1131C17.7912 23.1304 17.7917 23.1481 17.7955 23.1652V23.1645Z" fill="#1D1D1B"/>
<path d="M13.9575 24.5291C13.8948 24.4805 13.7933 24.4375 13.7609 24.365C13.7437 24.3223 13.7361 24.2764 13.7388 24.2304C13.7415 24.1845 13.7543 24.1398 13.7764 24.0994C13.9087 23.9367 14.0561 23.7869 14.2167 23.6521C14.2401 23.6312 14.2674 23.6151 14.2971 23.6049C14.3268 23.5947 14.3582 23.5905 14.3895 23.5926C14.4208 23.5947 14.4514 23.603 14.4794 23.6171C14.5075 23.6312 14.5324 23.6508 14.5528 23.6746C14.5763 23.6933 14.5959 23.7165 14.6104 23.7428C14.6249 23.7691 14.6341 23.798 14.6373 23.8279C14.6406 23.8578 14.6379 23.888 14.6295 23.9168C14.621 23.9456 14.6069 23.9725 14.588 23.9959C14.4421 24.1607 14.2871 24.3173 14.1237 24.465C14.0719 24.4946 14.0158 24.5162 13.9575 24.5291Z" fill="black"/>
<path d="M13.9221 24.7551L13.8341 24.6847C13.8191 24.6731 13.8033 24.6625 13.7869 24.653C13.6963 24.6061 13.6224 24.5323 13.5755 24.4417C13.5178 24.3099 13.5171 24.0979 13.6171 23.9725C13.7566 23.7991 13.9128 23.6399 14.0835 23.497C14.1683 23.4217 14.2794 23.3827 14.3928 23.3885C14.5061 23.3943 14.6126 23.4444 14.6893 23.528C14.7738 23.6005 14.8263 23.7033 14.8354 23.8142C14.8445 23.9251 14.8095 24.0352 14.738 24.1204C14.6083 24.2693 14.47 24.4105 14.3237 24.5431L14.2582 24.6051C14.2092 24.6482 14.15 24.6783 14.0863 24.6924C14.068 24.6974 14.0475 24.7037 14.0243 24.7122L13.9221 24.7551ZM13.9419 24.2768C13.9567 24.2888 13.9722 24.2999 13.9884 24.3099L14.0003 24.3064L14.0525 24.2571C14.187 24.1345 14.3145 24.0045 14.4343 23.8675C14.4456 23.8542 14.4294 23.833 14.4132 23.8175C14.3744 23.7795 14.3618 23.7908 14.3427 23.8041C14.1951 23.9277 14.0592 24.0647 13.9369 24.2134C13.9347 24.2347 13.9364 24.2562 13.9419 24.2768Z" fill="#1D1D1B"/>
<path d="M12.0112 25.0777C11.9548 25.0333 11.8534 24.9903 11.8217 24.9171C11.8051 24.8742 11.7982 24.8282 11.8016 24.7824C11.805 24.7366 11.8186 24.6921 11.8414 24.6522C11.9739 24.4889 12.121 24.3379 12.281 24.2014C12.325 24.1638 12.3816 24.1442 12.4394 24.1464C12.4972 24.1486 12.5521 24.1725 12.5931 24.2134C12.6917 24.2951 12.734 24.4247 12.6593 24.5156C12.5016 24.698 12.3337 24.8714 12.1563 25.0347C12.133 25.0551 12.0866 25.0537 12.0112 25.0777Z" fill="black"/>
<path d="M11.9667 25.2947L11.8864 25.2313C11.8736 25.2216 11.8602 25.2126 11.8462 25.2045C11.7556 25.1576 11.6818 25.0838 11.6349 24.9932C11.604 24.9175 11.5921 24.8354 11.6001 24.754C11.608 24.6727 11.6357 24.5945 11.6807 24.5262C11.8207 24.3532 11.9763 24.1936 12.1456 24.0493C12.2251 23.9802 12.3273 23.9428 12.4326 23.9444C12.5379 23.9459 12.6389 23.9863 12.7163 24.0577C12.9093 24.2169 12.9502 24.467 12.8107 24.6389C12.6822 24.7921 12.5443 24.9373 12.3979 25.0735C12.3626 25.1073 12.3274 25.144 12.2929 25.1757C12.2441 25.2193 12.1831 25.247 12.1182 25.2553C12.1022 25.2581 12.0832 25.2623 12.0611 25.2679L11.9667 25.2947ZM12.0033 24.8277C12.0175 24.8391 12.0323 24.8497 12.0477 24.8594L12.1231 24.7889C12.2544 24.6675 12.3784 24.5383 12.4944 24.4022C12.487 24.3892 12.4772 24.3777 12.4655 24.3684C12.4289 24.3381 12.4176 24.3479 12.4127 24.3522C12.2644 24.4783 12.1278 24.6176 12.0047 24.7685C12.0008 24.788 12.0003 24.808 12.0033 24.8277Z" fill="#1D1D1B"/>
<path d="M14.9017 21.6633C15.113 21.6633 15.2596 21.8993 15.1384 22.0543C14.9988 22.2312 14.8382 22.3904 14.66 22.5284C14.6002 22.5749 14.4487 22.553 14.3684 22.5122C14.3424 22.4994 14.3196 22.4812 14.3014 22.4588C14.2832 22.4363 14.2701 22.4102 14.263 22.3822C14.2559 22.3542 14.2549 22.325 14.2602 22.2966C14.2655 22.2682 14.277 22.2413 14.2937 22.2177C14.4606 22.031 14.6379 21.8539 14.8249 21.6873C14.8453 21.6676 14.8848 21.6683 14.9017 21.6633Z" fill="black"/>
<path d="M14.5552 22.7532C14.4601 22.7525 14.3663 22.7308 14.2805 22.6898C14.2254 22.6624 14.1774 22.6228 14.14 22.574C14.1026 22.5251 14.077 22.4684 14.0649 22.4081C14.0523 22.3523 14.0526 22.2944 14.0656 22.2388C14.0787 22.1831 14.1042 22.1312 14.1403 22.0869C14.272 21.935 14.4132 21.7918 14.563 21.6579L14.6898 21.5388C14.7362 21.4966 14.795 21.4706 14.8575 21.4648L14.8772 21.4585H14.9061C14.9967 21.4589 15.0853 21.4846 15.1621 21.5326C15.2389 21.5806 15.3008 21.6491 15.3408 21.7304C15.3763 21.8005 15.3913 21.8793 15.3839 21.9576C15.3766 22.0359 15.3472 22.1105 15.2992 22.1728C15.1495 22.3627 14.977 22.5336 14.7856 22.6814C14.7192 22.7308 14.638 22.7562 14.5552 22.7532ZM14.4601 22.3306C14.4904 22.3455 14.5236 22.3537 14.5574 22.3545C14.7142 22.2306 14.8561 22.0887 14.9801 21.9319C14.9801 21.9276 14.9801 21.9164 14.9765 21.9114C14.9711 21.9011 14.9638 21.8919 14.9548 21.8844C14.9459 21.8769 14.9355 21.8713 14.9244 21.8678C14.8941 21.8974 14.8631 21.9262 14.8321 21.9551C14.7007 22.0727 14.5764 22.198 14.4601 22.3306Z" fill="#1D1D1B"/>
<path d="M15.891 23.9881C15.8205 23.9282 15.7191 23.8852 15.6916 23.8155C15.6752 23.772 15.6684 23.7255 15.6717 23.6792C15.675 23.6329 15.6883 23.5878 15.7106 23.5471C15.835 23.3925 15.9748 23.2509 16.1277 23.1244C16.1528 23.0994 16.1829 23.0799 16.2162 23.0675C16.2494 23.055 16.2849 23.0497 16.3203 23.0521C16.3557 23.0544 16.3902 23.0642 16.4215 23.081C16.4528 23.0977 16.4802 23.1209 16.5018 23.1491C16.5962 23.2604 16.5912 23.3928 16.4778 23.5126C16.3644 23.6323 16.2369 23.7598 16.1079 23.8747C16.0399 23.9202 15.9672 23.9582 15.891 23.9881Z" fill="black"/>
<path d="M15.8664 24.2261L15.7642 24.1422C15.7459 24.1274 15.7255 24.1148 15.7057 24.1014C15.6181 24.054 15.5477 23.98 15.505 23.89C15.4549 23.7597 15.4542 23.554 15.5522 23.4279C15.684 23.2609 15.833 23.1082 15.9967 22.9722C16.043 22.9305 16.0971 22.8984 16.1558 22.8779C16.2146 22.8573 16.2769 22.8487 16.3391 22.8524C16.3999 22.8579 16.459 22.8754 16.5129 22.904C16.5668 22.9325 16.6146 22.9715 16.6533 23.0187C16.816 23.2103 16.8041 23.4575 16.6223 23.6491C16.4814 23.7999 16.3581 23.9182 16.2397 24.0232C16.1851 24.068 16.1241 24.1043 16.0587 24.131C16.0347 24.1422 16.0101 24.1535 15.9826 24.1676L15.8664 24.2261ZM15.8741 23.733C15.8856 23.7424 15.8976 23.7511 15.91 23.759C15.9329 23.7497 15.9546 23.7379 15.9749 23.7238C16.0841 23.6266 16.1975 23.5125 16.3327 23.3716C16.3842 23.3166 16.3687 23.3011 16.3489 23.2751C16.3391 23.2613 16.3246 23.2515 16.3081 23.2476C16.2886 23.249 16.2705 23.2578 16.2574 23.2723C16.1169 23.3887 15.9885 23.519 15.8741 23.6611C15.8695 23.6841 15.8695 23.7078 15.8741 23.7308V23.733Z" fill="#1D1D1B"/>
<path d="M15.7276 19.9954C15.7276 20.0116 15.7311 20.0341 15.7226 20.0426C15.5261 20.2405 15.3352 20.4462 15.1224 20.6252C15.0886 20.654 14.9181 20.585 14.8737 20.5188C14.8504 20.4767 14.8378 20.4295 14.837 20.3813C14.8361 20.3332 14.847 20.2856 14.8688 20.2427C15.0074 20.0722 15.1648 19.9179 15.338 19.7827C15.3771 19.7629 15.4201 19.7521 15.4639 19.7513C15.5077 19.7504 15.5511 19.7595 15.5909 19.7777C15.6614 19.8108 15.7008 19.9066 15.7536 19.975L15.7276 19.9954Z" fill="black"/>
<path d="M15.0963 20.8314C15.0812 20.8315 15.0661 20.8303 15.0512 20.8279C14.9164 20.8064 14.7942 20.7359 14.7081 20.6299C14.6208 20.501 14.6039 20.2544 14.7124 20.1178C14.8607 19.9353 15.029 19.7699 15.214 19.6247C15.3478 19.5176 15.5662 19.5437 15.6761 19.5958C15.7613 19.6423 15.8309 19.7128 15.8762 19.7987C15.8869 19.8169 15.8987 19.8346 15.9114 19.8515L16.034 20.0093L15.9135 20.1023C15.9033 20.132 15.8864 20.159 15.8642 20.1812L15.7388 20.3094C15.5845 20.4672 15.4253 20.6299 15.2506 20.7764C15.2076 20.813 15.1527 20.8325 15.0963 20.8314ZM15.0399 20.4031L15.0604 20.4151C15.1949 20.296 15.3203 20.1671 15.4528 20.0318L15.5113 19.972L15.4993 19.9558C15.482 19.9519 15.4642 19.9505 15.4464 19.9515C15.2964 20.0702 15.1592 20.2043 15.0371 20.3517C15.0356 20.3688 15.0366 20.3862 15.0399 20.4031Z" fill="#1D1D1B"/>
<path d="M13.2486 22.4333C13.2451 22.6447 12.7794 23.1223 12.6237 23.1019C12.5784 23.0948 12.535 23.0786 12.496 23.0544C12.457 23.0302 12.4233 22.9985 12.3969 22.961C12.3784 22.9214 12.3696 22.878 12.3713 22.8344C12.373 22.7907 12.3852 22.7482 12.4067 22.7102C12.538 22.5469 12.6874 22.3989 12.852 22.2692C12.8935 22.2495 12.9388 22.2393 12.9848 22.2393C13.0307 22.2393 13.0761 22.2495 13.1176 22.2692C13.1859 22.2953 13.2218 22.396 13.2486 22.4333Z" fill="black"/>
<path d="M12.6358 23.3026C12.6234 23.3034 12.6109 23.3034 12.5985 23.3026C12.5226 23.2909 12.45 23.2632 12.3855 23.2215C12.321 23.1797 12.2661 23.1248 12.2244 23.0603C12.1857 22.9857 12.1678 22.902 12.1726 22.8181C12.1775 22.7341 12.2048 22.6531 12.2519 22.5834C12.3927 22.4084 12.5529 22.2501 12.7295 22.1114C12.8662 22.005 13.0881 22.0318 13.2015 22.0846C13.29 22.1325 13.3601 22.2083 13.4009 22.3002C13.4051 22.3087 13.4094 22.3164 13.4129 22.322L13.4509 22.3756V22.439C13.446 22.7384 13.0282 23.1011 13.012 23.1166C12.8274 23.2723 12.7119 23.3026 12.6358 23.3026ZM12.5731 22.8616C12.5899 22.8776 12.6095 22.8902 12.6309 22.899C12.745 22.8461 12.9782 22.5932 13.0367 22.4643L13.0219 22.4404C13.0018 22.4356 12.9812 22.434 12.9606 22.4355C12.818 22.5497 12.6879 22.6786 12.5724 22.8201C12.5705 22.8339 12.5708 22.8479 12.5731 22.8616Z" fill="#1D1D1B"/>
<path d="M17.0887 21.3443C17.0887 21.5648 16.6224 22.029 16.461 22.0065C16.4158 21.9999 16.3725 21.984 16.3338 21.9597C16.2951 21.9355 16.2619 21.9034 16.2363 21.8656C16.2203 21.8221 16.2146 21.7756 16.2195 21.7295C16.2243 21.6835 16.2397 21.6392 16.2645 21.6C16.3842 21.4477 16.5226 21.3111 16.6766 21.1936C16.7168 21.1715 16.7614 21.1585 16.8071 21.1555C16.8529 21.1524 16.8987 21.1594 16.9415 21.1759C17.0155 21.2091 17.0592 21.3105 17.0887 21.3443Z" fill="black"/>
<path d="M16.4736 22.2094C16.4605 22.2101 16.4473 22.2101 16.4342 22.2094C16.3561 22.1982 16.2816 22.1696 16.2162 22.1255C16.1508 22.0815 16.0962 22.0232 16.0566 21.9551C16.0245 21.878 16.0125 21.7941 16.0214 21.7111C16.0304 21.6281 16.0602 21.5488 16.108 21.4803C16.2382 21.3149 16.3887 21.1665 16.556 21.0386C16.6246 20.9947 16.7026 20.9679 16.7837 20.9606C16.8648 20.9532 16.9464 20.9655 17.0217 20.9964C17.1128 21.0426 17.1868 21.1166 17.2331 21.2077C17.2387 21.2162 17.2429 21.2239 17.2472 21.2295L17.2922 21.2859V21.3563C17.2887 21.5987 17.0203 21.8917 16.8625 22.0263C16.7047 22.1608 16.5842 22.2094 16.4736 22.2094ZM16.418 21.7776C16.4344 21.7902 16.4527 21.8002 16.4722 21.8072C16.5856 21.7614 16.8167 21.5163 16.8759 21.3845C16.8699 21.3752 16.8633 21.3663 16.8562 21.3578C16.8346 21.3532 16.8122 21.3532 16.7906 21.3578C16.6544 21.4623 16.5318 21.5834 16.4257 21.7184C16.4182 21.7372 16.4146 21.7574 16.4151 21.7776H16.418Z" fill="#1D1D1B"/>
</svg>
