<svg width="34" height="32" viewBox="0 0 34 32" fill="none" xmlns="http://www.w3.org/2000/svg">
<path d="M9.33306 8.58928C9.34861 7.74582 9.32529 6.90624 9.35249 6.06278C9.42246 3.76172 10.9967 1.63946 13.1656 0.869843C13.8302 0.63274 14.5143 0.52002 15.2218 0.52002C16.9592 0.523906 18.6928 0.52002 20.4302 0.52002C22.8946 0.523906 25.1334 2.15642 25.8992 4.50024C26.1013 5.11437 26.1984 5.74405 26.1984 6.38928C26.1946 8.5854 26.1984 10.7815 26.1946 12.9776C26.1946 13.1448 26.249 13.2458 26.3695 13.3585C26.7582 13.7084 27.1352 14.0737 27.5355 14.4469C28.0331 13.7628 28.6628 13.207 29.3702 12.7483C30.2447 12.1769 31.2087 11.8349 32.2387 11.6833C32.3631 11.6638 32.4214 11.6911 32.4681 11.8116C32.6974 12.3946 32.9345 12.9776 33.1755 13.5568C33.2182 13.6617 33.2066 13.7278 33.125 13.8094C32.3359 14.5985 31.7179 15.4964 31.3137 16.5381C31.1154 17.0511 31.0066 17.5836 31.0493 18.1356C31.0649 18.3144 31.1387 18.4854 31.1776 18.6603C31.3797 19.5116 31.3953 20.355 31.0377 21.1752C30.7345 21.8748 30.1864 22.314 29.4868 22.5939C29.4557 22.5356 29.4285 22.4889 29.3857 22.419C28.5656 24.9727 26.8709 26.7685 24.5659 28.1211C25.5843 28.1211 26.5444 28.1211 27.52 28.1211C27.52 28.3854 27.52 28.6264 27.52 28.9024C27.4423 28.9024 27.3606 28.9024 27.2829 28.9024C22.7546 28.9024 18.2264 28.9024 13.702 28.8985C13.5581 28.8985 13.4532 28.9335 13.3483 29.0462C12.8119 29.6176 12.1977 30.0996 11.4864 30.4222C11.2765 30.5155 11.0861 30.6515 10.8723 30.7215C10.5147 30.842 10.1376 30.9158 9.78394 31.0402C9.09595 31.2773 8.38853 31.2928 7.67722 31.2695C6.23517 31.2229 4.91362 30.7914 3.73588 29.9713C2.2433 28.9335 1.28322 27.5264 0.910075 25.7384C0.78958 25.1632 0.781814 24.584 0.820683 23.9815C2.81468 23.9815 4.8009 23.9815 6.80655 23.9815C6.6744 23.6783 6.54224 23.4063 6.42952 23.1264C5.84259 21.6494 5.69489 20.1335 6.00195 18.5748C6.39842 16.5575 7.44401 14.925 8.9638 13.5762C9.232 13.3391 9.36026 13.1098 9.3486 12.7444C9.32139 11.8465 9.34083 10.9448 9.34083 10.043C9.34083 9.75148 9.34083 9.45607 9.34083 9.16455M10.0988 9.23452C10.1027 10.2956 10.1027 11.3607 10.1027 12.4218C10.1027 12.4879 10.1104 12.554 10.1182 12.6744C12.1627 10.6494 14.5338 9.45218 17.3907 9.30059C17.3907 9.02073 17.3984 8.76031 17.3829 8.50377C17.379 8.45713 17.309 8.39105 17.2546 8.37162C16.4384 8.09953 15.9564 7.40766 15.9914 6.55253C16.0225 5.77904 16.5938 5.09882 17.3635 4.91614C18.1214 4.74122 18.9377 5.09105 19.3108 5.75571C19.8822 6.7702 19.4158 7.98681 18.3157 8.36384C18.2536 8.38328 18.168 8.44936 18.1642 8.496C18.1486 8.76031 18.1564 9.02462 18.1564 9.29671C18.3468 9.31225 18.514 9.32392 18.6772 9.34335C18.926 9.37445 19.1748 9.40943 19.4235 9.45218C19.4546 9.45996 19.4974 9.52992 19.4974 9.56879C19.4974 9.63487 19.4352 9.70095 19.4468 9.76314C19.4702 9.91862 19.5207 10.0663 19.5635 10.2412C17.7677 10.0041 16.6949 10.0158 15.2839 10.4123C13.873 10.8087 12.6253 11.5045 11.5292 12.4762C15.6882 12.4762 19.8511 12.4762 24.0645 12.4762C23.1822 11.7299 20.4264 10.6338 19.4274 10.214C19.6023 10.0002 19.2564 9.65042 19.4196 9.4483C21.5847 9.86808 23.0734 10.7543 23.6681 11.1974C24.2589 11.6366 24.8186 12.1186 25.4172 12.5967C25.4172 11.9981 25.4172 11.4112 25.4172 10.8243C25.4133 9.33558 25.4211 7.84299 25.4016 6.3543C25.3977 5.94229 25.3589 5.5225 25.2656 5.12214C24.7564 2.92992 22.6847 1.28963 20.4302 1.28574C18.6539 1.28186 16.8815 1.28574 15.1052 1.28574C12.6486 1.28574 10.4797 3.15536 10.161 5.58858C10.0755 6.25324 10.1104 6.93345 10.091 7.60589C10.0832 7.85077 10.0871 8.09564 10.0793 8.33663M14.0907 28.1211C14.2034 28.1211 14.2733 28.1211 14.3394 28.1211C16.9165 28.1211 19.4935 28.125 22.0705 28.125C22.3271 28.125 22.6108 28.1639 22.8363 28.0706C24.4765 27.4098 25.9186 26.4497 27.0497 25.0776C28.7288 23.0409 29.3663 20.7359 28.6666 18.1472C28.1536 16.2582 26.9875 14.8084 25.4677 13.6151C25.1334 13.3547 24.7992 13.2497 24.3716 13.2536C21.9578 13.2691 19.5401 13.2575 17.1264 13.2575C15.2023 13.2575 13.2783 13.2614 11.3581 13.2575C10.6119 13.2575 10.6002 13.2342 10.0172 13.6851C8.6645 14.7345 7.61503 16.0211 7.04365 17.6536C6.31291 19.7409 6.51114 21.766 7.55673 23.7133C7.66167 23.9116 7.78217 23.9776 8.00372 23.9776C10.3203 23.9699 12.6408 23.9738 14.9574 23.9738C15.0274 23.9738 15.0974 23.9738 15.1751 23.9738C15.2956 25.478 14.9263 26.8345 14.0907 28.1211ZM14.4133 24.755C10.1182 24.755 5.85037 24.755 1.58641 24.755C1.58641 24.8872 1.57474 25.0038 1.59029 25.1204C1.83516 26.9783 2.77192 28.4126 4.32669 29.431C5.7804 30.3833 7.39348 30.7137 9.09595 30.4105C11.5525 29.9752 13.2938 28.6186 14.1567 26.2321C14.3239 25.7617 14.4133 25.272 14.4133 24.755ZM31.8928 12.4762C31.372 12.6744 30.8666 12.8338 30.3886 13.0593C29.479 13.4907 28.7366 14.1359 28.1225 14.9328C28.0331 15.0455 28.0175 15.1349 28.1186 15.2554C28.2196 15.372 28.2974 15.508 28.379 15.6402C29.3624 17.2066 29.8327 18.9013 29.6811 20.7554C29.6578 21.0547 29.6151 21.354 29.5801 21.6571C29.8444 21.56 30.1515 21.249 30.3069 20.9109C30.6334 20.2112 30.5751 19.4882 30.4002 18.7653C30.3536 18.5631 30.2836 18.3649 30.2681 18.1628C30.2253 17.5331 30.3419 16.9267 30.5557 16.3359C30.9211 15.3253 31.5119 14.4508 32.2038 13.6345C32.2465 13.584 32.2931 13.4907 32.2776 13.4402C32.1688 13.1331 32.0405 12.8377 31.8928 12.4762ZM16.7649 6.64582C16.7532 7.19388 17.1963 7.66031 17.7405 7.67586C18.2963 7.6914 18.7744 7.2483 18.7938 6.70024C18.8133 6.15218 18.3546 5.66243 17.8143 5.65077C17.2391 5.63522 16.7765 6.07444 16.7649 6.64582Z" fill="black"/>
<path d="M14.4131 24.7551C14.4131 25.2721 14.3237 25.7618 14.1566 26.2322C13.2937 28.6187 11.5562 29.9753 9.09578 30.4106C7.38942 30.7138 5.78023 30.3834 4.32652 29.4311C2.77175 28.4127 1.83499 26.9784 1.59011 25.1205C1.57457 25.0078 1.58623 24.8912 1.58623 24.7551C5.85408 24.7551 10.118 24.7551 14.4131 24.7551Z" fill="#ECBC4D"/>
<path d="M31.8927 12.4763C32.0404 12.8378 32.1687 13.1332 32.2775 13.4364C32.2969 13.4869 32.2503 13.5802 32.2037 13.6307C31.5118 14.447 30.921 15.3177 30.5556 16.3322C30.3418 16.923 30.2291 17.5293 30.268 18.159C30.2835 18.3611 30.3496 18.5633 30.4001 18.7615C30.575 19.4845 30.6294 20.2074 30.3068 20.9071C30.1475 21.2452 29.8443 21.5562 29.58 21.6534C29.615 21.3502 29.6577 21.0509 29.681 20.7516C29.8326 18.8975 29.3623 17.2028 28.3789 15.6364C28.2973 15.5042 28.2196 15.3682 28.1185 15.2516C28.0174 15.135 28.033 15.0417 28.1224 14.929C28.7404 14.136 29.4789 13.4869 30.3885 13.0555C30.8666 12.8339 31.3719 12.6784 31.8927 12.4763Z" fill="#ECBC4D"/>
<path d="M16.7649 6.6459C16.7765 6.07452 17.2391 5.63529 17.8105 5.64696C18.3507 5.65862 18.8094 6.14837 18.79 6.69643C18.7705 7.24448 18.2963 7.68759 17.7366 7.67205C17.1963 7.66039 16.7532 7.19395 16.7649 6.6459Z" fill="#ECBC4D"/>
</svg>
