<svg width="36" height="33" viewBox="0 0 36 33" fill="none" xmlns="http://www.w3.org/2000/svg">
<path d="M3.23535 21.8427L3.63428 21.0337L4.04434 20.2321L4.85333 20.2247L5.66232 20.2321L6.07238 21.0337L6.47131 21.8427L6.07238 22.6517L5.66232 23.4533L4.85333 23.4607L4.04434 23.4533L3.63428 22.6517L3.23535 21.8427Z" fill="#ECBC4D"/>
<path fill-rule="evenodd" clip-rule="evenodd" d="M2.83105 21.6405L3.331 20.728L3.84229 19.8286L4.85614 19.8202L5.86476 19.8286L6.37867 20.7327L6.876 21.6405L6.37605 22.5529L5.86476 23.4524L4.85091 23.4607L3.84229 23.4524L3.32839 22.5482L2.83105 21.6405ZM3.89938 22.2103L4.22033 22.775L4.85353 22.7802L5.48672 22.775L5.80768 22.2103L6.11991 21.6405L5.80768 21.0706L5.48672 20.5059L4.85353 20.5007L4.22033 20.5059L3.89938 21.0706L3.58714 21.6405L3.89938 22.2103Z" fill="black"/>
<path d="M3.23535 18.4046L3.63428 17.6967L4.04434 16.9953L4.85333 16.9889L5.66232 16.9953L6.07238 17.6967L6.47131 18.4046L6.07238 19.1124L5.66232 19.8138L4.85333 19.8203L4.04434 19.8138L3.63428 19.1124L3.23535 18.4046Z" fill="#ECBC4D"/>
<path fill-rule="evenodd" clip-rule="evenodd" d="M2.83105 18.4044L3.331 17.4919L3.84229 16.5925L4.85614 16.5842L5.86476 16.5925L6.37867 17.4966L6.876 18.4044L6.37605 19.3168L5.86476 20.2163L4.85091 20.2246L3.84229 20.2163L3.32839 19.3122L2.83105 18.4044ZM3.89938 18.9743L4.22033 19.5389L4.85353 19.5441L5.48672 19.5389L5.80768 18.9742L6.11991 18.4044L5.80768 17.8345L5.48672 17.2699L4.85353 17.2646L4.22033 17.2699L3.89938 17.8345L3.58714 18.4044L3.89938 18.9743Z" fill="black"/>
<path d="M3.23535 14.9663L3.63428 14.1573L4.04434 13.3557L4.85333 13.3483L5.66232 13.3557L6.07238 14.1573L6.47131 14.9663L6.07238 15.7752L5.66232 16.5768L4.85333 16.5842L4.04434 16.5768L3.63428 15.7752L3.23535 14.9663Z" fill="#ECBC4D"/>
<path fill-rule="evenodd" clip-rule="evenodd" d="M2.83105 15.1685L3.331 14.2561L3.84229 13.3567L4.85614 13.3483L5.86476 13.3567L6.37867 14.2608L6.876 15.1685L6.37605 16.081L5.86476 16.9804L4.85091 16.9888L3.84229 16.9804L3.32839 16.0763L2.83105 15.1685ZM3.89938 15.7384L4.22033 16.3031L4.85353 16.3083L5.48672 16.3031L5.80768 15.7384L6.11991 15.1685L5.80768 14.5987L5.48672 14.034L4.85353 14.0288L4.22033 14.034L3.89938 14.5987L3.58714 15.1685L3.89938 15.7384Z" fill="black"/>
<path d="M3.23535 11.5281L3.63428 10.8203L4.04434 10.1189L4.85333 10.1124L5.66232 10.1189L6.07238 10.8203L6.47131 11.5281L6.07238 12.236L5.66232 12.9374L4.85333 12.9438L4.04434 12.9374L3.63428 12.236L3.23535 11.5281Z" fill="#ECBC4D"/>
<path fill-rule="evenodd" clip-rule="evenodd" d="M2.83105 11.5282L3.331 10.6157L3.84229 9.71628L4.85614 9.70794L5.86476 9.71628L6.37867 10.6204L6.876 11.5282L6.37605 12.4406L5.86476 13.3401L4.85091 13.3484L3.84229 13.3401L3.32839 12.4359L2.83105 11.5282ZM3.89938 12.098L4.22033 12.6627L4.85353 12.6679L5.48672 12.6627L5.80768 12.098L6.11991 11.5282L5.80768 10.9583L5.48672 10.3936L4.85353 10.3884L4.22033 10.3936L3.89938 10.9583L3.58714 11.5282L3.89938 12.098Z" fill="black"/>
<path d="M3.23535 8.49428L3.63428 7.88754L4.04434 7.28634L4.85333 7.2808L5.66232 7.28634L6.07238 7.88754L6.47131 8.49428L6.07238 9.10102L5.66232 9.70222L4.85333 9.70776L4.04434 9.70222L3.63428 9.10102L3.23535 8.49428Z" fill="#ECBC4D"/>
<path fill-rule="evenodd" clip-rule="evenodd" d="M2.83105 8.49433L3.331 7.68326L3.84229 6.88376L4.85614 6.87635L5.86476 6.88376L6.37867 7.68742L6.876 8.49433L6.37605 9.3054L5.86476 10.1049L4.85091 10.1123L3.84229 10.1049L3.32839 9.30123L2.83105 8.49433ZM3.89938 9.00088L4.22033 9.5028L4.85353 9.50743L5.48672 9.5028L5.80768 9.00087L6.11991 8.49433L5.80768 7.98778L5.48672 7.48586L4.85353 7.48123L4.22033 7.48586L3.89938 7.98778L3.58714 8.49433L3.89938 9.00088Z" fill="black"/>
<path d="M3.23535 5.25849L3.63428 4.4495L4.04434 3.6479L4.85333 3.64051L5.66232 3.6479L6.07238 4.4495L6.47131 5.25849L6.07238 6.06748L5.66232 6.86907L4.85333 6.87646L4.04434 6.86907L3.63428 6.06748L3.23535 5.25849Z" fill="#ECBC4D"/>
<path fill-rule="evenodd" clip-rule="evenodd" d="M2.83105 5.05624L3.331 4.14379L3.84229 3.24435L4.85614 3.23602L5.86476 3.24435L6.37867 4.14847L6.876 5.05624L6.37605 5.96869L5.86476 6.86813L4.85091 6.87646L3.84229 6.86813L3.32839 5.96401L2.83105 5.05624ZM3.89938 5.62611L4.22033 6.19077L4.85353 6.19598L5.48672 6.19077L5.80768 5.6261L6.11991 5.05624L5.80768 4.48638L5.48672 3.92171L4.85353 3.9165L4.22033 3.92171L3.89938 4.48637L3.58714 5.05624L3.89938 5.62611Z" fill="black"/>
<path d="M3.23535 1.82011L3.63428 1.11224L4.04434 0.410847L4.85333 0.404379L5.66232 0.410847L6.07238 1.11224L6.47131 1.82011L6.07238 2.52797L5.66232 3.22937L4.85333 3.23584L4.04434 3.22937L3.63428 2.52797L3.23535 1.82011Z" fill="#ECBC4D"/>
<path fill-rule="evenodd" clip-rule="evenodd" d="M2.83105 1.82016L3.331 0.907701L3.84229 0.00826807L4.85614 -6.87531e-05L5.86476 0.00826799L6.37867 0.912386L6.876 1.82016L6.37605 2.73261L5.86476 3.63204L4.85091 3.64038L3.84229 3.63204L3.32839 2.72793L2.83105 1.82016ZM3.89938 2.39002L4.22033 2.95469L4.85353 2.95989L5.48672 2.95469L5.80768 2.39002L6.11991 1.82016L5.80768 1.25029L5.48672 0.685627L4.85353 0.68042L4.22033 0.685627L3.89938 1.25029L3.58714 1.82016L3.89938 2.39002Z" fill="black"/>
<path d="M5.66309 23.2583L6.06201 22.5505L6.47207 21.8491L7.28106 21.8426L8.09005 21.8491L8.50012 22.5505L8.89904 23.2583L8.50012 23.9662L8.09005 24.6676L7.28106 24.6741L6.47207 24.6676L6.06201 23.9662L5.66309 23.2583Z" fill="#ECBC4D"/>
<path fill-rule="evenodd" clip-rule="evenodd" d="M5.25879 23.2584L5.75873 22.3459L6.27002 21.4465L7.28388 21.4382L8.2925 21.4465L8.8064 22.3506L9.30373 23.2584L8.80379 24.1708L8.2925 25.0703L7.27865 25.0786L6.27003 25.0703L5.75612 24.1662L5.25879 23.2584ZM6.32711 23.8283L6.64807 24.3929L7.28126 24.3981L7.91445 24.3929L8.23541 23.8283L8.54765 23.2584L8.23541 22.6885L7.91445 22.1239L7.28126 22.1187L6.64807 22.1239L6.32711 22.6885L6.01487 23.2584L6.32711 23.8283Z" fill="black"/>
<path d="M5.66309 19.618L6.06201 18.9101L6.47207 18.2087L7.28106 18.2022L8.09005 18.2087L8.50012 18.9101L8.89904 19.618L8.50012 20.3258L8.09005 21.0272L7.28106 21.0337L6.47207 21.0272L6.06201 20.3258L5.66309 19.618Z" fill="#ECBC4D"/>
<path fill-rule="evenodd" clip-rule="evenodd" d="M5.25879 19.618L5.75873 18.7056L6.27002 17.8061L7.28388 17.7978L8.2925 17.8061L8.8064 18.7102L9.30373 19.618L8.80379 20.5305L8.2925 21.4299L7.27865 21.4382L6.27003 21.4299L5.75612 20.5258L5.25879 19.618ZM6.32711 20.1879L6.64807 20.7525L7.28126 20.7577L7.91445 20.7525L8.23541 20.1879L8.54765 19.618L8.23541 19.0481L7.91445 18.4835L7.28126 18.4783L6.64807 18.4835L6.32711 19.0481L6.01487 19.618L6.32711 20.1879Z" fill="black"/>
<path d="M5.66309 16.3821L6.06201 15.6743L6.47207 14.9729L7.28106 14.9664L8.09005 14.9729L8.50012 15.6743L8.89904 16.3821L8.50012 17.09L8.09005 17.7914L7.28106 17.7979L6.47207 17.7914L6.06201 17.09L5.66309 16.3821Z" fill="#ECBC4D"/>
<path fill-rule="evenodd" clip-rule="evenodd" d="M5.25879 16.3819L5.75873 15.4695L6.27002 14.57L7.28388 14.5617L8.2925 14.57L8.8064 15.4742L9.30373 16.3819L8.80379 17.2944L8.2925 18.1938L7.27865 18.2021L6.27003 18.1938L5.75612 17.2897L5.25879 16.3819ZM6.32711 16.9518L6.64807 17.5165L7.28126 17.5217L7.91445 17.5165L8.23541 16.9518L8.54765 16.3819L8.23541 15.8121L7.91445 15.2474L7.28126 15.2422L6.64807 15.2474L6.32711 15.8121L6.01487 16.3819L6.32711 16.9518Z" fill="black"/>
<path d="M5.66309 12.9438L6.06201 12.1348L6.47207 11.3332L7.28106 11.3258L8.09005 11.3332L8.50012 12.1348L8.89904 12.9438L8.50012 13.7528L8.09005 14.5544L7.28106 14.5618L6.47207 14.5544L6.06201 13.7528L5.66309 12.9438Z" fill="#ECBC4D"/>
<path fill-rule="evenodd" clip-rule="evenodd" d="M5.25879 13.1461L5.75873 12.2336L6.27002 11.3342L7.28388 11.3259L8.2925 11.3342L8.8064 12.2383L9.30373 13.1461L8.80379 14.0585L8.2925 14.958L7.27865 14.9663L6.27003 14.958L5.75612 14.0539L5.25879 13.1461ZM6.32711 13.716L6.64807 14.2806L7.28126 14.2858L7.91445 14.2806L8.23541 13.7159L8.54765 13.1461L8.23541 12.5762L7.91445 12.0116L7.28126 12.0063L6.64807 12.0116L6.32711 12.5762L6.01487 13.1461L6.32711 13.716Z" fill="black"/>
<path d="M5.66309 9.50566L6.06201 8.79779L6.47207 8.09639L7.28106 8.08993L8.09005 8.09639L8.50012 8.79779L8.89904 9.50566L8.50012 10.2135L8.09005 10.9149L7.28106 10.9214L6.47207 10.9149L6.06201 10.2135L5.66309 9.50566Z" fill="#ECBC4D"/>
<path fill-rule="evenodd" clip-rule="evenodd" d="M5.25879 9.5057L5.75873 8.59325L6.27002 7.69381L7.28388 7.68548L8.2925 7.69381L8.8064 8.59793L9.30373 9.5057L8.80379 10.4182L8.2925 11.3176L7.27865 11.3259L6.27003 11.3176L5.75612 10.4135L5.25879 9.5057ZM6.32711 10.0756L6.64807 10.6402L7.28126 10.6454L7.91445 10.6402L8.23541 10.0756L8.54765 9.5057L8.23541 8.93584L7.91445 8.37117L7.28126 8.36597L6.64807 8.37117L6.32711 8.93583L6.01487 9.5057L6.32711 10.0756Z" fill="black"/>
<path d="M5.66309 6.47182L6.06201 5.86508L6.47207 5.26388L7.28106 5.25834L8.09005 5.26388L8.50012 5.86508L8.89904 6.47182L8.50012 7.07856L8.09005 7.67976L7.28106 7.6853L6.47207 7.67976L6.06201 7.07856L5.66309 6.47182Z" fill="#ECBC4D"/>
<path fill-rule="evenodd" clip-rule="evenodd" d="M5.25879 6.47187L5.75873 5.6608L6.27002 4.8613L7.28388 4.85389L8.2925 4.8613L8.8064 5.66496L9.30373 6.47187L8.80379 7.28294L8.2925 8.08243L7.27865 8.08984L6.27003 8.08243L5.75612 7.27877L5.25879 6.47187ZM6.32711 6.97841L6.64807 7.48034L7.28126 7.48496L7.91445 7.48034L8.23541 6.97841L8.54765 6.47187L8.23541 5.96532L7.91445 5.4634L7.28126 5.45877L6.64807 5.4634L6.32711 5.96532L6.01487 6.47187L6.32711 6.97841Z" fill="black"/>
<path d="M5.66309 3.03373L6.06201 2.32587L6.47207 1.62447L7.28106 1.618L8.09005 1.62447L8.50012 2.32587L8.89904 3.03373L8.50012 3.7416L8.09005 4.443L7.28106 4.44946L6.47207 4.443L6.06201 3.7416L5.66309 3.03373Z" fill="#ECBC4D"/>
<path fill-rule="evenodd" clip-rule="evenodd" d="M5.25879 3.03378L5.75873 2.12132L6.27002 1.22189L7.28388 1.21355L8.2925 1.22189L8.8064 2.12601L9.30373 3.03378L8.80379 3.94623L8.2925 4.84567L7.27865 4.854L6.27003 4.84567L5.75612 3.94155L5.25879 3.03378ZM6.32711 3.60365L6.64807 4.16831L7.28126 4.17352L7.91445 4.16831L8.23541 3.60364L8.54765 3.03378L8.23541 2.46392L7.91445 1.89925L7.28126 1.89404L6.64807 1.89925L6.32711 2.46391L6.01487 3.03378L6.32711 3.60365Z" fill="black"/>
<path d="M8.49414 21.8427L8.89307 21.0337L9.30313 20.2321L10.1121 20.2247L10.9211 20.2321L11.3312 21.0337L11.7301 21.8427L11.3312 22.6517L10.9211 23.4533L10.1121 23.4607L9.30313 23.4533L8.89307 22.6517L8.49414 21.8427Z" fill="#ECBC4D"/>
<path fill-rule="evenodd" clip-rule="evenodd" d="M8.08984 21.6405L8.58979 20.728L9.10108 19.8286L10.1149 19.8202L11.1236 19.8286L11.6375 20.7327L12.1348 21.6405L11.6348 22.5529L11.1236 23.4524L10.1097 23.4607L9.10108 23.4524L8.58717 22.5482L8.08984 21.6405ZM9.15816 22.2103L9.47912 22.775L10.1123 22.7802L10.7455 22.775L11.0665 22.2103L11.3787 21.6405L11.0665 21.0706L10.7455 20.5059L10.1123 20.5007L9.47912 20.5059L9.15817 21.0706L8.84593 21.6405L9.15816 22.2103Z" fill="black"/>
<path d="M8.49414 18.4046L8.89307 17.6967L9.30313 16.9953L10.1121 16.9889L10.9211 16.9953L11.3312 17.6967L11.7301 18.4046L11.3312 19.1124L10.9211 19.8138L10.1121 19.8203L9.30313 19.8138L8.89307 19.1124L8.49414 18.4046Z" fill="#ECBC4D"/>
<path fill-rule="evenodd" clip-rule="evenodd" d="M8.08984 18.4044L8.58979 17.4919L9.10108 16.5925L10.1149 16.5842L11.1236 16.5925L11.6375 17.4966L12.1348 18.4044L11.6348 19.3168L11.1236 20.2163L10.1097 20.2246L9.10108 20.2163L8.58717 19.3122L8.08984 18.4044ZM9.15816 18.9743L9.47912 19.5389L10.1123 19.5441L10.7455 19.5389L11.0665 18.9742L11.3787 18.4044L11.0665 17.8345L10.7455 17.2699L10.1123 17.2646L9.47912 17.2699L9.15817 17.8345L8.84593 18.4044L9.15816 18.9743Z" fill="black"/>
<path d="M8.49414 14.9663L8.89307 14.1573L9.30313 13.3557L10.1121 13.3483L10.9211 13.3557L11.3312 14.1573L11.7301 14.9663L11.3312 15.7752L10.9211 16.5768L10.1121 16.5842L9.30313 16.5768L8.89307 15.7752L8.49414 14.9663Z" fill="#ECBC4D"/>
<path fill-rule="evenodd" clip-rule="evenodd" d="M8.08984 15.1685L8.58979 14.2561L9.10108 13.3567L10.1149 13.3483L11.1236 13.3567L11.6375 14.2608L12.1348 15.1685L11.6348 16.081L11.1236 16.9804L10.1097 16.9888L9.10108 16.9804L8.58717 16.0763L8.08984 15.1685ZM9.15816 15.7384L9.47912 16.3031L10.1123 16.3083L10.7455 16.3031L11.0665 15.7384L11.3787 15.1685L11.0665 14.5987L10.7455 14.034L10.1123 14.0288L9.47912 14.034L9.15817 14.5987L8.84593 15.1685L9.15816 15.7384Z" fill="black"/>
<path d="M8.49414 11.5281L8.89307 10.8203L9.30313 10.1189L10.1121 10.1124L10.9211 10.1189L11.3312 10.8203L11.7301 11.5281L11.3312 12.236L10.9211 12.9374L10.1121 12.9438L9.30313 12.9374L8.89307 12.236L8.49414 11.5281Z" fill="#ECBC4D"/>
<path fill-rule="evenodd" clip-rule="evenodd" d="M8.08984 11.5282L8.58979 10.6157L9.10108 9.71628L10.1149 9.70794L11.1236 9.71628L11.6375 10.6204L12.1348 11.5282L11.6348 12.4406L11.1236 13.3401L10.1097 13.3484L9.10108 13.3401L8.58717 12.4359L8.08984 11.5282ZM9.15816 12.098L9.47912 12.6627L10.1123 12.6679L10.7455 12.6627L11.0665 12.098L11.3787 11.5282L11.0665 10.9583L10.7455 10.3936L10.1123 10.3884L9.47912 10.3936L9.15817 10.9583L8.84593 11.5282L9.15816 12.098Z" fill="black"/>
<path d="M8.49414 8.49428L8.89307 7.88754L9.30313 7.28634L10.1121 7.2808L10.9211 7.28634L11.3312 7.88754L11.7301 8.49428L11.3312 9.10102L10.9211 9.70222L10.1121 9.70776L9.30313 9.70222L8.89307 9.10102L8.49414 8.49428Z" fill="#ECBC4D"/>
<path fill-rule="evenodd" clip-rule="evenodd" d="M8.08984 8.49433L8.58979 7.68326L9.10108 6.88376L10.1149 6.87635L11.1236 6.88376L11.6375 7.68742L12.1348 8.49433L11.6348 9.3054L11.1236 10.1049L10.1097 10.1123L9.10108 10.1049L8.58717 9.30123L8.08984 8.49433ZM9.15816 9.00088L9.47912 9.5028L10.1123 9.50743L10.7455 9.5028L11.0665 9.00087L11.3787 8.49433L11.0665 7.98778L10.7455 7.48586L10.1123 7.48123L9.47912 7.48586L9.15817 7.98778L8.84593 8.49433L9.15816 9.00088Z" fill="black"/>
<path d="M8.49414 5.25849L8.89307 4.4495L9.30313 3.6479L10.1121 3.64051L10.9211 3.6479L11.3312 4.4495L11.7301 5.25849L11.3312 6.06748L10.9211 6.86907L10.1121 6.87646L9.30313 6.86907L8.89307 6.06748L8.49414 5.25849Z" fill="#ECBC4D"/>
<path fill-rule="evenodd" clip-rule="evenodd" d="M8.08984 5.05624L8.58979 4.14379L9.10108 3.24435L10.1149 3.23602L11.1236 3.24435L11.6375 4.14847L12.1348 5.05624L11.6348 5.96869L11.1236 6.86813L10.1097 6.87646L9.10108 6.86813L8.58717 5.96401L8.08984 5.05624ZM9.15816 5.62611L9.47912 6.19077L10.1123 6.19598L10.7455 6.19077L11.0665 5.6261L11.3787 5.05624L11.0665 4.48638L10.7455 3.92171L10.1123 3.9165L9.47912 3.92171L9.15817 4.48637L8.84593 5.05624L9.15816 5.62611Z" fill="black"/>
<path d="M8.49414 1.82011L8.89307 1.11224L9.30313 0.410847L10.1121 0.404379L10.9211 0.410847L11.3312 1.11224L11.7301 1.82011L11.3312 2.52797L10.9211 3.22937L10.1121 3.23584L9.30313 3.22937L8.89307 2.52797L8.49414 1.82011Z" fill="#ECBC4D"/>
<path fill-rule="evenodd" clip-rule="evenodd" d="M8.08984 1.82016L8.58979 0.907701L9.10108 0.00826807L10.1149 -6.87531e-05L11.1236 0.00826799L11.6375 0.912386L12.1348 1.82016L11.6348 2.73261L11.1236 3.63204L10.1097 3.64038L9.10108 3.63204L8.58717 2.72793L8.08984 1.82016ZM9.15816 2.39002L9.47912 2.95469L10.1123 2.95989L10.7455 2.95469L11.0665 2.39002L11.3787 1.82016L11.0665 1.25029L10.7455 0.685627L10.1123 0.68042L9.47912 0.685627L9.15817 1.25029L8.84593 1.82016L9.15816 2.39002Z" fill="black"/>
<path d="M10.9209 23.2583L11.3198 22.5505L11.7299 21.8491L12.5389 21.8426L13.3479 21.8491L13.7579 22.5505L14.1569 23.2583L13.7579 23.9662L13.3479 24.6676L12.5389 24.6741L11.7299 24.6676L11.3198 23.9662L10.9209 23.2583Z" fill="#ECBC4D"/>
<path fill-rule="evenodd" clip-rule="evenodd" d="M10.5166 23.2584L11.0165 22.3459L11.5278 21.4465L12.5417 21.4382L13.5503 21.4465L14.0642 22.3506L14.5615 23.2584L14.0616 24.1708L13.5503 25.0703L12.5365 25.0786L11.5278 25.0703L11.0139 24.1662L10.5166 23.2584ZM11.5849 23.8283L11.9059 24.3929L12.5391 24.3981L13.1723 24.3929L13.4932 23.8283L13.8055 23.2584L13.4932 22.6885L13.1723 22.1239L12.5391 22.1187L11.9059 22.1239L11.5849 22.6885L11.2727 23.2584L11.5849 23.8283Z" fill="black"/>
<path d="M10.9209 19.618L11.3198 18.9101L11.7299 18.2087L12.5389 18.2022L13.3479 18.2087L13.7579 18.9101L14.1569 19.618L13.7579 20.3258L13.3479 21.0272L12.5389 21.0337L11.7299 21.0272L11.3198 20.3258L10.9209 19.618Z" fill="#ECBC4D"/>
<path fill-rule="evenodd" clip-rule="evenodd" d="M10.5166 19.618L11.0165 18.7056L11.5278 17.8061L12.5417 17.7978L13.5503 17.8061L14.0642 18.7102L14.5615 19.618L14.0616 20.5305L13.5503 21.4299L12.5365 21.4382L11.5278 21.4299L11.0139 20.5258L10.5166 19.618ZM11.5849 20.1879L11.9059 20.7525L12.5391 20.7577L13.1723 20.7525L13.4932 20.1879L13.8055 19.618L13.4932 19.0481L13.1723 18.4835L12.5391 18.4783L11.9059 18.4835L11.5849 19.0481L11.2727 19.618L11.5849 20.1879Z" fill="black"/>
<path d="M10.9209 16.3821L11.3198 15.6743L11.7299 14.9729L12.5389 14.9664L13.3479 14.9729L13.7579 15.6743L14.1569 16.3821L13.7579 17.09L13.3479 17.7914L12.5389 17.7979L11.7299 17.7914L11.3198 17.09L10.9209 16.3821Z" fill="#ECBC4D"/>
<path fill-rule="evenodd" clip-rule="evenodd" d="M10.5166 16.3819L11.0165 15.4695L11.5278 14.57L12.5417 14.5617L13.5503 14.57L14.0642 15.4742L14.5615 16.3819L14.0616 17.2944L13.5503 18.1938L12.5365 18.2021L11.5278 18.1938L11.0139 17.2897L10.5166 16.3819ZM11.5849 16.9518L11.9059 17.5165L12.5391 17.5217L13.1723 17.5165L13.4932 16.9518L13.8055 16.3819L13.4932 15.8121L13.1723 15.2474L12.5391 15.2422L11.9059 15.2474L11.5849 15.8121L11.2727 16.3819L11.5849 16.9518Z" fill="black"/>
<path d="M10.9209 12.9438L11.3198 12.1348L11.7299 11.3332L12.5389 11.3258L13.3479 11.3332L13.7579 12.1348L14.1569 12.9438L13.7579 13.7528L13.3479 14.5544L12.5389 14.5618L11.7299 14.5544L11.3198 13.7528L10.9209 12.9438Z" fill="#ECBC4D"/>
<path fill-rule="evenodd" clip-rule="evenodd" d="M10.5166 13.1461L11.0165 12.2336L11.5278 11.3342L12.5417 11.3259L13.5503 11.3342L14.0642 12.2383L14.5615 13.1461L14.0616 14.0585L13.5503 14.958L12.5365 14.9663L11.5278 14.958L11.0139 14.0539L10.5166 13.1461ZM11.5849 13.716L11.9059 14.2806L12.5391 14.2858L13.1723 14.2806L13.4932 13.7159L13.8055 13.1461L13.4932 12.5762L13.1723 12.0116L12.5391 12.0063L11.9059 12.0116L11.5849 12.5762L11.2727 13.1461L11.5849 13.716Z" fill="black"/>
<path d="M10.9209 9.50566L11.3198 8.79779L11.7299 8.09639L12.5389 8.08993L13.3479 8.09639L13.7579 8.79779L14.1569 9.50566L13.7579 10.2135L13.3479 10.9149L12.5389 10.9214L11.7299 10.9149L11.3198 10.2135L10.9209 9.50566Z" fill="#ECBC4D"/>
<path fill-rule="evenodd" clip-rule="evenodd" d="M10.5166 9.5057L11.0165 8.59325L11.5278 7.69381L12.5417 7.68548L13.5503 7.69381L14.0642 8.59793L14.5615 9.5057L14.0616 10.4182L13.5503 11.3176L12.5365 11.3259L11.5278 11.3176L11.0139 10.4135L10.5166 9.5057ZM11.5849 10.0756L11.9059 10.6402L12.5391 10.6454L13.1723 10.6402L13.4932 10.0756L13.8055 9.5057L13.4932 8.93584L13.1723 8.37117L12.5391 8.36597L11.9059 8.37117L11.5849 8.93583L11.2727 9.5057L11.5849 10.0756Z" fill="black"/>
<path d="M10.9209 6.47182L11.3198 5.86508L11.7299 5.26388L12.5389 5.25834L13.3479 5.26388L13.7579 5.86508L14.1569 6.47182L13.7579 7.07856L13.3479 7.67976L12.5389 7.6853L11.7299 7.67976L11.3198 7.07856L10.9209 6.47182Z" fill="#ECBC4D"/>
<path fill-rule="evenodd" clip-rule="evenodd" d="M10.5166 6.47187L11.0165 5.6608L11.5278 4.8613L12.5417 4.85389L13.5503 4.8613L14.0642 5.66496L14.5615 6.47187L14.0616 7.28294L13.5503 8.08243L12.5365 8.08984L11.5278 8.08243L11.0139 7.27877L10.5166 6.47187ZM11.5849 6.97841L11.9059 7.48034L12.5391 7.48496L13.1723 7.48034L13.4932 6.97841L13.8055 6.47187L13.4932 5.96532L13.1723 5.4634L12.5391 5.45877L11.9059 5.4634L11.5849 5.96532L11.2727 6.47187L11.5849 6.97841Z" fill="black"/>
<path d="M10.9209 3.03373L11.3198 2.32587L11.7299 1.62447L12.5389 1.618L13.3479 1.62447L13.7579 2.32587L14.1569 3.03373L13.7579 3.7416L13.3479 4.443L12.5389 4.44946L11.7299 4.443L11.3198 3.7416L10.9209 3.03373Z" fill="#ECBC4D"/>
<path fill-rule="evenodd" clip-rule="evenodd" d="M10.5166 3.03378L11.0165 2.12132L11.5278 1.22189L12.5417 1.21355L13.5503 1.22189L14.0642 2.12601L14.5615 3.03378L14.0616 3.94623L13.5503 4.84567L12.5365 4.854L11.5278 4.84567L11.0139 3.94155L10.5166 3.03378ZM11.5849 3.60365L11.9059 4.16831L12.5391 4.17352L13.1723 4.16831L13.4932 3.60364L13.8055 3.03378L13.4932 2.46392L13.1723 1.89925L12.5391 1.89404L11.9059 1.89925L11.5849 2.46391L11.2727 3.03378L11.5849 3.60365Z" fill="black"/>
<path d="M13.7529 21.8427L14.1519 21.0337L14.5619 20.2321L15.3709 20.2247L16.1799 20.2321L16.59 21.0337L16.9889 21.8427L16.59 22.6517L16.1799 23.4533L15.3709 23.4607L14.5619 23.4533L14.1519 22.6517L13.7529 21.8427Z" fill="#ECBC4D"/>
<path fill-rule="evenodd" clip-rule="evenodd" d="M13.3486 21.6405L13.8486 20.728L14.3599 19.8286L15.3737 19.8202L16.3823 19.8286L16.8962 20.7327L17.3936 21.6405L16.8936 22.5529L16.3823 23.4524L15.3685 23.4607L14.3599 23.4524L13.846 22.5482L13.3486 21.6405ZM14.417 22.2103L14.7379 22.775L15.3711 22.7802L16.0043 22.775L16.3253 22.2103L16.6375 21.6405L16.3253 21.0706L16.0043 20.5059L15.3711 20.5007L14.7379 20.5059L14.417 21.0706L14.1047 21.6405L14.417 22.2103Z" fill="black"/>
<path d="M13.7529 18.4046L14.1519 17.6967L14.5619 16.9953L15.3709 16.9889L16.1799 16.9953L16.59 17.6967L16.9889 18.4046L16.59 19.1124L16.1799 19.8138L15.3709 19.8203L14.5619 19.8138L14.1519 19.1124L13.7529 18.4046Z" fill="#ECBC4D"/>
<path fill-rule="evenodd" clip-rule="evenodd" d="M13.3486 18.4044L13.8486 17.4919L14.3599 16.5925L15.3737 16.5842L16.3823 16.5925L16.8962 17.4966L17.3936 18.4044L16.8936 19.3168L16.3823 20.2163L15.3685 20.2246L14.3599 20.2163L13.846 19.3122L13.3486 18.4044ZM14.417 18.9743L14.7379 19.5389L15.3711 19.5441L16.0043 19.5389L16.3253 18.9742L16.6375 18.4044L16.3253 17.8345L16.0043 17.2699L15.3711 17.2646L14.7379 17.2699L14.417 17.8345L14.1047 18.4044L14.417 18.9743Z" fill="black"/>
<path d="M13.7529 14.9663L14.1519 14.1573L14.5619 13.3557L15.3709 13.3483L16.1799 13.3557L16.59 14.1573L16.9889 14.9663L16.59 15.7752L16.1799 16.5768L15.3709 16.5842L14.5619 16.5768L14.1519 15.7752L13.7529 14.9663Z" fill="#ECBC4D"/>
<path fill-rule="evenodd" clip-rule="evenodd" d="M13.3486 15.1685L13.8486 14.2561L14.3599 13.3567L15.3737 13.3483L16.3823 13.3567L16.8962 14.2608L17.3936 15.1685L16.8936 16.081L16.3823 16.9804L15.3685 16.9888L14.3599 16.9804L13.846 16.0763L13.3486 15.1685ZM14.417 15.7384L14.7379 16.3031L15.3711 16.3083L16.0043 16.3031L16.3253 15.7384L16.6375 15.1685L16.3253 14.5987L16.0043 14.034L15.3711 14.0288L14.7379 14.034L14.417 14.5987L14.1047 15.1685L14.417 15.7384Z" fill="black"/>
<path d="M13.7529 11.5281L14.1519 10.8203L14.5619 10.1189L15.3709 10.1124L16.1799 10.1189L16.59 10.8203L16.9889 11.5281L16.59 12.236L16.1799 12.9374L15.3709 12.9438L14.5619 12.9374L14.1519 12.236L13.7529 11.5281Z" fill="#ECBC4D"/>
<path fill-rule="evenodd" clip-rule="evenodd" d="M13.3486 11.5282L13.8486 10.6157L14.3599 9.71628L15.3737 9.70794L16.3823 9.71628L16.8962 10.6204L17.3936 11.5282L16.8936 12.4406L16.3823 13.3401L15.3685 13.3484L14.3599 13.3401L13.846 12.4359L13.3486 11.5282ZM14.417 12.098L14.7379 12.6627L15.3711 12.6679L16.0043 12.6627L16.3253 12.098L16.6375 11.5282L16.3253 10.9583L16.0043 10.3936L15.3711 10.3884L14.7379 10.3936L14.417 10.9583L14.1047 11.5282L14.417 12.098Z" fill="black"/>
<path d="M13.7529 8.49428L14.1519 7.88754L14.5619 7.28634L15.3709 7.2808L16.1799 7.28634L16.59 7.88754L16.9889 8.49428L16.59 9.10102L16.1799 9.70222L15.3709 9.70776L14.5619 9.70222L14.1519 9.10102L13.7529 8.49428Z" fill="#ECBC4D"/>
<path fill-rule="evenodd" clip-rule="evenodd" d="M13.3486 8.49433L13.8486 7.68326L14.3599 6.88376L15.3737 6.87635L16.3823 6.88376L16.8962 7.68742L17.3936 8.49433L16.8936 9.3054L16.3823 10.1049L15.3685 10.1123L14.3599 10.1049L13.846 9.30123L13.3486 8.49433ZM14.417 9.00088L14.7379 9.5028L15.3711 9.50743L16.0043 9.5028L16.3253 9.00087L16.6375 8.49433L16.3253 7.98778L16.0043 7.48586L15.3711 7.48123L14.7379 7.48586L14.417 7.98778L14.1047 8.49433L14.417 9.00088Z" fill="black"/>
<path d="M13.7529 5.25849L14.1519 4.4495L14.5619 3.6479L15.3709 3.64051L16.1799 3.6479L16.59 4.4495L16.9889 5.25849L16.59 6.06748L16.1799 6.86907L15.3709 6.87646L14.5619 6.86907L14.1519 6.06748L13.7529 5.25849Z" fill="#ECBC4D"/>
<path fill-rule="evenodd" clip-rule="evenodd" d="M13.3486 5.05624L13.8486 4.14379L14.3599 3.24435L15.3737 3.23602L16.3823 3.24435L16.8962 4.14847L17.3936 5.05624L16.8936 5.96869L16.3823 6.86813L15.3685 6.87646L14.3599 6.86813L13.846 5.96401L13.3486 5.05624ZM14.417 5.62611L14.7379 6.19077L15.3711 6.19598L16.0043 6.19077L16.3253 5.6261L16.6375 5.05624L16.3253 4.48638L16.0043 3.92171L15.3711 3.9165L14.7379 3.92171L14.417 4.48637L14.1047 5.05624L14.417 5.62611Z" fill="black"/>
<path d="M13.7529 1.82011L14.1519 1.11224L14.5619 0.410847L15.3709 0.404379L16.1799 0.410847L16.59 1.11224L16.9889 1.82011L16.59 2.52797L16.1799 3.22937L15.3709 3.23584L14.5619 3.22937L14.1519 2.52797L13.7529 1.82011Z" fill="#ECBC4D"/>
<path fill-rule="evenodd" clip-rule="evenodd" d="M13.3486 1.82016L13.8486 0.907701L14.3599 0.00826807L15.3737 -6.87531e-05L16.3823 0.00826799L16.8962 0.912386L17.3936 1.82016L16.8936 2.73261L16.3823 3.63204L15.3685 3.64038L14.3599 3.63204L13.846 2.72793L13.3486 1.82016ZM14.417 2.39002L14.7379 2.95469L15.3711 2.95989L16.0043 2.95469L16.3253 2.39002L16.6375 1.82016L16.3253 1.25029L16.0043 0.685627L15.3711 0.68042L14.7379 0.685627L14.417 1.25029L14.1047 1.82016L14.417 2.39002Z" fill="black"/>
<path d="M16.1797 23.2583L16.6285 22.5505L17.0898 21.8491L17.9999 21.8426L18.91 21.8491L19.3713 22.5505L19.8201 23.2583L19.3713 23.9662L18.91 24.6676L17.9999 24.6741L17.0898 24.6676L16.6285 23.9662L16.1797 23.2583Z" fill="#ECBC4D"/>
<path fill-rule="evenodd" clip-rule="evenodd" d="M15.7754 23.2584L16.3253 22.3459L16.8877 21.4465L18.003 21.4382L19.1125 21.4465L19.6778 22.3506L20.2248 23.2584L19.6749 24.1708L19.1125 25.0703L17.9972 25.0786L16.8878 25.0703L16.3225 24.1662L15.7754 23.2584ZM16.9505 23.8283L17.3036 24.3929L18.0001 24.3981L18.6966 24.3929L19.0497 23.8283L19.3931 23.2584L19.0497 22.6885L18.6966 22.1239L18.0001 22.1187L17.3036 22.1239L16.9505 22.6885L16.6071 23.2584L16.9505 23.8283Z" fill="black"/>
<path d="M16.1797 19.618L16.6285 18.9101L17.0898 18.2087L17.9999 18.2022L18.91 18.2087L19.3713 18.9101L19.8201 19.618L19.3713 20.3258L18.91 21.0272L17.9999 21.0337L17.0898 21.0272L16.6285 20.3258L16.1797 19.618Z" fill="#ECBC4D"/>
<path fill-rule="evenodd" clip-rule="evenodd" d="M15.7754 19.618L16.3253 18.7056L16.8877 17.8061L18.003 17.7978L19.1125 17.8061L19.6778 18.7102L20.2248 19.618L19.6749 20.5305L19.1125 21.4299L17.9972 21.4382L16.8878 21.4299L16.3225 20.5258L15.7754 19.618ZM16.9505 20.1879L17.3036 20.7525L18.0001 20.7577L18.6966 20.7525L19.0497 20.1879L19.3931 19.618L19.0497 19.0481L18.6966 18.4835L18.0001 18.4783L17.3036 18.4835L16.9505 19.0481L16.6071 19.618L16.9505 20.1879Z" fill="black"/>
<path d="M16.1797 16.3821L16.6285 15.6743L17.0898 14.9729L17.9999 14.9664L18.91 14.9729L19.3713 15.6743L19.8201 16.3821L19.3713 17.09L18.91 17.7914L17.9999 17.7979L17.0898 17.7914L16.6285 17.09L16.1797 16.3821Z" fill="#ECBC4D"/>
<path fill-rule="evenodd" clip-rule="evenodd" d="M15.7754 16.3819L16.3253 15.4695L16.8877 14.57L18.003 14.5617L19.1125 14.57L19.6778 15.4742L20.2248 16.3819L19.6749 17.2944L19.1125 18.1938L17.9972 18.2021L16.8878 18.1938L16.3225 17.2897L15.7754 16.3819ZM16.9505 16.9518L17.3036 17.5165L18.0001 17.5217L18.6966 17.5165L19.0497 16.9518L19.3931 16.3819L19.0497 15.8121L18.6966 15.2474L18.0001 15.2422L17.3036 15.2474L16.9505 15.8121L16.6071 16.3819L16.9505 16.9518Z" fill="black"/>
<path d="M16.1797 12.9438L16.6285 12.1348L17.0898 11.3332L17.9999 11.3258L18.91 11.3332L19.3713 12.1348L19.8201 12.9438L19.3713 13.7528L18.91 14.5544L17.9999 14.5618L17.0898 14.5544L16.6285 13.7528L16.1797 12.9438Z" fill="#ECBC4D"/>
<path fill-rule="evenodd" clip-rule="evenodd" d="M15.7754 13.1461L16.3253 12.2336L16.8877 11.3342L18.003 11.3259L19.1125 11.3342L19.6778 12.2383L20.2248 13.1461L19.6749 14.0585L19.1125 14.958L17.9972 14.9663L16.8878 14.958L16.3225 14.0539L15.7754 13.1461ZM16.9505 13.716L17.3036 14.2806L18.0001 14.2858L18.6966 14.2806L19.0497 13.7159L19.3931 13.1461L19.0497 12.5762L18.6966 12.0116L18.0001 12.0063L17.3036 12.0116L16.9505 12.5762L16.6071 13.1461L16.9505 13.716Z" fill="black"/>
<path d="M16.1797 9.50566L16.6285 8.79779L17.0898 8.09639L17.9999 8.08993L18.91 8.09639L19.3713 8.79779L19.8201 9.50566L19.3713 10.2135L18.91 10.9149L17.9999 10.9214L17.0898 10.9149L16.6285 10.2135L16.1797 9.50566Z" fill="#ECBC4D"/>
<path fill-rule="evenodd" clip-rule="evenodd" d="M15.7754 9.5057L16.3253 8.59325L16.8877 7.69382L18.003 7.68548L19.1125 7.69382L19.6778 8.59793L20.2248 9.5057L19.6749 10.4182L19.1125 11.3176L17.9972 11.3259L16.8878 11.3176L16.3225 10.4135L15.7754 9.5057ZM16.9505 10.0756L17.3036 10.6402L18.0001 10.6454L18.6966 10.6402L19.0497 10.0756L19.3931 9.5057L19.0497 8.93584L18.6966 8.37117L18.0001 8.36597L17.3036 8.37117L16.9505 8.93583L16.6071 9.5057L16.9505 10.0756Z" fill="black"/>
<path d="M16.1797 6.47182L16.6285 5.86508L17.0898 5.26388L17.9999 5.25834L18.91 5.26388L19.3713 5.86508L19.8201 6.47182L19.3713 7.07856L18.91 7.67976L17.9999 7.6853L17.0898 7.67976L16.6285 7.07856L16.1797 6.47182Z" fill="#ECBC4D"/>
<path fill-rule="evenodd" clip-rule="evenodd" d="M15.7754 6.47187L16.3253 5.6608L16.8878 4.8613L18.003 4.85389L19.1125 4.8613L19.6778 5.66496L20.2248 6.47187L19.6749 7.28294L19.1125 8.08243L17.9972 8.08984L16.8878 8.08243L16.3225 7.27877L15.7754 6.47187ZM16.9505 6.97841L17.3036 7.48034L18.0001 7.48496L18.6966 7.48034L19.0497 6.97841L19.3931 6.47187L19.0497 5.96532L18.6966 5.4634L18.0001 5.45877L17.3036 5.4634L16.9505 5.96532L16.6071 6.47187L16.9505 6.97841Z" fill="black"/>
<path d="M16.1797 3.03373L16.6285 2.32587L17.0898 1.62447L17.9999 1.618L18.91 1.62447L19.3713 2.32587L19.8201 3.03373L19.3713 3.7416L18.91 4.443L17.9999 4.44946L17.0898 4.443L16.6285 3.7416L16.1797 3.03373Z" fill="#ECBC4D"/>
<path fill-rule="evenodd" clip-rule="evenodd" d="M15.7754 3.03378L16.3253 2.12132L16.8877 1.22189L18.003 1.21355L19.1125 1.22189L19.6778 2.12601L20.2248 3.03378L19.6749 3.94623L19.1125 4.84567L17.9972 4.854L16.8878 4.84567L16.3225 3.94155L15.7754 3.03378ZM16.9505 3.60365L17.3036 4.16831L18.0001 4.17352L18.6966 4.16831L19.0497 3.60364L19.3931 3.03378L19.0497 2.46392L18.6966 1.89925L18.0001 1.89404L17.3036 1.89925L16.9505 2.46391L16.6071 3.03378L16.9505 3.60365Z" fill="black"/>
<path d="M19.0107 21.8427L19.4097 21.0337L19.8197 20.2321L20.6287 20.2247L21.4377 20.2321L21.8478 21.0337L22.2467 21.8427L21.8478 22.6517L21.4377 23.4533L20.6287 23.4607L19.8197 23.4533L19.4097 22.6517L19.0107 21.8427Z" fill="#ECBC4D"/>
<path fill-rule="evenodd" clip-rule="evenodd" d="M18.6064 21.6405L19.1064 20.728L19.6177 19.8286L20.6315 19.8202L21.6402 19.8286L22.1541 20.7327L22.6514 21.6405L22.1514 22.5529L21.6402 23.4524L20.6263 23.4607L19.6177 23.4524L19.1038 22.5482L18.6064 21.6405ZM19.6748 22.2103L19.9957 22.775L20.6289 22.7802L21.2621 22.775L21.5831 22.2103L21.8953 21.6405L21.5831 21.0706L21.2621 20.5059L20.6289 20.5007L19.9957 20.5059L19.6748 21.0706L19.3625 21.6405L19.6748 22.2103Z" fill="black"/>
<path d="M19.0107 18.4046L19.4097 17.6967L19.8197 16.9953L20.6287 16.9889L21.4377 16.9953L21.8478 17.6967L22.2467 18.4046L21.8478 19.1124L21.4377 19.8138L20.6287 19.8203L19.8197 19.8138L19.4097 19.1124L19.0107 18.4046Z" fill="#ECBC4D"/>
<path fill-rule="evenodd" clip-rule="evenodd" d="M18.6064 18.4044L19.1064 17.4919L19.6177 16.5925L20.6315 16.5842L21.6402 16.5925L22.1541 17.4966L22.6514 18.4044L22.1514 19.3168L21.6402 20.2163L20.6263 20.2246L19.6177 20.2163L19.1038 19.3122L18.6064 18.4044ZM19.6748 18.9743L19.9957 19.5389L20.6289 19.5441L21.2621 19.5389L21.5831 18.9742L21.8953 18.4044L21.5831 17.8345L21.2621 17.2699L20.6289 17.2646L19.9957 17.2699L19.6748 17.8345L19.3625 18.4044L19.6748 18.9743Z" fill="black"/>
<path d="M19.0107 14.9663L19.4097 14.1573L19.8197 13.3557L20.6287 13.3483L21.4377 13.3557L21.8478 14.1573L22.2467 14.9663L21.8478 15.7752L21.4377 16.5768L20.6287 16.5842L19.8197 16.5768L19.4097 15.7752L19.0107 14.9663Z" fill="#ECBC4D"/>
<path fill-rule="evenodd" clip-rule="evenodd" d="M18.6064 15.1685L19.1064 14.2561L19.6177 13.3567L20.6315 13.3483L21.6402 13.3567L22.1541 14.2608L22.6514 15.1685L22.1514 16.081L21.6402 16.9804L20.6263 16.9888L19.6177 16.9804L19.1038 16.0763L18.6064 15.1685ZM19.6748 15.7384L19.9957 16.3031L20.6289 16.3083L21.2621 16.3031L21.5831 15.7384L21.8953 15.1685L21.5831 14.5987L21.2621 14.034L20.6289 14.0288L19.9957 14.034L19.6748 14.5987L19.3625 15.1685L19.6748 15.7384Z" fill="black"/>
<path d="M19.0107 11.5281L19.4097 10.8203L19.8197 10.1189L20.6287 10.1124L21.4377 10.1189L21.8478 10.8203L22.2467 11.5281L21.8478 12.236L21.4377 12.9374L20.6287 12.9438L19.8197 12.9374L19.4097 12.236L19.0107 11.5281Z" fill="#ECBC4D"/>
<path fill-rule="evenodd" clip-rule="evenodd" d="M18.6064 11.5282L19.1064 10.6157L19.6177 9.71628L20.6315 9.70794L21.6402 9.71628L22.1541 10.6204L22.6514 11.5282L22.1514 12.4406L21.6402 13.3401L20.6263 13.3484L19.6177 13.3401L19.1038 12.4359L18.6064 11.5282ZM19.6748 12.098L19.9957 12.6627L20.6289 12.6679L21.2621 12.6627L21.5831 12.098L21.8953 11.5282L21.5831 10.9583L21.2621 10.3936L20.6289 10.3884L19.9957 10.3936L19.6748 10.9583L19.3625 11.5282L19.6748 12.098Z" fill="black"/>
<path d="M19.0107 8.49428L19.4097 7.88754L19.8197 7.28634L20.6287 7.2808L21.4377 7.28634L21.8478 7.88754L22.2467 8.49428L21.8478 9.10102L21.4377 9.70222L20.6287 9.70776L19.8197 9.70222L19.4097 9.10102L19.0107 8.49428Z" fill="#ECBC4D"/>
<path fill-rule="evenodd" clip-rule="evenodd" d="M18.6064 8.49433L19.1064 7.68326L19.6177 6.88376L20.6315 6.87635L21.6402 6.88376L22.1541 7.68742L22.6514 8.49433L22.1514 9.3054L21.6402 10.1049L20.6263 10.1123L19.6177 10.1049L19.1038 9.30123L18.6064 8.49433ZM19.6748 9.00088L19.9957 9.5028L20.6289 9.50743L21.2621 9.5028L21.5831 9.00087L21.8953 8.49433L21.5831 7.98778L21.2621 7.48586L20.6289 7.48123L19.9957 7.48586L19.6748 7.98778L19.3625 8.49433L19.6748 9.00088Z" fill="black"/>
<path d="M19.0107 5.25849L19.4097 4.4495L19.8197 3.6479L20.6287 3.64051L21.4377 3.6479L21.8478 4.4495L22.2467 5.25849L21.8478 6.06748L21.4377 6.86907L20.6287 6.87646L19.8197 6.86907L19.4097 6.06748L19.0107 5.25849Z" fill="#ECBC4D"/>
<path fill-rule="evenodd" clip-rule="evenodd" d="M18.6064 5.05624L19.1064 4.14379L19.6177 3.24435L20.6315 3.23602L21.6402 3.24435L22.1541 4.14847L22.6514 5.05624L22.1514 5.96869L21.6402 6.86813L20.6263 6.87646L19.6177 6.86813L19.1038 5.96401L18.6064 5.05624ZM19.6748 5.62611L19.9957 6.19077L20.6289 6.19598L21.2621 6.19077L21.5831 5.6261L21.8953 5.05624L21.5831 4.48638L21.2621 3.92171L20.6289 3.9165L19.9957 3.92171L19.6748 4.48637L19.3625 5.05624L19.6748 5.62611Z" fill="black"/>
<path d="M19.0107 1.82011L19.4097 1.11224L19.8197 0.410847L20.6287 0.404379L21.4377 0.410847L21.8478 1.11224L22.2467 1.82011L21.8478 2.52797L21.4377 3.22937L20.6287 3.23584L19.8197 3.22937L19.4097 2.52797L19.0107 1.82011Z" fill="#ECBC4D"/>
<path fill-rule="evenodd" clip-rule="evenodd" d="M18.6064 1.82016L19.1064 0.907701L19.6177 0.00826807L20.6315 -6.87531e-05L21.6402 0.00826799L22.1541 0.912386L22.6514 1.82016L22.1514 2.73261L21.6402 3.63204L20.6263 3.64038L19.6177 3.63204L19.1038 2.72793L18.6064 1.82016ZM19.6748 2.39002L19.9957 2.95469L20.6289 2.95989L21.2621 2.95469L21.5831 2.39002L21.8953 1.82016L21.5831 1.25029L21.2621 0.685627L20.6289 0.68042L19.9957 0.685627L19.6748 1.25029L19.3625 1.82016L19.6748 2.39002Z" fill="black"/>
<path d="M21.8428 23.2583L22.2417 22.5505L22.6518 21.8491L23.4608 21.8426L24.2697 21.8491L24.6798 22.5505L25.0787 23.2583L24.6798 23.9662L24.2697 24.6676L23.4608 24.6741L22.6518 24.6676L22.2417 23.9662L21.8428 23.2583Z" fill="#ECBC4D"/>
<path fill-rule="evenodd" clip-rule="evenodd" d="M21.4385 23.2584L21.9384 22.3459L22.4497 21.4465L23.4636 21.4382L24.4722 21.4465L24.9861 22.3506L25.4834 23.2584L24.9835 24.1708L24.4722 25.0703L23.4583 25.0786L22.4497 25.0703L21.9358 24.1662L21.4385 23.2584ZM22.5068 23.8283L22.8278 24.3929L23.4609 24.3981L24.0941 24.3929L24.4151 23.8283L24.7273 23.2584L24.4151 22.6885L24.0941 22.1239L23.4609 22.1187L22.8278 22.1239L22.5068 22.6885L22.1946 23.2584L22.5068 23.8283Z" fill="black"/>
<path d="M21.8428 19.618L22.2417 18.9101L22.6518 18.2087L23.4608 18.2022L24.2697 18.2087L24.6798 18.9101L25.0787 19.618L24.6798 20.3258L24.2697 21.0272L23.4608 21.0337L22.6518 21.0272L22.2417 20.3258L21.8428 19.618Z" fill="#ECBC4D"/>
<path fill-rule="evenodd" clip-rule="evenodd" d="M21.4385 19.618L21.9384 18.7056L22.4497 17.8061L23.4636 17.7978L24.4722 17.8061L24.9861 18.7102L25.4834 19.618L24.9835 20.5305L24.4722 21.4299L23.4583 21.4382L22.4497 21.4299L21.9358 20.5258L21.4385 19.618ZM22.5068 20.1879L22.8278 20.7525L23.4609 20.7577L24.0941 20.7525L24.4151 20.1879L24.7273 19.618L24.4151 19.0481L24.0941 18.4835L23.4609 18.4783L22.8278 18.4835L22.5068 19.0481L22.1946 19.618L22.5068 20.1879Z" fill="black"/>
<path d="M21.8428 16.3821L22.2417 15.6743L22.6518 14.9729L23.4608 14.9664L24.2697 14.9729L24.6798 15.6743L25.0787 16.3821L24.6798 17.09L24.2697 17.7914L23.4608 17.7979L22.6518 17.7914L22.2417 17.09L21.8428 16.3821Z" fill="#ECBC4D"/>
<path fill-rule="evenodd" clip-rule="evenodd" d="M21.4385 16.3819L21.9384 15.4695L22.4497 14.57L23.4636 14.5617L24.4722 14.57L24.9861 15.4742L25.4834 16.3819L24.9835 17.2944L24.4722 18.1938L23.4583 18.2021L22.4497 18.1938L21.9358 17.2897L21.4385 16.3819ZM22.5068 16.9518L22.8278 17.5165L23.4609 17.5217L24.0941 17.5165L24.4151 16.9518L24.7273 16.3819L24.4151 15.8121L24.0941 15.2474L23.4609 15.2422L22.8278 15.2474L22.5068 15.8121L22.1946 16.3819L22.5068 16.9518Z" fill="black"/>
<path d="M21.8428 12.9438L22.2417 12.1348L22.6518 11.3332L23.4608 11.3258L24.2697 11.3332L24.6798 12.1348L25.0787 12.9438L24.6798 13.7528L24.2697 14.5544L23.4608 14.5618L22.6518 14.5544L22.2417 13.7528L21.8428 12.9438Z" fill="#ECBC4D"/>
<path fill-rule="evenodd" clip-rule="evenodd" d="M21.4385 13.1461L21.9384 12.2336L22.4497 11.3342L23.4636 11.3259L24.4722 11.3342L24.9861 12.2383L25.4834 13.1461L24.9835 14.0585L24.4722 14.958L23.4583 14.9663L22.4497 14.958L21.9358 14.0539L21.4385 13.1461ZM22.5068 13.716L22.8278 14.2806L23.4609 14.2858L24.0941 14.2806L24.4151 13.7159L24.7273 13.1461L24.4151 12.5762L24.0941 12.0116L23.4609 12.0063L22.8278 12.0116L22.5068 12.5762L22.1946 13.1461L22.5068 13.716Z" fill="black"/>
<path d="M21.8428 9.50566L22.2417 8.79779L22.6518 8.09639L23.4608 8.08993L24.2697 8.09639L24.6798 8.79779L25.0787 9.50566L24.6798 10.2135L24.2697 10.9149L23.4608 10.9214L22.6518 10.9149L22.2417 10.2135L21.8428 9.50566Z" fill="#ECBC4D"/>
<path fill-rule="evenodd" clip-rule="evenodd" d="M21.4385 9.5057L21.9384 8.59325L22.4497 7.69381L23.4636 7.68548L24.4722 7.69381L24.9861 8.59793L25.4834 9.5057L24.9835 10.4182L24.4722 11.3176L23.4583 11.3259L22.4497 11.3176L21.9358 10.4135L21.4385 9.5057ZM22.5068 10.0756L22.8278 10.6402L23.4609 10.6454L24.0941 10.6402L24.4151 10.0756L24.7273 9.5057L24.4151 8.93584L24.0941 8.37117L23.4609 8.36597L22.8278 8.37117L22.5068 8.93583L22.1946 9.5057L22.5068 10.0756Z" fill="black"/>
<path d="M21.8428 6.47182L22.2417 5.86508L22.6518 5.26388L23.4608 5.25834L24.2697 5.26388L24.6798 5.86508L25.0787 6.47182L24.6798 7.07856L24.2697 7.67976L23.4608 7.6853L22.6518 7.67976L22.2417 7.07856L21.8428 6.47182Z" fill="#ECBC4D"/>
<path fill-rule="evenodd" clip-rule="evenodd" d="M21.4385 6.47187L21.9384 5.6608L22.4497 4.8613L23.4636 4.85389L24.4722 4.8613L24.9861 5.66496L25.4834 6.47187L24.9835 7.28294L24.4722 8.08243L23.4583 8.08984L22.4497 8.08243L21.9358 7.27877L21.4385 6.47187ZM22.5068 6.97841L22.8278 7.48034L23.4609 7.48496L24.0941 7.48034L24.4151 6.97841L24.7273 6.47187L24.4151 5.96532L24.0941 5.4634L23.4609 5.45877L22.8278 5.4634L22.5068 5.96532L22.1946 6.47187L22.5068 6.97841Z" fill="black"/>
<path d="M21.8428 3.03373L22.2417 2.32587L22.6518 1.62447L23.4608 1.618L24.2697 1.62447L24.6798 2.32587L25.0787 3.03373L24.6798 3.7416L24.2697 4.443L23.4608 4.44946L22.6518 4.443L22.2417 3.7416L21.8428 3.03373Z" fill="#ECBC4D"/>
<path fill-rule="evenodd" clip-rule="evenodd" d="M21.4385 3.03378L21.9384 2.12132L22.4497 1.22189L23.4636 1.21355L24.4722 1.22189L24.9861 2.12601L25.4834 3.03378L24.9835 3.94623L24.4722 4.84567L23.4583 4.854L22.4497 4.84567L21.9358 3.94155L21.4385 3.03378ZM22.5068 3.60365L22.8278 4.16831L23.4609 4.17352L24.0941 4.16831L24.4151 3.60364L24.7273 3.03378L24.4151 2.46392L24.0941 1.89925L23.4609 1.89404L22.8278 1.89925L22.5068 2.46391L22.1946 3.03378L22.5068 3.60365Z" fill="black"/>
<path d="M24.2695 21.8427L24.6685 21.0337L25.0785 20.2321L25.8875 20.2247L26.6965 20.2321L27.1066 21.0337L27.5055 21.8427L27.1066 22.6517L26.6965 23.4533L25.8875 23.4607L25.0785 23.4533L24.6685 22.6517L24.2695 21.8427Z" fill="#ECBC4D"/>
<path fill-rule="evenodd" clip-rule="evenodd" d="M23.8652 21.6405L24.3652 20.728L24.8765 19.8286L25.8903 19.8202L26.8989 19.8286L27.4128 20.7327L27.9102 21.6405L27.4102 22.5529L26.8989 23.4524L25.8851 23.4607L24.8765 23.4524L24.3626 22.5482L23.8652 21.6405ZM24.9336 22.2103L25.2545 22.775L25.8877 22.7802L26.5209 22.775L26.8419 22.2103L27.1541 21.6405L26.8419 21.0706L26.5209 20.5059L25.8877 20.5007L25.2545 20.5059L24.9336 21.0706L24.6213 21.6405L24.9336 22.2103Z" fill="black"/>
<path d="M24.2695 18.4046L24.6685 17.6967L25.0785 16.9953L25.8875 16.9889L26.6965 16.9953L27.1066 17.6967L27.5055 18.4046L27.1066 19.1124L26.6965 19.8138L25.8875 19.8203L25.0785 19.8138L24.6685 19.1124L24.2695 18.4046Z" fill="#ECBC4D"/>
<path fill-rule="evenodd" clip-rule="evenodd" d="M23.8652 18.4044L24.3652 17.4919L24.8765 16.5925L25.8903 16.5842L26.8989 16.5925L27.4128 17.4966L27.9102 18.4044L27.4102 19.3168L26.8989 20.2163L25.8851 20.2246L24.8765 20.2163L24.3626 19.3122L23.8652 18.4044ZM24.9336 18.9743L25.2545 19.5389L25.8877 19.5441L26.5209 19.5389L26.8419 18.9742L27.1541 18.4044L26.8419 17.8345L26.5209 17.2699L25.8877 17.2646L25.2545 17.2699L24.9336 17.8345L24.6213 18.4044L24.9336 18.9743Z" fill="black"/>
<path d="M24.2695 14.9663L24.6685 14.1573L25.0785 13.3557L25.8875 13.3483L26.6965 13.3557L27.1066 14.1573L27.5055 14.9663L27.1066 15.7752L26.6965 16.5768L25.8875 16.5842L25.0785 16.5768L24.6685 15.7752L24.2695 14.9663Z" fill="#ECBC4D"/>
<path fill-rule="evenodd" clip-rule="evenodd" d="M23.8652 15.1685L24.3652 14.2561L24.8765 13.3567L25.8903 13.3483L26.8989 13.3567L27.4128 14.2608L27.9102 15.1685L27.4102 16.081L26.8989 16.9804L25.8851 16.9888L24.8765 16.9804L24.3626 16.0763L23.8652 15.1685ZM24.9336 15.7384L25.2545 16.3031L25.8877 16.3083L26.5209 16.3031L26.8419 15.7384L27.1541 15.1685L26.8419 14.5987L26.5209 14.034L25.8877 14.0288L25.2545 14.034L24.9336 14.5987L24.6213 15.1685L24.9336 15.7384Z" fill="black"/>
<path d="M24.2695 11.5281L24.6685 10.8203L25.0785 10.1189L25.8875 10.1124L26.6965 10.1189L27.1066 10.8203L27.5055 11.5281L27.1066 12.236L26.6965 12.9374L25.8875 12.9438L25.0785 12.9374L24.6685 12.236L24.2695 11.5281Z" fill="#ECBC4D"/>
<path fill-rule="evenodd" clip-rule="evenodd" d="M23.8652 11.5282L24.3652 10.6157L24.8765 9.71628L25.8903 9.70794L26.8989 9.71628L27.4128 10.6204L27.9102 11.5282L27.4102 12.4406L26.8989 13.3401L25.8851 13.3484L24.8765 13.3401L24.3626 12.4359L23.8652 11.5282ZM24.9336 12.098L25.2545 12.6627L25.8877 12.6679L26.5209 12.6627L26.8419 12.098L27.1541 11.5282L26.8419 10.9583L26.5209 10.3936L25.8877 10.3884L25.2545 10.3936L24.9336 10.9583L24.6213 11.5282L24.9336 12.098Z" fill="black"/>
<path d="M24.2695 8.49428L24.6685 7.88754L25.0785 7.28634L25.8875 7.2808L26.6965 7.28634L27.1066 7.88754L27.5055 8.49428L27.1066 9.10102L26.6965 9.70222L25.8875 9.70776L25.0785 9.70222L24.6685 9.10102L24.2695 8.49428Z" fill="#ECBC4D"/>
<path fill-rule="evenodd" clip-rule="evenodd" d="M23.8652 8.49433L24.3652 7.68326L24.8765 6.88376L25.8903 6.87635L26.8989 6.88376L27.4128 7.68742L27.9102 8.49433L27.4102 9.3054L26.8989 10.1049L25.8851 10.1123L24.8765 10.1049L24.3626 9.30123L23.8652 8.49433ZM24.9336 9.00088L25.2545 9.5028L25.8877 9.50743L26.5209 9.5028L26.8419 9.00087L27.1541 8.49433L26.8419 7.98778L26.5209 7.48586L25.8877 7.48123L25.2545 7.48586L24.9336 7.98778L24.6213 8.49433L24.9336 9.00088Z" fill="black"/>
<path d="M24.2695 5.25849L24.6685 4.4495L25.0785 3.6479L25.8875 3.64051L26.6965 3.6479L27.1066 4.4495L27.5055 5.25849L27.1066 6.06748L26.6965 6.86907L25.8875 6.87646L25.0785 6.86907L24.6685 6.06748L24.2695 5.25849Z" fill="#ECBC4D"/>
<path fill-rule="evenodd" clip-rule="evenodd" d="M23.8652 5.05624L24.3652 4.14379L24.8765 3.24435L25.8903 3.23602L26.8989 3.24435L27.4128 4.14847L27.9102 5.05624L27.4102 5.96869L26.8989 6.86813L25.8851 6.87646L24.8765 6.86813L24.3626 5.96401L23.8652 5.05624ZM24.9336 5.62611L25.2545 6.19077L25.8877 6.19598L26.5209 6.19077L26.8419 5.6261L27.1541 5.05624L26.8419 4.48638L26.5209 3.92171L25.8877 3.9165L25.2545 3.92171L24.9336 4.48637L24.6213 5.05624L24.9336 5.62611Z" fill="black"/>
<path d="M24.2695 1.82011L24.6685 1.11224L25.0785 0.410847L25.8875 0.404379L26.6965 0.410847L27.1066 1.11224L27.5055 1.82011L27.1066 2.52797L26.6965 3.22937L25.8875 3.23584L25.0785 3.22937L24.6685 2.52797L24.2695 1.82011Z" fill="#ECBC4D"/>
<path fill-rule="evenodd" clip-rule="evenodd" d="M23.8652 1.82016L24.3652 0.907701L24.8765 0.00826807L25.8903 -6.87531e-05L26.8989 0.00826799L27.4128 0.912386L27.9102 1.82016L27.4102 2.73261L26.8989 3.63204L25.8851 3.64038L24.8765 3.63204L24.3626 2.72793L23.8652 1.82016ZM24.9336 2.39002L25.2545 2.95469L25.8877 2.95989L26.5209 2.95469L26.8419 2.39002L27.1541 1.82016L26.8419 1.25029L26.5209 0.685627L25.8877 0.68042L25.2545 0.685627L24.9336 1.25029L24.6213 1.82016L24.9336 2.39002Z" fill="black"/>
<path d="M27.1006 23.2583L27.4995 22.5505L27.9096 21.8491L28.7186 21.8426L29.5276 21.8491L29.9376 22.5505L30.3365 23.2583L29.9376 23.9662L29.5276 24.6676L28.7186 24.6741L27.9096 24.6676L27.4995 23.9662L27.1006 23.2583Z" fill="#ECBC4D"/>
<path fill-rule="evenodd" clip-rule="evenodd" d="M26.6963 23.2584L27.1962 22.3459L27.7075 21.4465L28.7214 21.4382L29.73 21.4465L30.2439 22.3506L30.7412 23.2584L30.2413 24.1708L29.73 25.0703L28.7161 25.0786L27.7075 25.0703L27.1936 24.1662L26.6963 23.2584ZM27.7646 23.8283L28.0856 24.3929L28.7188 24.3981L29.352 24.3929L29.6729 23.8283L29.9851 23.2584L29.6729 22.6885L29.352 22.1239L28.7188 22.1187L28.0856 22.1239L27.7646 22.6885L27.4524 23.2584L27.7646 23.8283Z" fill="black"/>
<path d="M27.1006 19.618L27.4995 18.9101L27.9096 18.2087L28.7186 18.2022L29.5276 18.2087L29.9376 18.9101L30.3365 19.618L29.9376 20.3258L29.5276 21.0272L28.7186 21.0337L27.9096 21.0272L27.4995 20.3258L27.1006 19.618Z" fill="#ECBC4D"/>
<path fill-rule="evenodd" clip-rule="evenodd" d="M26.6963 19.618L27.1962 18.7056L27.7075 17.8061L28.7214 17.7978L29.73 17.8061L30.2439 18.7102L30.7412 19.618L30.2413 20.5305L29.73 21.4299L28.7161 21.4382L27.7075 21.4299L27.1936 20.5258L26.6963 19.618ZM27.7646 20.1879L28.0856 20.7525L28.7188 20.7577L29.352 20.7525L29.6729 20.1879L29.9851 19.618L29.6729 19.0481L29.352 18.4835L28.7188 18.4783L28.0856 18.4835L27.7646 19.0481L27.4524 19.618L27.7646 20.1879Z" fill="black"/>
<path d="M27.1006 16.3821L27.4995 15.6743L27.9096 14.9729L28.7186 14.9664L29.5276 14.9729L29.9376 15.6743L30.3365 16.3821L29.9376 17.09L29.5276 17.7914L28.7186 17.7979L27.9096 17.7914L27.4995 17.09L27.1006 16.3821Z" fill="#ECBC4D"/>
<path fill-rule="evenodd" clip-rule="evenodd" d="M26.6963 16.3819L27.1962 15.4695L27.7075 14.57L28.7214 14.5617L29.73 14.57L30.2439 15.4742L30.7412 16.3819L30.2413 17.2944L29.73 18.1938L28.7161 18.2021L27.7075 18.1938L27.1936 17.2897L26.6963 16.3819ZM27.7646 16.9518L28.0856 17.5165L28.7188 17.5217L29.352 17.5165L29.6729 16.9518L29.9851 16.3819L29.6729 15.8121L29.352 15.2474L28.7188 15.2422L28.0856 15.2474L27.7646 15.8121L27.4524 16.3819L27.7646 16.9518Z" fill="black"/>
<path d="M27.1006 12.9438L27.4995 12.1348L27.9096 11.3332L28.7186 11.3258L29.5276 11.3332L29.9376 12.1348L30.3365 12.9438L29.9376 13.7528L29.5276 14.5544L28.7186 14.5618L27.9096 14.5544L27.4995 13.7528L27.1006 12.9438Z" fill="#ECBC4D"/>
<path fill-rule="evenodd" clip-rule="evenodd" d="M26.6963 13.1461L27.1962 12.2336L27.7075 11.3342L28.7214 11.3259L29.73 11.3342L30.2439 12.2383L30.7412 13.1461L30.2413 14.0585L29.73 14.958L28.7161 14.9663L27.7075 14.958L27.1936 14.0539L26.6963 13.1461ZM27.7646 13.716L28.0856 14.2806L28.7188 14.2858L29.352 14.2806L29.6729 13.7159L29.9851 13.1461L29.6729 12.5762L29.352 12.0116L28.7188 12.0063L28.0856 12.0116L27.7646 12.5762L27.4524 13.1461L27.7646 13.716Z" fill="black"/>
<path d="M27.1006 9.50566L27.4995 8.79779L27.9096 8.09639L28.7186 8.08993L29.5276 8.09639L29.9376 8.79779L30.3365 9.50566L29.9376 10.2135L29.5276 10.9149L28.7186 10.9214L27.9096 10.9149L27.4995 10.2135L27.1006 9.50566Z" fill="#ECBC4D"/>
<path fill-rule="evenodd" clip-rule="evenodd" d="M26.6963 9.5057L27.1962 8.59325L27.7075 7.69381L28.7214 7.68548L29.73 7.69381L30.2439 8.59793L30.7412 9.5057L30.2413 10.4182L29.73 11.3176L28.7161 11.3259L27.7075 11.3176L27.1936 10.4135L26.6963 9.5057ZM27.7646 10.0756L28.0856 10.6402L28.7188 10.6454L29.352 10.6402L29.6729 10.0756L29.9851 9.5057L29.6729 8.93584L29.352 8.37117L28.7188 8.36597L28.0856 8.37117L27.7646 8.93583L27.4524 9.5057L27.7646 10.0756Z" fill="black"/>
<path d="M27.1006 6.47182L27.4995 5.86508L27.9096 5.26388L28.7186 5.25834L29.5276 5.26388L29.9376 5.86508L30.3365 6.47182L29.9376 7.07856L29.5276 7.67976L28.7186 7.6853L27.9096 7.67976L27.4995 7.07856L27.1006 6.47182Z" fill="#ECBC4D"/>
<path fill-rule="evenodd" clip-rule="evenodd" d="M26.6963 6.47187L27.1962 5.6608L27.7075 4.8613L28.7214 4.85389L29.73 4.8613L30.2439 5.66496L30.7412 6.47187L30.2413 7.28294L29.73 8.08243L28.7161 8.08984L27.7075 8.08243L27.1936 7.27877L26.6963 6.47187ZM27.7646 6.97841L28.0856 7.48034L28.7188 7.48496L29.352 7.48034L29.6729 6.97841L29.9851 6.47187L29.6729 5.96532L29.352 5.4634L28.7188 5.45877L28.0856 5.4634L27.7646 5.96532L27.4524 6.47187L27.7646 6.97841Z" fill="black"/>
<path d="M27.1006 3.03373L27.4995 2.32587L27.9096 1.62447L28.7186 1.618L29.5276 1.62447L29.9376 2.32587L30.3365 3.03373L29.9376 3.7416L29.5276 4.443L28.7186 4.44946L27.9096 4.443L27.4995 3.7416L27.1006 3.03373Z" fill="#ECBC4D"/>
<path fill-rule="evenodd" clip-rule="evenodd" d="M26.6963 3.03378L27.1962 2.12132L27.7075 1.22189L28.7214 1.21355L29.73 1.22189L30.2439 2.12601L30.7412 3.03378L30.2413 3.94623L29.73 4.84567L28.7161 4.854L27.7075 4.84567L27.1936 3.94155L26.6963 3.03378ZM27.7646 3.60365L28.0856 4.16831L28.7188 4.17352L29.352 4.16831L29.6729 3.60364L29.9851 3.03378L29.6729 2.46392L29.352 1.89925L28.7188 1.89404L28.0856 1.89925L27.7646 2.46391L27.4524 3.03378L27.7646 3.60365Z" fill="black"/>
<path d="M29.5283 21.8427L29.9272 21.0337L30.3373 20.2321L31.1463 20.2247L31.9553 20.2321L32.3653 21.0337L32.7643 21.8427L32.3653 22.6517L31.9553 23.4533L31.1463 23.4607L30.3373 23.4533L29.9272 22.6517L29.5283 21.8427Z" fill="#ECBC4D"/>
<path fill-rule="evenodd" clip-rule="evenodd" d="M29.124 21.6405L29.624 20.728L30.1353 19.8286L31.1491 19.8202L32.1577 19.8286L32.6716 20.7327L33.169 21.6405L32.669 22.5529L32.1577 23.4524L31.1439 23.4607L30.1353 23.4524L29.6214 22.5482L29.124 21.6405ZM30.1923 22.2103L30.5133 22.775L31.1465 22.7802L31.7797 22.775L32.1006 22.2103L32.4129 21.6405L32.1006 21.0706L31.7797 20.5059L31.1465 20.5007L30.5133 20.5059L30.1923 21.0706L29.8801 21.6405L30.1923 22.2103Z" fill="black"/>
<path d="M29.5283 18.4046L29.9272 17.6967L30.3373 16.9953L31.1463 16.9889L31.9553 16.9953L32.3653 17.6967L32.7643 18.4046L32.3653 19.1124L31.9553 19.8138L31.1463 19.8203L30.3373 19.8138L29.9272 19.1124L29.5283 18.4046Z" fill="#ECBC4D"/>
<path fill-rule="evenodd" clip-rule="evenodd" d="M29.124 18.4044L29.624 17.4919L30.1353 16.5925L31.1491 16.5842L32.1577 16.5925L32.6716 17.4966L33.169 18.4044L32.669 19.3168L32.1577 20.2163L31.1439 20.2246L30.1353 20.2163L29.6214 19.3122L29.124 18.4044ZM30.1923 18.9743L30.5133 19.5389L31.1465 19.5441L31.7797 19.5389L32.1006 18.9742L32.4129 18.4044L32.1006 17.8345L31.7797 17.2699L31.1465 17.2646L30.5133 17.2699L30.1923 17.8345L29.8801 18.4044L30.1923 18.9743Z" fill="black"/>
<path d="M29.5283 14.9663L29.9272 14.1573L30.3373 13.3557L31.1463 13.3483L31.9553 13.3557L32.3653 14.1573L32.7643 14.9663L32.3653 15.7752L31.9553 16.5768L31.1463 16.5842L30.3373 16.5768L29.9272 15.7752L29.5283 14.9663Z" fill="#ECBC4D"/>
<path fill-rule="evenodd" clip-rule="evenodd" d="M29.124 15.1685L29.624 14.2561L30.1353 13.3567L31.1491 13.3483L32.1577 13.3567L32.6716 14.2608L33.169 15.1685L32.669 16.081L32.1577 16.9804L31.1439 16.9888L30.1353 16.9804L29.6214 16.0763L29.124 15.1685ZM30.1923 15.7384L30.5133 16.3031L31.1465 16.3083L31.7797 16.3031L32.1006 15.7384L32.4129 15.1685L32.1006 14.5987L31.7797 14.034L31.1465 14.0288L30.5133 14.034L30.1923 14.5987L29.8801 15.1685L30.1923 15.7384Z" fill="black"/>
<path d="M29.5283 11.5281L29.9272 10.8203L30.3373 10.1189L31.1463 10.1124L31.9553 10.1189L32.3653 10.8203L32.7643 11.5281L32.3653 12.236L31.9553 12.9374L31.1463 12.9438L30.3373 12.9374L29.9272 12.236L29.5283 11.5281Z" fill="#ECBC4D"/>
<path fill-rule="evenodd" clip-rule="evenodd" d="M29.124 11.5282L29.624 10.6157L30.1353 9.71628L31.1491 9.70794L32.1577 9.71628L32.6716 10.6204L33.169 11.5282L32.669 12.4406L32.1577 13.3401L31.1439 13.3484L30.1353 13.3401L29.6214 12.4359L29.124 11.5282ZM30.1923 12.098L30.5133 12.6627L31.1465 12.6679L31.7797 12.6627L32.1006 12.098L32.4129 11.5282L32.1006 10.9583L31.7797 10.3936L31.1465 10.3884L30.5133 10.3936L30.1923 10.9583L29.8801 11.5282L30.1923 12.098Z" fill="black"/>
<path d="M29.5283 8.49428L29.9272 7.88754L30.3373 7.28634L31.1463 7.2808L31.9553 7.28634L32.3653 7.88754L32.7643 8.49428L32.3653 9.10102L31.9553 9.70222L31.1463 9.70776L30.3373 9.70222L29.9272 9.10102L29.5283 8.49428Z" fill="#ECBC4D"/>
<path fill-rule="evenodd" clip-rule="evenodd" d="M29.124 8.49433L29.624 7.68326L30.1353 6.88376L31.1491 6.87635L32.1577 6.88376L32.6716 7.68742L33.169 8.49433L32.669 9.3054L32.1577 10.1049L31.1439 10.1123L30.1353 10.1049L29.6214 9.30123L29.124 8.49433ZM30.1923 9.00088L30.5133 9.5028L31.1465 9.50743L31.7797 9.5028L32.1006 9.00087L32.4129 8.49433L32.1006 7.98778L31.7797 7.48586L31.1465 7.48123L30.5133 7.48586L30.1923 7.98778L29.8801 8.49433L30.1923 9.00088Z" fill="black"/>
<path d="M29.5283 5.25849L29.9272 4.4495L30.3373 3.6479L31.1463 3.64051L31.9553 3.6479L32.3653 4.4495L32.7643 5.25849L32.3653 6.06748L31.9553 6.86907L31.1463 6.87646L30.3373 6.86907L29.9272 6.06748L29.5283 5.25849Z" fill="#ECBC4D"/>
<path fill-rule="evenodd" clip-rule="evenodd" d="M29.124 5.05624L29.624 4.14379L30.1353 3.24435L31.1491 3.23602L32.1577 3.24435L32.6716 4.14847L33.169 5.05624L32.669 5.96869L32.1577 6.86813L31.1439 6.87646L30.1353 6.86813L29.6214 5.96401L29.124 5.05624ZM30.1923 5.62611L30.5133 6.19077L31.1465 6.19598L31.7797 6.19077L32.1006 5.6261L32.4129 5.05624L32.1006 4.48638L31.7797 3.92171L31.1465 3.9165L30.5133 3.92171L30.1923 4.48637L29.8801 5.05624L30.1923 5.62611Z" fill="black"/>
<path d="M29.5283 1.82011L29.9272 1.11224L30.3373 0.410847L31.1463 0.404379L31.9553 0.410847L32.3653 1.11224L32.7643 1.82011L32.3653 2.52797L31.9553 3.22937L31.1463 3.23584L30.3373 3.22937L29.9272 2.52797L29.5283 1.82011Z" fill="#ECBC4D"/>
<path fill-rule="evenodd" clip-rule="evenodd" d="M29.124 1.82016L29.624 0.907701L30.1353 0.00826807L31.1491 -6.87531e-05L32.1577 0.00826799L32.6716 0.912386L33.169 1.82016L32.669 2.73261L32.1577 3.63204L31.1439 3.64038L30.1353 3.63204L29.6214 2.72793L29.124 1.82016ZM30.1923 2.39002L30.5133 2.95469L31.1465 2.95989L31.7797 2.95469L32.1006 2.39002L32.4129 1.82016L32.1006 1.25029L31.7797 0.685627L31.1465 0.68042L30.5133 0.685627L30.1923 1.25029L29.8801 1.82016L30.1923 2.39002Z" fill="black"/>
<path d="M32.3594 23.2583L32.7583 22.5505L33.1684 21.8491L33.9774 21.8426L34.7863 21.8491L35.1964 22.5505L35.5953 23.2583L35.1964 23.9662L34.7863 24.6676L33.9774 24.6741L33.1684 24.6676L32.7583 23.9662L32.3594 23.2583Z" fill="#ECBC4D"/>
<path fill-rule="evenodd" clip-rule="evenodd" d="M31.9551 23.2584L32.455 22.3459L32.9663 21.4465L33.9802 21.4382L34.9888 21.4465L35.5027 22.3506L36 23.2584L35.5001 24.1708L34.9888 25.0703L33.9749 25.0786L32.9663 25.0703L32.4524 24.1662L31.9551 23.2584ZM33.0234 23.8283L33.3444 24.3929L33.9776 24.3981L34.6107 24.3929L34.9317 23.8283L35.2439 23.2584L34.9317 22.6885L34.6107 22.1239L33.9775 22.1187L33.3444 22.1239L33.0234 22.6885L32.7112 23.2584L33.0234 23.8283Z" fill="black"/>
<path d="M32.3594 19.618L32.7583 18.9101L33.1684 18.2087L33.9774 18.2022L34.7863 18.2087L35.1964 18.9101L35.5953 19.618L35.1964 20.3258L34.7863 21.0272L33.9774 21.0337L33.1684 21.0272L32.7583 20.3258L32.3594 19.618Z" fill="#ECBC4D"/>
<path fill-rule="evenodd" clip-rule="evenodd" d="M31.9551 19.618L32.455 18.7056L32.9663 17.8061L33.9802 17.7978L34.9888 17.8061L35.5027 18.7102L36 19.618L35.5001 20.5305L34.9888 21.4299L33.9749 21.4382L32.9663 21.4299L32.4524 20.5258L31.9551 19.618ZM33.0234 20.1879L33.3444 20.7525L33.9776 20.7577L34.6107 20.7525L34.9317 20.1879L35.2439 19.618L34.9317 19.0481L34.6107 18.4835L33.9775 18.4783L33.3444 18.4835L33.0234 19.0481L32.7112 19.618L33.0234 20.1879Z" fill="black"/>
<path d="M32.3594 16.3821L32.7583 15.6743L33.1684 14.9729L33.9774 14.9664L34.7863 14.9729L35.1964 15.6743L35.5953 16.3821L35.1964 17.09L34.7863 17.7914L33.9774 17.7979L33.1684 17.7914L32.7583 17.09L32.3594 16.3821Z" fill="#ECBC4D"/>
<path fill-rule="evenodd" clip-rule="evenodd" d="M31.9551 16.3819L32.455 15.4695L32.9663 14.57L33.9802 14.5617L34.9888 14.57L35.5027 15.4742L36 16.3819L35.5001 17.2944L34.9888 18.1938L33.9749 18.2021L32.9663 18.1938L32.4524 17.2897L31.9551 16.3819ZM33.0234 16.9518L33.3444 17.5165L33.9776 17.5217L34.6107 17.5165L34.9317 16.9518L35.2439 16.3819L34.9317 15.8121L34.6107 15.2474L33.9775 15.2422L33.3444 15.2474L33.0234 15.8121L32.7112 16.3819L33.0234 16.9518Z" fill="black"/>
<path d="M32.3594 12.9438L32.7583 12.1348L33.1684 11.3332L33.9774 11.3258L34.7863 11.3332L35.1964 12.1348L35.5953 12.9438L35.1964 13.7528L34.7863 14.5544L33.9774 14.5618L33.1684 14.5544L32.7583 13.7528L32.3594 12.9438Z" fill="#ECBC4D"/>
<path fill-rule="evenodd" clip-rule="evenodd" d="M31.9551 13.1461L32.455 12.2336L32.9663 11.3342L33.9802 11.3259L34.9888 11.3342L35.5027 12.2383L36 13.1461L35.5001 14.0585L34.9888 14.958L33.9749 14.9663L32.9663 14.958L32.4524 14.0539L31.9551 13.1461ZM33.0234 13.716L33.3444 14.2806L33.9776 14.2858L34.6107 14.2806L34.9317 13.7159L35.2439 13.1461L34.9317 12.5762L34.6107 12.0116L33.9775 12.0063L33.3444 12.0116L33.0234 12.5762L32.7112 13.1461L33.0234 13.716Z" fill="black"/>
<path d="M32.3594 9.50566L32.7583 8.79779L33.1684 8.09639L33.9774 8.08993L34.7863 8.09639L35.1964 8.79779L35.5953 9.50566L35.1964 10.2135L34.7863 10.9149L33.9774 10.9214L33.1684 10.9149L32.7583 10.2135L32.3594 9.50566Z" fill="#ECBC4D"/>
<path fill-rule="evenodd" clip-rule="evenodd" d="M31.9551 9.5057L32.455 8.59325L32.9663 7.69381L33.9802 7.68548L34.9888 7.69381L35.5027 8.59793L36 9.5057L35.5001 10.4182L34.9888 11.3176L33.9749 11.3259L32.9663 11.3176L32.4524 10.4135L31.9551 9.5057ZM33.0234 10.0756L33.3444 10.6402L33.9776 10.6454L34.6107 10.6402L34.9317 10.0756L35.2439 9.5057L34.9317 8.93584L34.6107 8.37117L33.9775 8.36597L33.3444 8.37117L33.0234 8.93583L32.7112 9.5057L33.0234 10.0756Z" fill="black"/>
<path d="M32.3594 6.47182L32.7583 5.86508L33.1684 5.26388L33.9774 5.25834L34.7863 5.26388L35.1964 5.86508L35.5953 6.47182L35.1964 7.07856L34.7863 7.67976L33.9774 7.6853L33.1684 7.67976L32.7583 7.07856L32.3594 6.47182Z" fill="#ECBC4D"/>
<path fill-rule="evenodd" clip-rule="evenodd" d="M31.9551 6.47187L32.455 5.6608L32.9663 4.8613L33.9802 4.85389L34.9888 4.8613L35.5027 5.66496L36 6.47187L35.5001 7.28294L34.9888 8.08243L33.9749 8.08984L32.9663 8.08243L32.4524 7.27877L31.9551 6.47187ZM33.0234 6.97841L33.3444 7.48034L33.9776 7.48496L34.6107 7.48034L34.9317 6.97841L35.2439 6.47187L34.9317 5.96532L34.6107 5.4634L33.9775 5.45877L33.3444 5.4634L33.0234 5.96532L32.7112 6.47187L33.0234 6.97841Z" fill="black"/>
<path d="M32.3594 3.03373L32.7583 2.32587L33.1684 1.62447L33.9774 1.618L34.7863 1.62447L35.1964 2.32587L35.5953 3.03373L35.1964 3.7416L34.7863 4.443L33.9774 4.44946L33.1684 4.443L32.7583 3.7416L32.3594 3.03373Z" fill="#ECBC4D"/>
<path fill-rule="evenodd" clip-rule="evenodd" d="M31.9551 3.03378L32.455 2.12132L32.9663 1.22189L33.9802 1.21355L34.9888 1.22189L35.5027 2.12601L36 3.03378L35.5001 3.94623L34.9888 4.84567L33.9749 4.854L32.9663 4.84567L32.4524 3.94155L31.9551 3.03378ZM33.0234 3.60365L33.3444 4.16831L33.9776 4.17352L34.6107 4.16831L34.9317 3.60364L35.2439 3.03378L34.9317 2.46392L34.6107 1.89925L33.9775 1.89404L33.3444 1.89925L33.0234 2.46391L32.7112 3.03378L33.0234 3.60365Z" fill="black"/>
<path d="M0.404297 23.2583L0.803222 22.5505L1.21329 21.8491L2.02227 21.8426L2.83126 21.8491L3.24133 22.5505L3.64025 23.2583L3.24133 23.9662L2.83126 24.6676L2.02227 24.6741L1.21329 24.6676L0.803222 23.9662L0.404297 23.2583Z" fill="#ECBC4D"/>
<path fill-rule="evenodd" clip-rule="evenodd" d="M-7.95646e-08 23.2584L0.499946 22.3459L1.01124 21.4465L2.02509 21.4382L3.03371 21.4465L3.54761 22.3506L4.04494 23.2584L3.545 24.1708L3.03371 25.0703L2.01986 25.0786L1.01124 25.0703L0.497331 24.1662L-7.95646e-08 23.2584ZM1.06832 23.8283L1.38928 24.3929L2.02247 24.3981L2.65567 24.3929L2.97662 23.8283L3.28886 23.2584L2.97663 22.6885L2.65567 22.1239L2.02247 22.1187L1.38928 22.1239L1.06832 22.6885L0.756084 23.2584L1.06832 23.8283Z" fill="black"/>
<path d="M0.404297 19.618L0.803222 18.9101L1.21329 18.2087L2.02227 18.2022L2.83126 18.2087L3.24133 18.9101L3.64025 19.618L3.24133 20.3258L2.83126 21.0272L2.02227 21.0337L1.21329 21.0272L0.803222 20.3258L0.404297 19.618Z" fill="#ECBC4D"/>
<path fill-rule="evenodd" clip-rule="evenodd" d="M-7.95646e-08 19.618L0.499946 18.7056L1.01124 17.8061L2.02509 17.7978L3.03371 17.8061L3.54761 18.7102L4.04494 19.618L3.545 20.5305L3.03371 21.4299L2.01986 21.4382L1.01124 21.4299L0.497331 20.5258L-7.95646e-08 19.618ZM1.06832 20.1879L1.38928 20.7525L2.02247 20.7577L2.65567 20.7525L2.97662 20.1879L3.28886 19.618L2.97663 19.0481L2.65567 18.4835L2.02247 18.4783L1.38928 18.4835L1.06832 19.0481L0.756084 19.618L1.06832 20.1879Z" fill="black"/>
<path d="M0.404297 16.3821L0.803222 15.6743L1.21329 14.9729L2.02227 14.9664L2.83126 14.9729L3.24133 15.6743L3.64025 16.3821L3.24133 17.09L2.83126 17.7914L2.02227 17.7979L1.21329 17.7914L0.803222 17.09L0.404297 16.3821Z" fill="#ECBC4D"/>
<path fill-rule="evenodd" clip-rule="evenodd" d="M-7.95646e-08 16.3819L0.499946 15.4695L1.01124 14.57L2.02509 14.5617L3.03371 14.57L3.54761 15.4742L4.04494 16.3819L3.545 17.2944L3.03371 18.1938L2.01986 18.2021L1.01124 18.1938L0.497331 17.2897L-7.95646e-08 16.3819ZM1.06832 16.9518L1.38928 17.5165L2.02247 17.5217L2.65567 17.5165L2.97662 16.9518L3.28886 16.3819L2.97663 15.8121L2.65567 15.2474L2.02247 15.2422L1.38928 15.2474L1.06832 15.8121L0.756084 16.3819L1.06832 16.9518Z" fill="black"/>
<path d="M0.404297 12.9438L0.803222 12.1348L1.21329 11.3332L2.02227 11.3258L2.83126 11.3332L3.24133 12.1348L3.64025 12.9438L3.24133 13.7528L2.83126 14.5544L2.02227 14.5618L1.21329 14.5544L0.803222 13.7528L0.404297 12.9438Z" fill="#ECBC4D"/>
<path fill-rule="evenodd" clip-rule="evenodd" d="M-7.95646e-08 13.1461L0.499946 12.2336L1.01124 11.3342L2.02509 11.3259L3.03371 11.3342L3.54761 12.2383L4.04494 13.1461L3.545 14.0585L3.03371 14.958L2.01986 14.9663L1.01124 14.958L0.497331 14.0539L-7.95646e-08 13.1461ZM1.06832 13.716L1.38928 14.2806L2.02247 14.2858L2.65567 14.2806L2.97662 13.7159L3.28886 13.1461L2.97663 12.5762L2.65567 12.0116L2.02247 12.0063L1.38928 12.0116L1.06832 12.5762L0.756084 13.1461L1.06832 13.716Z" fill="black"/>
<path d="M0.404297 9.50566L0.803222 8.79779L1.21329 8.09639L2.02227 8.08993L2.83126 8.09639L3.24133 8.79779L3.64025 9.50566L3.24133 10.2135L2.83126 10.9149L2.02227 10.9214L1.21329 10.9149L0.803222 10.2135L0.404297 9.50566Z" fill="#ECBC4D"/>
<path fill-rule="evenodd" clip-rule="evenodd" d="M-7.95646e-08 9.5057L0.499946 8.59325L1.01124 7.69381L2.02509 7.68548L3.03371 7.69381L3.54761 8.59793L4.04494 9.5057L3.545 10.4182L3.03371 11.3176L2.01986 11.3259L1.01124 11.3176L0.497331 10.4135L-7.95646e-08 9.5057ZM1.06832 10.0756L1.38928 10.6402L2.02247 10.6454L2.65567 10.6402L2.97662 10.0756L3.28886 9.5057L2.97663 8.93584L2.65567 8.37117L2.02247 8.36597L1.38928 8.37117L1.06832 8.93583L0.756084 9.5057L1.06832 10.0756Z" fill="black"/>
<path d="M0.404297 6.47182L0.803222 5.86508L1.21329 5.26388L2.02227 5.25834L2.83126 5.26388L3.24133 5.86508L3.64025 6.47182L3.24133 7.07856L2.83126 7.67976L2.02227 7.6853L1.21329 7.67976L0.803222 7.07856L0.404297 6.47182Z" fill="#ECBC4D"/>
<path fill-rule="evenodd" clip-rule="evenodd" d="M-7.0724e-08 6.47187L0.499946 5.6608L1.01124 4.8613L2.02509 4.85389L3.03371 4.8613L3.54761 5.66496L4.04494 6.47187L3.545 7.28294L3.03371 8.08243L2.01986 8.08984L1.01124 8.08243L0.497331 7.27877L-7.0724e-08 6.47187ZM1.06832 6.97841L1.38928 7.48034L2.02247 7.48496L2.65567 7.48034L2.97662 6.97841L3.28886 6.47187L2.97663 5.96532L2.65567 5.4634L2.02247 5.45877L1.38928 5.4634L1.06832 5.96532L0.756084 6.47187L1.06832 6.97841Z" fill="black"/>
<path d="M0.404297 3.03373L0.803222 2.32587L1.21329 1.62447L2.02227 1.618L2.83126 1.62447L3.24133 2.32587L3.64025 3.03373L3.24133 3.7416L2.83126 4.443L2.02227 4.44946L1.21329 4.443L0.803222 3.7416L0.404297 3.03373Z" fill="#ECBC4D"/>
<path fill-rule="evenodd" clip-rule="evenodd" d="M-7.95646e-08 3.03378L0.499946 2.12132L1.01124 1.22189L2.02509 1.21355L3.03371 1.22189L3.54761 2.12601L4.04494 3.03378L3.545 3.94623L3.03371 4.84567L2.01986 4.854L1.01124 4.84567L0.497331 3.94155L-7.95646e-08 3.03378ZM1.06832 3.60365L1.38928 4.16831L2.02247 4.17352L2.65567 4.16831L2.97662 3.60364L3.28886 3.03378L2.97663 2.46392L2.65567 1.89925L2.02247 1.89404L1.38928 1.89925L1.06832 2.46391L0.756084 3.03378L1.06832 3.60365Z" fill="black"/>
<path d="M11.2976 31.2282V31.8061H8.59647V31.2282H11.2976ZM8.78741 31.2282V32.7614H8.12294L8.08984 31.2282H8.78741ZM11.8195 31.2282L11.766 32.7641H11.1169V31.2282H11.8195ZM10.8623 27.9102V28.4908H9.11582V27.9102H10.8623ZM11.3791 27.9102V31.8061H10.6815V27.9102H11.3791ZM9.0038 27.9102H9.70391L9.60971 29.4942C9.59614 29.7493 9.57068 29.9768 9.53334 30.1766C9.4977 30.3764 9.45357 30.5539 9.40096 30.7091C9.34834 30.8643 9.28979 31.0007 9.22529 31.1185C9.16249 31.2344 9.09545 31.3352 9.02417 31.4208C8.95458 31.5065 8.88245 31.5805 8.80777 31.6429C8.73479 31.7036 8.66266 31.758 8.59138 31.8061H8.20186V31.2282H8.36989C8.41911 31.1836 8.47087 31.1211 8.52518 31.0409C8.58119 30.9606 8.63466 30.8544 8.68557 30.7224C8.73819 30.5904 8.78401 30.4236 8.82305 30.2221C8.86208 30.0205 8.89009 29.7779 8.90706 29.4942L9.0038 27.9102Z" fill="black"/>
<path d="M14.2936 28.5015L13.237 31.8061H12.4962L13.8811 27.9102H14.3547L14.2936 28.5015ZM15.177 31.8061L14.1154 28.5015L14.0517 27.9102H14.5278L15.9204 31.8061H15.177ZM15.1286 30.3585V30.9392H13.1403V30.3585H15.1286Z" fill="black"/>
<path d="M19.8099 31.2282V31.8061H17.1088V31.2282H19.8099ZM17.2997 31.2282V32.7614H16.6352L16.6021 31.2282H17.2997ZM20.3318 31.2282L20.2783 32.7641H19.6292V31.2282H20.3318ZM19.3746 27.9102V28.4908H17.6281V27.9102H19.3746ZM19.8914 27.9102V31.8061H19.1938V27.9102H19.8914ZM17.5161 27.9102H18.2162L18.122 29.4942C18.1084 29.7493 18.083 29.9768 18.0456 30.1766C18.01 30.3764 17.9659 30.5539 17.9133 30.7091C17.8606 30.8643 17.8021 31.0007 17.7376 31.1185C17.6748 31.2344 17.6077 31.3352 17.5365 31.4208C17.4669 31.5065 17.3947 31.5805 17.3201 31.6429C17.2471 31.7036 17.175 31.758 17.1037 31.8061H16.7142V31.2282H16.8822C16.9314 31.1836 16.9832 31.1211 17.0375 31.0409C17.0935 30.9606 17.147 30.8544 17.1979 30.7224C17.2505 30.5904 17.2963 30.4236 17.3353 30.2221C17.3744 30.0205 17.4024 29.7779 17.4194 29.4942L17.5161 27.9102Z" fill="black"/>
<path d="M22.8059 28.5015L21.7493 31.8061H21.0085L22.3934 27.9102H22.867L22.8059 28.5015ZM23.6893 31.8061L22.6277 28.5015L22.564 27.9102H23.0401L24.4327 31.8061H23.6893ZM23.6409 30.3585V30.9392H21.6526V30.3585H23.6409Z" fill="black"/>
<path d="M27.7952 29.5183V30.0963H25.8451V29.5183H27.7952ZM26.036 27.9102V31.8061H25.3359V27.9102H26.036ZM28.3146 27.9102V31.8061H27.6145V27.9102H28.3146Z" fill="black"/>
</svg>
