<svg width="40" height="36" viewBox="0 0 40 36" fill="none" xmlns="http://www.w3.org/2000/svg">
<path d="M7.35133 4.42716L12.6622 7.512C16.6398 9.82394 20.6162 12.1381 24.5914 14.4546C24.8547 14.6094 25.0434 14.6196 25.3123 14.4625C27.0955 13.415 28.8899 12.3856 30.6809 11.3494C30.7939 11.2873 30.8944 11.2195 31.0379 11.1302C30.8967 11.0398 30.7882 10.9652 30.6741 10.9042L22.8659 6.35829C22.7439 6.2871 22.5767 6.2306 22.5269 6.12326C22.4591 5.98088 22.4139 5.75036 22.4908 5.63849C22.5676 5.52663 22.7857 5.48482 22.9484 5.469C23.0422 5.45996 23.1484 5.55827 23.2456 5.61476C26.112 7.27885 28.9814 8.94406 31.8538 10.6104C31.9897 10.6809 32.1077 10.7816 32.1986 10.9048C32.2895 11.0281 32.3509 11.1705 32.3781 11.3212C32.6041 12.3788 32.8606 13.4308 33.1318 14.4783C33.19 14.6718 33.3149 14.8383 33.4844 14.9484C34.7153 15.6874 35.9545 16.4113 37.202 17.1202C37.345 17.1923 37.4696 17.296 37.5665 17.4235C37.6635 17.5509 37.7301 17.6988 37.7613 17.8558C38.2133 19.8288 38.6653 21.8017 39.1478 23.7656C39.2608 24.2176 39.1252 24.43 38.7512 24.6447C35.5549 26.4798 32.3627 28.3217 29.1746 30.1703C25.9105 32.0574 22.6463 33.9452 19.3822 35.8338C19.0263 36.0406 18.7483 36.0598 18.3765 35.8406C12.3982 32.3512 6.41232 28.8716 0.418909 25.4018C0.036976 25.1758 -0.0545523 24.9498 0.0279362 24.5137C0.509307 21.9576 0.946609 19.3937 1.43024 16.8366C1.49921 16.5732 1.66508 16.3456 1.89466 16.1993C3.19527 15.4162 4.5196 14.667 5.83377 13.9054C5.90496 13.8647 5.97163 13.815 6.08236 13.7427C5.67896 13.5065 5.31172 13.2817 4.93543 13.0738C4.64051 12.911 4.53316 12.7144 4.59644 12.3528C5.08459 9.76857 5.53658 7.17979 5.99536 4.591C6.01503 4.44568 6.06933 4.30721 6.15369 4.18725C6.23805 4.0673 6.35 3.96937 6.48012 3.90172C8.66474 2.65196 10.8464 1.39279 13.025 0.124197C13.1399 0.0444441 13.2766 0.00170898 13.4165 0.00170898C13.5564 0.00170898 13.693 0.0444441 13.808 0.124197C14.86 0.744555 15.9211 1.35587 16.9821 1.96606C17.259 2.12539 17.4533 2.33218 17.2646 2.64405C17.0759 2.95592 16.8239 2.85197 16.5674 2.70055C15.6216 2.14686 14.6747 1.58187 13.7154 1.05304C13.5741 0.973941 13.3221 0.940042 13.1933 1.01462C11.2724 2.10166 9.36043 3.2113 7.44851 4.31642C7.42591 4.32998 7.41235 4.3571 7.35133 4.42716ZM6.76713 5.08481C6.35356 7.38205 5.96485 9.63749 5.52415 11.8828C5.43828 12.3201 5.56709 12.4907 5.91852 12.693C10.2878 15.2181 14.6544 17.7526 19.0184 20.2966L23.1145 22.6763C23.1524 22.5903 23.1838 22.5015 23.2083 22.4108C23.6106 20.1983 24.0061 17.9846 24.4118 15.7733C24.466 15.4783 24.4118 15.3077 24.1236 15.1416C18.4654 11.8632 12.8099 8.57795 7.15697 5.28594C7.03946 5.21701 6.91629 5.15825 6.76713 5.08481ZM18.5393 34.9603C18.5641 34.8733 18.5799 34.8338 18.5867 34.7931C19.0059 32.5117 19.4184 30.228 19.8466 27.9477C19.9065 27.6324 19.7235 27.5341 19.5076 27.4098C14.3723 24.4289 9.23726 21.4439 4.10264 18.4547C3.47437 18.0897 2.84271 17.727 2.20654 17.3598C2.1901 17.3984 2.17613 17.438 2.16473 17.4784C1.76697 19.6649 1.39295 21.8548 0.957909 24.0323C0.856211 24.5453 0.985028 24.769 1.41668 25.0176C5.18516 27.1849 8.94121 29.3771 12.6995 31.5625C14.6329 32.6868 16.5652 33.8123 18.5393 34.9603ZM26.4005 23.4447C25.7327 22.7147 25.0637 22.7147 24.3666 23.3136C24.2411 23.4266 24.0671 23.473 23.9338 23.5735C23.6038 23.8232 23.3145 23.7679 22.9676 23.5656C17.7426 20.5154 12.5146 17.4713 7.28353 14.4331C7.03268 14.2862 6.85753 14.2727 6.60554 14.4263C5.43376 15.1247 4.24615 15.797 3.06532 16.4806C2.96362 16.5383 2.87096 16.6095 2.76023 16.684C2.82011 16.7258 2.84158 16.7439 2.86531 16.7586C8.61389 20.1041 14.3655 23.4447 20.1201 26.7804C20.2557 26.8584 20.528 26.8177 20.6794 26.7318C22.1981 25.8753 23.7055 24.9962 25.2163 24.1238L26.4005 23.4447ZM27.0265 24.0571C24.9417 25.2583 22.9202 26.4199 20.9066 27.5951C20.7908 27.6877 20.7142 27.8204 20.6919 27.9669C20.3789 29.6234 20.0772 31.2811 19.7766 32.9388C19.6636 33.5343 19.5732 34.1332 19.467 34.7614C19.5172 34.7509 19.5667 34.737 19.615 34.7196C22.4407 33.0902 25.2656 31.4623 28.0898 29.8359C28.3045 29.7127 28.3384 29.5692 28.2831 29.3511C28.1407 28.7929 28.0119 28.2324 27.8797 27.672L27.0265 24.0571ZM31.6312 11.824C31.5828 11.829 31.535 11.8393 31.4888 11.8545C29.5034 12.9947 27.5169 14.1416 25.5372 15.3009C25.3959 15.4045 25.2993 15.5581 25.2671 15.7303C24.9485 17.414 24.6457 19.1011 24.3428 20.7881C24.2434 21.3418 24.1541 21.8978 24.0468 22.5351L32.9454 17.4016L31.6312 11.824ZM37.0009 18.3304C36.9395 18.3493 36.8794 18.3723 36.8212 18.3993C34.846 19.5369 32.8727 20.6785 30.9012 21.8243C30.7825 21.9086 30.6998 22.0344 30.6696 22.1769C30.5001 23.0176 30.3475 23.8617 30.195 24.7058C29.9385 26.1284 29.6842 27.5522 29.4153 29.0573C29.6097 28.9443 29.7396 28.8776 29.8673 28.8031L37.5828 24.3464C38.306 23.9295 38.3128 23.9295 38.1207 23.1034C37.7523 21.5203 37.3771 19.935 37.0009 18.3304ZM28.743 27.6494L28.8074 27.6595C29.0635 26.2516 29.3196 24.8436 29.5758 23.4357C29.6424 23.0628 29.7204 22.6899 29.7622 22.3136C29.7803 22.1441 29.7825 21.8616 29.6899 21.8085C29.2176 21.5384 28.7125 21.3271 28.2209 21.0943L26.1937 22.2718C26.5429 22.4763 26.8344 22.6774 27.1508 22.8243C27.5441 23.0085 27.7237 23.2899 27.8152 23.7182C28.0977 25.0335 28.43 26.3397 28.743 27.6494ZM29.2074 20.5305C29.4499 20.6574 29.685 20.7981 29.9114 20.952C30.2006 21.178 30.4402 21.1328 30.7442 20.952C32.4391 19.9531 34.1476 18.9756 35.8505 17.9914C36.0302 17.8875 36.2053 17.779 36.4246 17.6524L33.4685 15.9326C33.5815 16.4219 33.6651 16.8309 33.7804 17.2309C33.8991 17.6479 33.7861 17.9089 33.394 18.1248C32.0086 18.8909 30.6413 19.6977 29.2074 20.5271V20.5305Z" fill="black"/>
<path d="M21.4272 4.72767C21.4181 5.08474 21.1108 5.30735 20.8554 5.16836C20.1639 4.79547 19.4802 4.40563 18.8214 3.97962C18.7084 3.90392 18.635 3.57396 18.7028 3.45079C18.7706 3.32763 19.0938 3.2361 19.2181 3.30051C19.8961 3.6395 20.5435 4.03499 21.1921 4.43049C21.3085 4.50055 21.3729 4.65761 21.4272 4.72767Z" fill="black"/>
<path d="M18.5389 34.9603C16.5648 33.8122 14.6326 32.6867 12.6992 31.5635C8.94086 29.3793 5.18481 27.186 1.41633 25.0187C0.984678 24.7701 0.851341 24.5464 0.957559 24.0334C1.3926 21.8548 1.76662 19.6649 2.16438 17.4795C2.17578 17.4391 2.18975 17.3995 2.20619 17.3608C2.84236 17.7281 3.47402 18.0908 4.10229 18.4558C9.23842 21.4442 14.3742 24.4289 19.5096 27.4097C19.7231 27.534 19.9062 27.6357 19.8485 27.9476C19.4203 30.2279 19.0078 32.5116 18.5886 34.793C18.5796 34.8337 18.5638 34.8733 18.5389 34.9603Z" fill="#ECBC4D"/>
<path d="M26.4007 23.4447L25.2165 24.1283C23.7057 25.0007 22.1983 25.8798 20.6796 26.7363C20.5282 26.8222 20.2558 26.8629 20.1202 26.7849C14.3619 23.453 8.60877 20.1109 2.86095 16.7586C2.83722 16.7439 2.81575 16.7259 2.75586 16.684C2.86886 16.6095 2.95926 16.5383 3.06095 16.4807C4.24178 15.8027 5.43391 15.1247 6.60118 14.4263C6.85881 14.2727 7.03396 14.2862 7.27917 14.4331C12.5057 17.4803 17.7337 20.5245 22.9633 23.5656C23.3102 23.7679 23.5995 23.8233 23.9294 23.5735C24.0627 23.473 24.2368 23.4221 24.3622 23.3136C25.0639 22.7125 25.7329 22.7125 26.4007 23.4447Z" fill="#ECBC4D"/>
<path d="M27.0267 24.0571L27.8844 27.6731C28.0166 28.2381 28.1454 28.794 28.2878 29.3522C28.3431 29.5703 28.3092 29.7138 28.0945 29.837C25.2651 31.4596 22.4401 33.0875 19.6197 34.7207C19.5714 34.7381 19.5219 34.752 19.4717 34.7626C19.5779 34.1343 19.6739 33.5354 19.7813 32.9399C20.0819 31.2811 20.3836 29.6234 20.6966 27.968C20.7189 27.8215 20.7955 27.6888 20.9113 27.5962C22.9204 26.4199 24.9419 25.2583 27.0267 24.0571Z" fill="#ECBC4D"/>
<path d="M37.0004 18.3303C37.3767 19.9349 37.7519 21.5203 38.1214 23.1056C38.3135 23.9294 38.3067 23.9294 37.5835 24.3486L29.868 28.803C29.7392 28.8775 29.6092 28.9487 29.416 29.0572C29.685 27.5521 29.9392 26.1283 30.1957 24.7057C30.3483 23.8616 30.5008 23.0175 30.6703 22.1768C30.7005 22.0343 30.7832 21.9085 30.9019 21.8242C32.8704 20.6754 34.8437 19.5337 36.8219 18.3993C36.8798 18.3723 36.9394 18.3493 37.0004 18.3303Z" fill="#ECBC4D"/>
<path d="M28.7426 27.6492C28.4296 26.3396 28.0974 25.0333 27.8149 23.718C27.7234 23.2898 27.5437 23.0084 27.1505 22.8242C26.8341 22.6773 26.5425 22.4762 26.1934 22.2717L28.2183 21.0942C28.7121 21.327 29.2172 21.5383 29.6873 21.8084C29.7799 21.8615 29.7777 22.1474 29.7596 22.3135C29.7178 22.6898 29.6398 23.0627 29.5731 23.4356C29.3178 24.8435 29.0616 26.2515 28.8047 27.6594L28.7426 27.6492Z" fill="#ECBC4D"/>
<path d="M29.207 20.5272C30.641 19.6978 32.0082 18.891 33.388 18.117C33.7801 17.8977 33.8931 17.6401 33.7744 17.2232C33.6614 16.8231 33.5778 16.4141 33.4625 15.9248L36.4186 17.6446C36.1993 17.7768 36.0242 17.8853 35.8445 17.9836C34.1416 18.9678 32.4331 19.9453 30.7382 20.9442C30.4342 21.1238 30.1946 21.1702 29.9054 20.9442C29.6807 20.792 29.4475 20.6528 29.207 20.5272Z" fill="#ECBC4D"/>
</svg>
