<svg width="35" height="36" viewBox="0 0 35 36" fill="none" xmlns="http://www.w3.org/2000/svg">
<path d="M31.1945 0C31.2819 0.0441522 31.3758 0.0939408 31.4698 0.132457C32.3087 0.469704 32.8432 1.34147 32.7323 2.19915C32.6797 2.64424 32.4786 3.05861 32.1616 3.37544C31.8446 3.69228 31.4302 3.8931 30.985 3.94551C30.798 3.96831 30.6098 3.97929 30.4214 3.97839C27.808 3.97839 25.1945 3.97839 22.5811 3.97839C21.404 3.97839 20.862 4.5148 20.8516 5.68624C20.852 6.15366 20.6735 6.60349 20.3528 6.94356C20.0321 7.28362 19.5935 7.48817 19.1269 7.51527C18.6717 7.53075 18.2274 7.37425 17.8823 7.07692C17.5373 6.7796 17.3169 6.36325 17.265 5.91076C17.2217 5.42071 17.2095 4.92842 17.2283 4.43682C17.2283 4.10709 17.1072 3.98591 16.7737 3.97558C15.7601 3.94645 15.0602 3.45233 14.7774 2.60498C14.6196 2.12807 14.6482 1.60912 14.8573 1.15238C15.0664 0.695637 15.4406 0.334953 15.9047 0.14279C16.0081 0.0995773 16.1076 0.0488492 16.2081 0H18.0372C18.2795 0.172851 18.4684 0.375763 18.3481 0.702677C18.2279 1.02959 17.963 1.06999 17.6614 1.05683C17.3796 1.04556 17.0978 1.05214 16.8159 1.05683C16.1753 1.06247 15.7572 1.42132 15.7488 1.97088C15.7403 2.52043 16.1405 2.88492 16.7906 2.8962C17.73 2.91217 18.2936 3.48051 18.3058 4.41146C18.3058 4.84547 18.2983 5.27853 18.3124 5.7116C18.3134 5.88911 18.3799 6.06001 18.4992 6.19145C18.6185 6.32289 18.7821 6.4056 18.9587 6.42367C19.1407 6.4505 19.3259 6.40551 19.4753 6.29822C19.6247 6.19092 19.7264 6.02974 19.7591 5.84875C19.7872 5.68784 19.7989 5.52448 19.7939 5.3612C19.8127 4.18225 20.6919 3.11226 21.8606 2.96759C22.6121 2.87365 23.3777 2.91498 24.1377 2.8962C24.3077 2.8962 24.4778 2.8962 24.6469 2.8962V1.05496H24.2523C22.9644 1.05496 21.6755 1.05496 20.3876 1.05496C19.931 1.05496 19.652 0.696101 19.8239 0.323156C19.8955 0.204814 19.982 0.0961977 20.0813 0L31.1945 0ZM25.7864 1.05777V2.87365C25.8389 2.88274 25.8919 2.88902 25.9451 2.89244C27.5365 2.89244 29.1288 2.89713 30.7201 2.89244C31.2622 2.89244 31.6426 2.51667 31.6595 2.0047C31.6648 1.88379 31.6457 1.76305 31.6033 1.6497C31.5608 1.53636 31.496 1.43274 31.4126 1.34504C31.3292 1.25734 31.2289 1.18736 31.1179 1.13929C31.0068 1.09123 30.8872 1.06606 30.7662 1.06529C29.1137 1.04556 27.4651 1.05777 25.7864 1.05777Z" fill="black"/>
<path d="M16.1666 24.6482C15.2621 23.4602 14.1882 22.4113 12.9792 21.535C11.1173 20.1973 9.20652 18.9272 7.32113 17.6158C6.24175 16.8643 5.20464 16.0592 4.43057 14.9714C4.06326 14.4556 4.06796 14.4547 3.45358 14.6576C2.53296 14.9629 1.61328 15.2701 0.690783 15.566C0.561829 15.6046 0.423025 15.5928 0.302469 15.5329C0.181913 15.473 0.0886116 15.3696 0.0414522 15.2435C-0.00570718 15.1174 -0.00320171 14.9781 0.0484615 14.8538C0.100125 14.7295 0.197086 14.6295 0.319717 14.574C0.405821 14.5368 0.494324 14.5054 0.58463 14.4801C1.50525 14.1747 2.42117 13.8572 3.34837 13.5735C3.64334 13.4796 3.72413 13.3565 3.69125 13.055C3.66261 12.7177 3.66828 12.3784 3.70816 12.0423C3.74104 11.6797 4.00971 11.4533 4.30938 11.4918C4.63818 11.5341 4.81572 11.8027 4.76124 12.1926C4.60718 13.2851 5.05809 14.1531 5.7711 14.9235C6.70206 15.9305 7.8472 16.6661 8.96509 17.4411C10.7049 18.6492 12.455 19.8441 14.1563 21.1048C15.2591 21.922 16.2014 22.9282 17.0449 24.0169C17.5334 24.6473 17.4207 25.1846 16.7199 25.5698C16.3921 25.7501 16.0623 25.9267 15.7382 26.1137C14.4775 26.8427 14.4634 28.4284 15.7645 29.0926C16.6637 29.5656 17.611 29.9407 18.5903 30.2114C21.0422 30.8401 23.3589 31.911 25.4263 33.3716C26.6185 34.217 27.958 34.6623 29.3719 34.9253C30.0849 35.0569 30.8749 34.4491 30.8928 33.7163C30.8928 33.5904 30.7049 33.3941 30.5677 33.3406C29.8012 33.0587 29.0243 32.8013 28.2464 32.5505C27.8537 32.4325 27.513 32.1839 27.2807 31.846C26.1694 30.249 25.0449 28.6661 23.9233 27.0794C23.7608 26.8502 23.6584 26.5937 23.8744 26.3795C24.0255 26.2471 24.2213 26.1772 24.4221 26.1841C24.5602 26.1935 24.718 26.3579 24.8129 26.4923C25.9214 28.0461 27.0139 29.6111 28.1271 31.1611C28.2583 31.3335 28.4354 31.4653 28.6382 31.5416C29.4151 31.829 30.206 32.0799 30.9867 32.3532C31.7673 32.6266 32.1196 33.2926 31.9083 34.1071C31.5381 35.5266 30.347 36.2292 28.9106 35.9371C27.394 35.6342 25.9518 35.0357 24.6664 34.1757C23.1783 33.1827 21.6603 32.2264 19.9064 31.7454C18.9613 31.4871 18.0219 31.1968 17.0985 30.8662C16.4361 30.6378 15.7951 30.3515 15.183 30.0104C13.2206 28.8831 13.2479 26.3016 15.2131 25.1837C15.5203 25.0089 15.8265 24.8389 16.1666 24.6482Z" fill="black"/>
<path d="M18.651 19.6197C18.0488 19.8714 17.5237 20.1833 16.96 20.3092C15.7388 20.576 14.6989 20.142 13.9737 19.1368C12.387 16.9329 10.8389 14.7009 9.28508 12.4736C8.73083 11.6788 8.90932 10.7592 9.69936 10.1955C10.2038 9.83571 10.7111 9.48062 11.2437 9.10485C10.7571 8.41345 10.2818 7.73614 9.80457 7.05976C9.29072 6.33266 8.76089 5.61683 8.26676 4.87658C7.63078 3.92026 6.76371 3.51819 5.62609 3.65723C3.99997 3.85732 2.37479 4.05272 0.751498 4.25657C0.338158 4.30824 0.0572749 4.15042 0.00654682 3.80941C-0.0404236 3.48719 0.167186 3.24577 0.570192 3.19034C1.60354 3.05788 2.63689 2.93952 3.67024 2.81458C4.29682 2.74036 4.92529 2.67554 5.54906 2.59382C7.05962 2.39654 8.22261 2.96958 9.08687 4.19081C11.7924 8.01859 14.4938 11.846 17.1911 15.6732L23.1639 24.1429C23.2043 24.2002 23.2466 24.2556 23.2841 24.3158C23.472 24.6088 23.4298 24.9235 23.1902 25.0964C22.9507 25.2693 22.6266 25.2138 22.4208 24.9395C22.1625 24.5929 21.9192 24.2331 21.6693 23.8799L18.7881 19.8028C18.7318 19.7183 18.6651 19.6337 18.651 19.6197ZM11.8638 9.98226C11.3602 10.3336 10.8915 10.6615 10.4274 10.9912C9.96333 11.3209 9.92951 11.5323 10.2442 11.9813C11.7473 14.1257 13.255 16.2694 14.7675 18.4125C15.5603 19.5323 16.9723 19.6187 17.953 18.6079L11.8638 9.98226Z" fill="black"/>
<path d="M28.0246 21.7445C27.2289 21.7445 26.4276 21.8159 25.6375 21.7304C23.7587 21.5247 22.5112 20.4744 21.8959 18.6886C21.7174 18.171 21.569 17.6411 21.4262 17.1123C21.2458 16.4462 21.476 15.8638 22.0687 15.5237C22.1409 15.4903 22.2007 15.4348 22.2393 15.3653C22.278 15.2957 22.2936 15.2157 22.2838 15.1367C22.2773 14.1757 22.2698 13.2147 22.2838 12.2536C22.2989 11.2701 22.9997 10.5834 23.9222 10.6238C24.3421 10.6426 24.6643 10.8596 24.9799 11.1179C25.4412 11.4937 25.8987 11.8929 26.4144 12.1785C26.7967 12.3731 27.2172 12.4809 27.646 12.4941C28.5704 12.5392 29.4985 12.5355 30.4238 12.5026C31.2047 12.4783 31.9681 12.7361 32.5744 13.2288C33.1806 13.7215 33.5891 14.4162 33.7249 15.1855C33.7569 15.3102 33.8351 15.418 33.9438 15.4871C34.5384 15.8412 34.8071 16.4265 34.6267 17.1029C34.4764 17.6665 34.313 18.2302 34.126 18.7816C33.5163 20.589 31.8714 21.7576 29.9287 21.7811C29.2956 21.7886 28.6624 21.7811 28.0302 21.7811L28.0246 21.7445ZM28.0302 16.4105C26.3443 16.4105 24.6574 16.4105 22.9696 16.4105C22.4511 16.4105 22.3712 16.5223 22.5196 17.0277C22.6605 17.5096 22.7921 17.9944 22.9527 18.4697C23.1628 19.1078 23.567 19.6644 24.1088 20.0617C24.6506 20.459 25.303 20.6772 25.9748 20.6858C27.3344 20.7008 28.6934 20.7008 30.0518 20.6858C30.7296 20.68 31.3885 20.4612 31.9351 20.0602C32.4816 19.6593 32.8883 19.0966 33.0974 18.4519C33.2524 17.9821 33.3792 17.5124 33.5201 17.0427C33.6742 16.5139 33.5981 16.4096 33.056 16.4096C31.3814 16.409 29.7061 16.4093 28.0302 16.4105ZM23.3736 15.3123H32.6258C32.6004 15.1977 32.5882 15.1066 32.56 15.0202C32.4213 14.6002 32.1544 14.2342 31.7968 13.9739C31.4392 13.7135 31.0089 13.5718 30.5666 13.5688C29.5473 13.5632 28.5262 13.5998 27.5098 13.5528C27.0401 13.5312 26.5318 13.4495 26.1354 13.2259C25.4487 12.8398 24.8428 12.3119 24.1861 11.8675C24.0434 11.7736 23.8104 11.706 23.6573 11.7576C23.5286 11.8018 23.3895 12.031 23.3858 12.1813C23.3623 13.2156 23.3736 14.2461 23.3736 15.3123Z" fill="black"/>
<path d="M20.9255 11.1913C20.9255 12.0208 20.4793 12.6774 19.7982 12.9649C19.4608 13.1037 19.09 13.1403 18.7319 13.0702C18.3738 13 18.0442 12.8262 17.7841 12.5703C17.2496 12.0377 17.0664 11.2862 17.3999 10.606C17.6835 10.043 18.0147 9.50524 18.39 8.99871C18.465 8.89555 18.5621 8.81048 18.6743 8.74973C18.7864 8.68897 18.9107 8.65408 19.038 8.64759C19.1654 8.64111 19.2926 8.6632 19.4103 8.71225C19.528 8.7613 19.6333 8.83606 19.7184 8.93107C20.2303 9.51162 20.6578 10.157 20.8889 10.9095C20.9114 11.0018 20.9237 11.0963 20.9255 11.1913ZM19.0852 9.75305C18.8034 10.2613 18.5535 10.6539 18.3562 11.0682C18.2191 11.3585 18.3656 11.6957 18.6456 11.894C18.7795 11.9901 18.9414 12.0396 19.1062 12.0346C19.2711 12.0297 19.4297 11.9707 19.5577 11.8667C19.8038 11.6572 19.9635 11.3886 19.8048 11.0645C19.6028 10.6521 19.3633 10.2566 19.0852 9.75305Z" fill="black"/>
<path d="M11.8639 9.98218L17.9493 18.6078C16.9686 19.6186 15.5567 19.5322 14.7638 18.4124C13.2507 16.2731 11.7427 14.1294 10.2396 11.9812C9.92492 11.5322 9.96719 11.3124 10.4228 10.9911C10.8784 10.6698 11.3603 10.3335 11.8639 9.98218Z" fill="#ECBC4D"/>
<path d="M23.3738 15.3125C23.3738 14.2425 23.3625 13.2119 23.386 12.1814C23.386 12.0311 23.5288 11.8057 23.6575 11.7577C23.8059 11.7061 24.0436 11.7709 24.1864 11.8677C24.844 12.312 25.4489 12.8399 26.1357 13.226C26.5321 13.4496 27.0441 13.5313 27.51 13.553C28.5265 13.5999 29.5476 13.5633 30.5668 13.5689C31.0092 13.572 31.4394 13.7136 31.797 13.974C32.1546 14.2343 32.4215 14.6003 32.5603 15.0203C32.5885 15.1067 32.6007 15.1979 32.626 15.3125H23.3738Z" fill="#ECBC4D"/>
<path d="M19.0851 9.75293C19.3669 10.2565 19.6027 10.6519 19.8046 11.0681C19.9634 11.3922 19.8046 11.6609 19.5576 11.8704C19.4296 11.9743 19.2709 12.0334 19.1061 12.0383C18.9413 12.0432 18.7794 11.9938 18.6454 11.8976C18.3636 11.6994 18.2189 11.3621 18.3561 11.0719C18.5534 10.6538 18.8004 10.2611 19.0851 9.75293Z" fill="#ECBC4D"/>
</svg>
