<svg width="29" height="36" viewBox="0 0 29 36" fill="none" xmlns="http://www.w3.org/2000/svg">
<path d="M21.9554 5.55775C22.2722 5.78838 22.4864 6.00671 22.7457 6.12254C23.5094 6.45772 24.2935 6.75293 25.0654 7.07273C25.9213 7.43252 26.7228 7.87431 27.3481 8.58978C28.4336 9.83416 28.5054 11.3379 28.3321 12.8467C28.2829 13.2741 27.834 13.7334 27.4516 14.0224C27.1175 14.2746 26.9965 14.4929 26.9965 14.8886C26.9965 19.6898 26.9856 24.4907 26.9637 29.2912C26.9545 31.8169 25.7675 33.6886 23.698 35.0314C22.6842 35.6823 21.5005 36.019 20.2959 35.999C16.2819 35.9867 12.2669 35.9273 8.2539 35.999C4.82928 36.0574 2.33334 33.5297 1.67117 31.1147C1.54071 30.6379 1.47182 30.1464 1.46617 29.652C1.42858 24.4066 1.40125 19.1616 1.38416 13.9168V13.2864C1.30011 13.2485 1.26731 13.2198 1.24271 13.226C0.191032 13.4792 0.00755244 13.3326 0.000377248 12.2491C-0.00782297 10.894 0.110055 9.58405 1.10843 8.52315C1.80648 7.78308 2.68082 7.33514 3.60437 6.95896C4.29934 6.67502 4.99944 6.40134 5.6821 6.09076C5.92913 5.97903 6.13312 5.77095 6.41807 5.56184C6.06341 5.35069 5.79281 5.21334 5.54885 5.03908C4.33522 4.17601 4.13944 3.16636 4.42029 1.9476C4.6253 1.05173 5.87481 -0.00815293 7.09869 4.72881e-05C11.8989 0.0400233 16.6991 0.0102976 21.4983 0.00824751C22.6258 0.00824751 23.9153 1.15628 24.0496 2.28073C24.2105 3.61327 23.6642 4.6547 22.4751 5.27894C22.346 5.34761 22.2148 5.41937 21.9554 5.55775ZM2.67262 21.4774H2.70337C2.70337 24.1097 2.67775 26.742 2.72182 29.3702C2.7331 30.0538 2.8438 30.7857 3.11339 31.4059C3.97851 33.3954 5.47095 34.6347 7.71781 34.6521C12.0567 34.687 16.3967 34.6624 20.7357 34.6634C22.0579 34.6634 23.1352 34.1191 24.0762 33.2181C25.2714 32.0742 25.6886 30.6555 25.6896 29.0452C25.6896 24.654 25.6589 20.2607 25.7552 15.8705C25.7819 14.6733 25.4733 13.9322 24.3909 13.4238C23.6734 13.0876 23.7082 13.0138 23.126 13.554C22.0825 14.5206 20.5265 14.2274 19.9126 12.939C19.7516 12.6007 19.6368 12.2399 19.4841 11.8965C19.2155 11.2887 18.7481 11.2343 18.375 11.7745C17.9486 12.3896 17.555 13.0343 17.1224 13.6483C16.4264 14.6364 15.0785 14.7758 14.1632 13.9701C13.4692 13.3603 13.459 13.3869 12.7538 14.0306C12.4155 14.3543 12.0123 14.6023 11.5709 14.7584C10.8349 14.988 10.1871 14.6764 9.67561 14.1372C9.28507 13.7272 8.92631 13.7477 8.51528 14.0808C8.28926 14.263 8.05126 14.4298 7.80288 14.58C6.88959 15.1397 5.85021 14.9757 5.19727 14.1321C4.84578 13.6702 4.5305 13.1819 4.25424 12.6714C3.98261 12.1763 3.59822 12.3568 3.22921 12.4316C2.8602 12.5064 2.65622 12.6653 2.66545 13.1204C2.68595 15.9064 2.67262 18.6924 2.67262 21.4774ZM1.28679 11.7715C1.58404 11.6577 1.77265 11.589 1.9592 11.5132C4.08101 10.6511 4.6376 10.8315 5.82151 12.7647C6.51443 13.8974 6.51443 13.8974 7.57533 13.146C7.61735 13.1163 7.65938 13.0855 7.70141 13.0579C8.77563 12.3311 9.64178 12.3834 10.6279 13.2342C11.2265 13.7467 11.2654 13.7467 11.822 13.1563C12.8706 12.0421 13.8905 11.9949 15.0283 13.0056C15.5049 13.4289 15.6884 13.4228 16.0533 12.9031C16.5054 12.2614 16.9041 11.5798 17.3736 10.9555C18.3033 9.71423 19.9997 9.90489 20.6629 11.3092C20.8453 11.6946 20.9878 12.0995 21.1754 12.4818C21.4603 13.062 21.7381 13.103 22.1881 12.6581C23.1178 11.7356 23.9778 11.6423 25.0838 12.326C25.5041 12.5853 25.9202 12.857 26.3569 13.0876C26.689 13.2618 26.9914 13.1747 27.0529 12.7729C27.3133 11.0734 27.0416 9.52665 25.3698 8.6359C24.9946 8.4309 24.598 8.27407 24.2054 8.10904C23.4981 7.81075 22.7529 7.58217 22.0866 7.21214C21.6459 6.96613 21.2051 6.58482 20.9653 6.15226C20.7049 5.68382 20.421 5.54749 19.932 5.54954C17.8307 5.56287 15.7294 5.54955 13.6281 5.5434C13.4498 5.5434 13.1884 5.53622 13.1156 5.42859C12.9721 5.22974 12.8491 4.9417 12.8778 4.71107C12.9167 4.40356 13.1853 4.27851 13.5307 4.27749C16.1958 4.26929 18.8609 4.25596 21.5259 4.21803C22.3296 4.20676 22.8093 3.65529 22.84 2.81682C22.8708 1.97835 22.3716 1.39408 21.5598 1.32131C21.2195 1.29056 20.8771 1.26698 20.5347 1.26596C16.8781 1.25981 13.2222 1.2581 9.56696 1.26083C8.62784 1.24947 7.68876 1.28539 6.75326 1.36846C6.3912 1.41839 6.06154 1.60374 5.83073 1.88712C5.27414 2.64154 5.56217 4.22111 6.91931 4.24469C7.67066 4.25391 8.42098 4.28159 9.17437 4.29799C9.58438 4.30721 9.88266 4.45994 9.91342 4.90583C9.94007 5.28201 9.63563 5.53109 9.15079 5.54647C8.77461 5.55877 8.3974 5.53212 8.02326 5.56287C7.88796 5.57517 7.68091 5.6787 7.64605 5.78633C7.4103 6.51307 6.87934 6.95281 6.23357 7.26134C5.63393 7.54732 4.99534 7.75028 4.39569 8.03524C3.70585 8.36324 2.99448 8.6769 2.37229 9.11151C1.50102 9.71115 1.28064 10.6532 1.28679 11.7715Z" fill="black"/>
<path d="M2.67246 21.4774C2.67246 18.6924 2.68578 15.9064 2.66016 13.1214C2.66016 12.6652 2.86516 12.5064 3.227 12.4346C3.58883 12.3629 3.98244 12.1794 4.25202 12.6745C4.52828 13.1849 4.84356 13.6733 5.19505 14.1351C5.84799 14.9787 6.88737 15.1427 7.80067 14.5831C8.04904 14.4328 8.28704 14.266 8.51306 14.0839C8.92307 13.7508 9.28286 13.7292 9.67339 14.1403C10.1859 14.6794 10.8327 14.991 11.5687 14.7614C12.0101 14.6054 12.4133 14.3573 12.7515 14.0337C13.4568 13.3899 13.4691 13.3633 14.161 13.9732C15.0763 14.7778 16.4242 14.6395 17.1202 13.6513C17.5528 13.0363 17.9464 12.3967 18.3728 11.7776C18.7459 11.2374 19.2133 11.2917 19.4819 11.8996C19.6346 12.2429 19.7494 12.6037 19.9103 12.942C20.5254 14.2294 22.0803 14.5226 23.1238 13.557C23.7081 13.0179 23.6783 13.0896 24.3959 13.4279C25.4783 13.9404 25.7868 14.6774 25.7602 15.8746C25.6638 20.2648 25.6987 24.6581 25.6946 29.0493C25.6946 30.6545 25.2764 32.0782 24.0812 33.2222C23.1402 34.1232 22.0629 34.6675 20.7406 34.6675C16.4017 34.6675 12.0617 34.691 7.72277 34.6562C5.47488 34.6388 3.98347 33.3995 3.11834 31.4099C2.84876 30.7898 2.73806 30.0579 2.72678 29.3742C2.68271 26.744 2.70833 24.1117 2.70833 21.4815L2.67246 21.4774ZM17.7916 32.558C18.0069 32.5241 18.1104 32.517 18.2088 32.4903C19.2943 32.1941 20.3788 31.8886 21.4674 31.6016C21.6186 31.5732 21.758 31.5003 21.8676 31.3922C21.9771 31.284 22.0519 31.1457 22.0824 30.9948C22.3663 29.8888 22.6871 28.791 22.9403 27.6768C22.9601 27.5408 22.9521 27.4022 22.9169 27.2694C22.8817 27.1365 22.8199 27.0122 22.7353 26.9039C22.1346 26.2059 21.494 25.5406 20.839 24.8928C20.5971 24.6529 20.5541 24.4408 20.6463 24.1271C20.9005 23.2589 21.1445 22.3846 21.3464 21.5061C21.3946 21.3011 21.3362 20.9741 21.1967 20.8265C20.3644 19.9464 19.5075 19.0898 18.626 18.2568C18.5315 18.1799 18.4218 18.124 18.3041 18.0927C18.1864 18.0615 18.0635 18.0555 17.9433 18.0753C16.8158 18.349 15.6954 18.6504 14.5915 18.9979C14.4563 19.0531 14.3337 19.135 14.231 19.2387C14.1283 19.3425 14.0477 19.4659 13.9939 19.6016C13.6997 20.4544 13.4619 21.3288 13.2425 22.2052C13.1493 22.5752 12.9473 22.7372 12.5988 22.8202C11.7562 23.0324 10.9116 23.2466 10.0855 23.5141C9.84457 23.592 9.54219 23.8165 9.47044 24.0379C9.12295 25.1849 8.81544 26.3432 8.54689 27.5035C8.52879 27.6321 8.53767 27.763 8.57297 27.888C8.60826 28.0129 8.6692 28.1292 8.75189 28.2293C9.52989 29.0677 10.3304 29.8857 11.1669 30.6647C11.3503 30.8349 11.7316 30.9179 11.9869 30.8697C12.8705 30.6893 13.7428 30.4433 14.613 30.2004C14.94 30.1081 15.1747 30.1348 15.4279 30.4054C16.0245 31.0378 16.6579 31.6354 17.2883 32.2381C17.4443 32.3622 17.613 32.4694 17.7916 32.558ZM20.6986 16.6885C21.0543 16.6403 21.3044 16.4497 21.2941 16.0632C21.2839 15.6768 21.0532 15.4636 20.6791 15.4236C20.3819 15.3928 19.9913 15.7895 20.0282 16.0888C20.0774 16.4589 20.3111 16.6577 20.6986 16.6885ZM11.9151 16.2077C11.8306 16.2044 11.7462 16.2186 11.6674 16.2494C11.5885 16.2802 11.5169 16.327 11.457 16.3867C11.397 16.4465 11.3501 16.5179 11.319 16.5967C11.288 16.6754 11.2735 16.7597 11.2765 16.8443C11.296 17.2276 11.5256 17.4306 11.8916 17.4419C12.2575 17.4532 12.4932 17.2492 12.523 16.8668C12.529 16.783 12.5178 16.6989 12.49 16.6196C12.4623 16.5403 12.4186 16.4675 12.3616 16.4058C12.3047 16.344 12.2357 16.2946 12.1589 16.2605C12.0821 16.2265 11.9991 16.2085 11.9151 16.2077ZM7.84064 18.4351C7.53314 18.4485 7.29328 18.6545 7.30148 19.0358C7.30968 19.4171 7.54851 19.6354 7.9165 19.6785C8.23118 19.7154 8.59096 19.3433 8.56534 19.0184C8.53049 18.634 8.30293 18.4433 7.84064 18.4351ZM5.21657 20.6031C4.84449 20.6369 4.60156 20.8081 4.60156 21.2068C4.5983 21.2923 4.6129 21.3775 4.64444 21.457C4.67598 21.5365 4.72376 21.6086 4.78473 21.6686C4.84569 21.7286 4.91851 21.7752 4.99851 21.8055C5.07852 21.8357 5.16396 21.849 5.24938 21.8444C5.64299 21.8187 5.81929 21.542 5.83569 21.1945C5.85414 20.7999 5.58763 20.6328 5.21657 20.6031ZM24.5178 14.8527C24.5178 14.4631 24.2103 14.1157 23.8833 14.1351C23.5061 14.1628 23.2817 14.4006 23.2817 14.7666C23.2817 15.1325 23.4692 15.3816 23.8762 15.3816C24.2544 15.3867 24.4789 15.1971 24.5178 14.8547V14.8527ZM9.0553 16.1596C9.0553 15.6942 8.83902 15.4769 8.48026 15.4205C8.17275 15.3734 7.79247 15.7506 7.82117 16.0653C7.85397 16.4281 8.06205 16.6864 8.43618 16.6864C8.81032 16.6864 9.03583 16.4732 9.0553 16.1596ZM17.6307 16.0796C17.0782 16.1227 16.8445 16.3379 16.8445 16.7039C16.8399 16.7853 16.8519 16.8667 16.8796 16.9434C16.9074 17.02 16.9504 17.0903 17.0061 17.1498C17.0617 17.2094 17.1289 17.2571 17.2034 17.29C17.278 17.323 17.3585 17.3404 17.44 17.3414C17.7527 17.3681 18.1832 16.9827 18.0909 16.7059C18.0038 16.4445 17.7527 16.2375 17.6307 16.0796ZM5.84799 17.2604C5.80289 16.9396 5.58148 16.7418 5.20735 16.7346C5.12258 16.7373 5.03923 16.7571 4.96234 16.7929C4.88544 16.8286 4.8166 16.8796 4.75998 16.9428C4.70335 17.0059 4.66012 17.0799 4.63289 17.1602C4.60566 17.2405 4.595 17.3255 4.60156 17.4101C4.64358 17.7617 4.86601 17.9554 5.21657 17.9749C5.56713 17.9944 5.86132 17.6551 5.84799 17.2604ZM22.6584 18.019C22.2925 18.0097 21.9737 18.2896 21.9799 18.6166C21.987 18.9927 22.1992 19.2203 22.5734 19.2562C22.9147 19.289 23.2673 18.964 23.2478 18.634C23.2222 18.2527 22.9782 18.0682 22.6533 18.019H22.6584ZM6.53783 25.6913C6.57679 26.0542 6.72541 26.3207 7.11492 26.3586C7.44191 26.3904 7.78734 26.0644 7.78632 25.7313C7.78632 25.3377 7.54134 25.1357 7.1795 25.1163C6.81767 25.0968 6.58396 25.3182 6.53783 25.6913ZM7.12312 32.1602C7.1252 32.0731 7.10929 31.9864 7.07637 31.9057C7.04346 31.8249 6.99426 31.7518 6.93183 31.6909C6.86941 31.63 6.7951 31.5827 6.71356 31.5518C6.63201 31.5209 6.54498 31.5072 6.45788 31.5114C6.06222 31.5422 5.87772 31.8189 5.87567 32.1695C5.87567 32.561 6.15037 32.7373 6.52041 32.7507C6.9335 32.766 7.09545 32.5149 7.12312 32.1602ZM10.353 32.2443C10.3612 31.8538 10.0455 31.4878 9.72977 31.5135C9.36691 31.5442 9.12295 31.7584 9.11475 32.1336C9.10655 32.5088 9.34231 32.7394 9.71132 32.7609C10.0803 32.7824 10.311 32.5723 10.353 32.2443ZM18.6988 14.7604C19.0831 14.7604 19.365 14.4898 19.3763 14.1556C19.3876 13.8215 19.0565 13.4832 18.7244 13.515C18.3533 13.5519 18.1422 13.7774 18.137 14.1546C18.1309 14.5554 18.38 14.7215 18.6988 14.7604ZM13.5931 17.5106C13.7551 17.6336 13.9611 17.8765 14.2194 17.9616C14.5166 18.0589 14.8836 17.6674 14.8611 17.3342C14.8354 16.957 14.6058 16.7449 14.2337 16.7367C13.8442 16.7295 13.6597 16.9693 13.5931 17.5116V17.5106ZM7.33223 22.1826C7.33223 22.5834 7.60079 22.8766 7.91957 22.8766C8.23835 22.8766 8.61146 22.5352 8.57661 22.2267C8.53664 21.8628 8.31728 21.623 7.94315 21.623C7.56901 21.623 7.36811 21.8628 7.33223 22.1826ZM5.21452 25.0527C5.57738 24.9974 5.83877 24.8477 5.84492 24.4449C5.84525 24.3602 5.82846 24.2762 5.79554 24.1982C5.76262 24.1201 5.71426 24.0496 5.65336 23.9907C5.59247 23.9318 5.52029 23.8858 5.44118 23.8555C5.36207 23.8253 5.27765 23.8113 5.193 23.8145C4.82194 23.8493 4.60053 24.0595 4.61078 24.4469C4.62103 24.8344 4.85064 25.0209 5.21452 25.0537V25.0527ZM6.48043 28.9386C6.45276 28.5614 6.25288 28.34 5.87977 28.3061C5.79467 28.3036 5.70996 28.3185 5.63083 28.3499C5.5517 28.3813 5.47983 28.4285 5.41963 28.4887C5.35943 28.5489 5.31219 28.6208 5.28079 28.6999C5.2494 28.779 5.23452 28.8637 5.23707 28.9488C5.23666 29.0304 5.25295 29.1111 5.28497 29.1861C5.31698 29.2611 5.36402 29.3287 5.42319 29.3848C5.48236 29.4409 5.55241 29.4843 5.629 29.5123C5.70558 29.5402 5.78709 29.5522 5.86849 29.5474C6.25288 29.5557 6.43738 29.3066 6.48043 28.9396V28.9386ZM10.5652 20.0208C10.969 20.0208 11.3032 19.7072 11.2642 19.3833C11.2202 19.0235 10.9967 18.7775 10.6297 18.7877C10.2628 18.798 10.0363 19.0276 10.0281 19.4028C10.0199 19.7779 10.2382 19.9932 10.5652 20.0219V20.0208Z" fill="#ECBC4D"/>
<path d="M1.28723 11.7713C1.28108 10.653 1.50146 9.71103 2.36966 9.10626C2.99185 8.67165 3.7022 8.35799 4.39307 8.02998C4.99271 7.74503 5.6313 7.54207 6.23094 7.25609C6.87671 6.94858 7.40767 6.50782 7.64343 5.78107C7.67828 5.67345 7.88533 5.56992 8.02064 5.55762C8.39477 5.52687 8.77198 5.55762 9.14817 5.54122C9.633 5.52584 9.93744 5.27676 9.91079 4.90058C9.88004 4.45469 9.58073 4.30196 9.17174 4.29273C8.4204 4.27633 7.67008 4.24866 6.91668 4.23943C5.55955 4.22098 5.27664 2.64141 5.8281 1.88187C6.05891 1.59848 6.38857 1.41314 6.75063 1.36321C7.68613 1.28014 8.62522 1.24421 9.56433 1.25558C13.2209 1.24738 16.8769 1.24909 20.5321 1.2607C20.8724 1.2607 21.2148 1.2853 21.5571 1.31605C22.369 1.38883 22.8671 1.9772 22.8374 2.81157C22.8077 3.64594 22.3249 4.20253 21.5264 4.21586C18.8613 4.25378 16.1963 4.26711 13.5312 4.27531C13.1898 4.27531 12.9162 4.39831 12.8782 4.7089C12.8495 4.93953 12.9725 5.22756 13.116 5.42641C13.1939 5.53404 13.4553 5.54019 13.6286 5.54122C15.7299 5.55147 17.8312 5.56069 19.9325 5.54737C20.4214 5.54737 20.7053 5.68165 20.9657 6.15008C21.2056 6.58265 21.6463 6.96395 22.0871 7.20996C22.7534 7.58 23.4985 7.80858 24.2058 8.10686C24.5984 8.27189 24.9951 8.43384 25.3702 8.63372C27.0421 9.52447 27.3178 11.0712 27.0533 12.7707C26.9918 13.1725 26.6895 13.2597 26.3573 13.0854C25.9207 12.8548 25.5045 12.5832 25.0843 12.3238C23.9783 11.6401 23.1183 11.7375 22.1886 12.6559C21.7386 13.1008 21.4608 13.0598 21.1758 12.4796C20.9883 12.0973 20.8458 11.6924 20.6633 11.307C20.0001 9.90271 18.3058 9.71205 17.374 10.9534C16.9045 11.5807 16.5058 12.2623 16.0538 12.9009C15.6889 13.4196 15.5054 13.4257 15.0287 13.0034C13.891 11.9927 12.8711 12.0399 11.8225 13.1541C11.2659 13.7445 11.2269 13.7476 10.6283 13.232C9.64223 12.3812 8.77608 12.3289 7.70185 13.0557C7.65983 13.0834 7.6178 13.1141 7.57578 13.1438C6.51487 13.8952 6.51487 13.8952 5.82195 12.7625C4.63805 10.8293 4.07941 10.6489 1.95965 11.511C1.7731 11.5889 1.58449 11.6576 1.28723 11.7713Z" fill="white"/>
<path d="M17.792 32.5579C17.6128 32.4675 17.4437 32.3583 17.2877 32.232C16.6552 31.6334 16.0238 31.0317 15.4272 30.3992C15.1741 30.1307 14.9393 30.104 14.6123 30.1942C13.7421 30.4372 12.8698 30.6832 11.9862 30.8636C11.731 30.9158 11.3497 30.8328 11.1662 30.6586C10.3298 29.8795 9.52616 29.0616 8.75124 28.2231C8.66855 28.123 8.60761 28.0068 8.57231 27.8818C8.53702 27.7569 8.52814 27.626 8.54624 27.4974C8.81582 26.3432 9.12333 25.1849 9.46774 24.0451C9.53539 23.8237 9.83777 23.5992 10.0828 23.5213C10.9089 23.2538 11.7535 23.0395 12.5961 22.8274C12.9446 22.7392 13.1466 22.5772 13.2398 22.2123C13.4592 21.3359 13.697 20.4616 13.9912 19.6088C14.045 19.4731 14.1256 19.3496 14.2283 19.2459C14.331 19.1421 14.4536 19.0602 14.5888 19.005C15.6927 18.6555 16.8141 18.3541 17.9406 18.0825C18.0608 18.0627 18.1837 18.0686 18.3014 18.0999C18.4191 18.1312 18.5288 18.1871 18.6233 18.2639C19.5034 19.0963 20.3604 19.9528 21.194 20.8337C21.3335 20.9813 21.3919 21.3042 21.3437 21.5133C21.1387 22.3948 20.8978 23.2661 20.6436 24.1343C20.5514 24.4479 20.5944 24.6601 20.8363 24.9C21.4913 25.5478 22.1319 26.213 22.7326 26.9111C22.8172 27.0194 22.879 27.1437 22.9142 27.2765C22.9494 27.4094 22.9574 27.5479 22.9376 27.6839C22.6844 28.7981 22.3636 29.8959 22.0797 31.002C22.0492 31.1528 21.9744 31.2912 21.8649 31.3993C21.7553 31.5074 21.6159 31.5804 21.4647 31.6088C20.3761 31.8958 19.2916 32.2012 18.2061 32.4975C18.1108 32.5169 18.0072 32.5241 17.792 32.5579ZM20.047 21.5317C19.9958 21.4363 19.935 21.3463 19.8656 21.2632C19.3295 20.7363 18.8088 20.193 18.2461 19.7061C18.1437 19.6276 18.0267 19.57 17.902 19.5368C17.7773 19.5035 17.6473 19.4953 17.5193 19.5124C16.8354 19.6508 16.1609 19.8326 15.5 20.0567C15.3963 20.0993 15.3023 20.1626 15.2238 20.2425C15.1452 20.3225 15.0836 20.4176 15.0429 20.5221C14.8133 21.2345 14.6246 21.9571 14.4586 22.69C14.4432 22.7826 14.4474 22.8773 14.4707 22.9682C14.4939 23.0591 14.5359 23.1441 14.5939 23.2179C15.1037 23.7687 15.634 24.2986 16.1847 24.8077C16.259 24.8664 16.3446 24.9089 16.4362 24.9325C16.5278 24.9562 16.6234 24.9605 16.7167 24.9451C17.4619 24.7698 18.1989 24.5566 18.9339 24.3413C19.0681 24.3024 19.2619 24.2204 19.2947 24.1158C19.5571 23.2681 19.7908 22.4173 20.045 21.5317H20.047ZM18.1241 31.2172C19.0302 30.9609 19.8851 30.7313 20.7297 30.4648C20.8496 30.4269 20.9542 30.2219 20.9962 30.0743C21.194 29.3875 21.3929 28.6977 21.5354 27.9986C21.5542 27.8816 21.5492 27.762 21.5207 27.647C21.4922 27.532 21.4407 27.4239 21.3693 27.3293C20.8865 26.7799 20.3628 26.2643 19.8318 25.7651C19.7577 25.7071 19.6722 25.6653 19.5809 25.6426C19.4896 25.6198 19.3945 25.6165 19.3018 25.6329C18.5731 25.8081 17.8504 26.009 17.139 26.2427C17.0433 26.2812 16.9564 26.3388 16.8836 26.4119C16.8109 26.485 16.7537 26.5722 16.7157 26.6681C16.483 27.3795 16.2852 28.1032 16.1109 28.833C16.0934 28.9256 16.0954 29.0208 16.1167 29.1126C16.1381 29.2044 16.1784 29.2907 16.235 29.366C16.7475 29.938 17.2877 30.4812 17.8268 31.0265C17.917 31.1021 18.0161 31.1661 18.122 31.2172H18.1241ZM11.9657 29.6018C12.8678 29.3486 13.7083 29.1231 14.5385 28.8668C14.6462 28.833 14.7364 28.6434 14.7764 28.5091C14.9978 27.7741 15.2161 27.0371 15.3965 26.2919C15.4117 26.1989 15.407 26.1036 15.3828 26.0125C15.3586 25.9213 15.3154 25.8363 15.2561 25.763C14.7436 25.2146 14.2105 24.6827 13.655 24.1783C13.5754 24.1133 13.4833 24.0654 13.3843 24.0377C13.2853 24.01 13.1817 24.0031 13.0799 24.0174C12.3624 24.1804 11.6572 24.3751 10.9622 24.6068C10.8588 24.6472 10.7647 24.7082 10.6856 24.7861C10.6065 24.864 10.544 24.9571 10.502 25.0599C10.2755 25.7571 10.0856 26.4657 9.9331 27.1827C9.91777 27.2904 9.92469 27.4001 9.95343 27.505C9.98216 27.6099 10.0321 27.7078 10.1002 27.7926C10.5901 28.3379 11.1252 28.8473 11.6377 29.364C11.7399 29.4518 11.8489 29.5313 11.9637 29.6018H11.9657Z" fill="black"/>
<path d="M20.699 16.6884C20.3115 16.6577 20.0778 16.4588 20.0327 16.0888C19.9958 15.7895 20.3863 15.3928 20.6836 15.4236C21.0536 15.4635 21.2853 15.6921 21.2986 16.0632C21.3119 16.4342 21.0547 16.6403 20.699 16.6884Z" fill="black"/>
<path d="M11.915 16.2077C11.9996 16.2075 12.0834 16.2248 12.161 16.2584C12.2386 16.292 12.3085 16.3413 12.3662 16.4032C12.424 16.465 12.4683 16.5381 12.4965 16.6179C12.5247 16.6977 12.5361 16.7824 12.53 16.8668C12.5003 17.2492 12.2779 17.4532 11.8986 17.4419C11.5193 17.4306 11.299 17.2277 11.2836 16.8443C11.2806 16.7603 11.2949 16.6767 11.3255 16.5984C11.3561 16.5202 11.4024 16.4491 11.4616 16.3894C11.5207 16.3298 11.5915 16.2829 11.6695 16.2516C11.7475 16.2204 11.831 16.2055 11.915 16.2077Z" fill="black"/>
<path d="M7.84066 18.4351C8.3009 18.4433 8.5305 18.6339 8.55818 19.0183C8.5838 19.3432 8.22402 19.7153 7.90934 19.6784C7.54443 19.6354 7.30559 19.4027 7.29432 19.0357C7.28304 18.6688 7.52803 18.4504 7.84066 18.4351Z" fill="black"/>
<path d="M5.21624 20.603C5.5873 20.6307 5.85381 20.7978 5.83126 21.1945C5.81486 21.542 5.63855 21.8187 5.24494 21.8443C5.15953 21.849 5.07409 21.8357 4.99408 21.8054C4.91408 21.7752 4.84126 21.7286 4.7803 21.6686C4.71933 21.6086 4.67155 21.5365 4.64001 21.457C4.60847 21.3775 4.59387 21.2922 4.59713 21.2068C4.60635 20.808 4.84416 20.6389 5.21624 20.603Z" fill="black"/>
<path d="M24.5184 14.8548C24.4795 15.1972 24.255 15.3868 23.8767 15.3899C23.4667 15.3899 23.2812 15.1336 23.2822 14.7748C23.2833 14.4161 23.5067 14.1711 23.8839 14.1434C24.2089 14.1178 24.5215 14.4653 24.5184 14.8548Z" fill="black"/>
<path d="M9.05577 16.1596C9.03629 16.4732 8.80669 16.6875 8.44075 16.6864C8.07482 16.6854 7.85546 16.4281 7.82574 16.0653C7.79703 15.7506 8.18142 15.3734 8.48483 15.4205C8.83949 15.4779 9.05782 15.6942 9.05577 16.1596Z" fill="black"/>
<path d="M17.6309 16.0796C17.7529 16.2374 18.004 16.4445 18.0911 16.7059C18.1834 16.9826 17.7529 17.368 17.4402 17.3414C17.3587 17.3404 17.2782 17.3229 17.2037 17.29C17.1291 17.2571 17.0619 17.2094 17.0063 17.1498C16.9506 17.0902 16.9076 17.02 16.8799 16.9434C16.8521 16.8667 16.8401 16.7852 16.8447 16.7038C16.8447 16.3379 17.0784 16.1226 17.6309 16.0796Z" fill="black"/>
<path d="M5.84806 17.2606C5.86139 17.6552 5.54978 17.9924 5.21357 17.9781C4.87736 17.9637 4.64366 17.7649 4.59856 17.4133C4.592 17.3287 4.60266 17.2437 4.62989 17.1634C4.65712 17.0831 4.70035 17.0091 4.75698 16.946C4.8136 16.8828 4.88244 16.8318 4.95933 16.796C5.03623 16.7603 5.11958 16.7404 5.20435 16.7378C5.58156 16.7419 5.80296 16.9397 5.84806 17.2606Z" fill="black"/>
<path d="M22.6532 18.019C22.9761 18.0682 23.2201 18.2527 23.2426 18.634C23.2621 18.9641 22.9095 19.289 22.5681 19.2562C22.194 19.2204 21.9818 18.9928 21.9746 18.6166C21.9705 18.2896 22.2893 18.0098 22.6532 18.019Z" fill="black"/>
<path d="M6.53809 25.6915C6.58421 25.3153 6.80664 25.1041 7.17975 25.1205C7.55286 25.1369 7.79067 25.3378 7.79067 25.7284C7.79067 26.0615 7.44626 26.3875 7.11928 26.3557C6.72567 26.3208 6.57704 26.0543 6.53809 25.6915Z" fill="black"/>
<path d="M7.12335 32.1602C7.09567 32.5149 6.93372 32.766 6.52268 32.7507C6.15265 32.7373 5.87589 32.561 5.87794 32.1695C5.87794 31.8169 6.0645 31.5422 6.46016 31.5114C6.54708 31.5074 6.6339 31.5214 6.7152 31.5524C6.7965 31.5834 6.87055 31.6308 6.93275 31.6917C6.99495 31.7526 7.04397 31.8256 7.07676 31.9062C7.10955 31.9868 7.12541 32.0732 7.12335 32.1602Z" fill="black"/>
<path d="M10.3534 32.2444C10.3114 32.5724 10.0931 32.7836 9.71482 32.7569C9.33658 32.7303 9.11313 32.5068 9.11825 32.1296C9.12338 31.7524 9.36733 31.5402 9.73327 31.5094C10.0459 31.4879 10.3616 31.8539 10.3534 32.2444Z" fill="black"/>
<path d="M18.6985 14.7604C18.3798 14.7204 18.1307 14.5554 18.1368 14.1546C18.142 13.7774 18.3531 13.5519 18.7242 13.515C19.0563 13.4832 19.3863 13.8225 19.3761 14.1557C19.3658 14.4888 19.0829 14.7604 18.6985 14.7604Z" fill="black"/>
<path d="M13.5938 17.5116C13.6604 16.9694 13.8449 16.7296 14.2344 16.7378C14.6065 16.746 14.8361 16.9581 14.8617 17.3353C14.8843 17.6685 14.5173 18.06 14.22 17.9627C13.9617 17.8776 13.7557 17.6306 13.5938 17.5116Z" fill="black"/>
<path d="M7.33203 22.1827C7.36791 21.8629 7.56574 21.622 7.94705 21.6231C8.32836 21.6241 8.54054 21.8629 8.58052 22.2268C8.61537 22.5343 8.24943 22.8767 7.92348 22.8767C7.59752 22.8767 7.33101 22.5835 7.33203 22.1827Z" fill="black"/>
<path d="M5.21443 25.0538C4.85055 25.021 4.62094 24.8355 4.61069 24.448C4.60044 24.0605 4.82185 23.8504 5.19291 23.8156C5.27739 23.8127 5.36159 23.8268 5.44046 23.8572C5.51933 23.8877 5.59126 23.9337 5.65193 23.9925C5.71261 24.0514 5.76078 24.1219 5.79357 24.1998C5.82637 24.2777 5.8431 24.3614 5.84278 24.4459C5.84278 24.8488 5.57729 24.9984 5.21443 25.0538Z" fill="black"/>
<path d="M6.48109 28.9396C6.43804 29.3066 6.25456 29.5546 5.86607 29.5485C5.78468 29.5532 5.70317 29.5413 5.62658 29.5133C5.54999 29.4853 5.47994 29.442 5.42077 29.3859C5.3616 29.3298 5.31456 29.2621 5.28255 29.1871C5.25054 29.1121 5.23424 29.0314 5.23466 28.9499C5.2321 28.8648 5.24698 28.7801 5.27837 28.7009C5.30977 28.6218 5.35701 28.5499 5.41721 28.4897C5.47741 28.4295 5.54928 28.3823 5.62841 28.3509C5.70754 28.3195 5.79226 28.3046 5.87735 28.3072C6.25353 28.341 6.45854 28.5624 6.48109 28.9396Z" fill="black"/>
<path d="M10.5656 20.022C10.2386 19.9933 10.0213 19.7934 10.0285 19.407C10.0357 19.0206 10.2694 18.792 10.6302 18.792C10.991 18.792 11.2206 19.0277 11.2647 19.3875C11.3036 19.7084 10.9684 20.02 10.5656 20.022Z" fill="black"/>
<path d="M20.0449 21.5319C19.7907 22.4175 19.557 23.2745 19.2905 24.116C19.2577 24.2185 19.064 24.3026 18.9297 24.3415C18.1947 24.5568 17.4577 24.77 16.7125 24.9453C16.6192 24.9606 16.5237 24.9564 16.432 24.9327C16.3404 24.9091 16.2548 24.8666 16.1806 24.8079C15.6298 24.2995 15.0995 23.7695 14.5897 23.2181C14.5317 23.1443 14.4898 23.0593 14.4665 22.9684C14.4432 22.8775 14.4391 22.7828 14.4544 22.6902C14.6205 21.9614 14.8091 21.2347 15.0387 20.5223C15.0795 20.4178 15.141 20.3227 15.2196 20.2427C15.2981 20.1627 15.3921 20.0995 15.4958 20.0569C16.1567 19.8328 16.8312 19.651 17.5151 19.5126C17.6431 19.4954 17.7731 19.5037 17.8978 19.537C18.0226 19.5702 18.1395 19.6278 18.2419 19.7063C18.8087 20.1942 19.3294 20.7365 19.8635 21.2634C19.9328 21.3465 19.9936 21.4365 20.0449 21.5319Z" fill="white"/>
<path d="M18.1219 31.2172C18.0135 31.1666 17.9119 31.1025 17.8195 31.0265C17.2804 30.4812 16.7381 29.9379 16.2276 29.366C16.171 29.2906 16.1308 29.2043 16.1094 29.1125C16.0881 29.0207 16.0861 28.9255 16.1036 28.8329C16.2779 28.1041 16.4757 27.3795 16.7084 26.6681C16.7464 26.5722 16.8035 26.485 16.8763 26.4119C16.9491 26.3387 17.036 26.2812 17.1317 26.2427C17.8431 26.009 18.5668 25.8081 19.2945 25.6328C19.3872 25.6164 19.4823 25.6197 19.5736 25.6425C19.6649 25.6653 19.7504 25.707 19.8245 25.765C20.3606 26.2642 20.8843 26.7798 21.362 27.3292C21.4334 27.4238 21.4848 27.5319 21.5134 27.6469C21.5419 27.762 21.5469 27.8816 21.5281 27.9986C21.3856 28.6976 21.1867 29.3875 20.9889 30.0742C20.9469 30.2219 20.8423 30.4269 20.7224 30.4648C19.886 30.7313 19.028 30.9609 18.1219 31.2172Z" fill="white"/>
<path d="M11.9632 29.6019C11.8494 29.5313 11.7415 29.4518 11.6403 29.3641C11.1186 28.8516 10.5876 28.339 10.1028 27.7927C10.0347 27.7079 9.98474 27.61 9.956 27.5051C9.92726 27.4002 9.92034 27.2905 9.93567 27.1828C10.0882 26.4658 10.2781 25.7572 10.5046 25.06C10.5466 24.9572 10.6091 24.8641 10.6882 24.7862C10.7673 24.7084 10.8614 24.6474 10.9648 24.6069C11.6598 24.3753 12.3681 24.1805 13.0825 24.0175C13.1843 24.0032 13.2879 24.0101 13.3869 24.0378C13.4858 24.0655 13.578 24.1134 13.6575 24.1785C14.2131 24.6828 14.7461 25.2148 15.2586 25.7632C15.318 25.8364 15.3612 25.9215 15.3854 26.0126C15.4096 26.1038 15.4142 26.199 15.3991 26.2921C15.2187 27.0373 15.0003 27.7743 14.7789 28.5092C14.739 28.6435 14.6487 28.8331 14.5411 28.8669C13.7057 29.1232 12.8652 29.3487 11.9632 29.6019Z" fill="white"/>
</svg>
