<svg width="36" height="33" viewBox="0 0 36 33" fill="none" xmlns="http://www.w3.org/2000/svg">
<path d="M16.5112 32.7382C15.5873 32.7802 14.6635 32.8103 13.7407 32.8663C13.3314 32.8921 13.0606 32.7361 12.8458 32.3917C11.9584 30.971 11.0475 29.5644 10.1687 28.1383C9.99466 27.8574 9.80774 27.7703 9.4919 27.7864C7.89983 27.8693 6.30561 27.9123 4.71568 28.0146C4.16565 28.049 3.81759 27.8919 3.52538 27.4151C2.58754 25.8836 1.62177 24.3693 0.644181 22.8626C0.386355 22.4655 0.378835 22.1307 0.603359 21.7132C1.39188 20.2516 2.14065 18.7696 2.91949 17.3006C2.98482 17.2037 3.0181 17.0887 3.01463 16.9719C3.01116 16.855 2.97111 16.7422 2.90016 16.6494C1.99025 15.2428 1.10827 13.8189 0.199432 12.4123C-0.0390572 12.0431 -0.0626912 11.7235 0.146792 11.336C1.01337 9.70228 1.86742 8.06244 2.70894 6.41651C2.89156 6.05919 3.1322 5.85794 3.54472 5.84395C4.42777 5.81381 5.31083 5.75247 6.19388 5.72018C6.61177 5.70511 6.87712 5.95588 6.89001 6.32933C6.9029 6.72109 6.644 6.98154 6.20892 7.00737C5.4999 7.05149 4.78981 7.07732 4.08401 7.14512C4.00004 7.16087 3.92028 7.19399 3.8498 7.24235C3.77933 7.29072 3.7197 7.35327 3.67471 7.42602C2.94349 8.79716 2.22444 10.1755 1.51757 11.561C1.48448 11.6404 1.46907 11.7262 1.47241 11.8122C1.47575 11.8983 1.49776 11.9826 1.5369 12.0593C2.36123 13.3931 3.20131 14.7187 4.05715 16.036C4.1104 16.1014 4.17714 16.1545 4.2528 16.1916C4.32845 16.2288 4.41123 16.2491 4.49545 16.2512C6.04778 16.1974 7.60011 16.1135 9.15243 16.0521C9.2429 16.0589 9.33319 16.0369 9.41038 15.9891C9.48757 15.9414 9.5477 15.8704 9.58214 15.7863C10.2983 14.3929 11.0235 13.0042 11.7575 11.6201C11.865 11.4157 11.8252 11.2865 11.7156 11.1154C10.8068 9.69259 9.91409 8.26011 8.99666 6.8427C8.7528 6.45741 8.73346 6.13453 8.95047 5.72341C9.82063 4.09397 10.6754 2.45593 11.5148 0.809277C11.7167 0.414296 11.995 0.253935 12.4354 0.238868C14.2434 0.178598 16.0503 0.107566 17.8562 -5.81911e-05C18.3622 -0.0280405 18.6769 0.147387 18.9401 0.574656C19.8848 2.10292 20.8463 3.61971 21.8246 5.12502C22.0899 5.53291 22.1178 5.87839 21.8815 6.30888C21.1037 7.7489 20.3711 9.21151 19.5997 10.6548C19.4408 10.9507 19.4397 11.1649 19.6255 11.4512C20.5225 12.8342 21.3884 14.2376 22.2854 15.6205C22.5347 16.0048 22.5433 16.3395 22.3284 16.7409C21.5463 18.2057 20.7911 19.6855 20.0112 21.1535C19.8769 21.4064 19.8694 21.584 20.0327 21.838C20.9372 23.2317 21.8106 24.6459 22.7184 26.0354C22.9654 26.4153 23.0009 26.7457 22.7721 27.1493C22.3585 27.8843 21.9868 28.6431 21.5904 29.3889C21.4443 29.6655 21.1918 29.8506 20.9039 29.7387C20.6746 29.6299 20.4879 29.4478 20.3732 29.221C20.3088 29.0994 20.4087 28.8605 20.4882 28.7001C20.7836 28.0996 21.1145 27.5163 21.4013 26.9114C21.434 26.833 21.4498 26.7486 21.4478 26.6637C21.4458 26.5788 21.4259 26.4952 21.3895 26.4185C20.572 25.0969 19.7297 23.7903 18.9068 22.4708C18.862 22.3839 18.7912 22.3131 18.7044 22.2682C18.6177 22.2233 18.5191 22.2065 18.4223 22.2201C16.8689 22.2879 15.3155 22.3352 13.7632 22.4127C13.678 22.4259 13.5967 22.4573 13.5247 22.5048C13.4528 22.5524 13.392 22.615 13.3464 22.6882C12.6066 24.0687 11.8818 25.4581 11.1721 26.8565C11.1426 26.9306 11.1292 27.0101 11.1329 27.0897C11.1366 27.1694 11.1573 27.2473 11.1936 27.3182C12.02 28.6506 12.8605 29.9744 13.7149 31.2896C13.7693 31.3555 13.8374 31.4089 13.9143 31.446C13.9912 31.4832 14.0753 31.5032 14.1607 31.5048C15.8742 31.4542 17.5876 31.3843 19.3011 31.3133C19.6116 31.3003 19.892 31.3283 20.0724 31.6232C20.3496 32.0742 20.0273 32.5918 19.4418 32.6187C18.9466 32.6456 18.4513 32.6726 17.9561 32.6844C17.4609 32.6962 16.9893 32.6844 16.5091 32.6844L16.5112 32.7382ZM15.7141 11.8881C14.9245 11.9247 14.136 11.9667 13.3507 11.9958C13.1466 12.0022 13.0177 12.0431 12.9124 12.2487C12.2001 13.6478 11.4643 15.0265 10.7563 16.4234C10.7249 16.5032 10.7112 16.5889 10.716 16.6746C10.7208 16.7602 10.7441 16.8438 10.7843 16.9196C11.6093 18.2534 12.4487 19.5775 13.3024 20.892C13.3445 20.9525 13.3993 21.0031 13.463 21.0402C13.5266 21.0774 13.5975 21.1003 13.6708 21.1072C15.2643 21.0513 16.8564 20.9795 18.4471 20.892C18.52 20.8801 18.5895 20.8527 18.6509 20.8114C18.7123 20.7702 18.764 20.7162 18.8026 20.6531C19.5453 19.259 20.2758 17.8599 20.9942 16.4557C21.0223 16.389 21.0358 16.317 21.0338 16.2446C21.0317 16.1721 21.0142 16.101 20.9823 16.036C20.1372 14.6727 19.2821 13.3228 18.417 11.9861C18.3723 11.9283 18.3156 11.8808 18.2509 11.847C18.1862 11.8132 18.1149 11.7938 18.042 11.7902C17.2664 11.8063 16.4908 11.8515 15.7141 11.8881ZM15.2844 1.35493V1.53144C14.4819 1.53144 13.6794 1.51745 12.8769 1.54543C12.7924 1.56003 12.7122 1.59305 12.6418 1.64214C12.5715 1.69124 12.5127 1.75522 12.4698 1.82956C11.7371 3.19854 11.021 4.57541 10.3212 5.96018C10.2866 6.03881 10.2697 6.12408 10.2715 6.20999C10.2734 6.2959 10.294 6.38035 10.332 6.45741C11.1484 7.77903 11.9907 9.08452 12.8136 10.4029C12.858 10.4902 12.9286 10.5615 13.0155 10.6066C13.1024 10.6518 13.2012 10.6686 13.2981 10.6548C14.8504 10.587 16.4027 10.5396 17.9529 10.4621C18.0382 10.4496 18.1197 10.4187 18.192 10.3718C18.2643 10.3248 18.3257 10.2627 18.3719 10.1898C19.1045 8.82191 19.8125 7.44002 20.5365 6.06673C20.5912 5.98524 20.6189 5.88855 20.6156 5.7904C20.6124 5.69225 20.5783 5.59764 20.5183 5.52C19.6832 4.2285 18.8596 2.92733 18.0474 1.61646C17.9142 1.40121 17.7681 1.3474 17.5275 1.35278C16.7798 1.36677 16.0299 1.35493 15.2812 1.35493H15.2844ZM6.91364 17.3737C6.11116 17.3737 5.30223 17.5503 4.50512 17.5729C4.42746 17.5843 4.35326 17.6128 4.28774 17.6561C4.22222 17.6994 4.16698 17.7566 4.1259 17.8236C3.38824 19.2041 2.66417 20.5924 1.95372 21.9887C1.92153 22.067 1.9065 22.1514 1.90965 22.2361C1.9128 22.3207 1.93406 22.4037 1.97198 22.4794C2.78843 23.7996 3.62028 25.1116 4.46752 26.4153C4.51739 26.4847 4.58156 26.5427 4.65568 26.5852C4.72981 26.6277 4.81218 26.6538 4.89723 26.6617C6.46209 26.6187 8.02731 26.5573 9.59289 26.4777C9.67843 26.4644 9.76012 26.4328 9.83241 26.3851C9.9047 26.3373 9.96589 26.2746 10.0119 26.2011C10.7445 24.8336 11.4607 23.4574 12.1604 22.0726C12.1946 21.994 12.2116 21.9089 12.2101 21.8231C12.2086 21.7373 12.1887 21.6528 12.1518 21.5754C11.3289 20.243 10.4899 18.92 9.63478 17.6062C9.58079 17.5408 9.5139 17.4872 9.4383 17.4489C9.36269 17.4106 9.28 17.3883 9.1954 17.3834C8.43911 17.3608 7.67638 17.3737 6.91364 17.3737Z" fill="black"/>
<path d="M26.2602 23.5384C25.6156 23.9635 24.9399 24.2433 24.1793 24.2508C22.772 24.2659 21.7213 22.9152 21.9609 21.4311C22.3229 19.185 23.4885 17.5254 25.506 16.4696C25.5432 16.4462 25.5791 16.4206 25.6134 16.3932C25.275 15.7108 25.3416 15.0457 25.7531 14.3246C25.072 13.9684 24.4027 13.6165 23.7302 13.2699C23.5412 13.172 23.3328 13.1074 23.1491 13.0009C23.0049 12.9248 22.8962 12.7954 22.846 12.6402C22.7958 12.4849 22.8082 12.3162 22.8805 12.17C23.0309 11.859 23.3618 11.6846 23.6797 11.8396C24.6015 12.2916 25.5125 12.7684 26.4127 13.2624C26.6372 13.3862 26.8059 13.4776 27.0669 13.356C27.2708 13.2543 27.4983 13.2097 27.7255 13.2269C28.1412 13.2818 28.3109 13.0568 28.5441 12.7662C29.1053 12.0684 29.7016 11.3995 30.3306 10.7623C30.6754 10.4103 31.0944 10.4469 31.3501 10.7569C31.6057 11.0668 31.537 11.4371 31.1492 11.7643C30.4781 12.3131 29.9071 12.9744 29.4615 13.7187C29.7042 13.9221 29.9011 14.1749 30.0391 14.4602C30.1771 14.7456 30.253 15.057 30.2618 15.374C32.1472 15.4084 33.6469 16.207 34.8436 17.5803C35.4516 18.2788 35.9813 19.0504 35.9995 20.0384C36.0264 21.5139 34.9403 22.5428 33.4664 22.4492C33.2805 22.4374 33.0958 22.4115 32.868 22.3879C32.7842 22.7559 32.7165 23.1186 32.6177 23.4738C32.347 24.451 31.9087 25.3432 31.0503 25.9276C29.6882 26.8553 28.5731 26.8015 27.5471 25.5617C27.1507 25.0817 26.8499 24.5199 26.5115 23.9915C26.4191 23.8526 26.3472 23.6966 26.2602 23.5384ZM33.4664 21.1276C34.473 21.134 34.921 20.5765 34.6287 19.6811C34.1131 18.0958 31.9151 16.5891 30.2425 16.6676C29.5055 16.7042 29.1209 17.2122 29.2907 17.9225C29.6656 19.5078 31.7658 21.1168 33.4664 21.1276ZM27.7244 18.6576C27.7319 17.6427 26.9724 17.1874 26.0152 17.689C24.378 18.5424 23.4584 19.9254 23.2479 21.7572C23.1501 22.6063 23.7657 23.1014 24.5843 22.8948C26.1302 22.503 27.7158 20.3699 27.7244 18.6576ZM31.5563 21.9767C31.3877 21.938 31.2158 21.8465 31.0622 21.8691C29.9041 22.0542 28.7503 22.2695 27.5933 22.461C27.3291 22.5052 27.2786 22.6117 27.3946 22.8366C27.4521 22.9868 27.5241 23.1309 27.6094 23.2671C27.6463 23.312 27.6926 23.3482 27.7449 23.3733C27.7972 23.3984 27.8544 23.4118 27.9124 23.4124C28.8742 23.2596 29.8335 23.0946 30.7904 22.9174C31.4564 22.7947 31.4553 22.7861 31.566 22.1242C31.5666 22.0749 31.5633 22.0256 31.5563 21.9767ZM27.7512 16.3006C28.2282 16.3006 28.6107 16.1177 28.8492 15.6904C29.0103 15.3998 28.9566 15.1157 28.7471 14.8692C28.4334 14.5001 28.0295 14.4463 27.5783 14.5517C27.0272 14.6819 26.6705 15.1081 26.7189 15.5978C26.7661 16.0111 27.1894 16.2995 27.7512 16.3006ZM30.857 24.2358L28.4936 24.6523C29.1489 25.5068 30.207 25.326 30.857 24.2358ZM29.599 20.7799L28.847 19.9523L28.4506 20.9866L29.599 20.7799Z" fill="black"/>
<path d="M15.7143 11.8882C16.491 11.8516 17.2666 11.8064 18.0422 11.7903C18.1151 11.7939 18.1864 11.8133 18.2511 11.8471C18.3158 11.8809 18.3724 11.9284 18.4171 11.9862C19.283 13.3229 20.1367 14.6692 20.9782 16.0253C21.0101 16.0903 21.0276 16.1615 21.0296 16.2339C21.0317 16.3063 21.0182 16.3783 20.99 16.445C20.2738 17.8528 19.5433 19.2519 18.7985 20.6424C18.7599 20.7055 18.7081 20.7595 18.6467 20.8008C18.5854 20.842 18.5158 20.8695 18.4429 20.8813C16.8516 20.9674 15.2595 21.0392 13.6667 21.0966C13.5934 21.0896 13.5224 21.0667 13.4588 21.0295C13.3952 20.9924 13.3404 20.9418 13.2982 20.8813C12.4474 19.5654 11.608 18.2413 10.7801 16.9089C10.74 16.8331 10.7167 16.7495 10.7119 16.6639C10.7071 16.5782 10.7208 16.4926 10.7522 16.4128C11.4601 15.0136 12.196 13.6328 12.9083 12.238C13.0157 12.0324 13.1424 11.9915 13.3466 11.9851C14.1361 11.9593 14.9247 11.9173 15.71 11.8775L15.7143 11.8882Z" fill="#ECBC4D"/>
<path d="M15.2815 1.35485C16.0335 1.35485 16.7801 1.36668 17.5278 1.34839C17.7684 1.34839 17.9145 1.3979 18.0478 1.61207C18.8599 2.91935 19.6835 4.22053 20.5186 5.51561C20.5786 5.59324 20.6127 5.68786 20.616 5.78601C20.6192 5.88416 20.5916 5.98085 20.5368 6.06234C19.8128 7.43563 19.1048 8.81752 18.3722 10.1854C18.326 10.2583 18.2647 10.3204 18.1924 10.3674C18.1201 10.4144 18.0385 10.4452 17.9532 10.4577C16.403 10.5352 14.8507 10.5826 13.2984 10.6504C13.2015 10.6642 13.1027 10.6474 13.0159 10.6022C12.929 10.5571 12.8584 10.4859 12.8139 10.3985C11.991 9.08013 11.1488 7.77464 10.3323 6.45301C10.2948 6.37706 10.2741 6.29387 10.2717 6.20916C10.2693 6.12445 10.2852 6.04022 10.3184 5.96225C11.0202 4.5782 11.7364 3.20132 12.4669 1.83162C12.5092 1.75738 12.5671 1.69329 12.6367 1.64384C12.7063 1.59439 12.7858 1.56077 12.8698 1.54534C13.6722 1.51736 14.4747 1.53135 15.2772 1.53135L15.2815 1.35485Z" fill="white"/>
<path d="M33.4664 21.1276C31.7658 21.1168 29.6656 19.5079 29.2907 17.9279C29.121 17.2176 29.5056 16.7096 30.2425 16.673C31.9152 16.5891 34.1099 18.0958 34.6288 19.6865C34.921 20.5766 34.473 21.1341 33.4664 21.1276Z" fill="#ECBC4D"/>
<path d="M27.724 18.6578C27.7111 20.3701 26.1298 22.5032 24.5839 22.8928C23.7653 23.0995 23.1498 22.6044 23.2475 21.7552C23.4624 19.9256 24.3777 18.5405 26.0149 17.687C26.9742 17.1877 27.7315 17.6429 27.724 18.6578Z" fill="#ECBC4D"/>
<path d="M31.5565 21.9769C31.5632 22.0257 31.5661 22.075 31.5651 22.1243C31.4577 22.7862 31.4577 22.7948 30.7895 22.9175C29.832 23.094 28.8726 23.259 27.9115 23.4126C27.8535 23.4119 27.7964 23.3985 27.744 23.3735C27.6917 23.3484 27.6455 23.3121 27.6086 23.2673C27.5232 23.1311 27.4513 22.9869 27.3937 22.8368C27.2777 22.6118 27.3282 22.5053 27.5925 22.4612C28.7495 22.2696 29.9032 22.0543 31.0613 21.8692C31.216 21.8477 31.3879 21.9381 31.5565 21.9769Z" fill="#ECBC4D"/>
<path d="M27.7509 16.3008C27.189 16.3008 26.7658 16.0113 26.7217 15.598C26.6702 15.1083 27.0268 14.6821 27.5812 14.5519C28.0324 14.4443 28.4406 14.5002 28.75 14.8694C28.9584 15.1158 29.0132 15.4 28.852 15.6905C28.6125 16.1178 28.2279 16.2986 27.7509 16.3008Z" fill="#ECBC4D"/>
<path d="M30.8575 24.2358C30.2076 25.3261 29.1494 25.5112 28.4941 24.6523L30.8575 24.2358Z" fill="#ECBC4D"/>
<path d="M29.5996 20.78L28.4512 20.9867L28.8454 19.9578L29.5996 20.78Z" fill="#ECBC4D"/>
</svg>
