<svg width="36" height="36" viewBox="0 0 36 36" fill="none" xmlns="http://www.w3.org/2000/svg">
<path d="M15.5212 9.97813C15.5212 13.2438 12.8739 15.8911 9.60825 15.8911C6.34263 15.8911 3.69531 13.2438 3.69531 9.97813C3.69531 6.7125 6.34263 4.06519 9.60825 4.06519C12.8739 4.06519 15.5212 6.7125 15.5212 9.97813Z" fill="#ECBC4D"/>
<path fill-rule="evenodd" clip-rule="evenodd" d="M15.5212 9.97813C15.5212 9.87899 15.5188 9.78042 15.5139 9.68248C15.3599 6.5542 12.7747 4.06519 9.60825 4.06519C6.44176 4.06519 3.85662 6.5542 3.70258 9.68248C3.69775 9.78042 3.69531 9.87899 3.69531 9.97813C3.69531 10.0773 3.69775 10.1758 3.70258 10.2738C3.85662 13.402 6.44176 15.8911 9.60825 15.8911C12.7747 15.8911 15.3599 13.402 15.5139 10.2738C15.5188 10.1758 15.5212 10.0773 15.5212 9.97813ZM14.9218 9.68248C14.7684 6.88093 12.4481 4.65648 9.60825 4.65648C6.7684 4.65648 4.44809 6.88093 4.29468 9.68248H14.9218ZM4.29468 10.2738H14.9218C14.7684 13.0753 12.4481 15.2998 9.60825 15.2998C6.7684 15.2998 4.44809 13.0753 4.29468 10.2738Z" fill="black"/>
<path d="M32.3739 21.8781C34.2517 23.7558 34.2517 26.8003 32.3739 28.6781C30.4961 30.5559 27.4516 30.5559 25.5739 28.6781C23.6961 26.8003 23.6961 23.7558 25.5739 21.8781C27.4516 20.0003 30.4961 20.0003 32.3739 21.8781Z" fill="#ECBC4D"/>
<path fill-rule="evenodd" clip-rule="evenodd" d="M32.3739 21.8781C32.3041 21.8083 32.2328 21.7411 32.1599 21.6765C30.2715 20.0029 27.3819 20.07 25.5739 21.8781C23.7658 23.6861 23.6987 26.5757 25.3723 28.4641C25.4369 28.537 25.5041 28.6083 25.5739 28.6781C25.6436 28.7479 25.715 28.815 25.7879 28.8796C27.6763 30.5533 30.5659 30.4861 32.3739 28.6781C34.1819 26.8701 34.2491 23.9805 32.5754 22.0921C32.5108 22.0192 32.4437 21.9478 32.3739 21.8781ZM31.7435 22.0929C30.0854 20.6483 27.5678 20.7152 25.9894 22.2936C24.411 23.872 24.3441 26.3896 25.7887 28.0477L31.7435 22.0929ZM26.2043 28.4632L32.159 22.5085C33.6037 24.1665 33.5368 26.6841 31.9583 28.2625C30.3799 29.841 27.8623 29.9079 26.2043 28.4632Z" fill="black"/>
<path d="M26.2941 3.1121C28.0129 1.39333 30.7996 1.39334 32.5184 3.1121C34.2371 4.83087 34.2371 7.61754 32.5184 9.33631L28.6881 13.1666L24.8578 16.9969C23.139 18.7156 20.3524 18.7156 18.6336 16.9969C16.9148 15.2781 16.9148 12.4914 18.6336 10.7727L22.4639 6.94238L26.2941 3.1121Z" fill="#ECBC4D"/>
<path fill-rule="evenodd" clip-rule="evenodd" d="M26.2941 3.1121C28.0129 1.39333 30.7996 1.39334 32.5184 3.1121C34.2371 4.83087 34.2371 7.61754 32.5184 9.33631L24.8578 16.9969C23.139 18.7156 20.3524 18.7156 18.6336 16.9969C16.9148 15.2781 16.9148 12.4914 18.6336 10.7727L26.2941 3.1121ZM28.0647 12.9588L24.4422 16.5813C22.953 18.0706 20.5384 18.0706 19.0491 16.5813C17.5599 15.0921 17.5599 12.6775 19.0491 11.1882L22.6716 7.56571L28.0647 12.9588ZM28.4803 12.5433L23.0872 7.15016L26.7097 3.52765C28.199 2.03839 30.6135 2.03839 32.1028 3.52765C33.5921 5.01692 33.5921 7.4315 32.1028 8.92076L28.4803 12.5433Z" fill="black"/>
<path d="M28.4779 13.3768L32.5184 9.33631C34.2371 7.61754 34.2371 4.83087 32.5184 3.1121C30.7996 1.39334 28.0129 1.39334 26.2941 3.1121L22.2537 7.15258L28.4779 13.3768Z" fill="white"/>
<path fill-rule="evenodd" clip-rule="evenodd" d="M28.4779 12.5457L32.1028 8.92076C33.5921 7.4315 33.5921 5.01692 32.1028 3.52765C30.6135 2.03839 28.199 2.03839 26.7097 3.52765L23.0848 7.15258L28.4779 12.5457ZM28.4779 13.3768L22.2537 7.15258L26.2941 3.1121C28.0129 1.39334 30.7996 1.39334 32.5184 3.1121C34.2371 4.83087 34.2371 7.61754 32.5184 9.33631L28.4779 13.3768Z" fill="black"/>
<path d="M3.1121 25.2273C1.39333 23.5086 1.39334 20.7219 3.1121 19.0031C4.83087 17.2844 7.61754 17.2844 9.33631 19.0031L13.1666 22.8334L16.9969 26.6637C18.7156 28.3825 18.7156 31.1691 16.9969 32.8879C15.2781 34.6067 12.4914 34.6067 10.7727 32.8879L6.94238 29.0576L3.1121 25.2273Z" fill="#ECBC4D"/>
<path fill-rule="evenodd" clip-rule="evenodd" d="M3.1121 25.2273C1.39333 23.5086 1.39334 20.7219 3.1121 19.0031C4.83087 17.2844 7.61754 17.2844 9.33631 19.0031L16.9969 26.6637C18.7156 28.3825 18.7156 31.1691 16.9969 32.8879C15.2781 34.6067 12.4914 34.6067 10.7727 32.8879L3.1121 25.2273ZM12.9588 23.4567L16.5813 27.0792C18.0706 28.5685 18.0706 30.9831 16.5813 32.4723C15.0921 33.9616 12.6775 33.9616 11.1882 32.4724L7.56571 28.8498L12.9588 23.4567ZM12.5433 23.0412L7.15016 28.4343L3.52765 24.8118C2.03839 23.3225 2.03839 20.9079 3.52765 19.4187C5.01692 17.9294 7.4315 17.9294 8.92076 19.4187L12.5433 23.0412Z" fill="black"/>
<path d="M13.3464 23.0132L9.33631 19.0031C7.61754 17.2844 4.83087 17.2844 3.1121 19.0031C1.39334 20.7219 1.39334 23.5086 3.1121 25.2273L7.12217 29.2374L13.3464 23.0132Z" fill="white"/>
<path fill-rule="evenodd" clip-rule="evenodd" d="M12.5153 23.0132L8.92076 19.4187C7.4315 17.9294 5.01692 17.9294 3.52765 19.4187C2.03839 20.9079 2.03839 23.3225 3.52766 24.8118L7.12217 28.4063L12.5153 23.0132ZM13.3464 23.0132L7.12217 29.2374L3.1121 25.2273C1.39334 23.5086 1.39334 20.7219 3.1121 19.0031C4.83087 17.2844 7.61754 17.2844 9.33631 19.0031L13.3464 23.0132Z" fill="black"/>
</svg>
