<svg width="29" height="36" viewBox="0 0 29 36" fill="none" xmlns="http://www.w3.org/2000/svg">
<path d="M14.4401 0C17.2783 0.0490025 20.0554 0.285015 22.7406 1.20006C23.7476 1.54408 24.6837 2.03211 25.4267 2.78014C25.8347 3.19017 26.1197 3.7572 26.3537 4.29922C27.4378 6.80535 28.0178 9.45249 28.4429 12.1356C28.8412 14.7372 28.9769 17.3723 28.8479 20.001C28.6979 23.4612 28.1278 26.8494 27.0078 30.1296C26.7468 30.8956 26.3497 31.6196 25.9737 32.3417C25.1677 33.8898 23.7056 34.5338 22.1475 34.9958C19.0474 35.9149 15.8642 36.1129 12.653 35.9469C10.4359 35.8329 8.2528 35.5088 6.13569 34.8038C4.3866 34.2218 3.16854 33.1257 2.4355 31.4206C1.32244 28.8665 0.722412 26.1864 0.351393 23.4422C-0.492769 17.128 0.189332 10.7034 2.3405 4.70724C2.99453 2.91915 4.2636 1.8931 5.96869 1.27507C8.71683 0.279014 11.58 0.0520027 14.4401 0ZM0.704411 16.7589C0.704411 17.5919 0.721412 18.339 0.698411 19.084C0.68441 19.507 0.848419 19.803 1.15443 20.078C2.28449 21.0941 3.64856 21.6571 5.06664 22.1081C7.49476 22.8792 9.99489 23.2202 12.528 23.3452C16.3632 23.5332 20.1464 23.2402 23.8336 22.1061C25.2717 21.6631 26.6538 21.0881 27.7728 20.032C27.9348 19.878 28.1458 19.669 28.1538 19.478C28.1948 18.601 28.1718 17.7219 28.1718 16.8189C28.1113 16.8327 28.0529 16.8542 27.9978 16.8829C26.2367 18.2649 24.1656 18.925 22.0265 19.4C17.9203 20.3121 13.7711 20.4281 9.61287 19.88C6.48071 19.468 3.41555 18.795 0.704411 16.7589ZM25.7557 4.49323L25.6067 4.50223C25.1577 5.30228 24.4256 5.7533 23.6286 6.11932C22.0685 6.83435 20.4094 7.17437 18.7233 7.40138C15.8692 7.7854 13.0041 7.82241 10.1589 7.38738C7.62777 7.00036 5.03064 6.68235 3.16754 4.47623C2.89453 5.25527 2.64651 6.01131 2.3555 6.75035C2.18749 7.17337 2.29149 7.46239 2.61051 7.7584C3.57756 8.65845 4.76062 9.14047 5.99469 9.50749C9.54387 10.5635 13.1951 10.7736 16.8673 10.7326C19.0394 10.7086 21.1875 10.4875 23.2676 9.82651C24.4506 9.45149 25.5767 8.95446 26.4607 8.04742C26.6048 7.90041 26.7658 7.6224 26.7188 7.46239C26.4307 6.46434 26.0837 5.48128 25.7557 4.49323ZM24.5697 4.84225C24.3256 4.65724 24.2116 4.53024 24.0696 4.46823C23.2336 4.10821 22.4145 3.67419 21.5445 3.43018C18.5303 2.58413 15.4382 2.47213 12.335 2.64414C10.3219 2.75614 8.32381 3.02416 6.41571 3.71919C5.72467 3.97021 5.07764 4.34223 4.2936 4.71924C4.59361 4.93126 4.73862 5.07626 4.91363 5.14827C5.78668 5.50929 6.64272 5.94831 7.54877 6.18332C10.7489 7.03037 14.0201 7.15637 17.3083 6.87536C19.1864 6.71435 21.0415 6.41633 22.8036 5.7173C23.3796 5.48328 23.9216 5.16527 24.5697 4.84225ZM3.07753 31.1236C3.09354 31.1646 3.12954 31.2676 3.17054 31.3686C3.83657 33.0157 5.17064 33.8438 6.79573 34.3038C11.257 35.5678 15.7652 35.6038 20.2964 34.7608C21.6405 34.5108 22.9576 34.1458 24.1266 33.3927C24.9947 32.8317 25.4657 31.9837 25.8197 31.1276C18.2173 33.3847 10.6539 33.3927 3.07753 31.1236ZM5.63367 10.1855C5.58767 10.5205 5.52666 10.8306 5.50566 11.1426C5.35365 13.3817 5.20565 15.6208 5.07364 17.8619C5.06464 18.0019 5.18864 18.2549 5.29365 18.281C6.65572 18.619 8.02679 18.926 9.42386 19.248C9.49987 16.4269 9.57087 13.7387 9.64288 11.0476L5.63367 10.1855ZM23.4396 10.6006L19.2664 11.3606C19.3334 13.9607 19.3994 16.5519 19.4664 19.222C20.6054 18.982 21.7145 18.772 22.8096 18.508C23.8396 18.2599 23.8706 18.2329 23.8216 17.1869C23.7176 15.0008 23.5706 12.8107 23.4396 10.6006ZM5.35265 23.0012C5.34069 23.1423 5.34069 23.2841 5.35265 23.4252C5.73967 25.7853 6.15269 28.1425 6.51271 30.5076C6.62472 31.2456 6.98174 31.5446 7.70077 31.6006C8.57082 31.6676 9.43486 31.8177 10.2789 31.9287C10.3159 31.8377 10.3289 31.8217 10.3269 31.8077C10.0969 29.2405 9.86989 26.6724 9.61987 24.1073C9.59595 24.0233 9.55194 23.9465 9.49165 23.8834C9.43136 23.8204 9.3566 23.7729 9.27386 23.7452C7.99479 23.4772 6.70172 23.2462 5.35265 22.9952V23.0012ZM23.6046 22.9642L19.3484 23.8302C19.1064 26.5214 18.8664 29.1975 18.6183 31.9567C19.7184 31.7857 20.8185 31.6286 21.9045 31.4286C22.0385 31.4046 22.1955 31.1656 22.2305 31.0026C22.5525 29.5245 22.8846 28.0475 23.1426 26.5574C23.3466 25.3753 23.4506 24.1813 23.6046 22.9582V22.9642ZM14.0771 19.554V11.4186L10.3769 11.1186C10.3519 11.5726 10.3169 11.9996 10.3069 12.4276C10.2539 14.5898 10.2069 16.7519 10.1699 18.915C10.1699 19.043 10.3239 19.277 10.4219 19.286C11.628 19.39 12.838 19.464 14.0771 19.548V19.554ZM14.8151 11.4196V19.552C15.9882 19.473 17.1303 19.382 18.2743 19.328C18.6403 19.31 18.7563 19.191 18.7474 18.823C18.6953 16.8609 18.6723 14.8978 18.6263 12.9347C18.6153 12.4256 18.5573 11.9166 18.5213 11.4196H14.8151ZM5.96268 31.2206C5.95695 31.1109 5.94426 31.0017 5.92468 30.8936C5.23165 28.3305 4.88763 25.7103 4.65062 23.0732C4.62462 22.7732 4.51061 22.6492 4.2506 22.5342C3.41322 22.1722 2.58351 21.7878 1.76147 21.3811C1.42945 21.2151 1.13943 20.9621 0.772415 20.7081C0.980426 23.8212 1.47245 26.7954 2.4725 29.6735C2.52551 29.8256 2.69151 29.9616 2.83652 30.0536C3.77557 30.6496 4.83063 30.9346 5.96268 31.2206ZM28.1268 20.6681C26.9838 21.5951 25.7807 22.1421 24.5266 22.6072C24.3966 22.6552 24.2836 22.8972 24.2596 23.0622C23.9836 24.9543 23.7456 26.8514 23.4596 28.7415C23.3356 29.5525 23.1166 30.3496 22.9266 31.2186C24.0896 30.9376 25.1677 30.6286 26.1267 30.0116C26.274 29.9088 26.3855 29.7627 26.4457 29.5935C27.4358 26.7464 27.9108 23.8012 28.1268 20.6681ZM17.8323 31.9867C18.2457 29.307 18.4942 26.6044 18.5763 23.8942L14.8321 24.1223V32.1227L17.8323 31.9867ZM14.0781 32.1227V24.1223L10.2339 23.8982C10.4879 26.6364 10.7339 29.3065 10.9839 31.9877L14.0781 32.1227ZM1.94548 8.30043C1.92366 8.34137 1.90655 8.38465 1.89447 8.42944C1.31741 10.7376 0.942634 13.0916 0.774415 15.4648C0.772929 15.5691 0.793345 15.6726 0.834342 15.7686C0.87534 15.8645 0.936008 15.9508 1.01243 16.0218C1.5796 16.4804 2.17479 16.9033 2.79452 17.2879C3.26354 17.5699 3.79457 17.7469 4.2376 17.9419C4.47661 15.3068 4.71262 12.7417 4.92863 10.1765C4.93863 10.0545 4.79162 9.86551 4.66762 9.79451C3.78057 9.28848 2.87852 8.80546 1.94548 8.30043ZM24.4656 18.0009C25.8317 17.5009 27.0168 16.9509 27.9378 15.9648C28.0696 15.8018 28.1321 15.5935 28.1118 15.3848C27.8665 13.5387 27.6051 11.6946 27.3278 9.85251C27.2638 9.42349 27.1278 9.00547 27.0458 8.66845C26.1727 9.16848 25.3637 9.6895 24.4976 10.0925C24.0706 10.2925 24.0036 10.4865 24.0456 10.9066C24.2076 12.5287 24.345 14.1534 24.4576 15.7808C24.5056 16.4859 24.4656 17.2009 24.4656 18.0009ZM3.90658 4.11821C4.77362 3.73019 5.58266 3.30017 6.43671 3.00016C8.31781 2.34212 10.2809 2.09211 12.262 1.9681C15.0312 1.79509 17.7843 1.9091 20.5074 2.46813C22.0735 2.78914 23.5936 3.24717 24.9197 4.20422C25.1077 3.71519 25.0767 3.34817 24.6197 3.03816C23.9196 2.57113 23.1866 2.12411 22.4055 1.8381C20.5214 1.13806 18.5373 0.887046 16.5392 0.77004C13.2591 0.57503 10.0149 0.744039 6.85173 1.70009C5.91068 1.9871 4.99463 2.33912 4.2596 3.03716C3.93458 3.34717 3.72557 3.70819 3.90658 4.11821Z" fill="black"/>
<path d="M0.704768 16.7588C3.41591 18.7949 6.48107 19.4679 9.61323 19.88C13.7714 20.428 17.9207 20.312 22.0269 19.3999C24.166 18.9249 26.2371 18.2649 27.9982 16.8828C28.0532 16.8541 28.1117 16.8326 28.1722 16.8188C28.1722 17.7188 28.1952 18.6009 28.1542 19.4779C28.1462 19.6689 27.9352 19.878 27.7732 20.032C26.6541 21.088 25.273 21.663 23.834 22.1061C20.1468 23.2401 16.3636 23.5331 12.5334 23.3451C9.99525 23.2201 7.49512 22.8791 5.067 22.1081C3.64892 21.657 2.28485 21.094 1.15479 20.078C0.848776 19.8009 0.684767 19.5069 0.694768 19.0839C0.721769 18.3389 0.704768 17.5918 0.704768 16.7588Z" fill="white"/>
<path d="M25.7562 4.49332C26.0842 5.48137 26.4312 6.46442 26.7212 7.46247C26.7682 7.62248 26.6072 7.9005 26.4632 8.0475C25.5792 8.95455 24.4531 9.44758 23.27 9.8266C21.1879 10.4876 19.0398 10.7086 16.8697 10.7326C13.1955 10.7736 9.54433 10.5636 5.99515 9.50758C4.76109 9.14056 3.57802 8.65854 2.61097 7.75849C2.29196 7.45847 2.18795 7.17346 2.35596 6.75044C2.64698 6.0114 2.89299 5.25036 3.168 4.47632C5.0311 6.68243 7.62823 7.00045 10.1594 7.38747C13.0045 7.82249 15.8697 7.78749 18.7238 7.40147C20.4099 7.17446 22.069 6.83444 23.6291 6.1194C24.4291 5.75338 25.1581 5.30336 25.6072 4.50232L25.7562 4.49332Z" fill="white"/>
<path d="M24.57 4.84216C23.922 5.16517 23.38 5.48319 22.8029 5.7122C21.0408 6.41224 19.1857 6.71225 17.3076 6.87026C14.0195 7.15128 10.7513 7.02527 7.54814 6.17822C6.64209 5.93821 5.78605 5.50019 4.913 5.14317C4.73799 5.07117 4.59398 4.92616 4.29297 4.71415C5.07701 4.34213 5.72404 3.97011 6.41508 3.7141C8.32318 3.01906 10.3213 2.75105 12.3344 2.63904C15.4345 2.46703 18.5347 2.57904 21.5439 3.42508C22.4139 3.6691 23.233 4.10312 24.069 4.46314C24.212 4.53014 24.326 4.65715 24.57 4.84216Z" fill="#ECBC4D"/>
<path d="M3.07715 31.1235C10.6535 33.3927 18.2169 33.3847 25.8193 31.1235C25.4653 31.9796 24.9943 32.8236 24.1262 33.3887C22.9572 34.1417 21.6401 34.5067 20.296 34.7567C15.7648 35.6018 11.2566 35.5678 6.79434 34.3017C5.17226 33.8417 3.83519 33.0136 3.16915 31.3665C3.12915 31.2675 3.09415 31.1645 3.07715 31.1235Z" fill="white"/>
<path d="M5.63373 10.1855L9.64294 11.0436C9.57094 13.7387 9.49993 16.4269 9.42393 19.244C8.02386 18.922 6.65579 18.615 5.29372 18.277C5.18871 18.251 5.0647 17.998 5.07371 17.8579C5.20471 15.6168 5.35372 13.3777 5.50573 11.1386C5.52673 10.8306 5.58773 10.5206 5.63373 10.1855Z" fill="white"/>
<path d="M23.4398 10.6006C23.5708 12.8127 23.7178 15.0008 23.8228 17.1869C23.8718 18.233 23.8408 18.26 22.8108 18.508C21.7107 18.772 20.6106 18.982 19.4676 19.222C19.3996 16.5519 19.3336 13.9628 19.2676 11.3606L23.4398 10.6006Z" fill="white"/>
<path d="M5.35226 22.9951C6.70133 23.2461 7.9914 23.4771 9.27646 23.7392C9.35921 23.7668 9.43396 23.8143 9.49425 23.8774C9.55454 23.9404 9.59856 24.0173 9.62248 24.1012C9.87249 26.6663 10.0995 29.2344 10.3295 31.8016C10.3295 31.8156 10.3185 31.8316 10.2815 31.9226C9.43747 31.8116 8.57343 31.6616 7.70338 31.5946C6.98434 31.5386 6.62733 31.2395 6.51532 30.5015C6.1563 28.1364 5.74228 25.7793 5.35526 23.4191C5.3423 23.2781 5.3413 23.1363 5.35226 22.9951Z" fill="white"/>
<path d="M23.6044 22.9583C23.4504 24.1813 23.3464 25.3754 23.1424 26.5514C22.8844 28.0415 22.5524 29.5186 22.2304 30.9967C22.1954 31.1597 22.0383 31.3967 21.9043 31.4227C20.8143 31.6227 19.7162 31.7797 18.6182 31.9507C18.8662 29.1916 19.1062 26.5154 19.3482 23.8243L23.6044 22.9583Z" fill="white"/>
<path d="M14.0772 19.5481C12.8381 19.4641 11.628 19.3901 10.421 19.2841C10.321 19.2751 10.167 19.0411 10.169 18.9131C10.202 16.75 10.253 14.5879 10.306 12.4258C10.316 11.9977 10.351 11.5707 10.376 11.1167L14.0762 11.4167L14.0772 19.5481Z" fill="white"/>
<path d="M14.8154 11.4136H18.5216C18.5576 11.9136 18.6156 12.4196 18.6266 12.9287C18.6726 14.8918 18.6956 16.8549 18.7476 18.817C18.7566 19.185 18.6406 19.304 18.2746 19.322C17.1305 19.376 15.9885 19.467 14.8154 19.546V11.4136Z" fill="white"/>
<path d="M5.96271 31.2206C4.83065 30.9345 3.77559 30.6495 2.83754 30.0535C2.69254 29.9615 2.52653 29.8255 2.47353 29.6735C1.47347 26.7953 0.980448 23.8212 0.773438 20.708C1.14046 20.962 1.43047 21.215 1.76249 21.381C2.5792 21.7891 3.40757 22.1734 4.24762 22.5341C4.51163 22.6491 4.62564 22.7761 4.64764 23.0731C4.88465 25.7103 5.22867 28.3304 5.9217 30.8935C5.94229 31.0016 5.95599 31.1108 5.96271 31.2206Z" fill="white"/>
<path d="M28.127 20.668C27.9109 23.8011 27.4359 26.7463 26.4489 29.5934C26.3886 29.7626 26.2771 29.9087 26.1299 30.0115C25.1688 30.6285 24.0907 30.9375 22.9297 31.2185C23.1197 30.3495 23.3387 29.5524 23.4627 28.7414C23.7517 26.8513 23.9897 24.9542 24.2628 23.0621C24.2868 22.8971 24.3998 22.6551 24.5298 22.6071C25.7808 22.142 26.9839 21.595 28.127 20.668Z" fill="white"/>
<path d="M17.8322 31.9867L14.832 32.1237V24.1233L18.5762 23.8953C18.494 26.6051 18.2455 29.3073 17.8322 31.9867Z" fill="white"/>
<path d="M14.0786 32.1227L10.9844 31.9827C10.7364 29.3016 10.4844 26.6315 10.2344 23.8933L14.0786 24.1173V32.1227Z" fill="white"/>
<path d="M1.94548 8.30029C2.87853 8.81032 3.78058 9.29334 4.66962 9.80037C4.79363 9.87137 4.94064 10.0604 4.93064 10.1824C4.71462 12.7485 4.47861 15.3127 4.2396 17.9478C3.79858 17.7528 3.26555 17.5758 2.79652 17.2938C2.17713 16.9091 1.58228 16.4863 1.01543 16.0277C0.939012 15.9567 0.878344 15.8704 0.837347 15.7744C0.796349 15.6785 0.775934 15.575 0.777419 15.4707C0.944308 13.0955 1.31808 10.7395 1.89448 8.4293C1.90655 8.38451 1.92366 8.34123 1.94548 8.30029Z" fill="white"/>
<path d="M24.4659 18.0008C24.4659 17.2008 24.5059 16.4898 24.4579 15.7807C24.3499 14.152 24.2126 12.5252 24.0459 10.9005C24.0039 10.4804 24.0709 10.2834 24.4979 10.0864C25.364 9.68641 26.173 9.15938 27.0461 8.66235C27.1281 8.99937 27.2641 9.41739 27.3281 9.84641C27.6048 11.6885 27.8661 13.5326 28.1121 15.3787C28.1324 15.5874 28.0699 15.7957 27.9381 15.9587C27.0171 16.9468 25.832 17.5008 24.4659 18.0008Z" fill="white"/>
<path d="M3.90678 4.11816C3.72577 3.70814 3.93478 3.34712 4.25979 3.03711C4.98983 2.33707 5.91088 1.98705 6.85193 1.70204C10.0151 0.743986 13.2593 0.574977 16.5354 0.765987C18.5355 0.882993 20.5176 1.13301 22.4017 1.83404C23.1828 2.12506 23.9198 2.57208 24.6159 3.03911C25.0769 3.34912 25.1079 3.71614 24.9159 4.20517C23.5958 3.24812 22.0737 2.79009 20.5076 2.46908C17.7845 1.91005 15.0314 1.79604 12.2622 1.96905C10.2811 2.09306 8.31801 2.34307 6.43691 3.0001C5.58286 3.30012 4.77382 3.73014 3.90678 4.11816Z" fill="white"/>
</svg>
